G04*
G04 #@! TF.GenerationSoftware,Altium Limited,Altium Designer,18.1.6 (161)*
G04*
G04 Layer_Color=65535*
%FSLAX25Y25*%
%MOIN*%
G70*
G01*
G75*
%ADD13C,0.01000*%
%ADD30C,0.02362*%
%ADD31C,0.00984*%
%ADD32C,0.00787*%
%ADD33C,0.00500*%
%ADD34C,0.00600*%
D13*
X0Y0D02*
X186500D01*
X186500Y265000D02*
X186500Y0D01*
X0Y265000D02*
X186500D01*
X0Y0D02*
Y265000D01*
X140403Y84571D02*
G03*
X140403Y84571I-10832J0D01*
G01*
X168000Y32650D02*
Y92650D01*
Y32650D02*
X178000D01*
Y92650D01*
X168000D02*
X178000D01*
X108705Y64650D02*
X150043D01*
X108705Y104650D02*
X150043D01*
Y64650D02*
Y104650D01*
X108705Y64650D02*
Y104650D01*
D30*
X164000Y87650D02*
G03*
X164000Y87650I-1000J0D01*
G01*
X68512Y187169D02*
G03*
X68512Y187169I-1181J0D01*
G01*
D31*
X58768Y192878D02*
G03*
X58768Y192878I-492J0D01*
G01*
D32*
X167701Y116000D02*
X177701D01*
X167701D02*
Y156000D01*
X177701Y116000D02*
Y156000D01*
X167701D02*
X177701D01*
X167701Y257650D02*
X177701D01*
Y177650D02*
Y257650D01*
X167701Y177650D02*
X177701D01*
X167701D02*
Y257650D01*
X63394Y141894D02*
Y191106D01*
X112606Y141894D02*
Y191106D01*
X63394D02*
X112606D01*
X63394Y141894D02*
X112606D01*
X15500Y111500D02*
X25500D01*
Y21500D02*
Y111500D01*
X15500Y21500D02*
X25500D01*
X15500D02*
Y111500D01*
X75800D02*
X85800D01*
Y21500D02*
Y111500D01*
X75800Y21500D02*
X85800D01*
X75800D02*
Y111500D01*
D33*
X13000Y222000D02*
Y229791D01*
Y222000D02*
X20500D01*
Y223791D01*
X25799D01*
X30327D01*
X35500D01*
Y222000D02*
Y223791D01*
Y222000D02*
X43500D01*
X13000Y257000D02*
X43500D01*
X13000Y229791D02*
Y257000D01*
X43500Y222000D02*
Y229417D01*
Y257000D01*
X64937Y222000D02*
Y229791D01*
Y222000D02*
X72437D01*
Y223791D01*
X77736D01*
X82264D01*
X87437D01*
Y222000D02*
Y223791D01*
Y222000D02*
X95437D01*
X64937Y257000D02*
X95437D01*
X64937Y229791D02*
Y257000D01*
X95437Y222000D02*
Y229417D01*
Y257000D01*
X116874Y222000D02*
Y229791D01*
Y222000D02*
X124374D01*
Y223791D01*
X129673D01*
X134201D01*
X139374D01*
Y222000D02*
Y223791D01*
Y222000D02*
X147374D01*
X116874Y257000D02*
X147374D01*
X116874Y229791D02*
Y257000D01*
X147374Y222000D02*
Y229417D01*
Y257000D01*
X172858Y10516D02*
X173843Y11500D01*
X172858Y10516D02*
Y12484D01*
X173843Y11500D01*
D34*
X159502Y205500D02*
X165500D01*
Y208499D01*
X164500Y209499D01*
X160502D01*
X159502Y208499D01*
Y205500D01*
Y215497D02*
Y211498D01*
X165500D01*
Y215497D01*
X162501Y211498D02*
Y213497D01*
X159502Y217496D02*
X165500D01*
Y220495D01*
X164500Y221495D01*
X163501D01*
X162501Y220495D01*
Y217496D01*
Y220495D01*
X161501Y221495D01*
X160502D01*
X159502Y220495D01*
Y217496D01*
Y223494D02*
X164500D01*
X165500Y224494D01*
Y226493D01*
X164500Y227493D01*
X159502D01*
X160502Y233491D02*
X159502Y232491D01*
Y230492D01*
X160502Y229492D01*
X164500D01*
X165500Y230492D01*
Y232491D01*
X164500Y233491D01*
X162501D01*
Y231492D01*
X159502Y130500D02*
X165500D01*
Y134499D01*
X160502Y140497D02*
X159502Y139497D01*
Y137498D01*
X160502Y136498D01*
X164500D01*
X165500Y137498D01*
Y139497D01*
X164500Y140497D01*
X159502Y142496D02*
X165500D01*
Y145495D01*
X164500Y146495D01*
X160502D01*
X159502Y145495D01*
Y142496D01*
X3500Y8999D02*
Y5666D01*
X4166Y5000D01*
X5499D01*
X6166Y5666D01*
Y8999D01*
X10165Y8332D02*
X9498Y8999D01*
X8165D01*
X7499Y8332D01*
Y7666D01*
X8165Y6999D01*
X9498D01*
X10165Y6333D01*
Y5666D01*
X9498Y5000D01*
X8165D01*
X7499Y5666D01*
X11497Y8999D02*
Y5000D01*
X13497D01*
X14163Y5666D01*
Y6333D01*
X13497Y6999D01*
X11497D01*
X13497D01*
X14163Y7666D01*
Y8332D01*
X13497Y8999D01*
X11497D01*
X16163Y8332D02*
Y7666D01*
X15496D01*
X16829D01*
X16163D01*
Y5666D01*
X16829Y5000D01*
X19495D02*
X20828D01*
X21494Y5666D01*
Y6999D01*
X20828Y7666D01*
X19495D01*
X18828Y6999D01*
Y5666D01*
X19495Y5000D01*
X25493Y8332D02*
X24826Y8999D01*
X23494D01*
X22827Y8332D01*
Y5666D01*
X23494Y5000D01*
X24826D01*
X25493Y5666D01*
X26826Y5000D02*
Y7666D01*
X28159Y8999D01*
X29492Y7666D01*
Y5000D01*
Y6999D01*
X26826D01*
X30825Y5000D02*
Y8999D01*
X33490Y5000D01*
Y8999D01*
X34823Y4334D02*
X37489D01*
X38822Y8999D02*
Y6333D01*
X40155Y5000D01*
X41488Y6333D01*
Y8999D01*
X42821Y8332D02*
X43487Y8999D01*
X44820D01*
X45487Y8332D01*
Y7666D01*
X44820Y6999D01*
X44154D01*
X44820D01*
X45487Y6333D01*
Y5666D01*
X44820Y5000D01*
X43487D01*
X42821Y5666D01*
X50818Y5000D02*
Y8999D01*
X52817D01*
X53484Y8332D01*
Y6999D01*
X52817Y6333D01*
X50818D01*
X52151D02*
X53484Y5000D01*
X55483D02*
X56816D01*
X57483Y5666D01*
Y6999D01*
X56816Y7666D01*
X55483D01*
X54817Y6999D01*
Y5666D01*
X55483Y5000D01*
X58815D02*
X60815D01*
X61481Y5666D01*
X60815Y6333D01*
X59482D01*
X58815Y6999D01*
X59482Y7666D01*
X61481D01*
X64814Y5000D02*
X63481D01*
X62814Y5666D01*
Y6999D01*
X63481Y7666D01*
X64814D01*
X65480Y6999D01*
Y6333D01*
X62814D01*
X66813Y5000D02*
Y7666D01*
X67479D01*
X68146Y6999D01*
Y5000D01*
Y6999D01*
X68812Y7666D01*
X69479Y6999D01*
Y5000D01*
X71478D02*
X72811D01*
X73477Y5666D01*
Y6999D01*
X72811Y7666D01*
X71478D01*
X70812Y6999D01*
Y5666D01*
X71478Y5000D01*
X74810D02*
Y7666D01*
X76810D01*
X77476Y6999D01*
Y5000D01*
X81475Y8999D02*
Y5000D01*
X79475D01*
X78809Y5666D01*
Y6999D01*
X79475Y7666D01*
X81475D01*
X89472Y8999D02*
X86806D01*
Y6999D01*
X88139D01*
X86806D01*
Y5000D01*
X91472Y7666D02*
X92804D01*
X93471Y6999D01*
Y5000D01*
X91472D01*
X90805Y5666D01*
X91472Y6333D01*
X93471D01*
X94804Y8999D02*
Y5000D01*
X96803D01*
X97470Y5666D01*
Y6333D01*
Y6999D01*
X96803Y7666D01*
X94804D01*
X98803Y5000D02*
X100136D01*
X99469D01*
Y7666D01*
X98803D01*
X104134Y5000D02*
X102801D01*
X102135Y5666D01*
Y6999D01*
X102801Y7666D01*
X104134D01*
X104801Y6999D01*
Y6333D01*
X102135D01*
X106134Y5000D02*
Y7666D01*
X108133D01*
X108799Y6999D01*
Y5000D01*
X181184Y118133D02*
X180701Y117649D01*
Y116683D01*
X181184Y116200D01*
X181667D01*
X182150Y116683D01*
Y117649D01*
X182634Y118133D01*
X183117D01*
X183600Y117649D01*
Y116683D01*
X183117Y116200D01*
X181184Y121032D02*
X180701Y120549D01*
Y119582D01*
X181184Y119099D01*
X183117D01*
X183600Y119582D01*
Y120549D01*
X183117Y121032D01*
X180701Y121998D02*
X183600D01*
Y123931D01*
X181184Y129729D02*
X180701Y129246D01*
Y128279D01*
X181184Y127796D01*
X181667D01*
X182150Y128279D01*
Y129246D01*
X182634Y129729D01*
X183117D01*
X183600Y129246D01*
Y128279D01*
X183117Y127796D01*
X180701Y130695D02*
X183600D01*
Y132145D01*
X183117Y132628D01*
X181184D01*
X180701Y132145D01*
Y130695D01*
X183600Y133594D02*
X181667D01*
X180701Y134561D01*
X181667Y135527D01*
X183600D01*
X182150D01*
Y133594D01*
X180701Y141325D02*
Y139392D01*
X182150D01*
X181667Y140359D01*
Y140842D01*
X182150Y141325D01*
X183117D01*
X183600Y140842D01*
Y139876D01*
X183117Y139392D01*
X180701Y142291D02*
X182634D01*
X183600Y143258D01*
X182634Y144224D01*
X180701D01*
X181184Y150022D02*
X180701Y149539D01*
Y148573D01*
X181184Y148090D01*
X183117D01*
X183600Y148573D01*
Y149539D01*
X183117Y150022D01*
X182150D01*
Y149056D01*
X183600Y150989D02*
X180701D01*
X183600Y152921D01*
X180701D01*
Y153888D02*
X183600D01*
Y155337D01*
X183117Y155821D01*
X181184D01*
X180701Y155337D01*
Y153888D01*
X111466Y111082D02*
X110799Y111748D01*
X109467D01*
X108800Y111082D01*
Y110415D01*
X109467Y109749D01*
X110799D01*
X111466Y109082D01*
Y108416D01*
X110799Y107750D01*
X109467D01*
X108800Y108416D01*
X112799Y107750D02*
X114132D01*
X113465D01*
Y111748D01*
X112799Y111082D01*
X50000Y200999D02*
Y197667D01*
X50666Y197000D01*
X51999D01*
X52666Y197667D01*
Y200999D01*
X53999Y197000D02*
X55332D01*
X54665D01*
Y200999D01*
X53999Y200332D01*
X163500Y99500D02*
Y103499D01*
X165499D01*
X166166Y102832D01*
Y101499D01*
X165499Y100833D01*
X163500D01*
X167499Y98834D02*
X170165D01*
X174163Y102832D02*
X173497Y103499D01*
X172164D01*
X171497Y102832D01*
Y102166D01*
X172164Y101499D01*
X173497D01*
X174163Y100833D01*
Y100166D01*
X173497Y99500D01*
X172164D01*
X171497Y100166D01*
X175496Y103499D02*
Y99500D01*
X176829Y100833D01*
X178162Y99500D01*
Y103499D01*
X179495D02*
Y99500D01*
X181494D01*
X182161Y100166D01*
Y102832D01*
X181494Y103499D01*
X179495D01*
X180701Y177800D02*
Y179333D01*
Y178566D01*
X183000D01*
X180701Y180099D02*
X183000Y181632D01*
X180701D02*
X183000Y180099D01*
Y184698D02*
X180701D01*
Y185847D01*
X181084Y186231D01*
X181850D01*
X182234Y185847D01*
Y184698D01*
Y185464D02*
X183000Y186231D01*
X180701Y186997D02*
X183000Y188530D01*
X180701D02*
X183000Y186997D01*
X181084Y193128D02*
X180701Y192745D01*
Y191979D01*
X181084Y191596D01*
X182617D01*
X183000Y191979D01*
Y192745D01*
X182617Y193128D01*
X180701Y193895D02*
Y195428D01*
Y194661D01*
X183000D01*
X181084Y197727D02*
X180701Y197344D01*
Y196577D01*
X181084Y196194D01*
X181467D01*
X181850Y196577D01*
Y197344D01*
X182234Y197727D01*
X182617D01*
X183000Y197344D01*
Y196577D01*
X182617Y196194D01*
X183000Y200793D02*
X180701D01*
Y201942D01*
X181084Y202325D01*
X181850D01*
X182234Y201942D01*
Y200793D01*
Y201559D02*
X183000Y202325D01*
X180701Y203092D02*
Y204625D01*
Y203858D01*
X183000D01*
X181084Y206924D02*
X180701Y206541D01*
Y205774D01*
X181084Y205391D01*
X181467D01*
X181850Y205774D01*
Y206541D01*
X182234Y206924D01*
X182617D01*
X183000Y206541D01*
Y205774D01*
X182617Y205391D01*
X181084Y211523D02*
X180701Y211139D01*
Y210373D01*
X181084Y209990D01*
X182617D01*
X183000Y210373D01*
Y211139D01*
X182617Y211523D01*
X183000Y212289D02*
X181467D01*
X180701Y213055D01*
X181467Y213822D01*
X183000D01*
X181850D01*
Y212289D01*
X183000Y214588D02*
X180701D01*
X183000Y216121D01*
X180701D01*
Y216887D02*
X183000D01*
X181850D01*
Y218420D01*
X180701D01*
X183000D01*
X181084Y223019D02*
X180701Y222636D01*
Y221869D01*
X181084Y221486D01*
X182617D01*
X183000Y221869D01*
Y222636D01*
X182617Y223019D01*
X183000Y223785D02*
X181467D01*
X180701Y224552D01*
X181467Y225318D01*
X183000D01*
X181850D01*
Y223785D01*
X183000Y226084D02*
X180701D01*
X183000Y227617D01*
X180701D01*
Y228384D02*
X183000D01*
Y229917D01*
X181084Y234515D02*
X180701Y234132D01*
Y233366D01*
X181084Y232982D01*
X182617D01*
X183000Y233366D01*
Y234132D01*
X182617Y234515D01*
X183000Y235281D02*
X181467D01*
X180701Y236048D01*
X181467Y236814D01*
X183000D01*
X181850D01*
Y235281D01*
X183000Y237581D02*
X180701D01*
X183000Y239114D01*
X180701D01*
Y239880D02*
Y241413D01*
Y240646D01*
X183000D01*
X180701Y242179D02*
X183000Y243712D01*
X180701D02*
X183000Y242179D01*
X181084Y248311D02*
X180701Y247927D01*
Y247161D01*
X181084Y246778D01*
X182617D01*
X183000Y247161D01*
Y247927D01*
X182617Y248311D01*
X183000Y249077D02*
X181467D01*
X180701Y249844D01*
X181467Y250610D01*
X183000D01*
X181850D01*
Y249077D01*
X183000Y251376D02*
X180701D01*
X183000Y252909D01*
X180701D01*
X183000Y253676D02*
X180701D01*
Y254825D01*
X181084Y255208D01*
X181850D01*
X182234Y254825D01*
Y253676D01*
Y254442D02*
X183000Y255208D01*
X180701Y255975D02*
X183000Y257508D01*
X180701D02*
X183000Y255975D01*
X15700Y114500D02*
Y118499D01*
X17699D01*
X18366Y117832D01*
Y116499D01*
X17699Y115833D01*
X15700D01*
X22365Y114500D02*
X19699D01*
X22365Y117166D01*
Y117832D01*
X21698Y118499D01*
X20365D01*
X19699Y117832D01*
X76000Y114500D02*
Y118499D01*
X77999D01*
X78666Y117832D01*
Y116499D01*
X77999Y115833D01*
X76000D01*
X79999Y114500D02*
X81332D01*
X80665D01*
Y118499D01*
X79999Y117832D01*
X167000Y20999D02*
Y17000D01*
X169666D01*
X173664Y20999D02*
X170999D01*
Y17000D01*
X173664D01*
X170999Y18999D02*
X172332D01*
X174997Y20999D02*
Y17000D01*
X176997D01*
X177663Y17666D01*
Y20332D01*
X176997Y20999D01*
X174997D01*
X178996Y17000D02*
X180329D01*
X179663D01*
Y20999D01*
X178996Y20332D01*
M02*
