M48
;Layer_Color=9474304
;FILE_FORMAT=2:5
INCH,LZ
;TYPE=PLATED
T1F00S00C0.01000
T2F00S00C0.02500
T3F00S00C0.03000
T4F00S00C0.03150
T5F00S00C0.03543
T6F00S00C0.03937
T7F00S00C0.12850
%
T01
X0174102Y00075
X01631Y00759
X01433Y00845
X01799Y00922
X0111Y01036
X0108Y01445
X0103Y01503
X01038Y01585
X01044Y01735
X01111Y01766
X00828Y00814
X00736Y00839
X0037Y0091
X00508Y01595
X00445Y01896
X0164Y02153
T02
X006835Y012915
X01095Y01295
X01255Y018485
Y0191
X007Y0204
X00635
X00505Y0169
Y0154
Y0148
T03
X0114217Y0074807
Y0094807
X0144217
Y0074807
T04
X0024126Y02295
X0032
X0076063
X0083937
X0128
X0135874
T05
X00205Y00265
Y00365
Y00465
X00808
Y00365
Y00265
Y00565
Y00665
Y00765
Y00865
Y00965
Y01065
X0172701Y0121
Y0131
Y0141
Y0151
Y018265
Y019265
Y020265
X00205Y01065
Y00965
Y00865
Y00765
Y00665
Y00565
X0172701Y021265
Y022265
Y023265
Y024265
Y025265
T06
X0173Y003765
Y004765
Y005765
Y006765
Y007765
Y008765
T07
X0061Y0030938
X014
Y0211
X0018
M30
