G04*
G04 #@! TF.GenerationSoftware,Altium Limited,Altium Designer,18.1.6 (161)*
G04*
G04 Layer_Physical_Order=1*
G04 Layer_Color=255*
%FSLAX25Y25*%
%MOIN*%
G70*
G01*
G75*
%ADD10R,0.03150X0.03150*%
%ADD11O,0.07087X0.01181*%
%ADD12O,0.01181X0.07087*%
%ADD13C,0.01000*%
%ADD14C,0.06000*%
%ADD15R,0.06000X0.06000*%
%ADD16R,0.05906X0.05906*%
%ADD17C,0.05906*%
%ADD18C,0.15000*%
%ADD19R,0.05500X0.07500*%
%ADD20O,0.05500X0.07500*%
%ADD21R,0.10000X0.06000*%
%ADD22O,0.10000X0.06000*%
%ADD23C,0.02200*%
%ADD24C,0.04000*%
G36*
X183471Y184726D02*
X183232Y184590D01*
X182971Y184543D01*
X176360Y191154D01*
X176552Y191618D01*
X176688Y192650D01*
X176552Y193682D01*
X176154Y194643D01*
X175520Y195469D01*
X174694Y196102D01*
X173733Y196501D01*
X172701Y196636D01*
X171669Y196501D01*
X170707Y196102D01*
X169882Y195469D01*
X169248Y194643D01*
X168850Y193682D01*
X168714Y192650D01*
X168850Y191618D01*
X169248Y190656D01*
X169882Y189831D01*
X170707Y189197D01*
X171669Y188799D01*
X172701Y188663D01*
X173733Y188799D01*
X174197Y188991D01*
X176123Y187064D01*
X175932Y186602D01*
X170911D01*
X163929Y193584D01*
Y212674D01*
X163935Y212709D01*
X164335Y213225D01*
X164819Y213322D01*
X165514Y213786D01*
X165978Y214481D01*
X166141Y215300D01*
X165978Y216119D01*
X165529Y216791D01*
Y233315D01*
X171205Y238991D01*
X171669Y238799D01*
X172701Y238663D01*
X173733Y238799D01*
X174694Y239197D01*
X175520Y239830D01*
X176154Y240656D01*
X176552Y241618D01*
X176688Y242650D01*
X176552Y243682D01*
X176154Y244643D01*
X175520Y245469D01*
X174694Y246102D01*
X173733Y246501D01*
X172701Y246637D01*
X171669Y246501D01*
X170707Y246102D01*
X169882Y245469D01*
X169248Y244643D01*
X168850Y243682D01*
X168714Y242650D01*
X168850Y241618D01*
X169042Y241154D01*
X162919Y235030D01*
X162587Y234534D01*
X162471Y233949D01*
Y216791D01*
X162022Y216119D01*
X161980Y215907D01*
X161501Y215762D01*
X141381Y235881D01*
X140885Y236213D01*
X140300Y236329D01*
X13500D01*
X12915Y236213D01*
X12419Y235881D01*
X7919Y231381D01*
X7587Y230885D01*
X7471Y230300D01*
Y118000D01*
X7587Y117415D01*
X7919Y116919D01*
X16841Y107996D01*
X16649Y107532D01*
X16513Y106500D01*
X16649Y105468D01*
X17047Y104507D01*
X17681Y103681D01*
X18507Y103047D01*
X19468Y102649D01*
X20500Y102513D01*
X21532Y102649D01*
X22493Y103047D01*
X23319Y103681D01*
X23953Y104507D01*
X24351Y105468D01*
X24487Y106500D01*
X24351Y107532D01*
X23953Y108493D01*
X23319Y109319D01*
X22493Y109953D01*
X21532Y110351D01*
X20500Y110487D01*
X19468Y110351D01*
X19004Y110159D01*
X10529Y118633D01*
Y205916D01*
X11029Y206095D01*
X11960Y204960D01*
X13255Y203898D01*
X14731Y203109D01*
X16334Y202623D01*
X18000Y202459D01*
X19666Y202623D01*
X21269Y203109D01*
X22745Y203898D01*
X24039Y204960D01*
X25102Y206255D01*
X25891Y207731D01*
X26377Y209334D01*
X26541Y211000D01*
X26377Y212666D01*
X25891Y214269D01*
X25102Y215745D01*
X24039Y217039D01*
X22745Y218102D01*
X21269Y218891D01*
X19666Y219377D01*
X18000Y219541D01*
X16334Y219377D01*
X14731Y218891D01*
X13255Y218102D01*
X11960Y217039D01*
X11029Y215905D01*
X10529Y216084D01*
Y229666D01*
X14133Y233271D01*
X20895D01*
X21141Y232771D01*
X20850Y232391D01*
X20472Y231479D01*
X20344Y230500D01*
Y228500D01*
X20472Y227521D01*
X20850Y226609D01*
X21452Y225826D01*
X22235Y225224D01*
X23147Y224847D01*
X24126Y224718D01*
X25105Y224847D01*
X26017Y225224D01*
X26801Y225826D01*
X27402Y226609D01*
X27779Y227521D01*
X28250Y227412D01*
Y224750D01*
X30471D01*
Y178300D01*
X30587Y177715D01*
X30919Y177219D01*
X48664Y159473D01*
X48751Y159036D01*
X48500Y158729D01*
X47915Y158613D01*
X47419Y158281D01*
X46219Y157081D01*
X45887Y156585D01*
X45771Y156000D01*
Y94000D01*
X45887Y93415D01*
X46219Y92919D01*
X73271Y65867D01*
Y56000D01*
X73387Y55415D01*
X73719Y54919D01*
X77719Y50919D01*
X78215Y50587D01*
X78766Y50477D01*
X78794Y50432D01*
X78807Y49953D01*
X77981Y49319D01*
X77347Y48493D01*
X76949Y47532D01*
X76813Y46500D01*
X76949Y45468D01*
X77347Y44507D01*
X77981Y43681D01*
X78807Y43047D01*
X79768Y42649D01*
X80800Y42513D01*
X81832Y42649D01*
X82793Y43047D01*
X83619Y43681D01*
X84253Y44507D01*
X84651Y45468D01*
X84787Y46500D01*
X84651Y47532D01*
X84253Y48493D01*
X83619Y49319D01*
X82793Y49953D01*
X82750Y49971D01*
X82850Y50471D01*
X108200D01*
X108785Y50587D01*
X109281Y50919D01*
X113281Y54919D01*
X113613Y55415D01*
X113729Y56000D01*
Y70772D01*
X116217D01*
X117261Y70910D01*
X118234Y71313D01*
X119069Y71954D01*
X119711Y72790D01*
X119913Y73278D01*
X132985D01*
X160390Y46555D01*
X160632Y46397D01*
X160872Y46237D01*
X160882Y46235D01*
X160890Y46229D01*
X161174Y46177D01*
X161457Y46120D01*
X169304D01*
X169506Y45632D01*
X170147Y44797D01*
X170983Y44156D01*
X171956Y43753D01*
X173000Y43615D01*
X174044Y43753D01*
X175017Y44156D01*
X175471Y44504D01*
X175971Y44257D01*
Y42783D01*
X174532Y41345D01*
X174044Y41547D01*
X173000Y41684D01*
X171956Y41547D01*
X170983Y41144D01*
X170147Y40502D01*
X169506Y39667D01*
X169103Y38694D01*
X168965Y37650D01*
X169103Y36605D01*
X169506Y35632D01*
X170147Y34797D01*
X170983Y34156D01*
X171956Y33753D01*
X173000Y33615D01*
X174044Y33753D01*
X175017Y34156D01*
X175853Y34797D01*
X176494Y35632D01*
X176897Y36605D01*
X177034Y37650D01*
X176897Y38694D01*
X176695Y39182D01*
X177109Y39595D01*
X177571Y39404D01*
Y14635D01*
X177010Y14075D01*
X174024D01*
Y10395D01*
X173562Y10204D01*
X172677Y11088D01*
Y14075D01*
X167528D01*
Y8925D01*
X170514D01*
X171967Y7473D01*
X172124Y6681D01*
X172588Y5986D01*
X173283Y5522D01*
X174102Y5359D01*
X174922Y5522D01*
X175616Y5986D01*
X176081Y6681D01*
X176243Y7500D01*
X176081Y8319D01*
X175970Y8484D01*
X176206Y8925D01*
X179173D01*
Y11912D01*
X180181Y12920D01*
X180513Y13416D01*
X180629Y14002D01*
Y61550D01*
X180513Y62135D01*
X180181Y62631D01*
X176695Y66118D01*
X176897Y66605D01*
X177034Y67650D01*
X176897Y68694D01*
X176494Y69667D01*
X175853Y70502D01*
X175017Y71144D01*
X174044Y71547D01*
X173000Y71684D01*
X171956Y71547D01*
X171468Y71345D01*
X170029Y72783D01*
Y74257D01*
X170529Y74503D01*
X170983Y74156D01*
X171956Y73752D01*
X173000Y73615D01*
X174044Y73752D01*
X175017Y74156D01*
X175853Y74797D01*
X176494Y75632D01*
X176897Y76605D01*
X177034Y77650D01*
X176897Y78694D01*
X176695Y79182D01*
X178581Y81068D01*
X178913Y81564D01*
X179029Y82150D01*
Y89722D01*
X179529Y90133D01*
X179900Y90059D01*
X180719Y90222D01*
X181414Y90686D01*
X181878Y91381D01*
X182036Y92173D01*
X182971Y93108D01*
X183232Y93060D01*
X183471Y92924D01*
Y4029D01*
X3029D01*
Y260971D01*
X183471D01*
Y184726D01*
D02*
G37*
G36*
X125015Y232771D02*
X124724Y232391D01*
X124346Y231479D01*
X124218Y230500D01*
Y228500D01*
X124346Y227521D01*
X124724Y226609D01*
X125326Y225826D01*
X126109Y225224D01*
X127021Y224847D01*
X128000Y224718D01*
X128979Y224847D01*
X129891Y225224D01*
X130675Y225826D01*
X131276Y226609D01*
X131653Y227521D01*
X132124Y227412D01*
Y224750D01*
X139624D01*
Y232606D01*
X140124Y232813D01*
X160871Y212067D01*
Y192950D01*
X160987Y192365D01*
X161319Y191869D01*
X168748Y184440D01*
Y178697D01*
X176654D01*
Y185881D01*
X177115Y186072D01*
X180424Y182763D01*
Y161169D01*
X179924Y161017D01*
X179881Y161081D01*
X140681Y200281D01*
X140185Y200613D01*
X139600Y200729D01*
X111971D01*
X111622Y200799D01*
X111001Y200675D01*
X110638Y200432D01*
X110274Y200675D01*
X109654Y200799D01*
X109033Y200675D01*
X108669Y200432D01*
X108306Y200675D01*
X107685Y200799D01*
X107064Y200675D01*
X106701Y200432D01*
X106337Y200675D01*
X105717Y200799D01*
X105096Y200675D01*
X104732Y200432D01*
X104369Y200675D01*
X103748Y200799D01*
X103127Y200675D01*
X102764Y200432D01*
X102400Y200675D01*
X101780Y200799D01*
X101159Y200675D01*
X100795Y200432D01*
X100432Y200675D01*
X99811Y200799D01*
X99190Y200675D01*
X98827Y200432D01*
X98463Y200675D01*
X97843Y200799D01*
X97222Y200675D01*
X96858Y200432D01*
X96495Y200675D01*
X95874Y200799D01*
X95253Y200675D01*
X94890Y200432D01*
X94526Y200675D01*
X93906Y200799D01*
X93285Y200675D01*
X92921Y200432D01*
X92558Y200675D01*
X91937Y200799D01*
X91316Y200675D01*
X90953Y200432D01*
X90589Y200675D01*
X89969Y200799D01*
X89348Y200675D01*
X88984Y200432D01*
X88621Y200675D01*
X88000Y200799D01*
X87379Y200675D01*
X87016Y200432D01*
X86652Y200675D01*
X86032Y200799D01*
X85411Y200675D01*
X85047Y200432D01*
X84684Y200675D01*
X84063Y200799D01*
X83442Y200675D01*
X83079Y200432D01*
X82715Y200675D01*
X82094Y200799D01*
X81474Y200675D01*
X81110Y200432D01*
X80747Y200675D01*
X80126Y200799D01*
X79505Y200675D01*
X79142Y200432D01*
X78778Y200675D01*
X78157Y200799D01*
X77537Y200675D01*
X77173Y200432D01*
X76810Y200675D01*
X76189Y200799D01*
X75568Y200675D01*
X75205Y200432D01*
X74841Y200675D01*
X74220Y200799D01*
X73600Y200675D01*
X73236Y200432D01*
X72873Y200675D01*
X72252Y200799D01*
X71631Y200675D01*
X71449Y200553D01*
X71170Y200705D01*
X71207Y201253D01*
X71513Y201379D01*
X72140Y201860D01*
X72620Y202487D01*
X72923Y203217D01*
X73026Y204000D01*
X72923Y204783D01*
X72620Y205513D01*
X72140Y206140D01*
X71513Y206621D01*
X70783Y206923D01*
X70000Y207026D01*
X69729Y207263D01*
Y207900D01*
X69674Y208179D01*
X69624Y208458D01*
X69616Y208471D01*
X69613Y208485D01*
X69455Y208721D01*
X69302Y208961D01*
X69290Y208969D01*
X69281Y208981D01*
X69045Y209139D01*
X68812Y209302D01*
X68797Y209305D01*
X68785Y209313D01*
X68507Y209368D01*
X68229Y209429D01*
X62929Y209529D01*
X62914Y209526D01*
X62900Y209529D01*
X62621Y209474D01*
X62341Y209424D01*
X62329Y209416D01*
X62315Y209413D01*
X62078Y209255D01*
X61839Y209102D01*
X61831Y209090D01*
X61819Y209081D01*
X44473Y191736D01*
X43681Y191578D01*
X42986Y191114D01*
X42522Y190419D01*
X42359Y189600D01*
X42522Y188781D01*
X42986Y188086D01*
X43681Y187622D01*
X44500Y187459D01*
X45319Y187622D01*
X46014Y188086D01*
X46478Y188781D01*
X46636Y189573D01*
X60115Y203052D01*
X60697Y202927D01*
X60879Y202487D01*
X61360Y201860D01*
X61987Y201379D01*
X62717Y201077D01*
X62849Y201060D01*
Y199641D01*
X62756Y199177D01*
Y196724D01*
X64378D01*
Y195724D01*
X62756D01*
Y193272D01*
X62849Y192807D01*
Y191460D01*
X62495Y191317D01*
X62349Y191286D01*
X61849Y191620D01*
X61228Y191744D01*
X55323D01*
X54702Y191620D01*
X54176Y191269D01*
X53825Y190743D01*
X53701Y190122D01*
X53825Y189501D01*
X54067Y189138D01*
X53825Y188774D01*
X53701Y188154D01*
X53825Y187533D01*
X54068Y187169D01*
X53825Y186806D01*
X53701Y186185D01*
X53825Y185564D01*
X54067Y185201D01*
X53825Y184837D01*
X53701Y184217D01*
X53825Y183596D01*
X54068Y183232D01*
X53825Y182869D01*
X53701Y182248D01*
X53825Y181627D01*
X54067Y181264D01*
X53825Y180900D01*
X53801Y180780D01*
X54657D01*
X54702Y180749D01*
X55323Y180626D01*
X58276D01*
Y179933D01*
X55323D01*
X54702Y179809D01*
X54658Y179780D01*
X53801D01*
X53825Y179659D01*
X54068Y179295D01*
X53825Y178932D01*
X53701Y178311D01*
X53825Y177690D01*
X54067Y177327D01*
X53825Y176963D01*
X53701Y176343D01*
X53825Y175722D01*
X54068Y175358D01*
X53825Y174995D01*
X53701Y174374D01*
X53825Y173753D01*
X54067Y173390D01*
X53825Y173026D01*
X53701Y172406D01*
X53825Y171785D01*
X54068Y171421D01*
X53825Y171058D01*
X53701Y170437D01*
X53708Y170400D01*
X53228Y170254D01*
X53120Y170513D01*
X52640Y171140D01*
X52013Y171621D01*
X51283Y171923D01*
X50500Y172026D01*
X49717Y171923D01*
X48987Y171621D01*
X48360Y171140D01*
X47879Y170513D01*
X47577Y169783D01*
X47474Y169000D01*
X47577Y168217D01*
X47879Y167487D01*
X48360Y166860D01*
X48987Y166379D01*
X49717Y166077D01*
X49766Y166071D01*
X51861Y163977D01*
X51687Y163717D01*
X51571Y163132D01*
Y161882D01*
X51184Y161565D01*
X50827Y161636D01*
X33529Y178934D01*
Y224750D01*
X35750D01*
Y233271D01*
X72832D01*
X73079Y232771D01*
X72787Y232391D01*
X72409Y231479D01*
X72281Y230500D01*
Y228500D01*
X72409Y227521D01*
X72787Y226609D01*
X73388Y225826D01*
X74172Y225224D01*
X75084Y224847D01*
X76063Y224718D01*
X77042Y224847D01*
X77954Y225224D01*
X78737Y225826D01*
X79339Y226609D01*
X79716Y227521D01*
X80187Y227412D01*
Y224750D01*
X87687D01*
Y233271D01*
X124769D01*
X125015Y232771D01*
D02*
G37*
G36*
X83442Y191773D02*
X84063Y191650D01*
X84570Y191241D01*
X84619Y190996D01*
X84950Y190500D01*
X85446Y190168D01*
X86032Y190052D01*
X102835D01*
X103027Y189590D01*
X100419Y186981D01*
X100087Y186485D01*
X99971Y185900D01*
Y156146D01*
X99509Y155954D01*
X81655Y173808D01*
Y191343D01*
X82042Y191660D01*
X82094Y191650D01*
X82715Y191773D01*
X83079Y192016D01*
X83442Y191773D01*
D02*
G37*
G36*
X113150Y188154D02*
X113273Y187533D01*
X113516Y187169D01*
X113273Y186806D01*
X113150Y186185D01*
X113273Y185564D01*
X113516Y185201D01*
X113273Y184837D01*
X113150Y184217D01*
X113160Y184164D01*
X112843Y183777D01*
X106100D01*
X105515Y183661D01*
X105019Y183329D01*
X103529Y181840D01*
X103029Y182047D01*
Y185266D01*
X106133Y188371D01*
X112972D01*
X113150Y188154D01*
D02*
G37*
G36*
X156285Y164052D02*
Y117084D01*
X155833Y116991D01*
X155785Y117001D01*
X155465Y117480D01*
X123929Y149015D01*
Y181713D01*
X124429Y182047D01*
X124717Y181928D01*
X125500Y181825D01*
X126283Y181928D01*
X127013Y182230D01*
X127640Y182711D01*
X128121Y183337D01*
X128423Y184067D01*
X128526Y184850D01*
X128423Y185634D01*
X128121Y186363D01*
X127640Y186990D01*
X127013Y187471D01*
X126569Y187655D01*
Y188196D01*
X127013Y188380D01*
X127640Y188860D01*
X128121Y189487D01*
X128423Y190217D01*
X128526Y191000D01*
X128510Y191120D01*
X128984Y191353D01*
X156285Y164052D01*
D02*
G37*
G36*
X109227Y175623D02*
X109571Y175109D01*
Y150046D01*
X109109Y149854D01*
X103258Y155705D01*
X103270Y155977D01*
X103762Y156366D01*
X103800Y156359D01*
X104619Y156522D01*
X105314Y156986D01*
X105778Y157681D01*
X105936Y158473D01*
X107816Y160353D01*
X108148Y160849D01*
X108264Y161435D01*
Y175366D01*
X108655Y175758D01*
X109227Y175623D01*
D02*
G37*
G36*
X177271Y159367D02*
Y149716D01*
X176771Y149452D01*
X176654Y149532D01*
Y154953D01*
X168748D01*
Y147047D01*
X174491D01*
X175671Y145867D01*
Y144334D01*
X175171Y144087D01*
X174694Y144453D01*
X173733Y144851D01*
X172701Y144987D01*
X171669Y144851D01*
X170707Y144453D01*
X169882Y143819D01*
X169248Y142993D01*
X168850Y142032D01*
X168714Y141000D01*
X168850Y139968D01*
X169042Y139504D01*
X162019Y132481D01*
X161687Y131984D01*
X161571Y131399D01*
Y77391D01*
X161122Y76719D01*
X161054Y76381D01*
X160512Y76216D01*
X159344Y77384D01*
Y164685D01*
X159228Y165271D01*
X158896Y165767D01*
X128581Y196081D01*
X128085Y196413D01*
X127500Y196529D01*
X116819D01*
X116234Y196413D01*
X115738Y196081D01*
X113706Y194050D01*
X113244Y194241D01*
Y197671D01*
X138967D01*
X177271Y159367D01*
D02*
G37*
G36*
X100864Y150273D02*
X101022Y149481D01*
X101486Y148786D01*
X102181Y148322D01*
X103000Y148159D01*
X103819Y148322D01*
X104514Y148786D01*
X104766Y149164D01*
X105401Y149237D01*
X107622Y147016D01*
X107476Y146537D01*
X107181Y146478D01*
X106509Y146029D01*
X103496D01*
X79687Y169838D01*
Y170797D01*
X80149Y170988D01*
X100864Y150273D01*
D02*
G37*
G36*
X51000Y145040D02*
X51283Y145077D01*
X52013Y145379D01*
X52640Y145860D01*
X53120Y146487D01*
X53212Y146709D01*
X53732Y146658D01*
X53825Y146194D01*
X54068Y145831D01*
X53825Y145467D01*
X53701Y144846D01*
X53825Y144226D01*
X54067Y143862D01*
X53825Y143499D01*
X53701Y142878D01*
X53825Y142257D01*
X54176Y141731D01*
X54702Y141380D01*
X55323Y141256D01*
X61228D01*
X61849Y141380D01*
X62375Y141731D01*
X62727Y142257D01*
X62850Y142878D01*
X62727Y143499D01*
X62484Y143862D01*
X62727Y144226D01*
X62850Y144846D01*
X62730Y145448D01*
X62728Y145470D01*
X62796Y145590D01*
X62996Y145650D01*
X63398Y145639D01*
X66786Y142252D01*
Y141657D01*
X66399Y141340D01*
X66346Y141350D01*
X65726Y141227D01*
X65362Y140984D01*
X64999Y141227D01*
X64378Y141350D01*
X63757Y141227D01*
X63231Y140875D01*
X62880Y140349D01*
X62756Y139728D01*
Y133823D01*
X62880Y133202D01*
X63231Y132676D01*
X63757Y132325D01*
X64378Y132201D01*
X64999Y132325D01*
X65362Y132568D01*
X65726Y132325D01*
X66346Y132201D01*
X66491Y131720D01*
X66488Y131502D01*
X66211Y131289D01*
X65730Y130663D01*
X65428Y129933D01*
X65390Y129650D01*
X71311D01*
X71273Y129933D01*
X70971Y130663D01*
X70490Y131289D01*
X70183Y131525D01*
X70179Y131712D01*
X70283Y132201D01*
X70904Y132325D01*
X71268Y132568D01*
X71631Y132325D01*
X72252Y132201D01*
X72873Y132325D01*
X73236Y132568D01*
X73600Y132325D01*
X74220Y132201D01*
X74841Y132325D01*
X75205Y132568D01*
X75568Y132325D01*
X76189Y132201D01*
X76810Y132325D01*
X77173Y132568D01*
X77537Y132325D01*
X78157Y132201D01*
X78778Y132325D01*
X79142Y132568D01*
X79505Y132325D01*
X80126Y132201D01*
X80747Y132325D01*
X81110Y132568D01*
X81474Y132325D01*
X82094Y132201D01*
X82715Y132325D01*
X83079Y132568D01*
X83442Y132325D01*
X84063Y132201D01*
X84684Y132325D01*
X85047Y132568D01*
X85411Y132325D01*
X86032Y132201D01*
X86652Y132325D01*
X87016Y132568D01*
X87379Y132325D01*
X88000Y132201D01*
X88621Y132325D01*
X88984Y132568D01*
X89348Y132325D01*
X89969Y132201D01*
X90589Y132325D01*
X90953Y132568D01*
X91316Y132325D01*
X91937Y132201D01*
X92558Y132325D01*
X92921Y132568D01*
X93285Y132325D01*
X93906Y132201D01*
X94526Y132325D01*
X94890Y132568D01*
X95253Y132325D01*
X95874Y132201D01*
X96495Y132325D01*
X96858Y132568D01*
X97222Y132325D01*
X97843Y132201D01*
X98463Y132325D01*
X98827Y132568D01*
X99190Y132325D01*
X99811Y132201D01*
X100432Y132325D01*
X100795Y132568D01*
X101159Y132325D01*
X101780Y132201D01*
X101832Y132212D01*
X102219Y131894D01*
Y113481D01*
X85275Y96538D01*
X84757Y96727D01*
X84651Y97532D01*
X84253Y98493D01*
X83619Y99319D01*
X82793Y99953D01*
X81832Y100351D01*
X80800Y100487D01*
X79768Y100351D01*
X78807Y99953D01*
X77981Y99319D01*
X77347Y98493D01*
X76949Y97532D01*
X76813Y96500D01*
X76949Y95468D01*
X77347Y94507D01*
X77981Y93681D01*
X78807Y93047D01*
X78850Y93029D01*
X78750Y92529D01*
X76600D01*
X76015Y92413D01*
X75519Y92081D01*
X72519Y89081D01*
X72187Y88585D01*
X72071Y88000D01*
Y85391D01*
X71622Y84719D01*
X71459Y83900D01*
X71622Y83081D01*
X72086Y82386D01*
X72781Y81922D01*
X73600Y81759D01*
X74419Y81922D01*
X75114Y82386D01*
X75578Y83081D01*
X75741Y83900D01*
X75578Y84719D01*
X75129Y85391D01*
Y87366D01*
X77018Y89255D01*
X77275Y89221D01*
X77496Y88688D01*
X77347Y88493D01*
X76949Y87532D01*
X76813Y86500D01*
X76949Y85468D01*
X77347Y84507D01*
X77981Y83681D01*
X78807Y83047D01*
X79768Y82649D01*
X80448Y82560D01*
X80528Y82487D01*
X80784Y82031D01*
X80659Y81400D01*
X80742Y80981D01*
X80367Y80430D01*
X79768Y80351D01*
X78807Y79953D01*
X77981Y79319D01*
X77347Y78493D01*
X76949Y77532D01*
X76813Y76500D01*
X76949Y75468D01*
X77347Y74507D01*
X77981Y73681D01*
X78807Y73047D01*
X79768Y72649D01*
X80800Y72513D01*
X81832Y72649D01*
X82793Y73047D01*
X83619Y73681D01*
X84253Y74507D01*
X84651Y75468D01*
X84787Y76500D01*
X84651Y77532D01*
X84253Y78493D01*
X83864Y79000D01*
X83965Y79653D01*
X84314Y79886D01*
X84778Y80581D01*
X84936Y81373D01*
X105709Y102146D01*
X106171Y101954D01*
Y84034D01*
X82296Y60159D01*
X81832Y60351D01*
X80800Y60487D01*
X79768Y60351D01*
X78807Y59953D01*
X77981Y59319D01*
X77347Y58493D01*
X76949Y57532D01*
X76913Y57262D01*
X76379Y57029D01*
X76329Y57064D01*
Y66344D01*
X76829Y66377D01*
X76949Y65468D01*
X77347Y64507D01*
X77981Y63681D01*
X78807Y63047D01*
X79768Y62649D01*
X80300Y62579D01*
Y66500D01*
Y70421D01*
X79768Y70351D01*
X79304Y70159D01*
X69844Y79619D01*
Y126521D01*
X69863Y126529D01*
X70490Y127010D01*
X70971Y127637D01*
X71273Y128366D01*
X71311Y128650D01*
X65390D01*
X65428Y128366D01*
X65730Y127637D01*
X66211Y127010D01*
X66786Y126569D01*
Y78985D01*
X66902Y78400D01*
X67234Y77904D01*
X77141Y67996D01*
X76949Y67532D01*
X76821Y66557D01*
X76337Y66493D01*
X76329Y66500D01*
X76213Y67085D01*
X75881Y67581D01*
X48829Y94634D01*
Y144904D01*
X49329Y145238D01*
X49717Y145077D01*
X50000Y145040D01*
Y148000D01*
X51000D01*
Y145040D01*
D02*
G37*
G36*
X66419Y190419D02*
X66915Y190087D01*
X67500Y189971D01*
X76189D01*
X76241Y189981D01*
X76628Y189664D01*
Y169205D01*
X76744Y168620D01*
X77076Y168123D01*
X101308Y143891D01*
X101117Y143429D01*
X72285D01*
X65907Y149808D01*
Y150445D01*
Y182000D01*
Y190276D01*
X66369Y190468D01*
X66419Y190419D01*
D02*
G37*
G36*
X175671Y137666D02*
Y134334D01*
X175171Y134087D01*
X174694Y134453D01*
X173733Y134851D01*
X172701Y134987D01*
X171669Y134851D01*
X170707Y134453D01*
X169882Y133819D01*
X169248Y132993D01*
X168850Y132032D01*
X168714Y131000D01*
X168850Y129968D01*
X169248Y129007D01*
X169882Y128181D01*
X170707Y127547D01*
X171669Y127149D01*
X172701Y127013D01*
X173733Y127149D01*
X174694Y127547D01*
X175171Y127913D01*
X175671Y127666D01*
Y124334D01*
X175171Y124087D01*
X174694Y124453D01*
X173733Y124851D01*
X172701Y124987D01*
X171669Y124851D01*
X170707Y124453D01*
X169882Y123819D01*
X169248Y122993D01*
X168850Y122032D01*
X168714Y121000D01*
X168850Y119968D01*
X169248Y119007D01*
X169882Y118181D01*
X170707Y117547D01*
X171669Y117149D01*
X172701Y117013D01*
X173733Y117149D01*
X174694Y117547D01*
X175171Y117913D01*
X175671Y117666D01*
Y104934D01*
X167419Y96681D01*
X167087Y96185D01*
X166971Y95600D01*
Y72150D01*
X167087Y71564D01*
X167419Y71068D01*
X169305Y69182D01*
X169103Y68694D01*
X169052Y68310D01*
X168579Y68149D01*
X163416Y73312D01*
X163581Y73854D01*
X163919Y73922D01*
X164614Y74386D01*
X165078Y75081D01*
X165241Y75900D01*
X165078Y76719D01*
X164629Y77391D01*
Y130766D01*
X171205Y137341D01*
X171669Y137149D01*
X172701Y137013D01*
X173733Y137149D01*
X174694Y137547D01*
X175171Y137913D01*
X175671Y137666D01*
D02*
G37*
G36*
X111871Y126907D02*
Y110134D01*
X107708Y105971D01*
X107246Y106162D01*
Y126818D01*
X107746Y127065D01*
X107987Y126880D01*
X108717Y126577D01*
X109500Y126474D01*
X110283Y126577D01*
X111013Y126880D01*
X111371Y127154D01*
X111871Y126907D01*
D02*
G37*
G36*
X120838Y141124D02*
Y115601D01*
X115391Y110154D01*
X114929Y110346D01*
Y141081D01*
X115073Y141256D01*
X120677D01*
X120838Y141124D01*
D02*
G37*
G36*
X152854Y115765D02*
Y75181D01*
X152971Y74595D01*
X153302Y74099D01*
X167269Y60133D01*
X167765Y59801D01*
X168350Y59685D01*
X168802D01*
X169305Y59182D01*
X169103Y58694D01*
X168965Y57650D01*
X169103Y56605D01*
X169506Y55632D01*
X170147Y54797D01*
X170983Y54156D01*
X171956Y53752D01*
X173000Y53615D01*
X174044Y53752D01*
X175017Y54156D01*
X175471Y54504D01*
X175971Y54257D01*
Y51042D01*
X175471Y50796D01*
X175017Y51144D01*
X174044Y51547D01*
X173000Y51684D01*
X171956Y51547D01*
X170983Y51144D01*
X170147Y50502D01*
X169506Y49667D01*
X169304Y49179D01*
X162080D01*
X139391Y71303D01*
X139719Y71681D01*
X140199Y71313D01*
X141172Y70910D01*
X142217Y70772D01*
X146217D01*
X147261Y70910D01*
X148234Y71313D01*
X149069Y71954D01*
X149711Y72790D01*
X150114Y73763D01*
X150251Y74807D01*
X150114Y75851D01*
X149711Y76824D01*
X149069Y77660D01*
X148234Y78301D01*
X147261Y78704D01*
X146217Y78842D01*
X142217D01*
X141172Y78704D01*
X140199Y78301D01*
X139364Y77660D01*
X138723Y76824D01*
X138320Y75851D01*
X138182Y74807D01*
X138320Y73763D01*
X138723Y72790D01*
X139139Y72247D01*
X138764Y71914D01*
X136038Y74572D01*
X136035Y75072D01*
X143327Y82364D01*
X144119Y82522D01*
X144814Y82986D01*
X145278Y83681D01*
X145441Y84500D01*
X145278Y85319D01*
X144814Y86014D01*
X144119Y86478D01*
X143300Y86641D01*
X142481Y86478D01*
X141786Y86014D01*
X141322Y85319D01*
X141164Y84527D01*
X132974Y76336D01*
X119913D01*
X119711Y76824D01*
X119069Y77660D01*
X118234Y78301D01*
X117261Y78704D01*
X116217Y78842D01*
X112217D01*
X111172Y78704D01*
X110199Y78301D01*
X109364Y77660D01*
X108723Y76824D01*
X108320Y75851D01*
X108182Y74807D01*
X108320Y73763D01*
X108723Y72790D01*
X109364Y71954D01*
X110199Y71313D01*
X110671Y71118D01*
Y56634D01*
X107566Y53529D01*
X84133D01*
X83887Y54029D01*
X84253Y54507D01*
X84651Y55468D01*
X84787Y56500D01*
X84651Y57532D01*
X84459Y57996D01*
X108781Y82319D01*
X109113Y82815D01*
X109229Y83400D01*
Y90807D01*
X120217D01*
Y98807D01*
X109229D01*
Y101656D01*
X109729Y101923D01*
X110181Y101622D01*
X111000Y101459D01*
X111819Y101622D01*
X112514Y102086D01*
X112978Y102781D01*
X113136Y103573D01*
X123449Y113886D01*
X123781Y114383D01*
X123897Y114968D01*
Y144069D01*
X124359Y144260D01*
X152854Y115765D01*
D02*
G37*
G36*
X177271Y101554D02*
Y97534D01*
X176419Y96681D01*
X176087Y96185D01*
X175971Y95600D01*
Y91650D01*
X173500D01*
Y87650D01*
X172500D01*
Y91650D01*
X170029D01*
Y94967D01*
X176809Y101746D01*
X177271Y101554D01*
D02*
G37*
G36*
X104187Y110471D02*
Y104950D01*
X85224Y85987D01*
X84750Y86220D01*
X84787Y86500D01*
X84651Y87532D01*
X84253Y88493D01*
X83619Y89319D01*
X83311Y89555D01*
X83276Y90213D01*
X103725Y110662D01*
X104187Y110471D01*
D02*
G37*
%LPC*%
G36*
X172701Y256637D02*
X171669Y256501D01*
X170707Y256102D01*
X169882Y255469D01*
X169248Y254643D01*
X168850Y253681D01*
X168714Y252650D01*
X168850Y251618D01*
X169248Y250656D01*
X169882Y249831D01*
X170707Y249197D01*
X171669Y248799D01*
X172701Y248663D01*
X173733Y248799D01*
X174694Y249197D01*
X175520Y249831D01*
X176154Y250656D01*
X176552Y251618D01*
X176688Y252650D01*
X176552Y253681D01*
X176154Y254643D01*
X175520Y255469D01*
X174694Y256102D01*
X173733Y256501D01*
X172701Y256637D01*
D02*
G37*
G36*
Y236636D02*
X171669Y236501D01*
X170707Y236102D01*
X169882Y235469D01*
X169248Y234643D01*
X168850Y233682D01*
X168714Y232650D01*
X168850Y231618D01*
X169248Y230656D01*
X169882Y229831D01*
X170707Y229197D01*
X171669Y228799D01*
X172701Y228663D01*
X173733Y228799D01*
X174694Y229197D01*
X175520Y229831D01*
X176154Y230656D01*
X176552Y231618D01*
X176688Y232650D01*
X176552Y233682D01*
X176154Y234643D01*
X175520Y235469D01*
X174694Y236102D01*
X173733Y236501D01*
X172701Y236636D01*
D02*
G37*
G36*
Y226637D02*
X171669Y226501D01*
X170707Y226102D01*
X169882Y225469D01*
X169248Y224643D01*
X168850Y223681D01*
X168714Y222650D01*
X168850Y221618D01*
X169248Y220656D01*
X169882Y219830D01*
X170707Y219197D01*
X171669Y218799D01*
X172701Y218663D01*
X173733Y218799D01*
X174694Y219197D01*
X175520Y219830D01*
X176154Y220656D01*
X176552Y221618D01*
X176688Y222650D01*
X176552Y223681D01*
X176154Y224643D01*
X175520Y225469D01*
X174694Y226102D01*
X173733Y226501D01*
X172701Y226637D01*
D02*
G37*
G36*
Y216636D02*
X171669Y216501D01*
X170707Y216102D01*
X169882Y215469D01*
X169248Y214643D01*
X168850Y213682D01*
X168714Y212650D01*
X168850Y211618D01*
X169248Y210656D01*
X169882Y209830D01*
X170707Y209197D01*
X171669Y208799D01*
X172701Y208663D01*
X173733Y208799D01*
X174694Y209197D01*
X175520Y209830D01*
X176154Y210656D01*
X176552Y211618D01*
X176688Y212650D01*
X176552Y213682D01*
X176154Y214643D01*
X175520Y215469D01*
X174694Y216102D01*
X173733Y216501D01*
X172701Y216636D01*
D02*
G37*
G36*
Y206637D02*
X171669Y206501D01*
X170707Y206102D01*
X169882Y205469D01*
X169248Y204643D01*
X168850Y203681D01*
X168714Y202650D01*
X168850Y201618D01*
X169248Y200656D01*
X169882Y199830D01*
X170707Y199197D01*
X171669Y198799D01*
X172701Y198663D01*
X173733Y198799D01*
X174694Y199197D01*
X175520Y199830D01*
X176154Y200656D01*
X176552Y201618D01*
X176688Y202650D01*
X176552Y203681D01*
X176154Y204643D01*
X175520Y205469D01*
X174694Y206102D01*
X173733Y206501D01*
X172701Y206637D01*
D02*
G37*
G36*
X20500Y100487D02*
X19468Y100351D01*
X18507Y99953D01*
X17681Y99319D01*
X17047Y98493D01*
X16649Y97532D01*
X16513Y96500D01*
X16649Y95468D01*
X17047Y94507D01*
X17681Y93681D01*
X18507Y93047D01*
X19468Y92649D01*
X20500Y92513D01*
X21532Y92649D01*
X22493Y93047D01*
X23319Y93681D01*
X23953Y94507D01*
X24351Y95468D01*
X24487Y96500D01*
X24351Y97532D01*
X23953Y98493D01*
X23319Y99319D01*
X22493Y99953D01*
X21532Y100351D01*
X20500Y100487D01*
D02*
G37*
G36*
Y90487D02*
X19468Y90351D01*
X18507Y89953D01*
X17681Y89319D01*
X17047Y88493D01*
X16649Y87532D01*
X16513Y86500D01*
X16649Y85468D01*
X17047Y84507D01*
X17681Y83681D01*
X18507Y83047D01*
X19468Y82649D01*
X20500Y82513D01*
X21532Y82649D01*
X22493Y83047D01*
X23319Y83681D01*
X23953Y84507D01*
X24351Y85468D01*
X24487Y86500D01*
X24351Y87532D01*
X23953Y88493D01*
X23319Y89319D01*
X22493Y89953D01*
X21532Y90351D01*
X20500Y90487D01*
D02*
G37*
G36*
Y80487D02*
X19468Y80351D01*
X18507Y79953D01*
X17681Y79319D01*
X17047Y78493D01*
X16649Y77532D01*
X16513Y76500D01*
X16649Y75468D01*
X17047Y74507D01*
X17681Y73681D01*
X18507Y73047D01*
X19468Y72649D01*
X20500Y72513D01*
X21532Y72649D01*
X22493Y73047D01*
X23319Y73681D01*
X23953Y74507D01*
X24351Y75468D01*
X24487Y76500D01*
X24351Y77532D01*
X23953Y78493D01*
X23319Y79319D01*
X22493Y79953D01*
X21532Y80351D01*
X20500Y80487D01*
D02*
G37*
G36*
Y70487D02*
X19468Y70351D01*
X18507Y69953D01*
X17681Y69319D01*
X17047Y68493D01*
X16649Y67532D01*
X16513Y66500D01*
X16649Y65468D01*
X17047Y64507D01*
X17681Y63681D01*
X18507Y63047D01*
X19468Y62649D01*
X20500Y62513D01*
X21532Y62649D01*
X22493Y63047D01*
X23319Y63681D01*
X23953Y64507D01*
X24351Y65468D01*
X24487Y66500D01*
X24351Y67532D01*
X23953Y68493D01*
X23319Y69319D01*
X22493Y69953D01*
X21532Y70351D01*
X20500Y70487D01*
D02*
G37*
G36*
Y60487D02*
X19468Y60351D01*
X18507Y59953D01*
X17681Y59319D01*
X17047Y58493D01*
X16649Y57532D01*
X16513Y56500D01*
X16649Y55468D01*
X17047Y54507D01*
X17681Y53681D01*
X18507Y53047D01*
X19468Y52649D01*
X20500Y52513D01*
X21532Y52649D01*
X22493Y53047D01*
X23319Y53681D01*
X23953Y54507D01*
X24351Y55468D01*
X24487Y56500D01*
X24351Y57532D01*
X23953Y58493D01*
X23319Y59319D01*
X22493Y59953D01*
X21532Y60351D01*
X20500Y60487D01*
D02*
G37*
G36*
X37000Y93141D02*
X36181Y92978D01*
X35486Y92514D01*
X35022Y91819D01*
X34859Y91000D01*
X35022Y90181D01*
X35471Y89509D01*
Y63634D01*
X21996Y50159D01*
X21532Y50351D01*
X20500Y50487D01*
X19468Y50351D01*
X18507Y49953D01*
X17681Y49319D01*
X17047Y48493D01*
X16649Y47532D01*
X16513Y46500D01*
X16649Y45468D01*
X17047Y44507D01*
X17681Y43681D01*
X18507Y43047D01*
X19468Y42649D01*
X20500Y42513D01*
X21532Y42649D01*
X22493Y43047D01*
X23319Y43681D01*
X23953Y44507D01*
X24351Y45468D01*
X24487Y46500D01*
X24351Y47532D01*
X24159Y47996D01*
X38081Y61919D01*
X38413Y62415D01*
X38529Y63000D01*
Y89509D01*
X38978Y90181D01*
X39141Y91000D01*
X38978Y91819D01*
X38514Y92514D01*
X37819Y92978D01*
X37000Y93141D01*
D02*
G37*
G36*
X80800Y40487D02*
X79768Y40351D01*
X78807Y39953D01*
X77981Y39319D01*
X77347Y38493D01*
X76949Y37532D01*
X76813Y36500D01*
X76949Y35468D01*
X77347Y34507D01*
X77981Y33681D01*
X78807Y33047D01*
X79768Y32649D01*
X80800Y32513D01*
X81832Y32649D01*
X82793Y33047D01*
X83619Y33681D01*
X84253Y34507D01*
X84651Y35468D01*
X84787Y36500D01*
X84651Y37532D01*
X84253Y38493D01*
X83619Y39319D01*
X82793Y39953D01*
X81832Y40351D01*
X80800Y40487D01*
D02*
G37*
G36*
X20500D02*
X19468Y40351D01*
X18507Y39953D01*
X17681Y39319D01*
X17047Y38493D01*
X16649Y37532D01*
X16513Y36500D01*
X16649Y35468D01*
X17047Y34507D01*
X17681Y33681D01*
X18507Y33047D01*
X19468Y32649D01*
X20500Y32513D01*
X21532Y32649D01*
X22493Y33047D01*
X23319Y33681D01*
X23953Y34507D01*
X24351Y35468D01*
X24487Y36500D01*
X24351Y37532D01*
X23953Y38493D01*
X23319Y39319D01*
X22493Y39953D01*
X21532Y40351D01*
X20500Y40487D01*
D02*
G37*
G36*
X84753Y30453D02*
X76847D01*
Y22547D01*
X84753D01*
Y30453D01*
D02*
G37*
G36*
X24453D02*
X16547D01*
Y22547D01*
X24453D01*
Y30453D01*
D02*
G37*
G36*
X140000Y39479D02*
X138334Y39315D01*
X136731Y38829D01*
X135255Y38040D01*
X133960Y36978D01*
X132898Y35683D01*
X132109Y34207D01*
X131623Y32605D01*
X131459Y30938D01*
X131623Y29272D01*
X132109Y27670D01*
X132898Y26193D01*
X133960Y24899D01*
X135255Y23836D01*
X136731Y23047D01*
X138334Y22561D01*
X140000Y22397D01*
X141666Y22561D01*
X143269Y23047D01*
X144745Y23836D01*
X146039Y24899D01*
X147102Y26193D01*
X147891Y27670D01*
X148377Y29272D01*
X148541Y30938D01*
X148377Y32605D01*
X147891Y34207D01*
X147102Y35683D01*
X146039Y36978D01*
X144745Y38040D01*
X143269Y38829D01*
X141666Y39315D01*
X140000Y39479D01*
D02*
G37*
G36*
X61000D02*
X59334Y39315D01*
X57731Y38829D01*
X56255Y38040D01*
X54961Y36978D01*
X53898Y35683D01*
X53109Y34207D01*
X52623Y32605D01*
X52459Y30938D01*
X52623Y29272D01*
X53109Y27670D01*
X53898Y26193D01*
X54961Y24899D01*
X56255Y23836D01*
X57731Y23047D01*
X59334Y22561D01*
X61000Y22397D01*
X62666Y22561D01*
X64269Y23047D01*
X65745Y23836D01*
X67040Y24899D01*
X68102Y26193D01*
X68891Y27670D01*
X69377Y29272D01*
X69541Y30938D01*
X69377Y32605D01*
X68891Y34207D01*
X68102Y35683D01*
X67040Y36978D01*
X65745Y38040D01*
X64269Y38829D01*
X62666Y39315D01*
X61000Y39479D01*
D02*
G37*
G36*
X140000Y219541D02*
X138334Y219377D01*
X136731Y218891D01*
X135255Y218102D01*
X133960Y217039D01*
X132898Y215745D01*
X132109Y214269D01*
X131623Y212666D01*
X131459Y211000D01*
X131623Y209334D01*
X132109Y207731D01*
X132898Y206255D01*
X133960Y204960D01*
X135255Y203898D01*
X136731Y203109D01*
X138334Y202623D01*
X140000Y202459D01*
X141666Y202623D01*
X143269Y203109D01*
X144745Y203898D01*
X146039Y204960D01*
X147102Y206255D01*
X147891Y207731D01*
X148377Y209334D01*
X148541Y211000D01*
X148377Y212666D01*
X147891Y214269D01*
X147102Y215745D01*
X146039Y217039D01*
X144745Y218102D01*
X143269Y218891D01*
X141666Y219377D01*
X140000Y219541D01*
D02*
G37*
G36*
X80800Y110487D02*
X79768Y110351D01*
X78807Y109953D01*
X77981Y109319D01*
X77347Y108493D01*
X76949Y107532D01*
X76813Y106500D01*
X76949Y105468D01*
X77347Y104507D01*
X77981Y103681D01*
X78807Y103047D01*
X79768Y102649D01*
X80800Y102513D01*
X81832Y102649D01*
X82793Y103047D01*
X83619Y103681D01*
X84253Y104507D01*
X84651Y105468D01*
X84787Y106500D01*
X84651Y107532D01*
X84253Y108493D01*
X83619Y109319D01*
X82793Y109953D01*
X81832Y110351D01*
X80800Y110487D01*
D02*
G37*
G36*
X81300Y70421D02*
Y67000D01*
X84721D01*
X84651Y67532D01*
X84253Y68493D01*
X83619Y69319D01*
X82793Y69953D01*
X81832Y70351D01*
X81300Y70421D01*
D02*
G37*
G36*
X84721Y66000D02*
X81300D01*
Y62579D01*
X81832Y62649D01*
X82793Y63047D01*
X83619Y63681D01*
X84253Y64507D01*
X84651Y65468D01*
X84721Y66000D01*
D02*
G37*
G36*
X146217Y98842D02*
X142217D01*
X141172Y98704D01*
X140199Y98301D01*
X139364Y97660D01*
X138723Y96824D01*
X138320Y95851D01*
X138182Y94807D01*
X138320Y93763D01*
X138723Y92790D01*
X139364Y91954D01*
X140199Y91313D01*
X141172Y90910D01*
X142217Y90772D01*
X146217D01*
X147261Y90910D01*
X148234Y91313D01*
X149069Y91954D01*
X149711Y92790D01*
X150114Y93763D01*
X150251Y94807D01*
X150114Y95851D01*
X149711Y96824D01*
X149069Y97660D01*
X148234Y98301D01*
X147261Y98704D01*
X146217Y98842D01*
D02*
G37*
%LPD*%
D10*
X170102Y11500D02*
D03*
X176598D02*
D03*
D11*
X58276Y190122D02*
D03*
Y188154D02*
D03*
Y186185D02*
D03*
Y184217D02*
D03*
Y182248D02*
D03*
Y180280D02*
D03*
Y178311D02*
D03*
Y176343D02*
D03*
Y174374D02*
D03*
Y172406D02*
D03*
Y170437D02*
D03*
Y168469D02*
D03*
Y166500D02*
D03*
Y164532D02*
D03*
Y162563D02*
D03*
Y160594D02*
D03*
Y158626D02*
D03*
Y156657D02*
D03*
Y154689D02*
D03*
Y152720D02*
D03*
Y150752D02*
D03*
Y148783D02*
D03*
Y146815D02*
D03*
Y144846D02*
D03*
Y142878D02*
D03*
X117724D02*
D03*
Y144846D02*
D03*
Y146815D02*
D03*
Y148783D02*
D03*
Y150752D02*
D03*
Y152720D02*
D03*
Y154689D02*
D03*
Y156657D02*
D03*
Y158626D02*
D03*
Y160594D02*
D03*
Y162563D02*
D03*
Y164532D02*
D03*
Y166500D02*
D03*
Y168469D02*
D03*
Y170437D02*
D03*
Y172406D02*
D03*
Y174374D02*
D03*
Y176343D02*
D03*
Y178311D02*
D03*
Y180280D02*
D03*
Y182248D02*
D03*
Y184217D02*
D03*
Y186185D02*
D03*
Y188154D02*
D03*
Y190122D02*
D03*
D12*
X64378Y136776D02*
D03*
X66346D02*
D03*
X68315D02*
D03*
X70283D02*
D03*
X72252D02*
D03*
X74220D02*
D03*
X76189D02*
D03*
X78157D02*
D03*
X80126D02*
D03*
X82094D02*
D03*
X84063D02*
D03*
X86032D02*
D03*
X88000D02*
D03*
X89969D02*
D03*
X91937D02*
D03*
X93906D02*
D03*
X95874D02*
D03*
X97843D02*
D03*
X99811D02*
D03*
X101780D02*
D03*
X103748D02*
D03*
X105717D02*
D03*
X107685D02*
D03*
X109654D02*
D03*
X111622D02*
D03*
Y196224D02*
D03*
X109654D02*
D03*
X107685D02*
D03*
X105717D02*
D03*
X103748D02*
D03*
X101780D02*
D03*
X99811D02*
D03*
X97843D02*
D03*
X95874D02*
D03*
X93906D02*
D03*
X91937D02*
D03*
X89969D02*
D03*
X88000D02*
D03*
X86032D02*
D03*
X84063D02*
D03*
X82094D02*
D03*
X80126D02*
D03*
X78157D02*
D03*
X76189D02*
D03*
X74220D02*
D03*
X72252D02*
D03*
X70283D02*
D03*
X68315D02*
D03*
X66346D02*
D03*
X64378D02*
D03*
D13*
X115800Y189900D02*
Y190122D01*
X111300Y144000D02*
Y145500D01*
Y140122D02*
Y144000D01*
X64378Y182000D02*
Y196224D01*
Y150445D02*
Y182000D01*
X63743Y149809D02*
X64378Y150445D01*
X62717Y148783D02*
X63743Y149809D01*
X68315Y78985D02*
Y129185D01*
X64378Y149174D02*
X71652Y141900D01*
X63743Y149809D02*
X64378Y149174D01*
X62800Y150752D02*
X63743Y149809D01*
X64378Y149174D02*
Y150445D01*
Y146822D02*
Y149174D01*
X68200Y202200D02*
Y207900D01*
X66346Y200346D02*
X70000Y204000D01*
X112200Y56000D02*
Y74807D01*
X53468Y164532D02*
X58276D01*
X111622Y199200D02*
X139600D01*
X101500Y185900D02*
X105500Y189900D01*
X109200Y141900D02*
X111300Y144000D01*
X71652Y141900D02*
X109200D01*
X58276Y150752D02*
X62800D01*
X115800Y190122D02*
X117724D01*
X105500Y189900D02*
X115800D01*
X101500Y155300D02*
Y185900D01*
Y155300D02*
X111300Y145500D01*
Y140122D02*
X111622Y139800D01*
Y136776D02*
Y139800D01*
X113081Y146815D02*
X117724D01*
X111100Y149215D02*
X113081Y146815D01*
X111100Y149215D02*
Y176600D01*
X66346Y200346D02*
X68200Y202200D01*
X62900Y208000D02*
X68200Y207900D01*
X44500Y189600D02*
X62900Y208000D01*
X170102Y11500D02*
X174102Y7500D01*
X112200Y74807D02*
X114217D01*
X108200Y52000D02*
X112200Y56000D01*
X78800Y52000D02*
X108200D01*
X74800Y56000D02*
X78800Y52000D01*
X74800Y56000D02*
Y66500D01*
X47300Y94000D02*
X74800Y66500D01*
X47300Y94000D02*
Y156000D01*
X48500Y157200D01*
X53100D01*
Y163132D01*
X54500Y164532D01*
X58276D01*
X133607Y74807D02*
X161457Y47650D01*
X173000D01*
X169435Y61214D02*
X173000Y57650D01*
X168350Y61214D02*
X169435D01*
X154384Y75181D02*
X168350Y61214D01*
X154384Y75181D02*
Y116398D01*
X122400Y148382D02*
X154384Y116398D01*
X122400Y148382D02*
Y183900D01*
X122083Y184217D02*
X122400Y183900D01*
X117724Y184217D02*
X122083D01*
X86032Y191581D02*
Y196224D01*
Y191581D02*
X113400D01*
X116819Y195000D01*
X127500D01*
X157815Y164685D01*
Y76750D02*
Y164685D01*
Y76750D02*
X168500Y66065D01*
Y64100D02*
Y66065D01*
Y64100D02*
X169500Y63100D01*
X174900D01*
X177500Y60500D01*
Y42150D02*
Y60500D01*
X173000Y37650D02*
X177500Y42150D01*
X9000Y118000D02*
X20500Y106500D01*
X9000Y118000D02*
Y230300D01*
X13500Y234800D01*
X140300D01*
X162400Y212700D01*
Y192950D02*
Y212700D01*
Y192950D02*
X172701Y182650D01*
X73600Y83900D02*
Y88000D01*
X76600Y91000D01*
X81900D01*
X103748Y112848D01*
Y136776D01*
X163100Y75900D02*
Y131399D01*
X172701Y141000D01*
X179900Y92200D02*
X181954Y94254D01*
Y183397D01*
X172701Y192650D02*
X181954Y183397D01*
X133607Y74807D02*
X143300Y84500D01*
X114217Y74807D02*
X133607D01*
X20500Y46500D02*
X37000Y63000D01*
Y91000D01*
X80126Y173174D02*
X103000Y150300D01*
X80126Y173174D02*
Y196224D01*
X111000Y103600D02*
X122368Y114968D01*
Y144846D01*
X117724D02*
X122368D01*
X111622Y196224D02*
Y199200D01*
X139600D02*
X178800Y160000D01*
Y96900D02*
Y160000D01*
X177500Y95600D02*
X178800Y96900D01*
X177500Y82150D02*
Y95600D01*
X173000Y77650D02*
X177500Y82150D01*
X168500Y72150D02*
X173000Y67650D01*
X168500Y72150D02*
Y95600D01*
X177200Y104300D01*
Y146501D01*
X172701Y151000D02*
X177200Y146501D01*
X78157Y169205D02*
Y196224D01*
Y169205D02*
X102862Y144500D01*
X108000D01*
X82800Y81400D02*
X105717Y104317D01*
Y136776D01*
X58276Y148783D02*
X62717D01*
X80800Y56500D02*
X107700Y83400D01*
Y103800D01*
X113400Y109500D01*
Y141081D01*
X113081Y141400D02*
X113400Y141081D01*
X113081Y141400D02*
Y146815D01*
X103800Y158500D02*
X106735Y161435D01*
Y176000D01*
X111014Y180280D01*
X117724D01*
X104400Y173500D02*
Y180548D01*
X106100Y182248D01*
X117724D01*
X164000Y215300D02*
Y233949D01*
X172701Y242650D01*
X32000Y178300D02*
Y229500D01*
Y178300D02*
X50800Y159500D01*
X68315Y136776D02*
Y142885D01*
X64378Y146822D02*
X68315Y142885D01*
Y78985D02*
X80800Y66500D01*
X173000Y67650D02*
X179100Y61550D01*
Y14002D02*
Y61550D01*
X176598Y11500D02*
X179100Y14002D01*
X58276Y180280D02*
X62658D01*
X64378Y182000D01*
X66346Y192654D02*
Y196224D01*
Y192654D02*
X67500Y191500D01*
X76189D01*
Y196224D01*
X58276Y148783D02*
Y150752D01*
X50500Y167500D02*
X53468Y164532D01*
X50500Y167500D02*
Y169000D01*
X124622Y190122D02*
X125500Y191000D01*
X117724Y190122D02*
X124622D01*
X122197Y188154D02*
X125500Y184850D01*
X117724Y188154D02*
X122197D01*
X109500Y129500D02*
X109654Y129654D01*
Y136776D01*
X68315Y129185D02*
X68350Y129150D01*
X68315Y129185D02*
Y136776D01*
X50500Y148000D02*
X51283Y148783D01*
X58276D01*
X50500Y154000D02*
X51780Y152720D01*
X58276D01*
X66346Y196224D02*
Y200346D01*
X63500Y204000D02*
X64378Y203122D01*
Y196224D02*
Y203122D01*
D14*
X173000Y37650D02*
D03*
Y47650D02*
D03*
Y57650D02*
D03*
Y67650D02*
D03*
Y77650D02*
D03*
D15*
Y87650D02*
D03*
D16*
X172701Y151000D02*
D03*
Y182650D02*
D03*
X20500Y26500D02*
D03*
X80800D02*
D03*
D17*
X172701Y141000D02*
D03*
Y131000D02*
D03*
Y121000D02*
D03*
Y192650D02*
D03*
Y202650D02*
D03*
Y212650D02*
D03*
Y222650D02*
D03*
Y232650D02*
D03*
Y242650D02*
D03*
Y252650D02*
D03*
X20500Y46500D02*
D03*
Y56500D02*
D03*
Y66500D02*
D03*
Y76500D02*
D03*
Y86500D02*
D03*
Y96500D02*
D03*
Y106500D02*
D03*
Y36500D02*
D03*
X80800Y46500D02*
D03*
Y56500D02*
D03*
Y66500D02*
D03*
Y76500D02*
D03*
Y86500D02*
D03*
Y96500D02*
D03*
Y106500D02*
D03*
Y36500D02*
D03*
D18*
X18000Y211000D02*
D03*
X140000D02*
D03*
Y30938D02*
D03*
X61000D02*
D03*
D19*
X32000Y229500D02*
D03*
X83937D02*
D03*
X135874D02*
D03*
D20*
X24126D02*
D03*
X76063D02*
D03*
X128000D02*
D03*
D21*
X114217Y94807D02*
D03*
D22*
X144217D02*
D03*
Y74807D02*
D03*
X114217D02*
D03*
D23*
X111100Y176600D02*
D03*
X44500Y189600D02*
D03*
X174102Y7500D02*
D03*
X73600Y83900D02*
D03*
X163100Y75900D02*
D03*
X179900Y92200D02*
D03*
X143300Y84500D02*
D03*
X37000Y91000D02*
D03*
X103000Y150300D02*
D03*
X111000Y103600D02*
D03*
X108000Y144500D02*
D03*
X82800Y81400D02*
D03*
X103800Y158500D02*
D03*
X104400Y173500D02*
D03*
X164000Y215300D02*
D03*
X50800Y159500D02*
D03*
D24*
X50500Y169000D02*
D03*
X70000Y204000D02*
D03*
X63500D02*
D03*
X125500Y184850D02*
D03*
Y191000D02*
D03*
X109500Y129500D02*
D03*
X68350Y129150D02*
D03*
X50500Y148000D02*
D03*
Y154000D02*
D03*
M02*
