G04*
G04 #@! TF.GenerationSoftware,Altium Limited,Altium Designer,18.1.6 (161)*
G04*
G04 Layer_Color=8421504*
%FSLAX25Y25*%
%MOIN*%
G70*
G01*
G75*
%ADD10R,0.03150X0.03150*%
%ADD11O,0.07087X0.01181*%
%ADD12O,0.01181X0.07087*%
D10*
X170102Y11500D02*
D03*
X176598D02*
D03*
D11*
X58276Y190122D02*
D03*
Y188154D02*
D03*
Y186185D02*
D03*
Y184217D02*
D03*
Y182248D02*
D03*
Y180280D02*
D03*
Y178311D02*
D03*
Y176343D02*
D03*
Y174374D02*
D03*
Y172406D02*
D03*
Y170437D02*
D03*
Y168469D02*
D03*
Y166500D02*
D03*
Y164532D02*
D03*
Y162563D02*
D03*
Y160594D02*
D03*
Y158626D02*
D03*
Y156657D02*
D03*
Y154689D02*
D03*
Y152720D02*
D03*
Y150752D02*
D03*
Y148783D02*
D03*
Y146815D02*
D03*
Y144846D02*
D03*
Y142878D02*
D03*
X117724D02*
D03*
Y144846D02*
D03*
Y146815D02*
D03*
Y148783D02*
D03*
Y150752D02*
D03*
Y152720D02*
D03*
Y154689D02*
D03*
Y156657D02*
D03*
Y158626D02*
D03*
Y160594D02*
D03*
Y162563D02*
D03*
Y164532D02*
D03*
Y166500D02*
D03*
Y168469D02*
D03*
Y170437D02*
D03*
Y172406D02*
D03*
Y174374D02*
D03*
Y176343D02*
D03*
Y178311D02*
D03*
Y180280D02*
D03*
Y182248D02*
D03*
Y184217D02*
D03*
Y186185D02*
D03*
Y188154D02*
D03*
Y190122D02*
D03*
D12*
X64378Y136776D02*
D03*
X66346D02*
D03*
X68315D02*
D03*
X70283D02*
D03*
X72252D02*
D03*
X74220D02*
D03*
X76189D02*
D03*
X78157D02*
D03*
X80126D02*
D03*
X82094D02*
D03*
X84063D02*
D03*
X86032D02*
D03*
X88000D02*
D03*
X89969D02*
D03*
X91937D02*
D03*
X93906D02*
D03*
X95874D02*
D03*
X97843D02*
D03*
X99811D02*
D03*
X101780D02*
D03*
X103748D02*
D03*
X105717D02*
D03*
X107685D02*
D03*
X109654D02*
D03*
X111622D02*
D03*
Y196224D02*
D03*
X109654D02*
D03*
X107685D02*
D03*
X105717D02*
D03*
X103748D02*
D03*
X101780D02*
D03*
X99811D02*
D03*
X97843D02*
D03*
X95874D02*
D03*
X93906D02*
D03*
X91937D02*
D03*
X89969D02*
D03*
X88000D02*
D03*
X86032D02*
D03*
X84063D02*
D03*
X82094D02*
D03*
X80126D02*
D03*
X78157D02*
D03*
X76189D02*
D03*
X74220D02*
D03*
X72252D02*
D03*
X70283D02*
D03*
X68315D02*
D03*
X66346D02*
D03*
X64378D02*
D03*
M02*
