G04*
G04 #@! TF.GenerationSoftware,Altium Limited,Altium Designer,18.1.6 (161)*
G04*
G04 Layer_Color=32896*
%FSLAX25Y25*%
%MOIN*%
G70*
G01*
G75*
%ADD30C,0.02362*%
%ADD31C,0.00984*%
%ADD32C,0.00787*%
%ADD34C,0.00600*%
D30*
X93468Y171906D02*
G03*
X93468Y171906I-1181J0D01*
G01*
D31*
X98291Y176847D02*
G03*
X98291Y176847I-492J0D01*
G01*
D32*
X80476Y156157D02*
X96224D01*
X80476Y175843D02*
X96224D01*
X80476Y156157D02*
Y175843D01*
X96224Y156157D02*
Y175843D01*
X154378Y81146D02*
Y82720D01*
X151622Y81146D02*
Y82720D01*
D34*
X93000Y150700D02*
Y154699D01*
X91001D01*
X90334Y154032D01*
Y152699D01*
X91001Y152033D01*
X93000D01*
X91667D02*
X90334Y150700D01*
X89001D02*
X87668D01*
X88335D01*
Y154699D01*
X89001Y154032D01*
X85669D02*
X85003Y154699D01*
X83670D01*
X83003Y154032D01*
Y151366D01*
X83670Y150700D01*
X85003D01*
X85669Y151366D01*
Y154032D01*
X154800Y89450D02*
Y93448D01*
X152801D01*
X152134Y92782D01*
Y91449D01*
X152801Y90782D01*
X154800D01*
X153467D02*
X152134Y89450D01*
X148135D02*
X150801D01*
X148135Y92115D01*
Y92782D01*
X148802Y93448D01*
X150135D01*
X150801Y92782D01*
X44334Y187590D02*
X45001Y188256D01*
X46334D01*
X47000Y187590D01*
Y184924D01*
X46334Y184257D01*
X45001D01*
X44334Y184924D01*
X43001Y184257D02*
X41668D01*
X42335D01*
Y188256D01*
X43001Y187590D01*
X69278Y219032D02*
X69945Y219699D01*
X71278D01*
X71944Y219032D01*
Y216366D01*
X71278Y215700D01*
X69945D01*
X69278Y216366D01*
X65280Y215700D02*
X67945D01*
X65280Y218366D01*
Y219032D01*
X65946Y219699D01*
X67279D01*
X67945Y219032D01*
X123834Y124832D02*
X124501Y125499D01*
X125833D01*
X126500Y124832D01*
Y122167D01*
X125833Y121500D01*
X124501D01*
X123834Y122167D01*
X122501Y124832D02*
X121835Y125499D01*
X120502D01*
X119835Y124832D01*
Y124166D01*
X120502Y123499D01*
X121168D01*
X120502D01*
X119835Y122833D01*
Y122167D01*
X120502Y121500D01*
X121835D01*
X122501Y122167D01*
X82334Y124832D02*
X83001Y125499D01*
X84334D01*
X85000Y124832D01*
Y122167D01*
X84334Y121500D01*
X83001D01*
X82334Y122167D01*
X79002Y121500D02*
Y125499D01*
X81001Y123499D01*
X78335D01*
X131334Y201479D02*
X132001Y202145D01*
X133334D01*
X134000Y201479D01*
Y198813D01*
X133334Y198146D01*
X132001D01*
X131334Y198813D01*
X127336Y202145D02*
X130001D01*
Y200146D01*
X128668Y200812D01*
X128002D01*
X127336Y200146D01*
Y198813D01*
X128002Y198146D01*
X129335D01*
X130001Y198813D01*
X104834Y96082D02*
X105501Y96748D01*
X106834D01*
X107500Y96082D01*
Y93416D01*
X106834Y92750D01*
X105501D01*
X104834Y93416D01*
X100836Y96748D02*
X102168Y96082D01*
X103501Y94749D01*
Y93416D01*
X102835Y92750D01*
X101502D01*
X100836Y93416D01*
Y94082D01*
X101502Y94749D01*
X103501D01*
X36834Y155332D02*
X37501Y155999D01*
X38834D01*
X39500Y155332D01*
Y152666D01*
X38834Y152000D01*
X37501D01*
X36834Y152666D01*
X35501Y155999D02*
X32836D01*
Y155332D01*
X35501Y152666D01*
Y152000D01*
X46834Y162832D02*
X47501Y163499D01*
X48834D01*
X49500Y162832D01*
Y160167D01*
X48834Y159500D01*
X47501D01*
X46834Y160167D01*
X45501Y162832D02*
X44835Y163499D01*
X43502D01*
X42836Y162832D01*
Y162166D01*
X43502Y161499D01*
X42836Y160833D01*
Y160167D01*
X43502Y159500D01*
X44835D01*
X45501Y160167D01*
Y160833D01*
X44835Y161499D01*
X45501Y162166D01*
Y162832D01*
X44835Y161499D02*
X43502D01*
X45334Y142832D02*
X46001Y143499D01*
X47334D01*
X48000Y142832D01*
Y140166D01*
X47334Y139500D01*
X46001D01*
X45334Y140166D01*
X44001D02*
X43335Y139500D01*
X42002D01*
X41335Y140166D01*
Y142832D01*
X42002Y143499D01*
X43335D01*
X44001Y142832D01*
Y142166D01*
X43335Y141499D01*
X41335D01*
X37834Y136332D02*
X38501Y136999D01*
X39834D01*
X40500Y136332D01*
Y133667D01*
X39834Y133000D01*
X38501D01*
X37834Y133667D01*
X36501Y133000D02*
X35168D01*
X35835D01*
Y136999D01*
X36501Y136332D01*
X33169D02*
X32503Y136999D01*
X31170D01*
X30503Y136332D01*
Y133667D01*
X31170Y133000D01*
X32503D01*
X33169Y133667D01*
Y136332D01*
X177000Y18000D02*
Y21999D01*
X175001D01*
X174334Y21332D01*
Y19999D01*
X175001Y19333D01*
X177000D01*
X175667D02*
X174334Y18000D01*
X173001D02*
X171668D01*
X172335D01*
Y21999D01*
X173001Y21332D01*
X102600Y184399D02*
Y181067D01*
X101934Y180400D01*
X100601D01*
X99934Y181067D01*
Y184399D01*
X96602Y180400D02*
Y184399D01*
X98601Y182399D01*
X95935D01*
X95512Y258451D02*
X96179Y259118D01*
X97512D01*
X98178Y258451D01*
Y255786D01*
X97512Y255119D01*
X96179D01*
X95512Y255786D01*
X94179Y255119D02*
Y257785D01*
X92847Y259118D01*
X91514Y257785D01*
Y255119D01*
Y257119D01*
X94179D01*
X90181Y255119D02*
Y259118D01*
X87515Y255119D01*
Y259118D01*
X86182Y255119D02*
Y257785D01*
X84849Y259118D01*
X83516Y257785D01*
Y255119D01*
Y257119D01*
X86182D01*
X147412Y258451D02*
X148079Y259118D01*
X149412D01*
X150078Y258451D01*
Y255786D01*
X149412Y255119D01*
X148079D01*
X147412Y255786D01*
X146079Y255119D02*
Y257785D01*
X144747Y259118D01*
X143414Y257785D01*
Y255119D01*
Y257119D01*
X146079D01*
X142081Y255119D02*
Y259118D01*
X139415Y255119D01*
Y259118D01*
X138082Y255119D02*
Y257785D01*
X136749Y259118D01*
X135416Y257785D01*
Y255119D01*
Y257119D01*
X138082D01*
X43512Y258451D02*
X44179Y259118D01*
X45512D01*
X46178Y258451D01*
Y255786D01*
X45512Y255119D01*
X44179D01*
X43512Y255786D01*
X42180Y255119D02*
Y257785D01*
X40847Y259118D01*
X39514Y257785D01*
Y255119D01*
Y257119D01*
X42180D01*
X38181Y255119D02*
Y259118D01*
X35515Y255119D01*
Y259118D01*
X34182Y255119D02*
Y257785D01*
X32849Y259118D01*
X31516Y257785D01*
Y255119D01*
Y257119D01*
X34182D01*
M02*
