G04*
G04 #@! TF.GenerationSoftware,Altium Limited,Altium Designer,18.1.6 (161)*
G04*
G04 Layer_Color=32768*
%FSLAX25Y25*%
%MOIN*%
G70*
G01*
G75*
%ADD13C,0.01000*%
%ADD52C,0.00394*%
%ADD53C,0.00197*%
D13*
X165000Y29650D02*
Y95650D01*
Y29650D02*
X181000D01*
Y95650D01*
X165000D02*
X181000D01*
D52*
X42630Y132000D02*
X46370D01*
X44500Y130130D02*
Y133870D01*
X88000Y143130D02*
Y146870D01*
X86130Y145000D02*
X89870D01*
X103130Y83902D02*
X106870D01*
X105000Y82032D02*
Y85772D01*
X171480Y11500D02*
X175220D01*
X173350Y9630D02*
Y13370D01*
Y9630D02*
Y13370D01*
X171480Y11500D02*
X175220D01*
X88350Y164032D02*
Y167969D01*
X86382Y166000D02*
X90319D01*
X150835Y77209D02*
X155165D01*
X150835Y86657D02*
X155165D01*
Y77209D02*
Y86657D01*
X150835Y77209D02*
Y86657D01*
X153000Y80063D02*
Y83803D01*
X151130Y81933D02*
X154870D01*
X35130Y126000D02*
X38870D01*
X37000Y124130D02*
Y127870D01*
X42630Y150752D02*
X46370D01*
X44500Y148882D02*
Y152622D01*
X129130Y188000D02*
X132870D01*
X131000Y186130D02*
Y189870D01*
X71500Y121130D02*
Y124870D01*
X69630Y123000D02*
X73370D01*
X112500Y121630D02*
Y125370D01*
X110630Y123500D02*
X114370D01*
X66346Y208130D02*
Y211870D01*
X64476Y210000D02*
X68217D01*
X42630Y175500D02*
X46370D01*
X44500Y173630D02*
Y177370D01*
X35130Y144500D02*
X38870D01*
X37000Y142630D02*
Y146370D01*
X86032Y166500D02*
X89969D01*
X88000Y164532D02*
Y168469D01*
D53*
X41547Y125898D02*
Y138102D01*
X47453Y125898D02*
Y138102D01*
X41547D02*
X47453D01*
X41547Y125898D02*
X47453D01*
X81898Y147953D02*
X94102D01*
X81898Y142047D02*
X94102D01*
Y147953D01*
X81898Y142047D02*
Y147953D01*
X102047Y77799D02*
Y90004D01*
X107953Y77799D02*
Y90004D01*
X102047D02*
X107953D01*
X102047Y77799D02*
X107953D01*
X167248Y8547D02*
Y14453D01*
X179453Y8547D02*
Y14453D01*
X167248D02*
X179453D01*
X167248Y8547D02*
X179453D01*
X167248Y14453D02*
X179453D01*
X167248Y8547D02*
X179453D01*
Y14453D01*
X167248Y8547D02*
Y14453D01*
X73587Y155173D02*
X103114D01*
X73587Y176827D02*
X103114D01*
X73587Y155173D02*
Y176827D01*
X103114Y155173D02*
Y176827D01*
X39953Y119898D02*
Y132102D01*
X34047Y119898D02*
Y132102D01*
Y119898D02*
X39953D01*
X34047Y132102D02*
X39953D01*
X41547Y144650D02*
Y156854D01*
X47453Y144650D02*
Y156854D01*
X41547D02*
X47453D01*
X41547Y144650D02*
X47453D01*
X133953Y181898D02*
Y194102D01*
X128047Y181898D02*
Y194102D01*
Y181898D02*
X133953D01*
X128047Y194102D02*
X133953D01*
X65398Y125953D02*
X77602D01*
X65398Y120047D02*
X77602D01*
Y125953D01*
X65398Y120047D02*
Y125953D01*
X106398Y120547D02*
X118602D01*
X106398Y126453D02*
X118602D01*
X106398Y120547D02*
Y126453D01*
X118602Y120547D02*
Y126453D01*
X60244Y212953D02*
X72449D01*
X60244Y207047D02*
X72449D01*
Y212953D01*
X60244Y207047D02*
Y212953D01*
X41547Y169398D02*
Y181602D01*
X47453Y169398D02*
Y181602D01*
X41547D02*
X47453D01*
X41547Y169398D02*
X47453D01*
X39953Y138398D02*
Y150602D01*
X34047Y138398D02*
Y150602D01*
Y138398D02*
X39953D01*
X34047Y150602D02*
X39953D01*
X53748Y132248D02*
Y200752D01*
X122252Y132248D02*
Y200752D01*
X53748D02*
X122252D01*
X53748Y132248D02*
X122252D01*
M02*
