G04*
G04 #@! TF.GenerationSoftware,Altium Limited,Altium Designer,18.1.6 (161)*
G04*
G04 Layer_Color=8388736*
%FSLAX25Y25*%
%MOIN*%
G70*
G01*
G75*
%ADD35R,0.03950X0.03950*%
%ADD36O,0.07887X0.01981*%
%ADD37O,0.01981X0.07887*%
%ADD38C,0.06800*%
%ADD39R,0.06800X0.06800*%
%ADD40R,0.06706X0.06706*%
%ADD41C,0.06706*%
%ADD42C,0.15800*%
%ADD43R,0.06300X0.08300*%
%ADD44O,0.06300X0.08300*%
%ADD45R,0.10800X0.06800*%
%ADD46O,0.10800X0.06800*%
D35*
X170102Y11500D02*
D03*
X176598D02*
D03*
D36*
X58276Y190122D02*
D03*
Y188154D02*
D03*
Y186185D02*
D03*
Y184217D02*
D03*
Y182248D02*
D03*
Y180280D02*
D03*
Y178311D02*
D03*
Y176343D02*
D03*
Y174374D02*
D03*
Y172406D02*
D03*
Y170437D02*
D03*
Y168469D02*
D03*
Y166500D02*
D03*
Y164532D02*
D03*
Y162563D02*
D03*
Y160594D02*
D03*
Y158626D02*
D03*
Y156657D02*
D03*
Y154689D02*
D03*
Y152720D02*
D03*
Y150752D02*
D03*
Y148783D02*
D03*
Y146815D02*
D03*
Y144846D02*
D03*
Y142878D02*
D03*
X117724D02*
D03*
Y144846D02*
D03*
Y146815D02*
D03*
Y148783D02*
D03*
Y150752D02*
D03*
Y152720D02*
D03*
Y154689D02*
D03*
Y156657D02*
D03*
Y158626D02*
D03*
Y160594D02*
D03*
Y162563D02*
D03*
Y164532D02*
D03*
Y166500D02*
D03*
Y168469D02*
D03*
Y170437D02*
D03*
Y172406D02*
D03*
Y174374D02*
D03*
Y176343D02*
D03*
Y178311D02*
D03*
Y180280D02*
D03*
Y182248D02*
D03*
Y184217D02*
D03*
Y186185D02*
D03*
Y188154D02*
D03*
Y190122D02*
D03*
D37*
X64378Y136776D02*
D03*
X66346D02*
D03*
X68315D02*
D03*
X70283D02*
D03*
X72252D02*
D03*
X74220D02*
D03*
X76189D02*
D03*
X78157D02*
D03*
X80126D02*
D03*
X82094D02*
D03*
X84063D02*
D03*
X86032D02*
D03*
X88000D02*
D03*
X89969D02*
D03*
X91937D02*
D03*
X93906D02*
D03*
X95874D02*
D03*
X97843D02*
D03*
X99811D02*
D03*
X101780D02*
D03*
X103748D02*
D03*
X105717D02*
D03*
X107685D02*
D03*
X109654D02*
D03*
X111622D02*
D03*
Y196224D02*
D03*
X109654D02*
D03*
X107685D02*
D03*
X105717D02*
D03*
X103748D02*
D03*
X101780D02*
D03*
X99811D02*
D03*
X97843D02*
D03*
X95874D02*
D03*
X93906D02*
D03*
X91937D02*
D03*
X89969D02*
D03*
X88000D02*
D03*
X86032D02*
D03*
X84063D02*
D03*
X82094D02*
D03*
X80126D02*
D03*
X78157D02*
D03*
X76189D02*
D03*
X74220D02*
D03*
X72252D02*
D03*
X70283D02*
D03*
X68315D02*
D03*
X66346D02*
D03*
X64378D02*
D03*
D38*
X173000Y37650D02*
D03*
Y47650D02*
D03*
Y57650D02*
D03*
Y67650D02*
D03*
Y77650D02*
D03*
D39*
Y87650D02*
D03*
D40*
X172701Y151000D02*
D03*
Y182650D02*
D03*
X20500Y26500D02*
D03*
X80800D02*
D03*
D41*
X172701Y141000D02*
D03*
Y131000D02*
D03*
Y121000D02*
D03*
Y192650D02*
D03*
Y202650D02*
D03*
Y212650D02*
D03*
Y222650D02*
D03*
Y232650D02*
D03*
Y242650D02*
D03*
Y252650D02*
D03*
X20500Y46500D02*
D03*
Y56500D02*
D03*
Y66500D02*
D03*
Y76500D02*
D03*
Y86500D02*
D03*
Y96500D02*
D03*
Y106500D02*
D03*
Y36500D02*
D03*
X80800Y46500D02*
D03*
Y56500D02*
D03*
Y66500D02*
D03*
Y76500D02*
D03*
Y86500D02*
D03*
Y96500D02*
D03*
Y106500D02*
D03*
Y36500D02*
D03*
D42*
X18000Y211000D02*
D03*
X140000D02*
D03*
Y30938D02*
D03*
X61000D02*
D03*
D43*
X32000Y229500D02*
D03*
X83937D02*
D03*
X135874D02*
D03*
D44*
X24126D02*
D03*
X76063D02*
D03*
X128000D02*
D03*
D45*
X114217Y94807D02*
D03*
D46*
X144217D02*
D03*
Y74807D02*
D03*
X114217D02*
D03*
M02*
