G04*
G04 #@! TF.GenerationSoftware,Altium Limited,Altium Designer,18.1.6 (161)*
G04*
G04 Layer_Physical_Order=1*
G04 Layer_Color=255*
%FSLAX25Y25*%
%MOIN*%
G70*
G01*
G75*
%ADD12C,0.01000*%
%ADD17R,0.02756X0.02362*%
%ADD18R,0.03937X0.09449*%
%ADD19R,0.12598X0.09449*%
%ADD20O,0.02362X0.08661*%
%ADD21R,0.06122X0.05118*%
%ADD24R,0.14016X0.07008*%
%ADD25R,0.08661X0.01968*%
%ADD26R,0.09449X0.12205*%
%ADD27R,0.03150X0.03150*%
%ADD28R,0.07874X0.16142*%
%ADD29R,0.03937X0.03740*%
%ADD30R,0.09843X0.05906*%
%ADD31R,0.03740X0.03937*%
%ADD32R,0.03937X0.04134*%
%ADD33R,0.04134X0.03937*%
%ADD60O,0.01181X0.07087*%
%ADD61O,0.07087X0.01181*%
%ADD62C,0.02756*%
%ADD63C,0.00800*%
%ADD64O,0.05500X0.07500*%
%ADD65R,0.05500X0.07500*%
%ADD66R,0.05906X0.05906*%
%ADD67C,0.05906*%
%ADD68O,0.07500X0.05500*%
%ADD69R,0.07500X0.05500*%
%ADD70C,0.01968*%
%ADD71C,0.02700*%
%ADD72C,0.20000*%
G36*
X118556Y265925D02*
X117250D01*
Y267624D01*
X107750D01*
Y260124D01*
X117250D01*
Y261075D01*
X118556D01*
Y229299D01*
X117089D01*
Y230624D01*
X107589D01*
Y223124D01*
X117089D01*
Y224449D01*
X118556D01*
Y194750D01*
X109089D01*
Y187250D01*
X118556D01*
Y167500D01*
X129971D01*
Y159250D01*
X127750D01*
Y149750D01*
X135250D01*
Y152412D01*
X135721Y152521D01*
X136098Y151609D01*
X136699Y150826D01*
X137483Y150224D01*
X138395Y149846D01*
X139374Y149718D01*
X140353Y149846D01*
X141265Y150224D01*
X142049Y150826D01*
X142650Y151609D01*
X143027Y152521D01*
X143087Y152971D01*
X144367D01*
X150419Y146919D01*
X150915Y146587D01*
X151500Y146471D01*
X174000D01*
X174585Y146587D01*
X175081Y146919D01*
X176581Y148419D01*
X176913Y148915D01*
X177029Y149500D01*
Y149574D01*
X177391Y149724D01*
X178174Y150326D01*
X178776Y151109D01*
X179154Y152021D01*
X179282Y153000D01*
Y155000D01*
X179210Y155547D01*
X187081Y163419D01*
X187413Y163915D01*
X187529Y164500D01*
Y167500D01*
X200000D01*
Y203105D01*
X238820D01*
X238932Y210428D01*
X239018D01*
Y216047D01*
X239038Y217364D01*
X319500D01*
Y212707D01*
X315117D01*
Y210480D01*
X314854Y210089D01*
X314617Y210089D01*
X304192D01*
Y209634D01*
X300796D01*
X300686Y209799D01*
X299908Y210318D01*
X298991Y210501D01*
X298074Y210318D01*
X297297Y209799D01*
X296778Y209022D01*
X296595Y208105D01*
X296778Y207188D01*
X297297Y206411D01*
X298074Y205891D01*
X298991Y205709D01*
X299908Y205891D01*
X300686Y206411D01*
X300796Y206575D01*
X304192D01*
Y206121D01*
X314617D01*
X314854Y206121D01*
X315117Y205730D01*
Y200480D01*
X314854Y200089D01*
X304192D01*
Y199634D01*
X300291D01*
X299705Y199518D01*
X299209Y199186D01*
X298007Y197985D01*
X296940D01*
Y199424D01*
X291200D01*
Y197454D01*
X276500D01*
X275029Y191029D01*
X269677Y185677D01*
X260000Y176000D01*
X207060D01*
Y143000D01*
X111744D01*
X111346Y144660D01*
X110683Y146259D01*
X109779Y147736D01*
X108654Y149052D01*
X107338Y150177D01*
X105861Y151081D01*
X105056Y151415D01*
Y275500D01*
X118556D01*
Y265925D01*
D02*
G37*
G36*
X395500Y331000D02*
X395500Y130500D01*
X387585D01*
X387486Y131000D01*
X388496Y131419D01*
X389972Y132323D01*
X391289Y133448D01*
X392414Y134764D01*
X393318Y136241D01*
X393981Y137840D01*
X394385Y139524D01*
X394521Y141250D01*
X394385Y142976D01*
X393981Y144660D01*
X393318Y146259D01*
X392414Y147736D01*
X391289Y149052D01*
X389972Y150177D01*
X388496Y151081D01*
X386897Y151744D01*
X385213Y152148D01*
X383487Y152284D01*
X381761Y152148D01*
X380077Y151744D01*
X378478Y151081D01*
X377001Y150177D01*
X375685Y149052D01*
X374560Y147736D01*
X373656Y146259D01*
X372993Y144660D01*
X372589Y142976D01*
X372453Y141250D01*
X372589Y139524D01*
X372993Y137840D01*
X373656Y136241D01*
X374560Y134764D01*
X375685Y133448D01*
X377001Y132323D01*
X378478Y131419D01*
X379488Y131000D01*
X379389Y130500D01*
X104950Y130500D01*
X104851Y131000D01*
X105861Y131419D01*
X107338Y132323D01*
X108654Y133448D01*
X109779Y134764D01*
X110683Y136241D01*
X111346Y137840D01*
X111750Y139524D01*
X111886Y141250D01*
X111857Y141613D01*
X112197Y141980D01*
X207060D01*
X207451Y142058D01*
X207781Y142279D01*
X208002Y142610D01*
X208080Y143000D01*
Y151858D01*
X208580Y151957D01*
X208724Y151609D01*
X209326Y150826D01*
X210109Y150224D01*
X211021Y149846D01*
X212000Y149718D01*
X212979Y149846D01*
X213891Y150224D01*
X214674Y150826D01*
X215276Y151609D01*
X215653Y152521D01*
X215782Y153500D01*
Y155500D01*
X215653Y156479D01*
X215276Y157391D01*
X214674Y158175D01*
X213891Y158776D01*
X212979Y159153D01*
X212000Y159282D01*
X211021Y159153D01*
X210109Y158776D01*
X209326Y158175D01*
X208724Y157391D01*
X208580Y157043D01*
X208080Y157142D01*
Y174980D01*
X260000D01*
X260390Y175058D01*
X260721Y175279D01*
X270398Y184957D01*
X275750Y190308D01*
X275798Y190380D01*
X275860Y190439D01*
X275907Y190543D01*
X275971Y190639D01*
X275988Y190723D01*
X276023Y190802D01*
X277313Y196435D01*
X291200D01*
X291590Y196512D01*
X291921Y196733D01*
X292142Y197064D01*
X292220Y197454D01*
Y198404D01*
X295921D01*
Y197985D01*
X295998Y197594D01*
X296219Y197264D01*
X296550Y197043D01*
X296940Y196965D01*
X298007D01*
X298398Y197043D01*
X298728Y197264D01*
X299859Y198394D01*
X300103Y198557D01*
X300391Y198615D01*
X304192D01*
X304582Y198692D01*
X304913Y198913D01*
X305017Y199069D01*
X314854D01*
X314950Y199089D01*
X315048Y199088D01*
X315143Y199127D01*
X315244Y199147D01*
X315325Y199202D01*
X315416Y199239D01*
X315489Y199311D01*
X315575Y199368D01*
X315629Y199450D01*
X315699Y199519D01*
X315962Y199909D01*
X316002Y200004D01*
X316059Y200090D01*
X316078Y200186D01*
X316116Y200276D01*
X316117Y200379D01*
X316137Y200480D01*
Y205730D01*
X316117Y205831D01*
X316116Y205933D01*
X316078Y206024D01*
X316059Y206120D01*
X316002Y206206D01*
X315962Y206300D01*
X315699Y206691D01*
X315629Y206760D01*
X315575Y206841D01*
X315489Y206899D01*
X315416Y206971D01*
X315325Y207008D01*
X315244Y207063D01*
X315143Y207083D01*
X315048Y207121D01*
X314950Y207121D01*
X314854Y207140D01*
X314617Y207140D01*
X305017D01*
X304913Y207296D01*
X304582Y207518D01*
X304192Y207595D01*
X300796D01*
X300697Y207575D01*
X300597D01*
X300504Y207537D01*
X300406Y207518D01*
X300322Y207462D01*
X300229Y207423D01*
X300158Y207352D01*
X300075Y207296D01*
X300019Y207213D01*
X299954Y207148D01*
X299511Y206852D01*
X298991Y206748D01*
X298472Y206852D01*
X298032Y207146D01*
X297738Y207586D01*
X297635Y208105D01*
X297738Y208624D01*
X298032Y209064D01*
X298472Y209358D01*
X298991Y209461D01*
X299511Y209358D01*
X299954Y209062D01*
X300019Y208997D01*
X300075Y208913D01*
X300158Y208857D01*
X300229Y208787D01*
X300322Y208748D01*
X300406Y208692D01*
X300504Y208673D01*
X300597Y208634D01*
X300697D01*
X300796Y208615D01*
X304192D01*
X304582Y208692D01*
X304913Y208913D01*
X305017Y209069D01*
X314617D01*
X314854Y209069D01*
X314950Y209089D01*
X315048Y209088D01*
X315143Y209127D01*
X315244Y209147D01*
X315325Y209202D01*
X315416Y209239D01*
X315489Y209311D01*
X315575Y209368D01*
X315629Y209450D01*
X315699Y209519D01*
X315962Y209909D01*
X316002Y210004D01*
X316059Y210090D01*
X316078Y210186D01*
X316116Y210276D01*
X316117Y210379D01*
X316137Y210480D01*
Y211688D01*
X319500D01*
X319890Y211765D01*
X320221Y211986D01*
X320442Y212317D01*
X320520Y212707D01*
Y217364D01*
X320442Y217754D01*
X320221Y218085D01*
X319890Y218306D01*
X319500Y218384D01*
X239038D01*
X238851Y218346D01*
X238663Y218312D01*
X238656Y218307D01*
X238648Y218306D01*
X238489Y218200D01*
X238329Y218096D01*
X238324Y218089D01*
X238317Y218085D01*
X238211Y217926D01*
X238103Y217769D01*
X238101Y217761D01*
X238096Y217754D01*
X238059Y217566D01*
X238019Y217380D01*
X237999Y216062D01*
X238000Y216055D01*
X237999Y216047D01*
Y210836D01*
X237996Y210832D01*
X237995Y210824D01*
X237990Y210818D01*
X237953Y210630D01*
X237913Y210443D01*
X237816Y204124D01*
X215462D01*
X215310Y204625D01*
X215694Y204881D01*
X216214Y205659D01*
X216396Y206575D01*
X216214Y207492D01*
X215694Y208270D01*
X215679Y208280D01*
Y209630D01*
X217118D01*
Y211270D01*
X218130D01*
Y209831D01*
X223870D01*
Y215768D01*
X223336D01*
X223145Y216230D01*
X225487Y218572D01*
X225685Y218592D01*
X227647Y216630D01*
X227455Y216168D01*
X226782D01*
Y210428D01*
X226605Y210360D01*
X226437Y210319D01*
X226437Y210318D01*
X225659Y209799D01*
X225140Y209022D01*
X224957Y208105D01*
X225140Y207188D01*
X225659Y206411D01*
X226437Y205891D01*
X227354Y205709D01*
X228271Y205891D01*
X229048Y206411D01*
X229567Y207188D01*
X229750Y208105D01*
X229711Y208299D01*
X231081Y209670D01*
X231413Y210166D01*
X231465Y210428D01*
X232719D01*
Y216168D01*
X231280D01*
Y216689D01*
X231164Y217274D01*
X230832Y217771D01*
X230358Y218244D01*
X230539Y218770D01*
X230932Y218848D01*
X231295Y219091D01*
X231659Y218848D01*
X232279Y218725D01*
X232900Y218848D01*
X233264Y219091D01*
X233627Y218848D01*
X234248Y218725D01*
X234869Y218848D01*
X235232Y219091D01*
X235596Y218848D01*
X236216Y218725D01*
X236837Y218848D01*
X237363Y219200D01*
X237715Y219726D01*
X237838Y220346D01*
Y226252D01*
X237715Y226873D01*
X237363Y227399D01*
X236837Y227750D01*
X236216Y227874D01*
X235596Y227750D01*
X235232Y227507D01*
X234869Y227750D01*
X234248Y227874D01*
X233627Y227750D01*
X233264Y227507D01*
X232900Y227750D01*
X232279Y227874D01*
X231659Y227750D01*
X231295Y227507D01*
X230932Y227750D01*
X230311Y227874D01*
X229690Y227750D01*
X229164Y227399D01*
X228813Y226873D01*
X228689Y226252D01*
Y220981D01*
X228189Y220729D01*
X227996Y220873D01*
Y226252D01*
X227872Y226873D01*
X227521Y227399D01*
X226995Y227750D01*
X226374Y227874D01*
X225753Y227750D01*
X225390Y227507D01*
X225026Y227750D01*
X224406Y227874D01*
X223785Y227750D01*
X223421Y227507D01*
X223058Y227750D01*
X222437Y227874D01*
X221816Y227750D01*
X221453Y227507D01*
X221089Y227750D01*
X220468Y227874D01*
X219848Y227750D01*
X219484Y227507D01*
X219121Y227750D01*
X218500Y227874D01*
X217879Y227750D01*
X217516Y227507D01*
X217152Y227750D01*
X216531Y227874D01*
X215911Y227750D01*
X215547Y227507D01*
X215184Y227750D01*
X214563Y227874D01*
X213942Y227750D01*
X213579Y227507D01*
X213215Y227750D01*
X212595Y227874D01*
X211974Y227750D01*
X211610Y227507D01*
X211247Y227750D01*
X210626Y227874D01*
X210005Y227750D01*
X209642Y227507D01*
X209278Y227750D01*
X208658Y227874D01*
X208037Y227750D01*
X207511Y227399D01*
X207159Y226873D01*
X207036Y226252D01*
Y221029D01*
X187000D01*
X186415Y220913D01*
X185919Y220581D01*
X179919Y214581D01*
X179587Y214085D01*
X179471Y213500D01*
Y212148D01*
X179428Y212120D01*
X178946Y211398D01*
X178776Y210547D01*
Y204248D01*
X178946Y203397D01*
X179428Y202676D01*
X180149Y202193D01*
X181000Y202024D01*
X181851Y202193D01*
X182572Y202676D01*
X183055Y203397D01*
X183224Y204248D01*
Y210547D01*
X183055Y211398D01*
X182572Y212120D01*
X182529Y212148D01*
Y212866D01*
X186004Y216341D01*
X186392Y216022D01*
X186140Y215645D01*
X185958Y214728D01*
X185996Y214533D01*
X184919Y213456D01*
X184587Y212959D01*
X184471Y212374D01*
Y212148D01*
X184427Y212120D01*
X183946Y211398D01*
X183776Y210547D01*
Y204248D01*
X183946Y203397D01*
X184427Y202676D01*
X185149Y202193D01*
X186000Y202024D01*
X186851Y202193D01*
X187573Y202676D01*
X188055Y203397D01*
X188224Y204248D01*
Y210547D01*
X188055Y211398D01*
X187707Y211918D01*
X188159Y212370D01*
X188354Y212332D01*
X189270Y212514D01*
X190048Y213034D01*
X190567Y213811D01*
X190750Y214728D01*
X190567Y215645D01*
X190048Y216422D01*
X189270Y216941D01*
X188354Y217124D01*
X187437Y216941D01*
X187059Y216689D01*
X186740Y217077D01*
X187634Y217971D01*
X197623D01*
X197671Y217908D01*
X197808Y217471D01*
X194919Y214581D01*
X194587Y214085D01*
X194471Y213500D01*
Y212148D01*
X194428Y212120D01*
X193946Y211398D01*
X193776Y210547D01*
Y204248D01*
X193946Y203397D01*
X194428Y202676D01*
X195149Y202193D01*
X196000Y202024D01*
X196851Y202193D01*
X197573Y202676D01*
X198055Y203397D01*
X198224Y204248D01*
Y210547D01*
X198055Y211398D01*
X197573Y212120D01*
X197529Y212148D01*
Y212866D01*
X199634Y214971D01*
X207060D01*
X207646Y215087D01*
X208142Y215419D01*
X211707Y218984D01*
X211756Y218994D01*
X211974Y218848D01*
X212595Y218725D01*
X213215Y218848D01*
X213579Y219091D01*
X213942Y218848D01*
X214563Y218725D01*
X215184Y218848D01*
X215547Y219091D01*
X215911Y218848D01*
X216531Y218725D01*
X217152Y218848D01*
X217516Y219091D01*
X217879Y218848D01*
X218500Y218725D01*
X219121Y218848D01*
X219484Y219091D01*
X219848Y218848D01*
X220468Y218725D01*
X220641Y218759D01*
X220887Y218298D01*
X219919Y217330D01*
X219587Y216833D01*
X219471Y216248D01*
Y215768D01*
X218130D01*
Y214329D01*
X217118D01*
Y215370D01*
X211181D01*
Y209630D01*
X212620D01*
Y208480D01*
X212306Y208270D01*
X211786Y207492D01*
X211604Y206575D01*
X211786Y205659D01*
X212306Y204881D01*
X212690Y204625D01*
X212538Y204124D01*
X200000D01*
X199610Y204047D01*
X199279Y203826D01*
X199058Y203495D01*
X198980Y203105D01*
Y168520D01*
X189359D01*
X188969Y168783D01*
Y170459D01*
X189432Y170769D01*
X192081Y173419D01*
X192413Y173915D01*
X192529Y174500D01*
Y183749D01*
X192572Y183778D01*
X193054Y184499D01*
X193224Y185350D01*
Y191650D01*
X193054Y192501D01*
X192572Y193222D01*
X191851Y193704D01*
X191000Y193873D01*
X190149Y193704D01*
X189427Y193222D01*
X188945Y192501D01*
X188776Y191650D01*
Y185350D01*
X188945Y184499D01*
X189427Y183778D01*
X189471Y183749D01*
Y175672D01*
X189469Y175670D01*
X188969Y175938D01*
Y181217D01*
X187529D01*
Y183749D01*
X187573Y183778D01*
X188055Y184499D01*
X188224Y185350D01*
Y191650D01*
X188055Y192501D01*
X187573Y193222D01*
X186851Y193704D01*
X186000Y193873D01*
X185149Y193704D01*
X184427Y193222D01*
X183946Y192501D01*
X183776Y191650D01*
Y185350D01*
X183946Y184499D01*
X184427Y183778D01*
X184471Y183749D01*
Y181217D01*
X183031D01*
Y179463D01*
X165933D01*
X165348Y179346D01*
X164852Y179015D01*
X163366Y177529D01*
X137750D01*
X137165Y177413D01*
X136669Y177081D01*
X130419Y170831D01*
X130087Y170335D01*
X129971Y169750D01*
Y168520D01*
X119576D01*
Y187250D01*
X119498Y187640D01*
X119277Y187971D01*
X119121Y188075D01*
X119272Y188575D01*
X127665D01*
X128593Y188760D01*
X128681Y188819D01*
X130043D01*
Y190766D01*
X130090Y191000D01*
X130043Y191234D01*
Y193181D01*
X128681D01*
X128593Y193240D01*
X127665Y193424D01*
X119272D01*
X119121Y193924D01*
X119277Y194029D01*
X119498Y194360D01*
X119576Y194750D01*
Y224449D01*
X128382D01*
X129310Y224634D01*
X129398Y224693D01*
X130760D01*
Y226640D01*
X130806Y226874D01*
X130760Y227108D01*
Y229055D01*
X129398D01*
X129310Y229114D01*
X128382Y229299D01*
X119576D01*
Y261075D01*
X128882D01*
X129810Y261260D01*
X129898Y261319D01*
X131260D01*
Y263266D01*
X131306Y263500D01*
X131260Y263734D01*
Y265681D01*
X129898D01*
X129810Y265740D01*
X128882Y265925D01*
X119576D01*
Y275500D01*
X119498Y275890D01*
X119277Y276221D01*
X118946Y276442D01*
X118556Y276520D01*
X105056D01*
X104666Y276442D01*
X104335Y276221D01*
X104114Y275890D01*
X104037Y275500D01*
Y152202D01*
X103644Y151892D01*
X102578Y152148D01*
X100852Y152284D01*
X99126Y152148D01*
X97442Y151744D01*
X95843Y151081D01*
X94366Y150177D01*
X93050Y149052D01*
X91925Y147736D01*
X91021Y146259D01*
X90358Y144660D01*
X90052Y143384D01*
X89552Y143444D01*
X90007Y331000D01*
X395500Y331000D01*
D02*
G37*
G36*
X183031Y175083D02*
X183031D01*
Y174917D01*
X183031D01*
Y168783D01*
X182641Y168520D01*
X171529D01*
Y176404D01*
X183031D01*
Y175083D01*
D02*
G37*
G36*
X168471Y168520D02*
X133029D01*
Y169116D01*
X138383Y174471D01*
X164000D01*
X164585Y174587D01*
X165081Y174919D01*
X166567Y176404D01*
X168471D01*
Y168520D01*
D02*
G37*
G36*
X184471Y165134D02*
X177516Y158179D01*
X177391Y158276D01*
X176479Y158653D01*
X175500Y158782D01*
X174521Y158653D01*
X173609Y158276D01*
X172826Y157675D01*
X172224Y156891D01*
X172029Y156420D01*
X171529Y156520D01*
Y167500D01*
X184471D01*
Y165134D01*
D02*
G37*
G36*
X168471Y158750D02*
X163876D01*
Y149529D01*
X152134D01*
X146081Y155581D01*
X145585Y155913D01*
X145000Y156029D01*
X143087D01*
X143027Y156479D01*
X142650Y157391D01*
X142049Y158175D01*
X141265Y158776D01*
X140353Y159153D01*
X139374Y159282D01*
X138395Y159153D01*
X137483Y158776D01*
X136699Y158175D01*
X136098Y157391D01*
X135721Y156479D01*
X135250Y156588D01*
Y159250D01*
X133029D01*
Y167500D01*
X168471D01*
Y158750D01*
D02*
G37*
G36*
X90358Y137840D02*
X91021Y136241D01*
X91925Y134764D01*
X93050Y133448D01*
X94366Y132323D01*
X95843Y131419D01*
X96853Y131000D01*
X96754Y130500D01*
X89875D01*
X89521Y130854D01*
X89542Y139100D01*
X90042Y139158D01*
X90358Y137840D01*
D02*
G37*
%LPC*%
G36*
X309418Y214637D02*
X309418Y214637D01*
X293913D01*
X293366Y214528D01*
X292903Y214219D01*
X292903Y214219D01*
X291982Y213298D01*
X291673Y212835D01*
X291564Y212288D01*
X291564Y212288D01*
Y204389D01*
X285121D01*
X284536Y204272D01*
X284040Y203941D01*
X281464Y201365D01*
X253491D01*
X252906Y201249D01*
X252410Y200917D01*
X252078Y200421D01*
X251962Y199836D01*
X252078Y199250D01*
X252410Y198754D01*
X252906Y198423D01*
X253491Y198306D01*
X282098D01*
X282683Y198423D01*
X283179Y198754D01*
X285755Y201330D01*
X292991D01*
X293345Y201400D01*
X293590Y201237D01*
X294175Y201120D01*
X309068Y201120D01*
X309653Y201237D01*
X310149Y201568D01*
X310604Y202024D01*
X310936Y202520D01*
X311052Y203105D01*
X310936Y203690D01*
X310604Y204186D01*
X310108Y204518D01*
X309523Y204634D01*
X308938Y204518D01*
X308441Y204186D01*
X308434Y204179D01*
X294904Y204179D01*
X294419Y204605D01*
Y211697D01*
X294504Y211782D01*
X308996D01*
X309523Y211677D01*
X310069Y211786D01*
X310532Y212095D01*
X310842Y212559D01*
X310950Y213105D01*
X310842Y213651D01*
X310532Y214114D01*
X310427Y214219D01*
X310427Y214219D01*
X310158Y214399D01*
X309964Y214528D01*
X309964Y214528D01*
X309964Y214528D01*
X309745Y214572D01*
X309418Y214637D01*
D02*
G37*
G36*
X383487Y329932D02*
X381761Y329796D01*
X380077Y329392D01*
X378478Y328729D01*
X377001Y327824D01*
X375685Y326700D01*
X374560Y325383D01*
X373656Y323907D01*
X372993Y322307D01*
X372589Y320624D01*
X372453Y318898D01*
X372589Y317172D01*
X372993Y315488D01*
X373656Y313888D01*
X374560Y312412D01*
X375685Y311095D01*
X377001Y309971D01*
X378478Y309066D01*
X380077Y308404D01*
X381761Y307999D01*
X383487Y307864D01*
X385213Y307999D01*
X386897Y308404D01*
X388496Y309066D01*
X389972Y309971D01*
X391289Y311095D01*
X392414Y312412D01*
X393318Y313888D01*
X393981Y315488D01*
X394385Y317172D01*
X394521Y318898D01*
X394385Y320624D01*
X393981Y322307D01*
X393318Y323907D01*
X392414Y325383D01*
X391289Y326700D01*
X389972Y327824D01*
X388496Y328729D01*
X386897Y329392D01*
X385213Y329796D01*
X383487Y329932D01*
D02*
G37*
G36*
X248624Y311750D02*
X241124D01*
Y302250D01*
X243345D01*
Y294972D01*
X242991Y294618D01*
X242083Y294618D01*
X241583Y294618D01*
X235784D01*
Y293179D01*
X233205D01*
X233194Y293194D01*
X232417Y293714D01*
X231500Y293896D01*
X230583Y293714D01*
X229806Y293194D01*
X229286Y292417D01*
X229104Y291500D01*
X229286Y290583D01*
X229806Y289806D01*
X230583Y289286D01*
X231500Y289104D01*
X232417Y289286D01*
X233194Y289806D01*
X233404Y290120D01*
X235784D01*
Y288681D01*
X241583D01*
X241917Y288681D01*
X242865Y288681D01*
X243056Y288219D01*
X240367Y285529D01*
X225471D01*
X224886Y285413D01*
X224390Y285081D01*
X215450Y276142D01*
X215119Y275646D01*
X215083Y275466D01*
X214540Y275301D01*
X211179Y278662D01*
Y288681D01*
X212717D01*
Y294618D01*
X212029D01*
Y302250D01*
X214250D01*
Y311750D01*
X206750D01*
Y302250D01*
X208971D01*
Y294618D01*
X206917D01*
X206583Y294618D01*
X206083Y294618D01*
X200284D01*
Y293179D01*
X199128D01*
X199048Y293299D01*
X198270Y293818D01*
X197354Y294001D01*
X196437Y293818D01*
X195659Y293299D01*
X195140Y292522D01*
X194957Y291605D01*
X195140Y290688D01*
X195659Y289911D01*
X196437Y289391D01*
X197354Y289209D01*
X198270Y289391D01*
X199048Y289911D01*
X199188Y290120D01*
X200284D01*
Y288681D01*
X206083D01*
X206417Y288681D01*
X206917Y288681D01*
X208120D01*
Y280196D01*
X207658Y280005D01*
X206581Y281081D01*
X206085Y281413D01*
X205500Y281529D01*
X193633D01*
X182581Y292581D01*
X182085Y292913D01*
X181500Y293029D01*
X178516D01*
Y294468D01*
X177903D01*
Y302250D01*
X180124D01*
Y311750D01*
X172624D01*
Y302250D01*
X174845D01*
Y294468D01*
X172716D01*
X172382Y294468D01*
X171882Y294468D01*
X166083D01*
Y293029D01*
X164553D01*
X164443Y293194D01*
X163666Y293714D01*
X162749Y293896D01*
X161832Y293714D01*
X161055Y293194D01*
X160535Y292417D01*
X160353Y291500D01*
X160535Y290583D01*
X161055Y289806D01*
X161832Y289286D01*
X162749Y289104D01*
X163666Y289286D01*
X164443Y289806D01*
X164553Y289971D01*
X166083D01*
Y288531D01*
X171882D01*
X172216Y288531D01*
X172716Y288531D01*
X178516D01*
Y289971D01*
X180867D01*
X190346Y280491D01*
X190154Y280029D01*
X167133D01*
X154432Y292731D01*
X153936Y293063D01*
X153350Y293179D01*
X145217D01*
Y294618D01*
X143403D01*
Y302250D01*
X145624D01*
Y311750D01*
X138124D01*
Y302250D01*
X140345D01*
Y294972D01*
X139991Y294618D01*
X139083Y294618D01*
X138583Y294618D01*
X132783D01*
Y293179D01*
X130804D01*
X130694Y293344D01*
X129917Y293863D01*
X129000Y294046D01*
X128083Y293863D01*
X127306Y293344D01*
X126786Y292566D01*
X126604Y291650D01*
X126786Y290733D01*
X127306Y289955D01*
X128083Y289436D01*
X129000Y289254D01*
X129917Y289436D01*
X130694Y289955D01*
X130804Y290120D01*
X132783D01*
Y288681D01*
X138583D01*
X138917Y288681D01*
X139417Y288681D01*
X145217D01*
Y290120D01*
X152717D01*
X163846Y278991D01*
X163654Y278529D01*
X134634D01*
X120581Y292581D01*
X120085Y292913D01*
X119500Y293029D01*
X110216D01*
Y294468D01*
X108529D01*
Y301250D01*
X110750D01*
Y310750D01*
X103250D01*
Y301250D01*
X105471D01*
Y294822D01*
X105117Y294468D01*
X104083Y294468D01*
X103583Y294468D01*
X97783D01*
Y293029D01*
X95989D01*
X95694Y293470D01*
X94917Y293989D01*
X94000Y294172D01*
X93083Y293989D01*
X92306Y293470D01*
X91786Y292692D01*
X91604Y291776D01*
X91786Y290859D01*
X92306Y290081D01*
X93083Y289562D01*
X94000Y289380D01*
X94917Y289562D01*
X95529Y289971D01*
X97783D01*
Y288531D01*
X103583D01*
X103917Y288531D01*
X104417Y288531D01*
X110216D01*
Y289971D01*
X118867D01*
X132919Y275919D01*
X133415Y275587D01*
X134000Y275471D01*
X203624D01*
X207128Y271966D01*
Y270417D01*
X207036Y269953D01*
Y264047D01*
X207159Y263427D01*
X207511Y262900D01*
X208037Y262549D01*
X208658Y262425D01*
X209278Y262549D01*
X209642Y262792D01*
X210005Y262549D01*
X210626Y262425D01*
X211247Y262549D01*
X211610Y262792D01*
X211974Y262549D01*
X212595Y262425D01*
X213215Y262549D01*
X213579Y262792D01*
X213942Y262549D01*
X214563Y262425D01*
X215184Y262549D01*
X215547Y262792D01*
X215911Y262549D01*
X216531Y262425D01*
X217152Y262549D01*
X217516Y262792D01*
X217879Y262549D01*
X218500Y262425D01*
X219121Y262549D01*
X219484Y262792D01*
X219848Y262549D01*
X220468Y262425D01*
X221089Y262549D01*
X221453Y262792D01*
X221816Y262549D01*
X222437Y262425D01*
X223058Y262549D01*
X223421Y262792D01*
X223785Y262549D01*
X224406Y262425D01*
X225026Y262549D01*
X225552Y262900D01*
X225904Y263427D01*
X226027Y264047D01*
Y269953D01*
X225935Y270417D01*
Y271023D01*
X226738Y271827D01*
X226834Y271806D01*
X227061Y271246D01*
X226930Y271049D01*
X226813Y270464D01*
Y270417D01*
X226721Y269953D01*
Y264047D01*
X226844Y263427D01*
X227196Y262900D01*
X227722Y262549D01*
X228343Y262425D01*
X228963Y262549D01*
X229327Y262792D01*
X229690Y262549D01*
X230311Y262425D01*
X230932Y262549D01*
X231295Y262792D01*
X231659Y262549D01*
X232279Y262425D01*
X232900Y262549D01*
X233264Y262792D01*
X233627Y262549D01*
X234248Y262425D01*
X234869Y262549D01*
X235232Y262792D01*
X235596Y262549D01*
X236216Y262425D01*
X236837Y262549D01*
X237201Y262792D01*
X237564Y262549D01*
X238185Y262425D01*
X238806Y262549D01*
X239332Y262900D01*
X239683Y263427D01*
X239807Y264047D01*
Y269953D01*
X239714Y270417D01*
Y271188D01*
X240497Y271971D01*
X329867D01*
X359032Y242806D01*
Y240650D01*
X364968D01*
Y242821D01*
X376190D01*
X376681Y242181D01*
X377507Y241547D01*
X378468Y241149D01*
X379500Y241013D01*
X380532Y241149D01*
X381493Y241547D01*
X382319Y242181D01*
X382953Y243007D01*
X383351Y243968D01*
X383487Y245000D01*
X383351Y246032D01*
X382953Y246993D01*
X382319Y247819D01*
X381493Y248453D01*
X380532Y248851D01*
X379500Y248987D01*
X378468Y248851D01*
X377507Y248453D01*
X376681Y247819D01*
X376047Y246993D01*
X375649Y246032D01*
X375629Y245880D01*
X364968D01*
Y246783D01*
X359379D01*
X333154Y273009D01*
X333346Y273471D01*
X336866D01*
X356419Y253919D01*
X356915Y253587D01*
X357500Y253471D01*
X375855D01*
X376047Y253007D01*
X376681Y252181D01*
X377507Y251547D01*
X378468Y251149D01*
X379500Y251013D01*
X380532Y251149D01*
X381493Y251547D01*
X382319Y252181D01*
X382953Y253007D01*
X383351Y253968D01*
X383487Y255000D01*
X383351Y256032D01*
X382953Y256993D01*
X382319Y257819D01*
X381493Y258453D01*
X380532Y258851D01*
X379500Y258987D01*
X378468Y258851D01*
X377507Y258453D01*
X376681Y257819D01*
X376047Y256993D01*
X375855Y256529D01*
X366469D01*
Y262417D01*
X366469D01*
Y262583D01*
X366469D01*
Y264120D01*
X375629D01*
X375649Y263968D01*
X376047Y263007D01*
X376681Y262181D01*
X377507Y261547D01*
X378468Y261149D01*
X379500Y261013D01*
X380532Y261149D01*
X381493Y261547D01*
X382319Y262181D01*
X382953Y263007D01*
X383351Y263968D01*
X383487Y265000D01*
X383351Y266032D01*
X382953Y266993D01*
X382319Y267819D01*
X381493Y268453D01*
X380532Y268851D01*
X379500Y268987D01*
X378468Y268851D01*
X377507Y268453D01*
X376681Y267819D01*
X376190Y267179D01*
X366469D01*
Y268717D01*
X360531D01*
Y267179D01*
X359484D01*
X350654Y276009D01*
X350846Y276471D01*
X357867D01*
X360568Y273769D01*
X361064Y273437D01*
X361650Y273321D01*
X362531D01*
Y271783D01*
X368468D01*
Y273471D01*
X375547D01*
Y271047D01*
X383453D01*
Y278953D01*
X375547D01*
Y276529D01*
X368468D01*
Y277917D01*
X368468D01*
Y278083D01*
X368468D01*
Y284216D01*
X362531D01*
Y283033D01*
X360331D01*
X360221Y283197D01*
X359443Y283717D01*
X358526Y283899D01*
X357609Y283717D01*
X356832Y283197D01*
X356313Y282420D01*
X356130Y281503D01*
X356313Y280586D01*
X356685Y280029D01*
X356419Y279529D01*
X347346D01*
X347154Y279991D01*
X353731Y286568D01*
X354063Y287064D01*
X354179Y287650D01*
Y289032D01*
X355716D01*
Y294969D01*
X354179D01*
Y301750D01*
X356400D01*
Y311250D01*
X348900D01*
Y301750D01*
X351120D01*
Y295322D01*
X350767Y294969D01*
X349583Y294969D01*
X349083Y294969D01*
X343284D01*
Y293529D01*
X341426D01*
X341316Y293694D01*
X340538Y294214D01*
X339621Y294396D01*
X338704Y294214D01*
X337927Y293694D01*
X337408Y292917D01*
X337225Y292000D01*
X337408Y291083D01*
X337927Y290306D01*
X338704Y289786D01*
X339621Y289604D01*
X340538Y289786D01*
X341316Y290306D01*
X341426Y290471D01*
X343284D01*
Y289032D01*
X349083D01*
X349417Y289032D01*
X349917Y289032D01*
X351120D01*
Y288283D01*
X343866Y281029D01*
X310046D01*
X309855Y281491D01*
X315231Y286867D01*
X315563Y287364D01*
X315679Y287949D01*
Y288531D01*
X317216D01*
Y294468D01*
X316029D01*
Y301250D01*
X318250D01*
Y310750D01*
X310750D01*
Y301250D01*
X312971D01*
Y294822D01*
X312617Y294468D01*
X311083Y294468D01*
X310583Y294468D01*
X304784D01*
Y293029D01*
X303553D01*
X303443Y293194D01*
X302666Y293714D01*
X301749Y293896D01*
X300832Y293714D01*
X300055Y293194D01*
X299535Y292417D01*
X299353Y291500D01*
X299535Y290583D01*
X300055Y289806D01*
X300832Y289286D01*
X301749Y289104D01*
X302666Y289286D01*
X303443Y289806D01*
X303553Y289971D01*
X304784D01*
Y288531D01*
X310583D01*
X310917Y288531D01*
X311417Y288531D01*
X311916D01*
X312107Y288070D01*
X306567Y282529D01*
X275846D01*
X275654Y282991D01*
X279881Y287218D01*
X280212Y287714D01*
X280329Y288299D01*
Y288531D01*
X281866D01*
Y294468D01*
X280529D01*
Y301750D01*
X282750D01*
Y311250D01*
X275250D01*
Y301750D01*
X277471D01*
Y294822D01*
X277117Y294468D01*
X275732Y294468D01*
X275232Y294468D01*
X269433D01*
Y292634D01*
X267658D01*
X267548Y292799D01*
X266771Y293319D01*
X265854Y293501D01*
X264937Y293319D01*
X264159Y292799D01*
X263640Y292022D01*
X263457Y291105D01*
X263640Y290188D01*
X264159Y289411D01*
X264937Y288891D01*
X265854Y288709D01*
X266771Y288891D01*
X267548Y289411D01*
X267658Y289576D01*
X269433D01*
Y288531D01*
X275232D01*
X275567Y288531D01*
X276215Y288531D01*
X276407Y288070D01*
X272366Y284029D01*
X243846D01*
X243654Y284491D01*
X246231Y287068D01*
X246563Y287564D01*
X246679Y288150D01*
Y288681D01*
X248217D01*
Y294618D01*
X246403D01*
Y302250D01*
X248624D01*
Y311750D01*
D02*
G37*
G36*
X183055Y265396D02*
X182138Y265214D01*
X181360Y264694D01*
X180841Y263917D01*
X180658Y263000D01*
X180841Y262083D01*
X181111Y261679D01*
X180844Y261179D01*
X174866D01*
Y262618D01*
X169067D01*
X168732Y262618D01*
X168232Y262618D01*
X162433D01*
Y262074D01*
X156807D01*
Y262717D01*
X150870D01*
Y262184D01*
X139118D01*
X138190Y262000D01*
X138102Y261941D01*
X136740D01*
Y259994D01*
X136694Y259760D01*
X136740Y259526D01*
Y257579D01*
X138102D01*
X138190Y257520D01*
X139118Y257335D01*
X150870D01*
Y256583D01*
X156807D01*
Y257225D01*
X162433D01*
Y256681D01*
X168232D01*
X168567Y256681D01*
X169067Y256681D01*
X174866D01*
Y258120D01*
X181759D01*
X192859Y247021D01*
X192954Y246957D01*
X193017Y246314D01*
X171067Y224364D01*
X170567Y224469D01*
Y225728D01*
X164768D01*
X164433Y225728D01*
X163933Y225728D01*
X158134D01*
Y225574D01*
X156768D01*
Y226217D01*
X150831D01*
Y225558D01*
X138618D01*
X137690Y225374D01*
X137602Y225315D01*
X136240D01*
Y223368D01*
X136194Y223134D01*
X136240Y222900D01*
Y220953D01*
X137602D01*
X137690Y220894D01*
X138618Y220709D01*
X150831D01*
Y220083D01*
X156768D01*
Y220725D01*
X158134D01*
Y219791D01*
X163933D01*
X164268Y219791D01*
X164768Y219791D01*
X170567D01*
Y221231D01*
X171626D01*
X172211Y221347D01*
X172707Y221678D01*
X173658Y222629D01*
X174120Y222438D01*
Y190201D01*
X173716Y189969D01*
X167917D01*
X167583Y189969D01*
X167083Y189969D01*
X161284D01*
Y189724D01*
X156807D01*
Y190366D01*
X150870D01*
Y189684D01*
X137902D01*
X136974Y189500D01*
X136886Y189441D01*
X135524D01*
Y187494D01*
X135477Y187260D01*
X135524Y187026D01*
Y185079D01*
X136886D01*
X136974Y185020D01*
X137902Y184835D01*
X150870D01*
Y184232D01*
X156807D01*
Y184875D01*
X161284D01*
Y184031D01*
X167083D01*
X167417Y184031D01*
X167917Y184031D01*
X173716D01*
Y185471D01*
X174186D01*
X174771Y185587D01*
X175267Y185919D01*
X176731Y187382D01*
X177063Y187879D01*
X177179Y188464D01*
Y223639D01*
X184480Y230940D01*
X185023Y230776D01*
X185140Y230188D01*
X185659Y229411D01*
X186437Y228891D01*
X187354Y228709D01*
X188270Y228891D01*
X189048Y229411D01*
X189567Y230188D01*
X189738Y231048D01*
X189811Y231145D01*
X189886Y231193D01*
X190386Y230922D01*
Y230805D01*
X196126D01*
Y236742D01*
X194458D01*
Y237296D01*
X195862Y238699D01*
X198154D01*
X198618Y238607D01*
X204524D01*
X205144Y238730D01*
X205670Y239082D01*
X206022Y239608D01*
X206145Y240228D01*
X206022Y240849D01*
X205779Y241213D01*
X206022Y241576D01*
X206145Y242197D01*
X206022Y242817D01*
X205779Y243181D01*
X206022Y243545D01*
X206145Y244165D01*
X206022Y244786D01*
X205779Y245150D01*
X206022Y245513D01*
X206145Y246134D01*
X206022Y246755D01*
X205779Y247118D01*
X206022Y247482D01*
X206145Y248102D01*
X206022Y248723D01*
X205779Y249087D01*
X206022Y249450D01*
X206145Y250071D01*
X206022Y250692D01*
X205779Y251055D01*
X206022Y251419D01*
X206145Y252039D01*
X206022Y252660D01*
X205779Y253024D01*
X206022Y253387D01*
X206145Y254008D01*
X206022Y254628D01*
X205670Y255155D01*
X205144Y255506D01*
X204524Y255630D01*
X198618D01*
X197997Y255506D01*
X197471Y255155D01*
X197120Y254628D01*
X196996Y254008D01*
X197120Y253387D01*
X197363Y253024D01*
X197120Y252660D01*
X196996Y252039D01*
X197120Y251419D01*
X197363Y251055D01*
X197120Y250692D01*
X196996Y250071D01*
X197007Y250018D01*
X196690Y249632D01*
X194574D01*
X187911Y256294D01*
X188157Y256755D01*
X188579Y256671D01*
X190130D01*
Y255232D01*
X195870D01*
Y256416D01*
X198154D01*
X198618Y256323D01*
X204524D01*
X205144Y256447D01*
X205670Y256798D01*
X206022Y257324D01*
X206145Y257945D01*
X206022Y258565D01*
X205779Y258929D01*
X206022Y259293D01*
X206145Y259913D01*
X206022Y260534D01*
X205670Y261060D01*
X205144Y261412D01*
X204524Y261535D01*
X198618D01*
X197997Y261412D01*
X197471Y261060D01*
X197120Y260534D01*
X196996Y259913D01*
X197007Y259861D01*
X196690Y259474D01*
X195870D01*
Y261169D01*
X190130D01*
Y259730D01*
X189212D01*
X185328Y263614D01*
X185268Y263917D01*
X184749Y264694D01*
X183972Y265214D01*
X183055Y265396D01*
D02*
G37*
G36*
X285411Y253417D02*
X277289D01*
Y251388D01*
X275358D01*
X274773Y251271D01*
X274277Y250940D01*
X265095Y241758D01*
X248689D01*
X248224Y241850D01*
X242319D01*
X241698Y241727D01*
X241172Y241375D01*
X240821Y240849D01*
X240697Y240228D01*
X240821Y239608D01*
X241064Y239244D01*
X240821Y238880D01*
X240697Y238260D01*
X240821Y237639D01*
X241064Y237276D01*
X240821Y236912D01*
X240697Y236291D01*
X240821Y235671D01*
X241172Y235145D01*
X241698Y234793D01*
X242319Y234670D01*
X248224D01*
X248845Y234793D01*
X249371Y235145D01*
X249896Y235030D01*
X250123Y234878D01*
X250709Y234762D01*
X251382D01*
Y233421D01*
X252821D01*
Y231302D01*
X252659Y231194D01*
X252140Y230417D01*
X251958Y229500D01*
X252140Y228583D01*
X252659Y227806D01*
X253437Y227286D01*
X254354Y227104D01*
X255271Y227286D01*
X256048Y227806D01*
X256567Y228583D01*
X256750Y229500D01*
X256567Y230417D01*
X256048Y231194D01*
X255880Y231307D01*
Y233421D01*
X257319D01*
Y238699D01*
X265728D01*
X266314Y238815D01*
X266810Y239147D01*
X275992Y248329D01*
X277289D01*
Y246299D01*
X285411D01*
Y253417D01*
D02*
G37*
G36*
X248224Y261535D02*
X242319D01*
X241698Y261412D01*
X241172Y261060D01*
X240821Y260534D01*
X240697Y259913D01*
X240821Y259293D01*
X241064Y258929D01*
X240821Y258565D01*
X240697Y257945D01*
X240821Y257324D01*
X241064Y256961D01*
X240821Y256597D01*
X240697Y255976D01*
X240821Y255356D01*
X241064Y254992D01*
X240821Y254628D01*
X240697Y254008D01*
X240821Y253387D01*
X241064Y253024D01*
X240821Y252660D01*
X240697Y252039D01*
X240821Y251419D01*
X241064Y251055D01*
X240821Y250692D01*
X240697Y250071D01*
X240821Y249450D01*
X241064Y249087D01*
X240821Y248723D01*
X240697Y248102D01*
X240821Y247482D01*
X241064Y247118D01*
X240821Y246755D01*
X240697Y246134D01*
X240821Y245513D01*
X241172Y244987D01*
X241698Y244636D01*
X242319Y244512D01*
X248224D01*
X248845Y244636D01*
X249371Y244987D01*
X249723Y245513D01*
X249846Y246134D01*
X249836Y246186D01*
X250153Y246573D01*
X251382D01*
Y245130D01*
X257319D01*
Y250870D01*
X255880D01*
Y251798D01*
X256048Y251911D01*
X256567Y252688D01*
X256750Y253605D01*
X256567Y254522D01*
X256048Y255299D01*
X255271Y255819D01*
X254354Y256001D01*
X253437Y255819D01*
X252659Y255299D01*
X252140Y254522D01*
X251958Y253605D01*
X252140Y252688D01*
X252659Y251911D01*
X252821Y251803D01*
Y250870D01*
X251382D01*
Y249632D01*
X250153D01*
X249836Y250018D01*
X249846Y250071D01*
X249723Y250692D01*
X249480Y251055D01*
X249723Y251419D01*
X249846Y252039D01*
X249723Y252660D01*
X249480Y253024D01*
X249723Y253387D01*
X249846Y254008D01*
X249723Y254628D01*
X249480Y254992D01*
X249723Y255356D01*
X249846Y255976D01*
X249723Y256597D01*
X249480Y256961D01*
X249723Y257324D01*
X249846Y257945D01*
X249723Y258565D01*
X249480Y258929D01*
X249723Y259293D01*
X249846Y259913D01*
X249723Y260534D01*
X249371Y261060D01*
X248845Y261412D01*
X248224Y261535D01*
D02*
G37*
G36*
X316711Y253417D02*
X308589D01*
Y246299D01*
X316711D01*
Y248329D01*
X336008D01*
X344769Y239568D01*
X345265Y239237D01*
X345850Y239120D01*
X346178D01*
X346532Y238767D01*
X346532Y237583D01*
X346532Y237083D01*
Y231283D01*
X352468D01*
Y232821D01*
X356016D01*
X362120Y226717D01*
Y225822D01*
X361767Y225468D01*
X360583Y225468D01*
X360083Y225468D01*
X354283D01*
Y219531D01*
X354362D01*
X354776Y219323D01*
Y214173D01*
X359925D01*
Y219323D01*
X360339Y219531D01*
X360917Y219531D01*
X366717D01*
Y220759D01*
X375547D01*
Y218336D01*
X383453D01*
Y226241D01*
X375547D01*
Y223818D01*
X366717D01*
Y225468D01*
X365179D01*
Y227350D01*
X365063Y227936D01*
X364731Y228432D01*
X359699Y233464D01*
X360018Y233852D01*
X360415Y233587D01*
X361000Y233471D01*
X375855D01*
X376047Y233007D01*
X376681Y232181D01*
X377507Y231547D01*
X378468Y231149D01*
X379500Y231013D01*
X380532Y231149D01*
X381493Y231547D01*
X382319Y232181D01*
X382953Y233007D01*
X383351Y233968D01*
X383487Y235000D01*
X383351Y236032D01*
X382953Y236993D01*
X382319Y237819D01*
X381493Y238453D01*
X380532Y238851D01*
X379500Y238987D01*
X378468Y238851D01*
X377507Y238453D01*
X376681Y237819D01*
X376047Y236993D01*
X375855Y236529D01*
X361633D01*
X356432Y241731D01*
X355936Y242063D01*
X355350Y242179D01*
X352468D01*
Y243717D01*
X346532D01*
Y242839D01*
X346031Y242631D01*
X337723Y250940D01*
X337227Y251271D01*
X336642Y251388D01*
X316711D01*
Y253417D01*
D02*
G37*
G36*
X248224Y232008D02*
X242319D01*
X241698Y231884D01*
X241172Y231533D01*
X240821Y231006D01*
X240697Y230386D01*
X240821Y229765D01*
X241172Y229239D01*
X241698Y228888D01*
X242319Y228764D01*
X248224D01*
X248845Y228888D01*
X249371Y229239D01*
X249723Y229765D01*
X249846Y230386D01*
X249723Y231006D01*
X249371Y231533D01*
X248845Y231884D01*
X248224Y232008D01*
D02*
G37*
G36*
X204524Y237913D02*
X198618D01*
X197997Y237790D01*
X197471Y237438D01*
X197120Y236912D01*
X196996Y236291D01*
X197120Y235671D01*
X197363Y235307D01*
X197120Y234943D01*
X196996Y234323D01*
X197120Y233702D01*
X197363Y233339D01*
X197120Y232975D01*
X196996Y232354D01*
X197120Y231734D01*
X197363Y231370D01*
X197120Y231006D01*
X196996Y230386D01*
X197120Y229765D01*
X197471Y229239D01*
X197997Y228888D01*
X198618Y228764D01*
X204524D01*
X205144Y228888D01*
X205670Y229239D01*
X206022Y229765D01*
X206145Y230386D01*
X206022Y231006D01*
X205779Y231370D01*
X206022Y231734D01*
X206145Y232354D01*
X206022Y232975D01*
X205779Y233339D01*
X206022Y233702D01*
X206145Y234323D01*
X206022Y234943D01*
X205779Y235307D01*
X206022Y235671D01*
X206145Y236291D01*
X206022Y236912D01*
X205670Y237438D01*
X205144Y237790D01*
X204524Y237913D01*
D02*
G37*
G36*
X338991Y216001D02*
X338074Y215819D01*
X337297Y215299D01*
X337157Y215089D01*
X326830D01*
Y211121D01*
X337491D01*
Y211179D01*
X337991Y211447D01*
X338074Y211391D01*
X338991Y211209D01*
X339373Y210895D01*
Y209532D01*
X337491D01*
Y210089D01*
X326830D01*
Y206121D01*
X337491D01*
Y206677D01*
X339020D01*
X339373Y206324D01*
Y206235D01*
X339621Y205837D01*
Y204532D01*
X337491D01*
Y205089D01*
X326830D01*
Y201121D01*
X329037D01*
X329203Y200621D01*
X329049Y200390D01*
X328990Y200089D01*
X326830D01*
Y196121D01*
X328972D01*
Y192000D01*
X329049Y191610D01*
X329270Y191279D01*
X329601Y191058D01*
X329991Y190980D01*
X344472D01*
Y179105D01*
X344549Y178715D01*
X344629Y178595D01*
X344549Y178475D01*
X344472Y178085D01*
X344472Y169124D01*
X312650D01*
X312259Y169047D01*
X311929Y168826D01*
X311708Y168495D01*
X311630Y168105D01*
Y156105D01*
X311630Y156105D01*
X311630Y155605D01*
X311630Y151883D01*
X311311Y151529D01*
X306928D01*
Y155724D01*
X300991D01*
Y144276D01*
X306928D01*
Y148471D01*
X318159D01*
Y146897D01*
X321779D01*
X321788Y146892D01*
X321935Y146794D01*
X321957Y146789D01*
X321977Y146777D01*
X322152Y146750D01*
X322325Y146716D01*
X342342Y146716D01*
X342732Y146794D01*
X343063Y147015D01*
X343284Y147345D01*
X343361Y147736D01*
X343361Y155085D01*
X390991Y155085D01*
X391382Y155163D01*
X391712Y155384D01*
X391933Y155715D01*
X392011Y156105D01*
Y178957D01*
X391982Y179104D01*
X391967Y179253D01*
X391943Y179298D01*
X391933Y179347D01*
X391850Y179472D01*
X391779Y179604D01*
X391740Y179636D01*
X391712Y179678D01*
X391588Y179761D01*
X391472Y179856D01*
X391424Y179871D01*
X391382Y179899D01*
X391235Y179928D01*
X391091Y179972D01*
X390591Y180021D01*
X390511Y180094D01*
Y200605D01*
X390433Y200995D01*
X390212Y201326D01*
X389882Y201547D01*
X389491Y201624D01*
X378499D01*
X378440Y201613D01*
X372511D01*
Y202859D01*
X372433Y203250D01*
X372212Y203580D01*
X371882Y203801D01*
X371491Y203879D01*
X345361D01*
X345361Y206223D01*
X345310Y206702D01*
Y211975D01*
X341259D01*
X341023Y212416D01*
X341205Y212688D01*
X341387Y213605D01*
X341205Y214522D01*
X340686Y215299D01*
X339908Y215819D01*
X338991Y216001D01*
D02*
G37*
G36*
X181000Y193873D02*
X180149Y193704D01*
X179428Y193222D01*
X178946Y192501D01*
X178776Y191650D01*
Y185350D01*
X178946Y184499D01*
X179428Y183778D01*
X180149Y183296D01*
X181000Y183127D01*
X181851Y183296D01*
X182572Y183778D01*
X183055Y184499D01*
X183224Y185350D01*
Y191650D01*
X183055Y192501D01*
X182572Y193222D01*
X181851Y193704D01*
X181000Y193873D01*
D02*
G37*
G36*
X295000Y183896D02*
X294083Y183714D01*
X293306Y183194D01*
X292786Y182417D01*
X292604Y181500D01*
X292786Y180583D01*
X293306Y179806D01*
X293471Y179696D01*
Y178559D01*
X287605D01*
Y167110D01*
X302203D01*
Y178559D01*
X296529D01*
Y179696D01*
X296694Y179806D01*
X297214Y180583D01*
X297396Y181500D01*
X297214Y182417D01*
X296694Y183194D01*
X295917Y183714D01*
X295000Y183896D01*
D02*
G37*
G36*
X297873Y155724D02*
X291936D01*
Y144276D01*
X293375D01*
Y142370D01*
X291889D01*
Y140801D01*
X290304D01*
X290194Y140966D01*
X289417Y141486D01*
X288500Y141668D01*
X287583Y141486D01*
X286806Y140966D01*
X286286Y140189D01*
X286104Y139272D01*
X286286Y138355D01*
X286806Y137578D01*
X287583Y137058D01*
X288500Y136876D01*
X289417Y137058D01*
X290194Y137578D01*
X290304Y137742D01*
X291889D01*
Y136630D01*
X297826D01*
Y142370D01*
X296433D01*
Y144276D01*
X297873D01*
Y155724D01*
D02*
G37*
%LPD*%
G36*
X356896Y265441D02*
X356649Y264981D01*
X356000Y265110D01*
X355083Y264927D01*
X354306Y264408D01*
X353786Y263631D01*
X353604Y262714D01*
X353786Y261797D01*
X354215Y261155D01*
X353827Y260836D01*
X340154Y274509D01*
X340346Y274971D01*
X347366D01*
X356896Y265441D01*
D02*
G37*
G36*
X371491Y198800D02*
X370991Y198539D01*
X370491Y198638D01*
X369906Y198522D01*
X369410Y198190D01*
X369256Y198037D01*
X368925Y197540D01*
X368808Y196955D01*
X368925Y196370D01*
X369256Y195874D01*
X369753Y195542D01*
X370338Y195426D01*
X370923Y195542D01*
X370991Y195588D01*
X371491Y195321D01*
Y192000D01*
X329991D01*
Y200000D01*
X331112Y201121D01*
X337491D01*
Y201677D01*
X339621D01*
Y200286D01*
X345361D01*
Y202859D01*
X371491D01*
Y198800D01*
D02*
G37*
G36*
X389491Y179105D02*
X345491D01*
Y190980D01*
X371491D01*
X371882Y191058D01*
X372212Y191279D01*
X372433Y191610D01*
X372511Y192000D01*
Y192605D01*
X378499D01*
Y200605D01*
X389491D01*
Y179105D01*
D02*
G37*
G36*
X390991Y178957D02*
Y156105D01*
X342342Y156105D01*
X342342Y147736D01*
X322325Y147736D01*
X322187Y148031D01*
X322139Y148236D01*
X322442Y148690D01*
X322559Y149275D01*
X322442Y149861D01*
X322111Y150357D01*
X321386Y151081D01*
X320890Y151413D01*
X320305Y151529D01*
X313003D01*
X312650Y151883D01*
X312650Y155605D01*
X312650Y156105D01*
X313206Y156105D01*
X313650D01*
X313988Y156105D01*
X315511Y156105D01*
X314150D01*
X312650Y156105D01*
Y168105D01*
X345491D01*
X345491Y178085D01*
X389491D01*
X389882Y178163D01*
X390212Y178384D01*
X390433Y178715D01*
X390491Y179006D01*
X390991Y178957D01*
D02*
G37*
%LPC*%
G36*
X341342Y199634D02*
X340757Y199518D01*
X340260Y199186D01*
X339929Y198690D01*
X339812Y198105D01*
X339929Y197520D01*
X340260Y197023D01*
X341410Y195874D01*
X341906Y195542D01*
X342491Y195426D01*
X343077Y195542D01*
X343573Y195874D01*
X343904Y196370D01*
X344021Y196955D01*
X343904Y197540D01*
X343573Y198037D01*
X342423Y199186D01*
X341927Y199518D01*
X341342Y199634D01*
D02*
G37*
G36*
X347491Y162134D02*
X346906Y162018D01*
X346410Y161686D01*
X346078Y161190D01*
X345962Y160605D01*
X346078Y160020D01*
X346410Y159523D01*
X346914Y159019D01*
X347410Y158688D01*
X347995Y158572D01*
X370491D01*
X371077Y158688D01*
X371573Y159019D01*
X371904Y159516D01*
X372021Y160101D01*
X371904Y160686D01*
X371573Y161182D01*
X371077Y161514D01*
X370491Y161630D01*
X348629D01*
X348573Y161686D01*
X348077Y162018D01*
X347491Y162134D01*
D02*
G37*
%LPD*%
D12*
X277117Y189210D02*
X283991D01*
X253491Y165584D02*
X277117Y189210D01*
X295000Y172931D02*
Y181500D01*
X294630Y139272D02*
X294858Y139500D01*
X288500Y139272D02*
X294630D01*
X294858Y139500D02*
X294904Y139546D01*
Y150000D01*
Y172835D02*
X295000Y172931D01*
X320305Y150000D02*
X321029Y149275D01*
X303959Y150000D02*
X320305D01*
X298641Y196455D02*
X300291Y198105D01*
X309523D01*
X294070Y196455D02*
X298641D01*
X239864Y273500D02*
X330500D01*
X360283Y243717D01*
X362000D01*
X362634Y244350D01*
X356000Y262150D02*
Y262714D01*
Y262150D02*
X358799Y259350D01*
X363500D01*
X238621Y276500D02*
X348000D01*
X358850Y265650D01*
X363500D01*
X378850D02*
X379201Y265299D01*
X363500Y265650D02*
X378850D01*
X358526Y281503D02*
X365854D01*
X192929Y233774D02*
Y237929D01*
X170000Y177933D02*
X186000D01*
X165933D02*
X170000D01*
X164000Y176000D02*
X165933Y177933D01*
X137750Y176000D02*
X164000D01*
X283991Y189210D02*
X293091D01*
X294070Y190189D02*
Y196455D01*
X293091Y189210D02*
X294070Y190189D01*
X183055Y263000D02*
X183780D01*
X188579Y258201D01*
X341342Y198105D02*
X342491Y196955D01*
X229750Y213298D02*
Y216689D01*
X224406Y219654D02*
Y223299D01*
X221000Y216248D02*
X224406Y219654D01*
X226374Y220066D02*
X229750Y216689D01*
X230000Y210751D02*
Y212517D01*
X227354Y208105D02*
X230000Y210751D01*
X170000Y156374D02*
Y177933D01*
X167626Y154000D02*
X170000Y156374D01*
X131500Y169750D02*
X137750Y176000D01*
X175650Y188464D02*
Y224272D01*
X174186Y187000D02*
X175650Y188464D01*
X170650Y187000D02*
X174186D01*
X214000Y206575D02*
X214150Y206725D01*
Y212500D01*
X186000Y212374D02*
X188354Y214728D01*
X186000Y207398D02*
Y212374D01*
X207939Y219500D02*
X208658Y220218D01*
X187000Y219500D02*
X207939D01*
X181000Y213500D02*
X187000Y219500D01*
X224406Y271657D02*
X227249Y274500D01*
X227354D01*
X228343Y270464D02*
X232354Y274475D01*
X228343Y267000D02*
Y270464D01*
X232354Y274475D02*
Y276255D01*
X224406Y267000D02*
Y271657D01*
X188579Y258201D02*
X193000D01*
X190022Y233774D02*
X192929D01*
X187354Y231105D02*
X190022Y233774D01*
X226374Y220066D02*
Y223299D01*
X254350Y229503D02*
X254354Y229500D01*
X254350Y229503D02*
Y236291D01*
Y253602D02*
X254354Y253605D01*
X254350Y248000D02*
Y253602D01*
X363650Y222500D02*
Y227350D01*
X356650Y234350D02*
X363650Y227350D01*
X349500Y234350D02*
X356650D01*
X365500Y281150D02*
X365854Y281503D01*
X339621Y292000D02*
X346350D01*
X301749Y291500D02*
X307850D01*
X272105Y291105D02*
X272500Y291500D01*
X265854Y291105D02*
X272105D01*
X231650Y291650D02*
X238850D01*
X231500Y291500D02*
X231650Y291650D01*
X197354Y291605D02*
X197398Y291650D01*
X203350D01*
X162749Y291500D02*
X169150D01*
X129000Y291650D02*
X135850D01*
X94000Y291776D02*
X94276Y291500D01*
X100850D01*
X175650Y291000D02*
Y291500D01*
Y292000D01*
X193000Y280000D02*
X205500D01*
X181500Y291500D02*
X193000Y280000D01*
X175650Y291500D02*
X181500D01*
X205500Y280000D02*
X212595Y272905D01*
Y267000D02*
Y272905D01*
X151500Y148000D02*
X174000D01*
X145000Y154500D02*
X151500Y148000D01*
X139374Y154500D02*
X145000D01*
X174000Y148000D02*
X175500Y149500D01*
Y154000D01*
X186000Y164500D01*
Y171850D01*
X131500Y154500D02*
Y169750D01*
X186000Y177933D02*
Y178150D01*
X191000Y174500D02*
Y188500D01*
X188350Y171850D02*
X191000Y174500D01*
X186000Y171850D02*
X188350D01*
X186000Y178150D02*
X186000Y178150D01*
Y188500D01*
X193940Y248102D02*
X201571D01*
X182393Y259650D02*
X193940Y248102D01*
X171799Y259650D02*
X182393D01*
X152579Y259760D02*
X153839Y258500D01*
X195543Y244165D02*
X201571D01*
X175650Y224272D02*
X195543Y244165D01*
X195000Y246134D02*
X201571D01*
X171626Y222760D02*
X195000Y246134D01*
X167500Y222760D02*
X171626D01*
X160811Y223150D02*
X161201Y222760D01*
X153784Y223134D02*
X153799Y223150D01*
X181000Y207398D02*
Y213500D01*
X164051Y187299D02*
X164350Y187000D01*
X153799Y187260D02*
X153839Y187299D01*
X192929Y237929D02*
X195228Y240228D01*
X201571D01*
X208658Y220218D02*
Y223299D01*
X210626Y220066D02*
Y223299D01*
X207060Y216500D02*
X210626Y220066D01*
X199000Y216500D02*
X207060D01*
X196000Y213500D02*
X199000Y216500D01*
X196000Y207398D02*
Y213500D01*
X357350Y216748D02*
Y222500D01*
X363650D02*
X363861Y222288D01*
X379500D01*
X250709Y236291D02*
X254350D01*
X248740Y238260D02*
X250709Y236291D01*
X245272Y238260D02*
X248740D01*
X361000Y235000D02*
X379500D01*
X355350Y240650D02*
X361000Y235000D01*
X349500Y240650D02*
X355350D01*
X345850D02*
X349500D01*
X336642Y249858D02*
X345850Y240650D01*
X312650Y249858D02*
X336642D01*
X238185Y271821D02*
X239864Y273500D01*
X238185Y267000D02*
Y271821D01*
X337500Y275000D02*
X357500Y255000D01*
X239243Y275000D02*
X337500D01*
X361650Y274850D02*
X365500D01*
X358500Y278000D02*
X361650Y274850D01*
X238000Y278000D02*
X358500D01*
X232279Y272280D02*
X238000Y278000D01*
X357500Y255000D02*
X379500D01*
X378850Y244350D02*
X379500Y245000D01*
X362634Y244350D02*
X378850D01*
X234248Y272127D02*
X238621Y276500D01*
X234248Y267000D02*
Y272127D01*
X236216Y271974D02*
X239243Y275000D01*
X236216Y267000D02*
Y271974D01*
X344500Y279500D02*
X352650Y287650D01*
X227335Y279500D02*
X344500D01*
X232279Y267000D02*
Y272280D01*
X222437Y274602D02*
X227335Y279500D01*
X222437Y267000D02*
Y274602D01*
X307201Y281000D02*
X314150Y287949D01*
X226714Y281000D02*
X307201D01*
X220468Y274755D02*
X226714Y281000D01*
X220468Y267000D02*
Y274755D01*
X273000Y282500D02*
X278799Y288299D01*
X226092Y282500D02*
X273000D01*
X218500Y274908D02*
X226092Y282500D01*
X218500Y267000D02*
Y274908D01*
X241000Y284000D02*
X245150Y288150D01*
X225471Y284000D02*
X241000D01*
X216531Y275060D02*
X225471Y284000D01*
X216531Y267000D02*
Y275060D01*
X365500Y274850D02*
X365650Y275000D01*
X379500D01*
X209650Y278029D02*
Y291650D01*
Y278029D02*
X214563Y273115D01*
X208658Y268479D02*
Y272600D01*
X204257Y277000D02*
X208658Y272600D01*
X134000Y277000D02*
X204257D01*
X141874Y291776D02*
X142150Y291500D01*
X210626Y268000D02*
Y272753D01*
X204879Y278500D02*
X210626Y272753D01*
X166500Y278500D02*
X204879D01*
X214563Y267000D02*
Y273115D01*
X352650Y287650D02*
Y292000D01*
X314150Y287949D02*
Y291500D01*
X278799Y288299D02*
Y291500D01*
X245150Y288150D02*
Y291650D01*
X275358Y249858D02*
X281350D01*
X265728Y240228D02*
X275358Y249858D01*
X245272Y240228D02*
X265728D01*
X254248Y248102D02*
X254350Y248000D01*
X245272Y248102D02*
X254248D01*
X214150Y212500D02*
X214449Y212799D01*
X221000D01*
Y216248D01*
X193000Y258201D02*
X193256Y257945D01*
X201571D01*
X119500Y291500D02*
X134000Y277000D01*
X107150Y291500D02*
X119500D01*
X208658Y266740D02*
Y267000D01*
X107000Y291650D02*
X107150Y291500D01*
X153350Y291650D02*
X166500Y278500D01*
X142150Y291650D02*
X153350D01*
X176374Y292724D02*
Y307000D01*
X175650Y292000D02*
X176374Y292724D01*
X175449Y291500D02*
X175650D01*
X352650Y292000D02*
Y306500D01*
X314150Y291500D02*
X314500Y291850D01*
Y306000D01*
X278799Y291500D02*
X279000Y291701D01*
Y306500D01*
X244874Y291925D02*
X245150Y291650D01*
X244874Y291925D02*
Y307000D01*
X210150Y291500D02*
X210500Y291850D01*
Y307000D01*
X141874Y291776D02*
Y307000D01*
X107000Y291650D02*
Y306000D01*
X253491Y199836D02*
X282098D01*
X283991Y201729D01*
X285121Y202859D01*
X294175Y202650D02*
X309068Y202650D01*
X309523Y203105D01*
X285121Y202859D02*
X292991D01*
X294070Y202754D02*
X294175Y202650D01*
X298991Y208105D02*
X309523D01*
X370338Y196955D02*
X370491Y197109D01*
X347995Y160101D02*
X370491D01*
X347491Y160605D02*
X347995Y160101D01*
D17*
X128882Y263500D02*
D03*
X139118Y267240D02*
D03*
Y259760D02*
D03*
X137902Y187260D02*
D03*
Y194740D02*
D03*
X127665Y191000D02*
D03*
X128382Y226874D02*
D03*
X138618Y230614D02*
D03*
Y223134D02*
D03*
D18*
X285849Y150000D02*
D03*
X294904D02*
D03*
X303959D02*
D03*
D19*
X294904Y172835D02*
D03*
D20*
X181000Y188500D02*
D03*
X186000D02*
D03*
X191000D02*
D03*
X196000D02*
D03*
X181000Y207398D02*
D03*
X186000D02*
D03*
X191000D02*
D03*
X196000D02*
D03*
D21*
X281350Y232142D02*
D03*
Y249858D02*
D03*
X312650Y232142D02*
D03*
Y249858D02*
D03*
D24*
X370491Y160101D02*
D03*
Y197109D02*
D03*
D25*
X332161Y198105D02*
D03*
X332161Y203105D02*
D03*
Y208105D02*
D03*
X332161Y213105D02*
D03*
X309523Y198105D02*
D03*
Y203105D02*
D03*
X309523Y208105D02*
D03*
X309523Y213105D02*
D03*
D26*
X320842Y205605D02*
D03*
D27*
X357350Y216748D02*
D03*
Y210252D02*
D03*
D28*
X253491Y165584D02*
D03*
Y199836D02*
D03*
D29*
X301157Y139500D02*
D03*
X294858D02*
D03*
X260650Y236291D02*
D03*
X254350D02*
D03*
X260650Y248000D02*
D03*
X254350D02*
D03*
X236050Y213298D02*
D03*
X229750D02*
D03*
X214150Y212500D02*
D03*
X207850D02*
D03*
X348641Y209105D02*
D03*
X342342Y209105D02*
D03*
D30*
X283991Y189210D02*
D03*
Y201729D02*
D03*
X334559Y161725D02*
D03*
X334559Y174245D02*
D03*
X320121Y161734D02*
D03*
Y174254D02*
D03*
D31*
X193256Y227474D02*
D03*
Y233774D02*
D03*
X193000Y264500D02*
D03*
Y258201D02*
D03*
X221000Y212799D02*
D03*
Y206500D02*
D03*
X294070Y196455D02*
D03*
Y202754D02*
D03*
X342491Y203255D02*
D03*
X342491Y196955D02*
D03*
X321029Y143566D02*
D03*
Y149866D02*
D03*
D32*
X349500Y240650D02*
D03*
Y234350D02*
D03*
X365500Y274850D02*
D03*
Y281150D02*
D03*
X363500Y265650D02*
D03*
Y259350D02*
D03*
X362000Y250016D02*
D03*
Y243717D02*
D03*
X153839Y187299D02*
D03*
Y181000D02*
D03*
X186000Y178150D02*
D03*
Y171850D02*
D03*
X153799Y216850D02*
D03*
Y223150D02*
D03*
X153839Y259650D02*
D03*
Y253350D02*
D03*
D33*
X357350Y222500D02*
D03*
X363650D02*
D03*
X170650Y187000D02*
D03*
X164350D02*
D03*
X167500Y222760D02*
D03*
X161201D02*
D03*
X165500Y259650D02*
D03*
X171799D02*
D03*
X245150Y291650D02*
D03*
X238850D02*
D03*
X107150Y291500D02*
D03*
X100850D02*
D03*
X142150Y291650D02*
D03*
X135850D02*
D03*
X278799Y291500D02*
D03*
X272500D02*
D03*
X175449D02*
D03*
X169150D02*
D03*
X314150D02*
D03*
X307850D02*
D03*
X209650Y291650D02*
D03*
X203350D02*
D03*
X352650Y292000D02*
D03*
X346350D02*
D03*
D60*
X208658Y267000D02*
D03*
X210626D02*
D03*
X212595D02*
D03*
X214563D02*
D03*
X216531D02*
D03*
X218500D02*
D03*
X220468D02*
D03*
X222437D02*
D03*
X224406D02*
D03*
X226374D02*
D03*
X228343D02*
D03*
X230311D02*
D03*
X232279D02*
D03*
X234248D02*
D03*
X236216D02*
D03*
X238185D02*
D03*
Y223299D02*
D03*
X236216D02*
D03*
X234248D02*
D03*
X232279D02*
D03*
X230311D02*
D03*
X228343D02*
D03*
X226374D02*
D03*
X224406D02*
D03*
X222437D02*
D03*
X220468D02*
D03*
X218500D02*
D03*
X216531D02*
D03*
X214563D02*
D03*
X212595D02*
D03*
X210626D02*
D03*
X208658D02*
D03*
D61*
X245272Y259913D02*
D03*
Y257945D02*
D03*
Y255976D02*
D03*
Y254008D02*
D03*
Y252039D02*
D03*
Y250071D02*
D03*
Y248102D02*
D03*
Y246134D02*
D03*
Y244165D02*
D03*
Y242197D02*
D03*
Y240228D02*
D03*
Y238260D02*
D03*
Y236291D02*
D03*
Y234323D02*
D03*
Y232354D02*
D03*
Y230386D02*
D03*
X201571D02*
D03*
Y232354D02*
D03*
Y234323D02*
D03*
Y236291D02*
D03*
Y238260D02*
D03*
Y240228D02*
D03*
Y242197D02*
D03*
Y244165D02*
D03*
Y246134D02*
D03*
Y248102D02*
D03*
Y250071D02*
D03*
Y252039D02*
D03*
Y254008D02*
D03*
Y255976D02*
D03*
Y257945D02*
D03*
Y259913D02*
D03*
D62*
X111850Y263500D02*
X128882D01*
X111500Y263850D02*
X111850Y263500D01*
X137902Y187260D02*
X153799D01*
X113839Y191000D02*
X127665D01*
X153839Y259650D02*
X165500D01*
X139118Y259760D02*
X152579D01*
X153799Y223150D02*
X160811D01*
X138618Y223134D02*
X153784D01*
X112339Y226874D02*
X128382D01*
X153839Y187299D02*
X164051D01*
D63*
X332161Y213105D02*
X338491Y213105D01*
X332161Y203105D02*
X342342D01*
X342491Y203255D01*
X332161Y208105D02*
X341342D01*
X342342Y209105D01*
X292991Y212288D02*
X293913Y213210D01*
X292991Y202859D02*
Y212288D01*
X293913Y213210D02*
X309418D01*
X309523Y213105D01*
X338491D02*
X338991Y213605D01*
D64*
X219874Y154500D02*
D03*
X212000D02*
D03*
X344776Y306500D02*
D03*
X175500Y154000D02*
D03*
X139374Y154500D02*
D03*
X237000Y307000D02*
D03*
X99126Y306000D02*
D03*
X134000Y307000D02*
D03*
X271126Y306500D02*
D03*
X168500Y307000D02*
D03*
X306626Y306000D02*
D03*
X202626Y307000D02*
D03*
D65*
X204126Y154500D02*
D03*
X352650Y306500D02*
D03*
X167626Y154000D02*
D03*
X131500Y154500D02*
D03*
X244874Y307000D02*
D03*
X107000Y306000D02*
D03*
X141874Y307000D02*
D03*
X279000Y306500D02*
D03*
X176374Y307000D02*
D03*
X314500Y306000D02*
D03*
X210500Y307000D02*
D03*
D66*
X379500Y275000D02*
D03*
Y222288D02*
D03*
D67*
Y265000D02*
D03*
Y255000D02*
D03*
Y245000D02*
D03*
Y235000D02*
D03*
Y212288D02*
D03*
D68*
X113839Y183126D02*
D03*
X112339Y219000D02*
D03*
X112500Y256000D02*
D03*
D69*
X113839Y191000D02*
D03*
X112339Y226874D02*
D03*
X112500Y263874D02*
D03*
D70*
X318676Y201274D02*
D03*
Y205605D02*
D03*
X318676Y209936D02*
D03*
X323007Y201274D02*
D03*
X323007Y205605D02*
D03*
X323007Y209936D02*
D03*
D71*
X295000Y181500D02*
D03*
X356000Y262714D02*
D03*
X358526Y281503D02*
D03*
X288500Y139272D02*
D03*
X183055Y263000D02*
D03*
X332500Y188000D02*
D03*
X187354Y247500D02*
D03*
X214000Y206575D02*
D03*
X188354Y214728D02*
D03*
X227354Y274500D02*
D03*
X232354Y276255D02*
D03*
X187354Y231105D02*
D03*
X227354Y208105D02*
D03*
X254354Y229500D02*
D03*
Y253605D02*
D03*
X339621Y292000D02*
D03*
X301749Y291500D02*
D03*
X231500D02*
D03*
X162749D02*
D03*
X265854Y291105D02*
D03*
X197354Y291605D02*
D03*
X129000Y291650D02*
D03*
X94000Y291776D02*
D03*
X347491Y160605D02*
D03*
X298991Y208105D02*
D03*
X338991Y213605D02*
D03*
D72*
X383487Y141250D02*
D03*
Y318898D02*
D03*
X100852Y141250D02*
D03*
M02*
