G04*
G04 #@! TF.GenerationSoftware,Altium Limited,Altium Designer,18.1.6 (161)*
G04*
G04 Layer_Color=255*
%FSLAX25Y25*%
%MOIN*%
G70*
G01*
G75*
%ADD29R,0.03937X0.03740*%
%ADD32R,0.03937X0.04134*%
%ADD33R,0.04134X0.03937*%
%ADD64O,0.05500X0.07500*%
%ADD65R,0.05500X0.07500*%
%ADD66R,0.05906X0.05906*%
%ADD67C,0.05906*%
%ADD68O,0.07500X0.05500*%
%ADD69R,0.07500X0.05500*%
D29*
X226650Y257000D02*
D03*
X220350D02*
D03*
X226650Y250500D02*
D03*
X220350D02*
D03*
X338842Y203105D02*
D03*
X345141D02*
D03*
D32*
X332491Y202455D02*
D03*
Y208754D02*
D03*
D33*
X338842Y208605D02*
D03*
X345141D02*
D03*
D64*
X219874Y154500D02*
D03*
X212000D02*
D03*
X344776Y306500D02*
D03*
X175500Y154000D02*
D03*
X139374Y154500D02*
D03*
X237000Y307000D02*
D03*
X99126Y306000D02*
D03*
X134000Y307000D02*
D03*
X271126Y306500D02*
D03*
X168500Y307000D02*
D03*
X306626Y306000D02*
D03*
X202626Y307000D02*
D03*
D65*
X204126Y154500D02*
D03*
X352650Y306500D02*
D03*
X167626Y154000D02*
D03*
X131500Y154500D02*
D03*
X244874Y307000D02*
D03*
X107000Y306000D02*
D03*
X141874Y307000D02*
D03*
X279000Y306500D02*
D03*
X176374Y307000D02*
D03*
X314500Y306000D02*
D03*
X210500Y307000D02*
D03*
D66*
X379500Y275000D02*
D03*
Y222288D02*
D03*
D67*
Y265000D02*
D03*
Y255000D02*
D03*
Y245000D02*
D03*
Y235000D02*
D03*
Y212288D02*
D03*
D68*
X113839Y183126D02*
D03*
X112339Y219000D02*
D03*
X112500Y256000D02*
D03*
D69*
X113839Y191000D02*
D03*
X112339Y226874D02*
D03*
X112500Y263874D02*
D03*
M02*
