G04*
G04 #@! TF.GenerationSoftware,Altium Limited,Altium Designer,18.1.6 (161)*
G04*
G04 Layer_Color=255*
%FSLAX25Y25*%
%MOIN*%
G70*
G01*
G75*
%ADD17R,0.02756X0.02362*%
%ADD18R,0.03937X0.09449*%
%ADD19R,0.12598X0.09449*%
%ADD20O,0.02362X0.08661*%
%ADD21R,0.06122X0.05118*%
%ADD24R,0.14016X0.07008*%
%ADD25R,0.08661X0.01968*%
%ADD26R,0.09449X0.12205*%
%ADD27R,0.03150X0.03150*%
%ADD28R,0.07874X0.16142*%
%ADD29R,0.03937X0.03740*%
%ADD30R,0.09843X0.05906*%
%ADD31R,0.03740X0.03937*%
%ADD32R,0.03937X0.04134*%
%ADD33R,0.04134X0.03937*%
%ADD60O,0.01181X0.07087*%
%ADD61O,0.07087X0.01181*%
%ADD64O,0.05500X0.07500*%
%ADD65R,0.05500X0.07500*%
%ADD66R,0.05906X0.05906*%
%ADD67C,0.05906*%
%ADD68O,0.07500X0.05500*%
%ADD69R,0.07500X0.05500*%
D17*
X128882Y263500D02*
D03*
X139118Y267240D02*
D03*
Y259760D02*
D03*
X137902Y187260D02*
D03*
Y194740D02*
D03*
X127665Y191000D02*
D03*
X128382Y226874D02*
D03*
X138618Y230614D02*
D03*
Y223134D02*
D03*
D18*
X285849Y150000D02*
D03*
X294904D02*
D03*
X303959D02*
D03*
D19*
X294904Y172835D02*
D03*
D20*
X181000Y188500D02*
D03*
X186000D02*
D03*
X191000D02*
D03*
X196000D02*
D03*
X181000Y207398D02*
D03*
X186000D02*
D03*
X191000D02*
D03*
X196000D02*
D03*
D21*
X281350Y232142D02*
D03*
Y249858D02*
D03*
X312650Y232142D02*
D03*
Y249858D02*
D03*
D24*
X370491Y160101D02*
D03*
Y197109D02*
D03*
D25*
X332161Y198105D02*
D03*
X332161Y203105D02*
D03*
Y208105D02*
D03*
X332161Y213105D02*
D03*
X309523Y198105D02*
D03*
Y203105D02*
D03*
X309523Y208105D02*
D03*
X309523Y213105D02*
D03*
D26*
X320842Y205605D02*
D03*
D27*
X357350Y216748D02*
D03*
Y210252D02*
D03*
D28*
X253491Y165584D02*
D03*
Y199836D02*
D03*
D29*
X301157Y139500D02*
D03*
X294858D02*
D03*
X260650Y236291D02*
D03*
X254350D02*
D03*
X260650Y248000D02*
D03*
X254350D02*
D03*
X236050Y213298D02*
D03*
X229750D02*
D03*
X214150Y212500D02*
D03*
X207850D02*
D03*
X348641Y209105D02*
D03*
X342342Y209105D02*
D03*
D30*
X283991Y189210D02*
D03*
Y201729D02*
D03*
X334559Y161725D02*
D03*
X334559Y174245D02*
D03*
X320121Y161734D02*
D03*
Y174254D02*
D03*
D31*
X193256Y227474D02*
D03*
Y233774D02*
D03*
X193000Y264500D02*
D03*
Y258201D02*
D03*
X221000Y212799D02*
D03*
Y206500D02*
D03*
X294070Y196455D02*
D03*
Y202754D02*
D03*
X342491Y203255D02*
D03*
X342491Y196955D02*
D03*
X321029Y143566D02*
D03*
Y149866D02*
D03*
D32*
X349500Y240650D02*
D03*
Y234350D02*
D03*
X365500Y274850D02*
D03*
Y281150D02*
D03*
X363500Y265650D02*
D03*
Y259350D02*
D03*
X362000Y250016D02*
D03*
Y243717D02*
D03*
X153839Y187299D02*
D03*
Y181000D02*
D03*
X186000Y178150D02*
D03*
Y171850D02*
D03*
X153799Y216850D02*
D03*
Y223150D02*
D03*
X153839Y259650D02*
D03*
Y253350D02*
D03*
D33*
X357350Y222500D02*
D03*
X363650D02*
D03*
X170650Y187000D02*
D03*
X164350D02*
D03*
X167500Y222760D02*
D03*
X161201D02*
D03*
X165500Y259650D02*
D03*
X171799D02*
D03*
X245150Y291650D02*
D03*
X238850D02*
D03*
X107150Y291500D02*
D03*
X100850D02*
D03*
X142150Y291650D02*
D03*
X135850D02*
D03*
X278799Y291500D02*
D03*
X272500D02*
D03*
X175449D02*
D03*
X169150D02*
D03*
X314150D02*
D03*
X307850D02*
D03*
X209650Y291650D02*
D03*
X203350D02*
D03*
X352650Y292000D02*
D03*
X346350D02*
D03*
D60*
X208658Y267000D02*
D03*
X210626D02*
D03*
X212595D02*
D03*
X214563D02*
D03*
X216531D02*
D03*
X218500D02*
D03*
X220468D02*
D03*
X222437D02*
D03*
X224406D02*
D03*
X226374D02*
D03*
X228343D02*
D03*
X230311D02*
D03*
X232279D02*
D03*
X234248D02*
D03*
X236216D02*
D03*
X238185D02*
D03*
Y223299D02*
D03*
X236216D02*
D03*
X234248D02*
D03*
X232279D02*
D03*
X230311D02*
D03*
X228343D02*
D03*
X226374D02*
D03*
X224406D02*
D03*
X222437D02*
D03*
X220468D02*
D03*
X218500D02*
D03*
X216531D02*
D03*
X214563D02*
D03*
X212595D02*
D03*
X210626D02*
D03*
X208658D02*
D03*
D61*
X245272Y259913D02*
D03*
Y257945D02*
D03*
Y255976D02*
D03*
Y254008D02*
D03*
Y252039D02*
D03*
Y250071D02*
D03*
Y248102D02*
D03*
Y246134D02*
D03*
Y244165D02*
D03*
Y242197D02*
D03*
Y240228D02*
D03*
Y238260D02*
D03*
Y236291D02*
D03*
Y234323D02*
D03*
Y232354D02*
D03*
Y230386D02*
D03*
X201571D02*
D03*
Y232354D02*
D03*
Y234323D02*
D03*
Y236291D02*
D03*
Y238260D02*
D03*
Y240228D02*
D03*
Y242197D02*
D03*
Y244165D02*
D03*
Y246134D02*
D03*
Y248102D02*
D03*
Y250071D02*
D03*
Y252039D02*
D03*
Y254008D02*
D03*
Y255976D02*
D03*
Y257945D02*
D03*
Y259913D02*
D03*
D64*
X219874Y154500D02*
D03*
X212000D02*
D03*
X344776Y306500D02*
D03*
X175500Y154000D02*
D03*
X139374Y154500D02*
D03*
X237000Y307000D02*
D03*
X99126Y306000D02*
D03*
X134000Y307000D02*
D03*
X271126Y306500D02*
D03*
X168500Y307000D02*
D03*
X306626Y306000D02*
D03*
X202626Y307000D02*
D03*
D65*
X204126Y154500D02*
D03*
X352650Y306500D02*
D03*
X167626Y154000D02*
D03*
X131500Y154500D02*
D03*
X244874Y307000D02*
D03*
X107000Y306000D02*
D03*
X141874Y307000D02*
D03*
X279000Y306500D02*
D03*
X176374Y307000D02*
D03*
X314500Y306000D02*
D03*
X210500Y307000D02*
D03*
D66*
X379500Y275000D02*
D03*
Y222288D02*
D03*
D67*
Y265000D02*
D03*
Y255000D02*
D03*
Y245000D02*
D03*
Y235000D02*
D03*
Y212288D02*
D03*
D68*
X113839Y183126D02*
D03*
X112339Y219000D02*
D03*
X112500Y256000D02*
D03*
D69*
X113839Y191000D02*
D03*
X112339Y226874D02*
D03*
X112500Y263874D02*
D03*
M02*
