G04*
G04 #@! TF.GenerationSoftware,Altium Limited,Altium Designer,18.1.6 (161)*
G04*
G04 Layer_Color=32768*
%FSLAX25Y25*%
%MOIN*%
G70*
G01*
G75*
%ADD12C,0.01000*%
%ADD73C,0.00394*%
%ADD74C,0.00197*%
D12*
X317472Y227614D02*
Y254386D01*
X276528Y227614D02*
X317472D01*
X276528D02*
Y254386D01*
X317472D01*
X365491Y178605D02*
X375491D01*
X370491Y173605D02*
Y183605D01*
X348491Y155105D02*
X392491Y155105D01*
Y202105D01*
X348491Y202105D02*
X392491Y202105D01*
X348491Y155105D02*
Y202105D01*
X230991Y155710D02*
Y209710D01*
Y155710D02*
X276491D01*
X230991Y209710D02*
X275491D01*
X275991Y209210D01*
Y156210D02*
Y209210D01*
Y156210D02*
X276491Y155710D01*
D73*
X134000Y261531D02*
Y265469D01*
X132032Y263500D02*
X135968Y263500D01*
X294904Y159449D02*
Y163386D01*
X292936Y161417D02*
X296873D01*
X186531Y197949D02*
X190469D01*
X188500Y195980D02*
Y199917D01*
X341991Y206735D02*
X341991Y210475D01*
X340121Y208605D02*
X343862Y208605D01*
X221453Y245150D02*
X225390D01*
X223421Y243181D02*
Y247118D01*
X318873Y205605D02*
X322810D01*
X320842Y203636D02*
Y207573D01*
X357350Y211630D02*
Y215370D01*
X355480Y213500D02*
X359221D01*
X298007Y137630D02*
Y141370D01*
X296137Y139500D02*
X299878D01*
X257500Y234421D02*
Y238161D01*
X255630Y236291D02*
X259370D01*
X257500Y246130D02*
Y249870D01*
X255630Y248000D02*
X259370D01*
X232900Y211428D02*
Y215168D01*
X231030Y213298D02*
X234770D01*
X191386Y230624D02*
X195126D01*
X193256Y228754D02*
Y232494D01*
X191130Y261350D02*
X194870D01*
X193000Y259480D02*
Y263221D01*
X221000Y207780D02*
Y211520D01*
X219130Y209650D02*
X222870D01*
X209130Y212500D02*
X212870D01*
X211000Y210630D02*
Y214370D01*
X221630Y257000D02*
X225370D01*
X223500Y255130D02*
Y258870D01*
X221630Y250500D02*
X225370D01*
X223500Y248630D02*
Y252370D01*
X130815Y191000D02*
X134752D01*
X132783Y189032D02*
Y192968D01*
X133500Y224905D02*
Y228842D01*
X131532Y226874D02*
X135468D01*
X347630Y237500D02*
X351370D01*
X349500Y235630D02*
Y239370D01*
X363630Y278000D02*
X367370D01*
X365500Y276130D02*
Y279870D01*
X361630Y262500D02*
X365370D01*
X363500Y260630D02*
Y264370D01*
X360500Y220630D02*
Y224370D01*
X358630Y222500D02*
X362370D01*
X360130Y246866D02*
X363870D01*
X362000Y244996D02*
Y248736D01*
X167500Y185130D02*
Y188870D01*
X165630Y187000D02*
X169370D01*
X153839Y182280D02*
Y186020D01*
X151969Y184150D02*
X155709D01*
X184130Y175000D02*
X187870D01*
X186000Y173130D02*
Y176870D01*
X164350Y220890D02*
Y224630D01*
X162480Y222760D02*
X166220D01*
X151929Y220000D02*
X155669D01*
X153799Y218130D02*
Y221870D01*
X166779Y259650D02*
X170520D01*
X168650Y257780D02*
Y261520D01*
X153839Y254630D02*
Y258370D01*
X151969Y256500D02*
X155709D01*
X242000Y289779D02*
Y293520D01*
X240130Y291650D02*
X243870D01*
X104000Y289630D02*
Y293370D01*
X102130Y291500D02*
X105870D01*
X139000Y289779D02*
Y293520D01*
X137130Y291650D02*
X140870D01*
X275650Y289630D02*
Y293370D01*
X273780Y291500D02*
X277520D01*
X172299Y289630D02*
Y293370D01*
X170429Y291500D02*
X174169D01*
X311000Y289630D02*
Y293370D01*
X309130Y291500D02*
X312870D01*
X206500Y289779D02*
Y293520D01*
X204630Y291650D02*
X208370D01*
X349500Y290130D02*
Y293870D01*
X347630Y292000D02*
X351370D01*
X330621Y205605D02*
X334362D01*
X332491Y203735D02*
Y207475D01*
X345491Y210975D02*
X345491Y207235D01*
X343621Y209105D02*
X347361Y209105D01*
X292200Y199605D02*
X295940D01*
X294070Y201475D02*
X294070Y197735D01*
X341991Y201235D02*
X341991Y204975D01*
X340121Y203105D02*
X343862D01*
X342491Y201975D02*
X342491Y198235D01*
X340621Y200105D02*
X344361D01*
X319159Y146716D02*
X322900D01*
X321029Y144846D02*
Y148586D01*
D74*
X126618Y270587D02*
X141382D01*
X126618Y256413D02*
X141382D01*
X126618D02*
Y270587D01*
X141382Y256413D02*
Y270587D01*
X280731Y144291D02*
X309077D01*
X280731Y178543D02*
X309077D01*
X280731Y144291D02*
Y178543D01*
X309077Y144291D02*
Y178543D01*
X177673Y183185D02*
Y212713D01*
X199327Y183185D02*
Y212713D01*
X177673Y183185D02*
X199327Y183185D01*
X177673Y212713D02*
X199327Y212713D01*
X335889Y205652D02*
X348094Y205652D01*
X335889Y211558D02*
X348094D01*
X335889Y205652D02*
X335889Y211558D01*
X348094Y205652D02*
Y211558D01*
X197043Y218772D02*
Y271528D01*
X249799Y218772D02*
Y271528D01*
X197043D02*
X249799D01*
X197043Y218772D02*
X249799D01*
X332236Y295122D02*
Y319472D01*
Y295122D02*
X365209D01*
Y319472D01*
X332236D02*
X365209D01*
X335409Y194778D02*
Y216432D01*
X306275Y194778D02*
Y216432D01*
Y194778D02*
X335409D01*
X306275Y216432D02*
X335409D01*
X354398Y219602D02*
X360303D01*
X354398Y207398D02*
X360303D01*
Y219602D01*
X354398Y207398D02*
Y219602D01*
X291905Y136547D02*
X304110D01*
X291905Y142453D02*
X304110D01*
Y136547D02*
Y142453D01*
X291905Y136547D02*
Y142453D01*
X251398Y233339D02*
X263602D01*
X251398Y239244D02*
X263602D01*
Y233339D02*
Y239244D01*
X251398Y233339D02*
Y239244D01*
Y245047D02*
X263602D01*
X251398Y250953D02*
X263602D01*
Y245047D02*
Y250953D01*
X251398Y245047D02*
Y250953D01*
X226798Y210345D02*
X239002D01*
X226798Y216251D02*
X239002D01*
Y210345D02*
Y216251D01*
X226798Y210345D02*
Y216251D01*
X190303Y224522D02*
Y236726D01*
X196209Y224522D02*
Y236726D01*
X190303Y224522D02*
X196209D01*
X190303Y236726D02*
X196209D01*
X195953Y255248D02*
Y267453D01*
X190047Y255248D02*
Y267453D01*
X195953D01*
X190047Y255248D02*
X195953D01*
X218047Y215752D02*
X223953D01*
X218047Y203547D02*
X223953D01*
Y215752D01*
X218047Y203547D02*
Y215752D01*
X217102Y209547D02*
Y215453D01*
X204898Y209547D02*
Y215453D01*
Y209547D02*
X217102D01*
X204898Y215453D02*
X217102D01*
X229602Y254047D02*
Y259953D01*
X217398Y254047D02*
Y259953D01*
X229602D01*
X217398Y254047D02*
X229602D01*
Y247547D02*
Y253453D01*
X217398Y247547D02*
Y253453D01*
X229602D01*
X217398Y247547D02*
X229602D01*
X140165Y198087D02*
X140165Y183913D01*
X125402D02*
X125402Y198087D01*
X125402Y183913D02*
X140165D01*
X125402Y198087D02*
X140165D01*
X126118Y233961D02*
X140882D01*
X126118Y219787D02*
X140882D01*
X126118D02*
Y233961D01*
X140882Y219787D02*
Y233961D01*
X100866Y170587D02*
X125216D01*
Y203559D01*
X100866D02*
X125216D01*
X100866Y170587D02*
Y203559D01*
X99366Y206461D02*
X123716D01*
Y239433D01*
X99366D02*
X123716D01*
X99366Y206461D02*
Y239433D01*
X99528Y243461D02*
X123878D01*
Y276433D01*
X99528D02*
X123878D01*
X99528Y243461D02*
Y276433D01*
X224461Y295622D02*
Y319972D01*
Y295622D02*
X257433D01*
Y319972D01*
X224461D02*
X257433D01*
X86587Y294622D02*
Y318972D01*
Y294622D02*
X119559D01*
Y318972D01*
X86587D02*
X119559D01*
X121461Y295622D02*
Y319972D01*
Y295622D02*
X154433D01*
Y319972D01*
X121461D02*
X154433D01*
X258587Y295122D02*
Y319472D01*
Y295122D02*
X291559D01*
Y319472D01*
X258587D02*
X291559D01*
X155961Y295622D02*
Y319972D01*
Y295622D02*
X188933D01*
Y319972D01*
X155961D02*
X188933D01*
X294087Y294622D02*
Y318972D01*
Y294622D02*
X327059D01*
Y318972D01*
X294087D02*
X327059D01*
X190087Y295622D02*
Y319972D01*
Y295622D02*
X223059D01*
Y319972D01*
X190087D02*
X223059D01*
X352453Y231398D02*
Y243602D01*
X346547Y231398D02*
Y243602D01*
X352453D01*
X346547Y231398D02*
X352453D01*
X362547Y271898D02*
Y284102D01*
X368453Y271898D02*
Y284102D01*
X362547Y271898D02*
X368453D01*
X362547Y284102D02*
X368453D01*
X366453Y256398D02*
Y268602D01*
X360547Y256398D02*
Y268602D01*
X366453D01*
X360547Y256398D02*
X366453D01*
X354398Y225453D02*
X366602D01*
X354398Y219547D02*
X366602D01*
X354398D02*
Y225453D01*
X366602Y219547D02*
Y225453D01*
X364953Y240764D02*
Y252969D01*
X359047Y240764D02*
Y252969D01*
X364953D01*
X359047Y240764D02*
X364953D01*
X161398Y184047D02*
X173602D01*
X161398Y189953D02*
X173602D01*
Y184047D02*
Y189953D01*
X161398Y184047D02*
Y189953D01*
X150886Y190252D02*
X156791D01*
X150886Y178047D02*
X156791D01*
Y190252D01*
X150886Y178047D02*
Y190252D01*
X188953Y168898D02*
Y181102D01*
X183047Y168898D02*
Y181102D01*
X188953D01*
X183047Y168898D02*
X188953D01*
X158248Y219807D02*
X170453D01*
X158248Y225713D02*
X170453D01*
Y219807D02*
Y225713D01*
X158248Y219807D02*
Y225713D01*
X150847Y213898D02*
Y226102D01*
X156752Y213898D02*
Y226102D01*
X150847Y213898D02*
X156752D01*
X150847Y226102D02*
X156752D01*
X162547Y256697D02*
Y262602D01*
X174752Y256697D02*
Y262602D01*
X162547D02*
X174752D01*
X162547Y256697D02*
X174752D01*
X150886Y262602D02*
X156791D01*
X150886Y250398D02*
X156791D01*
Y262602D01*
X150886Y250398D02*
Y262602D01*
X235898Y288697D02*
X248102D01*
X235898Y294602D02*
X248102D01*
Y288697D02*
Y294602D01*
X235898Y288697D02*
Y294602D01*
X97898Y288547D02*
X110102D01*
X97898Y294453D02*
X110102D01*
Y288547D02*
Y294453D01*
X97898Y288547D02*
Y294453D01*
X132898Y288697D02*
X145102D01*
X132898Y294602D02*
X145102D01*
Y288697D02*
Y294602D01*
X132898Y288697D02*
Y294602D01*
X269547Y288547D02*
X281752D01*
X269547Y294453D02*
X281752D01*
Y288547D02*
Y294453D01*
X269547Y288547D02*
Y294453D01*
X166197Y288547D02*
X178402D01*
X166197Y294453D02*
X178402D01*
Y288547D02*
Y294453D01*
X166197Y288547D02*
Y294453D01*
X304898Y288547D02*
X317102D01*
X304898Y294453D02*
X317102D01*
Y288547D02*
Y294453D01*
X304898Y288547D02*
Y294453D01*
X200398Y288697D02*
X212602D01*
X200398Y294602D02*
X212602D01*
Y288697D02*
Y294602D01*
X200398Y288697D02*
Y294602D01*
X343398Y289047D02*
X355602D01*
X343398Y294953D02*
X355602D01*
Y289047D02*
Y294953D01*
X343398Y289047D02*
Y294953D01*
X335444Y199503D02*
Y211707D01*
X329539Y199503D02*
Y211707D01*
Y199503D02*
X335444D01*
X329539Y211707D02*
X335444Y211707D01*
X339389Y206152D02*
X351594Y206152D01*
X339389Y212058D02*
X351594D01*
X351594Y206152D01*
X339389Y206152D02*
Y212058D01*
X291117Y193502D02*
Y205707D01*
X297023D02*
X297023Y193502D01*
X291117D02*
X297023D01*
X291117Y205707D02*
X297023D01*
X335889Y200152D02*
X348094D01*
X335889Y206058D02*
X348094Y206058D01*
X335889Y200152D02*
X335889Y206058D01*
X348094Y200152D02*
Y206058D01*
X339539Y206207D02*
X345444Y206207D01*
X339539Y194002D02*
X345444D01*
X345444Y206207D02*
X345444Y194002D01*
X339539D02*
Y206207D01*
X318077Y140614D02*
Y152818D01*
X323982Y140614D02*
Y152818D01*
X318077Y140614D02*
X323982D01*
X318077Y152818D02*
X323982D01*
M02*
