G04*
G04 #@! TF.GenerationSoftware,Altium Limited,Altium Designer,18.1.6 (161)*
G04*
G04 Layer_Color=16711935*
%FSLAX25Y25*%
%MOIN*%
G70*
G01*
G75*
%ADD26R,0.04540X0.04737*%
%ADD32C,0.06706*%
%ADD33R,0.06706X0.06706*%
%ADD34O,0.06300X0.08300*%
%ADD35R,0.06300X0.08300*%
D26*
X479000Y380350D02*
D03*
Y386650D02*
D03*
X471897Y380350D02*
D03*
Y386650D02*
D03*
X464500Y380350D02*
D03*
Y386650D02*
D03*
X457397Y380350D02*
D03*
Y386650D02*
D03*
X449000Y417650D02*
D03*
Y411350D02*
D03*
X456500Y417650D02*
D03*
Y411350D02*
D03*
X464000Y417650D02*
D03*
Y411350D02*
D03*
X471103Y417650D02*
D03*
Y411350D02*
D03*
X478603Y417650D02*
D03*
Y411350D02*
D03*
X486000Y417650D02*
D03*
Y411350D02*
D03*
D32*
X514500Y449000D02*
D03*
X504500D02*
D03*
X494500D02*
D03*
X484500D02*
D03*
X474500D02*
D03*
D33*
X464500D02*
D03*
D34*
X422874Y357500D02*
D03*
X412126Y435500D02*
D03*
X388874Y357500D02*
D03*
X378626Y435500D02*
D03*
D35*
X415000Y357500D02*
D03*
X420000Y435500D02*
D03*
X381000Y357500D02*
D03*
X386500Y435500D02*
D03*
M02*
