G04*
G04 #@! TF.GenerationSoftware,Altium Limited,Altium Designer,18.1.6 (161)*
G04*
G04 Layer_Color=8388736*
%FSLAX25Y25*%
%MOIN*%
G70*
G01*
G75*
%ADD16R,0.10249X0.04737*%
%ADD17R,0.10249X0.13398*%
%ADD18R,0.04737X0.04934*%
%ADD19R,0.04934X0.04737*%
%ADD20R,0.15761X0.10642*%
%ADD21R,0.08674X0.02769*%
%ADD22R,0.03162X0.05131*%
%ADD23R,0.03950X0.03950*%
%ADD24O,0.02178X0.09461*%
%ADD25R,0.04737X0.04540*%
%ADD26R,0.04540X0.04737*%
%ADD27R,0.05918X0.06922*%
%ADD28R,0.03950X0.03950*%
%ADD29O,0.01581X0.07487*%
%ADD30O,0.07487X0.01581*%
%ADD31O,0.09461X0.03162*%
%ADD32C,0.06706*%
%ADD33R,0.06706X0.06706*%
%ADD34O,0.06300X0.08300*%
%ADD35R,0.06300X0.08300*%
D16*
X575417Y408945D02*
D03*
Y418000D02*
D03*
Y427055D02*
D03*
D17*
X552583Y418000D02*
D03*
D18*
X383586Y389650D02*
D03*
Y383350D02*
D03*
X529690Y347586D02*
D03*
Y341286D02*
D03*
X510000Y435650D02*
D03*
Y429350D02*
D03*
X504500Y370150D02*
D03*
Y363850D02*
D03*
X497397Y370150D02*
D03*
Y363850D02*
D03*
X383650Y408518D02*
D03*
Y414817D02*
D03*
D19*
X500650Y439554D02*
D03*
X494350D02*
D03*
X477052D02*
D03*
X470753D02*
D03*
X463650Y439500D02*
D03*
X457350D02*
D03*
X565575Y388397D02*
D03*
X571874D02*
D03*
X565575Y382000D02*
D03*
X571874D02*
D03*
D20*
X597843Y369035D02*
D03*
Y335965D02*
D03*
D21*
X588000Y352500D02*
D03*
Y349350D02*
D03*
Y346201D02*
D03*
Y355650D02*
D03*
Y358799D02*
D03*
D22*
X567240Y363421D02*
D03*
X563500D02*
D03*
X559760D02*
D03*
Y353579D02*
D03*
X567240D02*
D03*
D23*
X557473Y382000D02*
D03*
X550976D02*
D03*
X557473Y388397D02*
D03*
X550976D02*
D03*
D24*
X539526Y375949D02*
D03*
X537026D02*
D03*
X534526D02*
D03*
X532026D02*
D03*
X529526D02*
D03*
X527026D02*
D03*
X524526D02*
D03*
X522026D02*
D03*
X539526Y357051D02*
D03*
X537026D02*
D03*
X534526D02*
D03*
X532026D02*
D03*
X529526D02*
D03*
X527026D02*
D03*
X524526D02*
D03*
X522026D02*
D03*
D25*
X585350Y413000D02*
D03*
X591650D02*
D03*
X585350Y422500D02*
D03*
X591650D02*
D03*
D26*
X536793Y347586D02*
D03*
Y341286D02*
D03*
X543897Y347586D02*
D03*
Y341286D02*
D03*
X534500Y394975D02*
D03*
Y388676D02*
D03*
D27*
X519142Y435650D02*
D03*
X536858D02*
D03*
X519142Y404350D02*
D03*
X536858D02*
D03*
D28*
X504500Y377252D02*
D03*
Y383748D02*
D03*
X497397Y377154D02*
D03*
Y383651D02*
D03*
D29*
X452104Y420850D02*
D03*
X454073D02*
D03*
X456041Y420850D02*
D03*
X458010Y420850D02*
D03*
X459978D02*
D03*
X461947D02*
D03*
X463915Y420850D02*
D03*
X465884D02*
D03*
X467852Y420850D02*
D03*
X469821D02*
D03*
X471789D02*
D03*
X473758D02*
D03*
X475726D02*
D03*
X477695D02*
D03*
X479663D02*
D03*
X481632D02*
D03*
X481632Y377150D02*
D03*
X479663D02*
D03*
X477695Y377150D02*
D03*
X475726Y377150D02*
D03*
X473758D02*
D03*
X471789D02*
D03*
X469821D02*
D03*
X467852D02*
D03*
X465884D02*
D03*
X463915D02*
D03*
X461947D02*
D03*
X459978D02*
D03*
X458010D02*
D03*
X456041D02*
D03*
X454073D02*
D03*
X452104D02*
D03*
D30*
X488719Y413764D02*
D03*
X488719Y411795D02*
D03*
Y409827D02*
D03*
X488719Y407858D02*
D03*
X488719Y405890D02*
D03*
Y403921D02*
D03*
Y401953D02*
D03*
Y399984D02*
D03*
Y398016D02*
D03*
Y396047D02*
D03*
Y394079D02*
D03*
Y392110D02*
D03*
Y390142D02*
D03*
X488719Y388173D02*
D03*
X488719Y386205D02*
D03*
Y384236D02*
D03*
X445018D02*
D03*
X445018Y386205D02*
D03*
X445018Y388173D02*
D03*
X445018Y390142D02*
D03*
Y392110D02*
D03*
X445018Y394079D02*
D03*
Y396047D02*
D03*
X445018Y398016D02*
D03*
X445018Y399984D02*
D03*
Y401953D02*
D03*
Y403921D02*
D03*
Y405890D02*
D03*
X445018Y407858D02*
D03*
X445018Y409827D02*
D03*
Y411795D02*
D03*
Y413764D02*
D03*
D31*
X393115Y419167D02*
D03*
Y414167D02*
D03*
Y409167D02*
D03*
Y404167D02*
D03*
X412013Y419167D02*
D03*
Y414167D02*
D03*
Y409167D02*
D03*
Y404167D02*
D03*
X393051Y394000D02*
D03*
Y389000D02*
D03*
Y384000D02*
D03*
Y379000D02*
D03*
X411949Y394000D02*
D03*
Y389000D02*
D03*
Y384000D02*
D03*
Y379000D02*
D03*
D32*
X514500Y449000D02*
D03*
X504500D02*
D03*
X494500D02*
D03*
X484500D02*
D03*
X474500D02*
D03*
D33*
X464500D02*
D03*
D34*
X422874Y357500D02*
D03*
X412126Y435500D02*
D03*
X388874Y357500D02*
D03*
X378626Y435500D02*
D03*
D35*
X415000Y357500D02*
D03*
X420000Y435500D02*
D03*
X381000Y357500D02*
D03*
X386500Y435500D02*
D03*
M02*
