G04*
G04 #@! TF.GenerationSoftware,Altium Limited,Altium Designer,18.1.6 (161)*
G04*
G04 Layer_Physical_Order=2*
G04 Layer_Color=16711680*
%FSLAX25Y25*%
%MOIN*%
G70*
G01*
G75*
%ADD14C,0.01000*%
%ADD46R,0.03740X0.03937*%
%ADD52C,0.05906*%
%ADD53R,0.05906X0.05906*%
%ADD54O,0.05500X0.07500*%
%ADD55R,0.05500X0.07500*%
%ADD56C,0.02500*%
G36*
X613000Y329500D02*
X612500Y329000D01*
X362000D01*
Y460500D01*
X613000D01*
Y329500D01*
D02*
G37*
%LPC*%
G36*
X468453Y452953D02*
X460547D01*
Y445047D01*
X468453D01*
Y452953D01*
D02*
G37*
G36*
X514500Y452987D02*
X513468Y452851D01*
X512507Y452453D01*
X511681Y451819D01*
X511047Y450993D01*
X510649Y450032D01*
X510513Y449000D01*
X510649Y447968D01*
X510841Y447504D01*
X491866Y428529D01*
X471184D01*
X471122Y428622D01*
X470378Y429119D01*
X469500Y429294D01*
X468733Y429141D01*
X468284Y429449D01*
X468294Y429500D01*
X468119Y430378D01*
X467622Y431122D01*
X466878Y431619D01*
X466000Y431794D01*
X465122Y431619D01*
X464378Y431122D01*
X464316Y431029D01*
X444500D01*
X443915Y430913D01*
X443419Y430581D01*
X419109Y406272D01*
X419000Y406294D01*
X418122Y406119D01*
X417378Y405622D01*
X416881Y404878D01*
X416706Y404000D01*
X416881Y403122D01*
X417378Y402378D01*
X418122Y401881D01*
X419000Y401706D01*
X419878Y401881D01*
X420622Y402378D01*
X421119Y403122D01*
X421294Y404000D01*
X421272Y404109D01*
X445133Y427971D01*
X464316D01*
X464378Y427878D01*
X465122Y427381D01*
X466000Y427206D01*
X466768Y427359D01*
X467216Y427051D01*
X467206Y427000D01*
X467381Y426122D01*
X467878Y425378D01*
X468622Y424881D01*
X469500Y424706D01*
X470378Y424881D01*
X471122Y425378D01*
X471184Y425471D01*
X492500D01*
X493085Y425587D01*
X493581Y425919D01*
X513004Y445341D01*
X513468Y445149D01*
X514500Y445013D01*
X515532Y445149D01*
X516493Y445547D01*
X517319Y446181D01*
X517953Y447007D01*
X518351Y447968D01*
X518487Y449000D01*
X518351Y450032D01*
X517953Y450993D01*
X517319Y451819D01*
X516493Y452453D01*
X515532Y452851D01*
X514500Y452987D01*
D02*
G37*
G36*
X504500D02*
X503468Y452851D01*
X502507Y452453D01*
X501681Y451819D01*
X501047Y450993D01*
X500649Y450032D01*
X500513Y449000D01*
X500649Y447968D01*
X501047Y447007D01*
X501681Y446181D01*
X502507Y445547D01*
X503468Y445149D01*
X504500Y445013D01*
X505532Y445149D01*
X506493Y445547D01*
X507319Y446181D01*
X507953Y447007D01*
X508351Y447968D01*
X508487Y449000D01*
X508351Y450032D01*
X507953Y450993D01*
X507319Y451819D01*
X506493Y452453D01*
X505532Y452851D01*
X504500Y452987D01*
D02*
G37*
G36*
X494500D02*
X493468Y452851D01*
X492507Y452453D01*
X491681Y451819D01*
X491047Y450993D01*
X490649Y450032D01*
X490513Y449000D01*
X490649Y447968D01*
X491047Y447007D01*
X491681Y446181D01*
X492507Y445547D01*
X493468Y445149D01*
X494500Y445013D01*
X495532Y445149D01*
X496493Y445547D01*
X497319Y446181D01*
X497953Y447007D01*
X498351Y447968D01*
X498487Y449000D01*
X498351Y450032D01*
X497953Y450993D01*
X497319Y451819D01*
X496493Y452453D01*
X495532Y452851D01*
X494500Y452987D01*
D02*
G37*
G36*
X484500D02*
X483468Y452851D01*
X482507Y452453D01*
X481681Y451819D01*
X481047Y450993D01*
X480649Y450032D01*
X480513Y449000D01*
X480649Y447968D01*
X481047Y447007D01*
X481681Y446181D01*
X482507Y445547D01*
X483468Y445149D01*
X484500Y445013D01*
X485532Y445149D01*
X486493Y445547D01*
X487319Y446181D01*
X487953Y447007D01*
X488351Y447968D01*
X488487Y449000D01*
X488351Y450032D01*
X487953Y450993D01*
X487319Y451819D01*
X486493Y452453D01*
X485532Y452851D01*
X484500Y452987D01*
D02*
G37*
G36*
X474500D02*
X473468Y452851D01*
X472507Y452453D01*
X471681Y451819D01*
X471047Y450993D01*
X470649Y450032D01*
X470513Y449000D01*
X470649Y447968D01*
X471047Y447007D01*
X471681Y446181D01*
X472507Y445547D01*
X473468Y445149D01*
X474500Y445013D01*
X475532Y445149D01*
X476493Y445547D01*
X477319Y446181D01*
X477953Y447007D01*
X478351Y447968D01*
X478487Y449000D01*
X478351Y450032D01*
X477953Y450993D01*
X477319Y451819D01*
X476493Y452453D01*
X475532Y452851D01*
X474500Y452987D01*
D02*
G37*
G36*
X403126Y446029D02*
X386879D01*
X386293Y445913D01*
X385797Y445581D01*
X380145Y439930D01*
X379605Y440154D01*
X378626Y440282D01*
X377647Y440154D01*
X376735Y439776D01*
X375952Y439175D01*
X375350Y438391D01*
X374973Y437479D01*
X374844Y436500D01*
Y434500D01*
X374973Y433521D01*
X375350Y432609D01*
X375952Y431825D01*
X376735Y431224D01*
X377097Y431074D01*
Y416602D01*
X376378Y416122D01*
X375881Y415378D01*
X375706Y414500D01*
X375881Y413622D01*
X376378Y412878D01*
X377122Y412381D01*
X378000Y412206D01*
X378878Y412381D01*
X379278Y412648D01*
X379596Y412259D01*
X378109Y410772D01*
X378000Y410794D01*
X377122Y410619D01*
X376378Y410122D01*
X375881Y409378D01*
X375706Y408500D01*
X375881Y407622D01*
X376378Y406878D01*
X377122Y406381D01*
X378000Y406206D01*
X378878Y406381D01*
X379622Y406878D01*
X380119Y407622D01*
X380294Y408500D01*
X380272Y408609D01*
X387581Y415919D01*
X387913Y416415D01*
X388029Y417000D01*
Y430750D01*
X389587D01*
X393419Y426919D01*
X393915Y426587D01*
X394500Y426471D01*
X412500D01*
X413085Y426587D01*
X413581Y426919D01*
X417413Y430750D01*
X423750D01*
Y440250D01*
X416250D01*
Y437588D01*
X415779Y437479D01*
X415402Y438391D01*
X414801Y439175D01*
X414017Y439776D01*
X413105Y440154D01*
X412126Y440282D01*
X411147Y440154D01*
X410235Y439776D01*
X410109Y439679D01*
X404207Y445581D01*
X403711Y445913D01*
X403126Y446029D01*
D02*
G37*
G36*
X488870Y420618D02*
X483130D01*
Y419179D01*
X481473D01*
Y420618D01*
X475733D01*
Y419179D01*
X473973D01*
Y420618D01*
X468233D01*
Y419179D01*
X466870D01*
Y420618D01*
X461130D01*
Y419179D01*
X459370D01*
Y420618D01*
X453630D01*
Y419179D01*
X451870D01*
Y420618D01*
X446130D01*
Y419179D01*
X440834D01*
X440772Y419272D01*
X440028Y419769D01*
X439150Y419944D01*
X438272Y419769D01*
X437527Y419272D01*
X437030Y418528D01*
X436856Y417650D01*
X437030Y416772D01*
X437527Y416027D01*
X438272Y415530D01*
X439150Y415355D01*
X440028Y415530D01*
X440772Y416027D01*
X440834Y416120D01*
X446130D01*
Y414681D01*
X451870D01*
Y416120D01*
X453630D01*
Y414681D01*
X459370D01*
Y416120D01*
X461130D01*
Y414681D01*
X466870D01*
Y416120D01*
X468233D01*
Y414681D01*
X473973D01*
Y416120D01*
X475733D01*
Y414681D01*
X481473D01*
Y416120D01*
X483130D01*
Y414681D01*
X488870D01*
Y420618D01*
D02*
G37*
G36*
X478603Y412880D02*
X478018Y412763D01*
X477522Y412432D01*
X477190Y411936D01*
X477074Y411350D01*
Y411000D01*
X458029D01*
Y411350D01*
X457913Y411936D01*
X457581Y412432D01*
X457085Y412763D01*
X456500Y412880D01*
X455915Y412763D01*
X455418Y412432D01*
X455087Y411936D01*
X454971Y411350D01*
Y411000D01*
X443500D01*
Y402500D01*
X482000D01*
Y411000D01*
X480133D01*
Y411350D01*
X480016Y411936D01*
X479685Y412432D01*
X479189Y412763D01*
X478603Y412880D01*
D02*
G37*
G36*
X545500Y412794D02*
X544622Y412619D01*
X543878Y412122D01*
X543816Y412029D01*
X507500D01*
X506915Y411913D01*
X506419Y411581D01*
X504109Y409272D01*
X504000Y409294D01*
X503122Y409120D01*
X502378Y408622D01*
X501881Y407878D01*
X501706Y407000D01*
X501881Y406122D01*
X502378Y405378D01*
X503122Y404881D01*
X504000Y404706D01*
X504878Y404881D01*
X505306Y405167D01*
X505667Y404806D01*
X505381Y404378D01*
X505206Y403500D01*
X505381Y402622D01*
X505777Y402029D01*
X505568Y401529D01*
X453000D01*
X452415Y401413D01*
X451919Y401081D01*
X439109Y388272D01*
X439000Y388294D01*
X438122Y388120D01*
X437378Y387622D01*
X436881Y386878D01*
X436706Y386000D01*
X436881Y385122D01*
X437378Y384378D01*
X438122Y383880D01*
X439000Y383706D01*
X439878Y383880D01*
X440622Y384378D01*
X441119Y385122D01*
X441294Y386000D01*
X441272Y386109D01*
X453633Y398471D01*
X465338D01*
X465681Y397971D01*
X465558Y397352D01*
X465733Y396474D01*
X466230Y395730D01*
X466974Y395233D01*
X467852Y395058D01*
X468730Y395233D01*
X469475Y395730D01*
X469536Y395823D01*
X474014D01*
X477471Y392367D01*
Y389618D01*
X476130D01*
Y388179D01*
X474767D01*
Y389618D01*
X469027D01*
Y388179D01*
X467370D01*
Y389618D01*
X461630D01*
Y388179D01*
X460267D01*
Y389618D01*
X454527D01*
Y388179D01*
X453918D01*
X453622Y388622D01*
X452878Y389120D01*
X452000Y389294D01*
X451122Y389120D01*
X450378Y388622D01*
X449881Y387878D01*
X449706Y387000D01*
X449881Y386122D01*
X450277Y385529D01*
X450068Y385029D01*
X447500D01*
X446915Y384913D01*
X446419Y384581D01*
X445109Y383272D01*
X445000Y383294D01*
X444122Y383120D01*
X443378Y382622D01*
X442881Y381878D01*
X442706Y381000D01*
X442881Y380122D01*
X443378Y379378D01*
X444122Y378881D01*
X445000Y378706D01*
X445878Y378881D01*
X446622Y379378D01*
X447119Y380122D01*
X447294Y381000D01*
X447272Y381109D01*
X448134Y381971D01*
X454527D01*
Y377382D01*
X460267D01*
Y378821D01*
X461630D01*
Y377382D01*
X467370D01*
Y378821D01*
X469027D01*
Y377382D01*
X474767D01*
Y378821D01*
X476130D01*
Y377382D01*
X481870D01*
Y378821D01*
X483516D01*
X486728Y375609D01*
X486706Y375500D01*
X486881Y374622D01*
X487378Y373878D01*
X488122Y373380D01*
X489000Y373206D01*
X489878Y373380D01*
X490622Y373878D01*
X491119Y374622D01*
X491294Y375500D01*
X491119Y376378D01*
X490622Y377122D01*
X489878Y377620D01*
X489000Y377794D01*
X488891Y377772D01*
X485231Y381432D01*
X485173Y381471D01*
X485325Y381971D01*
X525316D01*
X525378Y381878D01*
X526122Y381381D01*
X527000Y381206D01*
X527878Y381381D01*
X528622Y381878D01*
X529119Y382622D01*
X529294Y383500D01*
X529201Y383971D01*
X529611Y384471D01*
X532000D01*
X532585Y384587D01*
X533081Y384919D01*
X537759Y389596D01*
X538148Y389278D01*
X537881Y388878D01*
X537706Y388000D01*
X537728Y387891D01*
X530919Y381081D01*
X530587Y380585D01*
X530471Y380000D01*
Y358134D01*
X524609Y352272D01*
X524500Y352294D01*
X523622Y352119D01*
X522878Y351622D01*
X522381Y350878D01*
X522206Y350000D01*
X522381Y349122D01*
X522878Y348378D01*
X523622Y347881D01*
X524500Y347706D01*
X525378Y347881D01*
X526122Y348378D01*
X526619Y349122D01*
X526794Y350000D01*
X526772Y350109D01*
X533081Y356419D01*
X533413Y356915D01*
X533529Y357500D01*
Y361389D01*
X534029Y361800D01*
X534500Y361706D01*
X535378Y361880D01*
X536122Y362378D01*
X536619Y363122D01*
X536794Y364000D01*
X536772Y364109D01*
X548633Y375971D01*
X549316D01*
X549378Y375878D01*
X550122Y375380D01*
X551000Y375206D01*
X551878Y375380D01*
X552622Y375878D01*
X553119Y376622D01*
X553294Y377500D01*
X553119Y378378D01*
X552622Y379122D01*
X551878Y379620D01*
X551000Y379794D01*
X550122Y379620D01*
X549378Y379122D01*
X549316Y379029D01*
X548000D01*
X547415Y378913D01*
X546919Y378581D01*
X534609Y366272D01*
X534500Y366294D01*
X534029Y366200D01*
X533529Y366611D01*
Y379366D01*
X539891Y385728D01*
X540000Y385706D01*
X540878Y385880D01*
X541622Y386378D01*
X542119Y387122D01*
X542294Y388000D01*
X542119Y388878D01*
X541622Y389622D01*
X540878Y390120D01*
X540000Y390294D01*
X539122Y390120D01*
X538722Y389852D01*
X538404Y390241D01*
X540633Y392471D01*
X549316D01*
X549378Y392378D01*
X550122Y391880D01*
X551000Y391706D01*
X551878Y391880D01*
X552622Y392378D01*
X553119Y393122D01*
X553294Y394000D01*
X553119Y394878D01*
X552622Y395622D01*
X551878Y396119D01*
X551000Y396294D01*
X550122Y396119D01*
X549378Y395622D01*
X549316Y395529D01*
X540000D01*
X539415Y395413D01*
X538919Y395081D01*
X531366Y387529D01*
X526184D01*
X526122Y387622D01*
X525378Y388120D01*
X524500Y388294D01*
X523622Y388120D01*
X522878Y387622D01*
X522381Y386878D01*
X522206Y386000D01*
X522299Y385529D01*
X521889Y385029D01*
X481870D01*
Y389618D01*
X480529D01*
Y393000D01*
X480413Y393585D01*
X480081Y394081D01*
X476192Y397971D01*
X476399Y398471D01*
X492889D01*
X493299Y397971D01*
X493206Y397500D01*
X493381Y396622D01*
X493878Y395878D01*
X493971Y395816D01*
Y394500D01*
X494087Y393915D01*
X494419Y393419D01*
X499228Y388609D01*
X499206Y388500D01*
X499381Y387622D01*
X499878Y386878D01*
X500622Y386381D01*
X501500Y386206D01*
X502378Y386381D01*
X503122Y386878D01*
X503619Y387622D01*
X503794Y388500D01*
X503619Y389378D01*
X503122Y390122D01*
X502378Y390619D01*
X501500Y390794D01*
X501391Y390772D01*
X497029Y395133D01*
Y395816D01*
X497122Y395878D01*
X497619Y396622D01*
X497794Y397500D01*
X497701Y397971D01*
X498111Y398471D01*
X541816D01*
X541878Y398378D01*
X542622Y397881D01*
X543500Y397706D01*
X544378Y397881D01*
X545122Y398378D01*
X545619Y399122D01*
X545794Y400000D01*
X545619Y400878D01*
X545122Y401622D01*
X544378Y402119D01*
X543500Y402294D01*
X542622Y402119D01*
X541878Y401622D01*
X541816Y401529D01*
X528252D01*
X528101Y402029D01*
X528622Y402378D01*
X529119Y403122D01*
X529294Y404000D01*
X529119Y404878D01*
X528622Y405622D01*
X527878Y406119D01*
X527000Y406294D01*
X526122Y406119D01*
X525378Y405622D01*
X524982Y405029D01*
X509184D01*
X509122Y405122D01*
X508378Y405619D01*
X507500Y405794D01*
X506622Y405619D01*
X506194Y405333D01*
X505833Y405694D01*
X506119Y406122D01*
X506294Y407000D01*
X506272Y407109D01*
X508134Y408971D01*
X543816D01*
X543878Y408878D01*
X544622Y408381D01*
X545500Y408206D01*
X546378Y408381D01*
X547122Y408878D01*
X547619Y409622D01*
X547794Y410500D01*
X547619Y411378D01*
X547122Y412122D01*
X546378Y412619D01*
X545500Y412794D01*
D02*
G37*
G36*
X378000Y391794D02*
X377122Y391619D01*
X376378Y391122D01*
X375881Y390378D01*
X375706Y389500D01*
X375881Y388622D01*
X376378Y387878D01*
X377122Y387381D01*
X378000Y387206D01*
X378109Y387228D01*
X378777Y386560D01*
X378757Y386041D01*
X378360Y385722D01*
X378000Y385794D01*
X377122Y385619D01*
X376378Y385122D01*
X375881Y384378D01*
X375706Y383500D01*
X375881Y382622D01*
X376378Y381878D01*
X376471Y381816D01*
Y372500D01*
X376587Y371915D01*
X376919Y371419D01*
X379471Y368866D01*
Y362250D01*
X377250D01*
Y352750D01*
X383587D01*
X388419Y347919D01*
X388915Y347587D01*
X389500Y347471D01*
X406500D01*
X407085Y347587D01*
X407581Y347919D01*
X412413Y352750D01*
X418750D01*
Y355412D01*
X419220Y355521D01*
X419598Y354609D01*
X420199Y353825D01*
X420983Y353224D01*
X421895Y352847D01*
X422874Y352718D01*
X423853Y352847D01*
X424765Y353224D01*
X425549Y353825D01*
X426150Y354609D01*
X426528Y355521D01*
X426656Y356500D01*
Y358500D01*
X426528Y359479D01*
X426150Y360391D01*
X425549Y361175D01*
X424765Y361776D01*
X423853Y362154D01*
X422874Y362282D01*
X421895Y362154D01*
X421355Y361930D01*
X416703Y366581D01*
X416207Y366913D01*
X415621Y367029D01*
X401500D01*
X400915Y366913D01*
X400419Y366581D01*
X393065Y359228D01*
X392537Y359407D01*
X392528Y359479D01*
X392150Y360391D01*
X391548Y361175D01*
X390765Y361776D01*
X390403Y361926D01*
Y363747D01*
X390287Y364333D01*
X389955Y364829D01*
X381529Y373255D01*
Y381402D01*
X381531Y381404D01*
X381863Y381900D01*
X381979Y382485D01*
Y387050D01*
X381863Y387635D01*
X381531Y388131D01*
X380272Y389391D01*
X380294Y389500D01*
X380119Y390378D01*
X379622Y391122D01*
X378878Y391619D01*
X378000Y391794D01*
D02*
G37*
G36*
X527000Y366294D02*
X526122Y366120D01*
X525378Y365622D01*
X525316Y365529D01*
X518184D01*
X518122Y365622D01*
X517378Y366120D01*
X516500Y366294D01*
X515622Y366120D01*
X514878Y365622D01*
X514381Y364878D01*
X514206Y364000D01*
X514381Y363122D01*
X514878Y362378D01*
X515622Y361880D01*
X516500Y361706D01*
X517378Y361880D01*
X518122Y362378D01*
X518184Y362471D01*
X525316D01*
X525378Y362378D01*
X526122Y361880D01*
X527000Y361706D01*
X527878Y361880D01*
X528622Y362378D01*
X529119Y363122D01*
X529294Y364000D01*
X529119Y364878D01*
X528622Y365622D01*
X527878Y366120D01*
X527000Y366294D01*
D02*
G37*
G36*
X547500Y354794D02*
X546622Y354620D01*
X545878Y354122D01*
X545381Y353378D01*
X545206Y352500D01*
X545381Y351622D01*
X545878Y350878D01*
X545971Y350816D01*
Y341000D01*
X546087Y340415D01*
X546419Y339919D01*
X547373Y338964D01*
X547209Y338421D01*
X546915Y338363D01*
X546419Y338031D01*
X546087Y337535D01*
X545971Y336950D01*
X546087Y336365D01*
X546419Y335869D01*
X546919Y335369D01*
X547415Y335037D01*
X548000Y334921D01*
X548585Y335037D01*
X549081Y335369D01*
X549413Y335865D01*
X549471Y336159D01*
X550014Y336323D01*
X551728Y334609D01*
X551706Y334500D01*
X551881Y333622D01*
X552378Y332878D01*
X553122Y332381D01*
X554000Y332206D01*
X554878Y332381D01*
X555622Y332878D01*
X556119Y333622D01*
X556294Y334500D01*
X556119Y335378D01*
X555622Y336122D01*
X554878Y336619D01*
X554000Y336794D01*
X553891Y336772D01*
X549029Y341634D01*
Y350816D01*
X549122Y350878D01*
X549619Y351622D01*
X549794Y352500D01*
X549619Y353378D01*
X549122Y354122D01*
X548378Y354620D01*
X547500Y354794D01*
D02*
G37*
%LPD*%
G36*
X408416Y437047D02*
X408344Y436500D01*
Y434500D01*
X408472Y433521D01*
X408850Y432609D01*
X409451Y431825D01*
X410235Y431224D01*
X411147Y430847D01*
X412126Y430718D01*
X412381Y430751D01*
X412615Y430278D01*
X411867Y429529D01*
X395133D01*
X390250Y434413D01*
Y440250D01*
X385445D01*
X385254Y440712D01*
X387512Y442971D01*
X402493D01*
X408416Y437047D01*
D02*
G37*
G36*
X382750Y433412D02*
Y430750D01*
X384971D01*
Y417633D01*
X380241Y412904D01*
X379852Y413222D01*
X380119Y413622D01*
X380294Y414500D01*
X380155Y415197D01*
Y431074D01*
X380517Y431224D01*
X381300Y431825D01*
X381902Y432609D01*
X382279Y433521D01*
X382750Y433412D01*
D02*
G37*
G36*
X416247Y362712D02*
X416055Y362250D01*
X411250D01*
Y355913D01*
X405866Y350529D01*
X390134D01*
X388385Y352278D01*
X388619Y352751D01*
X388874Y352718D01*
X389853Y352847D01*
X390765Y353224D01*
X391548Y353825D01*
X392150Y354609D01*
X392528Y355521D01*
X392587Y355971D01*
X393500D01*
X394085Y356087D01*
X394581Y356419D01*
X402134Y363971D01*
X414988D01*
X416247Y362712D01*
D02*
G37*
D14*
X547500Y341000D02*
X554000Y334500D01*
X547500Y341000D02*
Y352500D01*
Y336950D02*
X548000Y336450D01*
X479000Y380350D02*
X484150D01*
X471897D02*
X479000D01*
X464500D02*
X471897D01*
X457397D02*
X464500D01*
X484150D02*
X489000Y375500D01*
X478603Y417650D02*
X486000D01*
X471103D02*
X478603D01*
X464000D02*
X471103D01*
X456500D02*
X464000D01*
X449000D02*
X456500D01*
X439150D02*
X449000D01*
X447500Y383500D02*
X527000D01*
X471897Y386650D02*
X479000D01*
X524500Y386000D02*
X532000D01*
X495500Y394500D02*
X501500Y388500D01*
X479000Y386650D02*
Y393000D01*
X474648Y397352D02*
X479000Y393000D01*
X445000Y381000D02*
X447500Y383500D01*
X532000Y386000D02*
X540000Y394000D01*
X452000Y387000D02*
X452350Y386650D01*
X492500Y427000D02*
X514500Y449000D01*
X469500Y427000D02*
X492500D01*
X495500Y394500D02*
Y397500D01*
X456500Y408000D02*
X460000Y404500D01*
X456500Y408000D02*
Y411350D01*
X475500Y404500D02*
X478603Y407603D01*
Y411350D01*
X467852Y397352D02*
X474648D01*
X453000Y400000D02*
X543500D01*
X439000Y386000D02*
X453000Y400000D01*
X464500Y386650D02*
X471897D01*
X457397D02*
X464500D01*
X452350D02*
X457397D01*
X516500Y364000D02*
X527000D01*
X526500Y403500D02*
X527000Y404000D01*
X507500Y403500D02*
X526500D01*
X540000Y394000D02*
X551000D01*
X532000Y380000D02*
X540000Y388000D01*
X532000Y357500D02*
Y380000D01*
X524500Y350000D02*
X532000Y357500D01*
X548000Y377500D02*
X551000D01*
X534500Y364000D02*
X548000Y377500D01*
X504000Y407000D02*
X507500Y410500D01*
X545500D01*
X419000Y404000D02*
X444500Y429500D01*
X466000D01*
X378000Y414500D02*
X378626Y415126D01*
Y435500D01*
X378000Y408500D02*
X386500Y417000D01*
Y435500D01*
X412500Y428000D02*
X420000Y435500D01*
X394500Y428000D02*
X412500D01*
X387000Y435500D02*
X394500Y428000D01*
X386500Y435500D02*
X387000D01*
X403126Y444500D02*
X412126Y435500D01*
X386879Y444500D02*
X403126D01*
X378626Y436247D02*
X386879Y444500D01*
X378626Y435500D02*
Y436247D01*
X406500Y349000D02*
X415000Y357500D01*
X389500Y349000D02*
X406500D01*
X381000Y357500D02*
X389500Y349000D01*
X422874Y357500D02*
Y358247D01*
X415621Y365500D02*
X422874Y358247D01*
X401500Y365500D02*
X415621D01*
X393500Y357500D02*
X401500Y365500D01*
X388874Y357500D02*
X393500D01*
X388874D02*
Y363747D01*
X380000Y372621D02*
X388874Y363747D01*
X380000Y372621D02*
Y382035D01*
X380450Y382485D01*
Y387050D01*
X378000Y389500D02*
X380450Y387050D01*
X381000Y357500D02*
Y369500D01*
X378000Y372500D02*
X381000Y369500D01*
X378000Y372500D02*
Y383500D01*
D46*
X479000Y380350D02*
D03*
Y386650D02*
D03*
X471897Y380350D02*
D03*
Y386650D02*
D03*
X464500Y380350D02*
D03*
Y386650D02*
D03*
X457397Y380350D02*
D03*
Y386650D02*
D03*
X449000Y417650D02*
D03*
Y411350D02*
D03*
X456500Y417650D02*
D03*
Y411350D02*
D03*
X464000Y417650D02*
D03*
Y411350D02*
D03*
X471103Y417650D02*
D03*
Y411350D02*
D03*
X478603Y417650D02*
D03*
Y411350D02*
D03*
X486000Y417650D02*
D03*
Y411350D02*
D03*
D52*
X514500Y449000D02*
D03*
X504500D02*
D03*
X494500D02*
D03*
X484500D02*
D03*
X474500D02*
D03*
D53*
X464500D02*
D03*
D54*
X422874Y357500D02*
D03*
X412126Y435500D02*
D03*
X388874Y357500D02*
D03*
X378626Y435500D02*
D03*
D55*
X415000Y357500D02*
D03*
X420000Y435500D02*
D03*
X381000Y357500D02*
D03*
X386500Y435500D02*
D03*
D56*
X554000Y334500D02*
D03*
X547500Y352500D02*
D03*
X439150Y417650D02*
D03*
X489000Y375500D02*
D03*
X527000Y383500D02*
D03*
X524500Y386000D02*
D03*
X501500Y388500D02*
D03*
X452000Y387000D02*
D03*
X495500Y397500D02*
D03*
X469500Y427000D02*
D03*
X457000Y435000D02*
D03*
X470500D02*
D03*
X505000Y429000D02*
D03*
X504500Y359000D02*
D03*
X596500Y422500D02*
D03*
X420000Y389000D02*
D03*
X419000Y414000D02*
D03*
X467852Y397352D02*
D03*
X516500Y364000D02*
D03*
X507500Y403500D02*
D03*
X475500Y404500D02*
D03*
X460000D02*
D03*
X578000Y382000D02*
D03*
X445000Y381000D02*
D03*
X439000Y386000D02*
D03*
X543500Y400000D02*
D03*
X551000Y394000D02*
D03*
Y377500D02*
D03*
X545500Y410500D02*
D03*
X504000Y407000D02*
D03*
X534500Y364000D02*
D03*
X527000Y404000D02*
D03*
Y364000D02*
D03*
X524500Y350000D02*
D03*
X540000Y388000D02*
D03*
X378000Y383500D02*
D03*
Y389500D02*
D03*
Y408500D02*
D03*
Y414500D02*
D03*
X419000Y404000D02*
D03*
X466000Y429500D02*
D03*
M02*
