M48
;Layer_Color=9474304
;FILE_FORMAT=2:5
INCH,LZ
;TYPE=PLATED
T1F00S00C0.01500
T2F00S00C0.03150
T3F00S00C0.03543
%
T01
X0378Y03835
Y03895
Y04085
Y04145
X0419Y0414
Y0404
X042Y0389
X0439Y0386
X0445Y0381
X0452Y0387
X046Y04045
X0467852Y0397352
X0466Y04295
X0457Y0435
X043915Y041765
X04695Y0427
X04705Y0435
X04755Y04045
X04955Y03975
X05015Y03885
X05075Y04035
X0504Y0407
X0505Y0429
X0527Y0404
Y03835
X05245Y0386
X054Y0388
X05435Y04
X05455Y04105
X0551Y0394
Y03775
X05475Y03525
X0554Y03345
X05245Y035
X0527Y0364
X05345
X05165
X05045Y0359
X0489Y03755
X0578Y0382
X05965Y04225
T02
X0381Y03575
X0388874
X0415
X0422874
X042Y04355
X0412126
X03865
X0378626
T03
X04645Y0449
X04745
X04845
X04945
X05045
X05145
M30
