G04*
G04 #@! TF.GenerationSoftware,Altium Limited,Altium Designer,18.1.6 (161)*
G04*
G04 Layer_Physical_Order=1*
G04 Layer_Color=255*
%FSLAX25Y25*%
%MOIN*%
G70*
G01*
G75*
%ADD14C,0.01000*%
%ADD36R,0.09449X0.03937*%
%ADD37R,0.09449X0.12598*%
%ADD38R,0.03937X0.04134*%
%ADD39R,0.04134X0.03937*%
%ADD40R,0.14961X0.09843*%
%ADD41R,0.07874X0.01968*%
%ADD42R,0.02362X0.04331*%
%ADD43R,0.03150X0.03150*%
%ADD44O,0.01378X0.08661*%
%ADD45R,0.03937X0.03740*%
%ADD46R,0.03740X0.03937*%
%ADD47R,0.05118X0.06122*%
%ADD48R,0.03150X0.03150*%
%ADD49O,0.01181X0.07087*%
%ADD50O,0.07087X0.01181*%
%ADD51O,0.08661X0.02362*%
%ADD52C,0.05906*%
%ADD53R,0.05906X0.05906*%
%ADD54O,0.05500X0.07500*%
%ADD55R,0.05500X0.07500*%
%ADD56C,0.02500*%
G36*
X476165Y427151D02*
X475703Y426959D01*
X470410Y432253D01*
X470637Y432733D01*
X471378Y432881D01*
X472122Y433378D01*
X472619Y434122D01*
X472794Y435000D01*
X472619Y435878D01*
X472481Y436086D01*
X472748Y436586D01*
X473820D01*
Y436586D01*
X473985D01*
Y436586D01*
X476165D01*
Y427151D01*
D02*
G37*
G36*
X487500Y415385D02*
X485766D01*
X485145Y415262D01*
X484619Y414911D01*
X484268Y414384D01*
X484144Y413764D01*
X484268Y413143D01*
X484511Y412780D01*
X484268Y412416D01*
X484144Y411795D01*
X484268Y411175D01*
X484511Y410811D01*
X484268Y410447D01*
X484144Y409827D01*
X484268Y409206D01*
X484511Y408843D01*
X484268Y408479D01*
X484144Y407858D01*
X484268Y407238D01*
X484511Y406874D01*
X484268Y406510D01*
X484144Y405890D01*
X484268Y405269D01*
X484511Y404906D01*
X484268Y404542D01*
X484144Y403921D01*
X484268Y403301D01*
X484619Y402774D01*
X485145Y402423D01*
X485766Y402300D01*
X487500D01*
Y401606D01*
X485766D01*
X485145Y401482D01*
X484619Y401131D01*
X484268Y400605D01*
X484144Y399984D01*
X484268Y399364D01*
X484511Y399000D01*
X484268Y398636D01*
X484144Y398016D01*
X484268Y397395D01*
X484511Y397031D01*
X484268Y396668D01*
X484144Y396047D01*
X484268Y395427D01*
X484511Y395063D01*
X484268Y394699D01*
X484144Y394079D01*
X484268Y393458D01*
X484619Y392932D01*
X485145Y392581D01*
X485766Y392457D01*
X487500D01*
Y391763D01*
X485766D01*
X485145Y391640D01*
X484619Y391288D01*
X484268Y390762D01*
X484144Y390142D01*
X484268Y389521D01*
X484511Y389158D01*
X484268Y388794D01*
X484144Y388173D01*
X484268Y387553D01*
X484511Y387189D01*
X484268Y386825D01*
X484144Y386205D01*
X484268Y385584D01*
X484511Y385221D01*
X484268Y384857D01*
X484144Y384236D01*
X484268Y383616D01*
X484619Y383089D01*
X485145Y382738D01*
X485766Y382614D01*
X487500D01*
Y378500D01*
X483254D01*
Y380102D01*
X483130Y380723D01*
X482779Y381249D01*
X482253Y381601D01*
X481632Y381724D01*
X481011Y381601D01*
X480648Y381358D01*
X480284Y381601D01*
X479663Y381724D01*
X479043Y381601D01*
X478679Y381358D01*
X478315Y381601D01*
X477695Y381724D01*
X477074Y381601D01*
X476711Y381358D01*
X476347Y381601D01*
X475726Y381724D01*
X475106Y381601D01*
X474742Y381358D01*
X474378Y381601D01*
X473758Y381724D01*
X473137Y381601D01*
X472774Y381358D01*
X472410Y381601D01*
X471789Y381724D01*
X471169Y381601D01*
X470643Y381249D01*
X470291Y380723D01*
X470168Y380102D01*
Y378500D01*
X469474D01*
Y380102D01*
X469351Y380723D01*
X469004Y381242D01*
Y382023D01*
X468887Y382608D01*
X468556Y383104D01*
X463578Y388081D01*
X463082Y388413D01*
X462497Y388529D01*
X453684D01*
X453622Y388622D01*
X452878Y389120D01*
X452000Y389294D01*
X451122Y389120D01*
X450378Y388622D01*
X450067Y388156D01*
X450008Y388158D01*
X449566Y388307D01*
X449469Y388794D01*
X449226Y389158D01*
X449469Y389521D01*
X449592Y390142D01*
X449469Y390762D01*
X449226Y391126D01*
X449469Y391490D01*
X449592Y392110D01*
X449998Y392633D01*
X450164Y392666D01*
X450660Y392997D01*
X461081Y403419D01*
X461413Y403915D01*
X461529Y404500D01*
X461413Y405085D01*
X461081Y405581D01*
X453786Y412877D01*
X453290Y413208D01*
X452705Y413325D01*
X449899D01*
X449582Y413711D01*
X449592Y413764D01*
X449469Y414384D01*
X449117Y414911D01*
X448591Y415262D01*
X447970Y415385D01*
X446061D01*
X446004Y420144D01*
X446356Y420500D01*
X450483D01*
Y417898D01*
X450606Y417277D01*
X450958Y416751D01*
X451484Y416399D01*
X452104Y416276D01*
X452725Y416399D01*
X453089Y416642D01*
X453452Y416399D01*
X454073Y416276D01*
X454693Y416399D01*
X455057Y416642D01*
X455421Y416399D01*
X456041Y416276D01*
X456662Y416399D01*
X457026Y416642D01*
X457389Y416399D01*
X458010Y416276D01*
X458631Y416399D01*
X458994Y416642D01*
X459358Y416399D01*
X459978Y416276D01*
X460599Y416399D01*
X460963Y416642D01*
X461326Y416399D01*
X461947Y416276D01*
X462568Y416399D01*
X462931Y416642D01*
X463295Y416399D01*
X463915Y416276D01*
X464536Y416399D01*
X464900Y416642D01*
X465263Y416399D01*
X465884Y416276D01*
X465936Y416286D01*
X466323Y415969D01*
Y399037D01*
X466230Y398974D01*
X465733Y398230D01*
X465558Y397352D01*
X465733Y396474D01*
X466230Y395730D01*
X466974Y395233D01*
X467852Y395058D01*
X468730Y395233D01*
X469475Y395730D01*
X469972Y396474D01*
X470146Y397352D01*
X469972Y398230D01*
X469475Y398974D01*
X469382Y399037D01*
Y415969D01*
X469768Y416286D01*
X469821Y416276D01*
X470441Y416399D01*
X470968Y416751D01*
X471319Y417277D01*
X471443Y417898D01*
Y420500D01*
X472136D01*
Y417898D01*
X472260Y417277D01*
X472611Y416751D01*
X473137Y416399D01*
X473758Y416276D01*
X474378Y416399D01*
X474742Y416642D01*
X475106Y416399D01*
X475726Y416276D01*
X476347Y416399D01*
X476711Y416642D01*
X477074Y416399D01*
X477695Y416276D01*
X478315Y416399D01*
X478679Y416642D01*
X479043Y416399D01*
X479663Y416276D01*
X480284Y416399D01*
X480648Y416642D01*
X481011Y416399D01*
X481632Y416276D01*
X482253Y416399D01*
X482779Y416751D01*
X483130Y417277D01*
X483254Y417898D01*
Y420500D01*
X487500D01*
Y415385D01*
D02*
G37*
G36*
X612470Y415156D02*
X611970Y414889D01*
X611890Y414942D01*
X611500Y415020D01*
X594618D01*
Y415870D01*
X588681D01*
Y415020D01*
X588319D01*
X587929Y414942D01*
X587598Y414721D01*
X587377Y414390D01*
X587299Y414000D01*
Y411150D01*
X583401D01*
Y414000D01*
X583324Y414390D01*
X583103Y414721D01*
X582772Y414942D01*
X582382Y415020D01*
X580000D01*
X579914Y415002D01*
X579825Y415004D01*
X568325Y413004D01*
X568220Y412964D01*
X568110Y412942D01*
X568037Y412893D01*
X567954Y412861D01*
X567873Y412783D01*
X567779Y412721D01*
X567730Y412648D01*
X567666Y412587D01*
X567621Y412484D01*
X567558Y412390D01*
X567541Y412304D01*
X567505Y412223D01*
X567502Y412111D01*
X567480Y412000D01*
Y402500D01*
X567558Y402110D01*
X567779Y401779D01*
X568110Y401558D01*
X568500Y401480D01*
X598078D01*
X606480Y393078D01*
Y354520D01*
X592937D01*
Y357634D01*
X583063D01*
Y354029D01*
X580633D01*
X574581Y360081D01*
X574085Y360413D01*
X573500Y360529D01*
X569421D01*
Y366587D01*
X565059D01*
Y360529D01*
X561941D01*
Y366587D01*
X561289D01*
Y366740D01*
X561173Y367325D01*
X560841Y367822D01*
X559581Y369081D01*
X559085Y369413D01*
X558500Y369529D01*
X526133D01*
X525386Y370277D01*
X525456Y370752D01*
X525917Y370991D01*
X526179Y370842D01*
X526367Y370716D01*
X527026Y370585D01*
X527685Y370716D01*
X528243Y371089D01*
X528617Y371648D01*
X528748Y372307D01*
Y379591D01*
X528617Y380250D01*
X528555Y380342D01*
Y381833D01*
X528622Y381878D01*
X529119Y382622D01*
X529294Y383500D01*
X529119Y384378D01*
X528937Y384651D01*
X529326Y384969D01*
X530496Y383799D01*
Y380342D01*
X530435Y380250D01*
X530303Y379591D01*
Y372307D01*
X530435Y371648D01*
X530808Y371089D01*
X531367Y370716D01*
X532026Y370585D01*
X532685Y370716D01*
X532872Y370842D01*
X533276Y371071D01*
X533679Y370842D01*
X533867Y370716D01*
X534526Y370585D01*
X535185Y370716D01*
X535372Y370842D01*
X535776Y371071D01*
X536179Y370842D01*
X536367Y370716D01*
X537026Y370585D01*
X537685Y370716D01*
X537872Y370842D01*
X538276Y371071D01*
X538679Y370842D01*
X538867Y370716D01*
X539526Y370585D01*
X540185Y370716D01*
X540743Y371089D01*
X541117Y371648D01*
X541248Y372307D01*
Y374419D01*
X542949D01*
X543534Y374536D01*
X544030Y374867D01*
X547031Y377869D01*
X547363Y378365D01*
X547479Y378950D01*
Y409412D01*
X547619Y409622D01*
X547794Y410500D01*
X547619Y411378D01*
X547122Y412122D01*
X546378Y412619D01*
X545500Y412794D01*
X544622Y412619D01*
X543878Y412122D01*
X543381Y411378D01*
X543206Y410500D01*
X543381Y409622D01*
X543878Y408878D01*
X544421Y408515D01*
Y402621D01*
X543921Y402210D01*
X543500Y402294D01*
X542622Y402119D01*
X541878Y401622D01*
X541381Y400878D01*
X541206Y400000D01*
X541381Y399122D01*
X541878Y398378D01*
X541971Y398316D01*
Y389932D01*
X541471Y389723D01*
X540878Y390120D01*
X540000Y390294D01*
X539122Y390120D01*
X538378Y389622D01*
X538216Y389380D01*
X537370D01*
Y391645D01*
X531630D01*
Y387644D01*
X531168Y387453D01*
X518793Y399827D01*
X518985Y400289D01*
X522701D01*
Y402471D01*
X525316D01*
X525378Y402378D01*
X526122Y401881D01*
X527000Y401706D01*
X527878Y401881D01*
X528622Y402378D01*
X529119Y403122D01*
X529294Y404000D01*
X529119Y404878D01*
X528622Y405622D01*
X527878Y406119D01*
X527000Y406294D01*
X526122Y406119D01*
X525378Y405622D01*
X525316Y405529D01*
X522701D01*
Y408411D01*
X520671D01*
Y431589D01*
X522701D01*
Y439711D01*
X515583D01*
Y437179D01*
X512968D01*
Y438717D01*
X511529D01*
Y443500D01*
X511413Y444085D01*
X511081Y444582D01*
X508159Y447504D01*
X508351Y447968D01*
X508487Y449000D01*
X508351Y450032D01*
X507953Y450993D01*
X507319Y451819D01*
X506493Y452453D01*
X505532Y452851D01*
X504500Y452987D01*
X503468Y452851D01*
X502507Y452453D01*
X501681Y451819D01*
X501047Y450993D01*
X500649Y450032D01*
X500513Y449000D01*
X500649Y447968D01*
X501047Y447007D01*
X501681Y446181D01*
X502507Y445547D01*
X503468Y445149D01*
X504500Y445013D01*
X505532Y445149D01*
X505996Y445341D01*
X508471Y442867D01*
Y438717D01*
X507031D01*
Y432917D01*
X507031Y432583D01*
X507031Y432083D01*
Y430880D01*
X506237D01*
X505878Y431119D01*
X505000Y431294D01*
X504122Y431119D01*
X503378Y430622D01*
X502881Y429878D01*
X502706Y429000D01*
X502881Y428122D01*
X503378Y427378D01*
X504122Y426881D01*
X505000Y426706D01*
X505878Y426881D01*
X506531Y427317D01*
X506862Y427213D01*
X507031Y427096D01*
Y426284D01*
X512968D01*
Y432083D01*
X512968Y432417D01*
X512968Y432917D01*
Y434120D01*
X515583D01*
Y431589D01*
X517612D01*
Y408411D01*
X515583D01*
Y403691D01*
X515121Y403500D01*
X507713Y410908D01*
X507216Y411240D01*
X506631Y411356D01*
X493600D01*
X493283Y411743D01*
X493293Y411795D01*
X493169Y412416D01*
X492927Y412780D01*
X493169Y413143D01*
X493293Y413764D01*
X493169Y414384D01*
X492818Y414911D01*
X492292Y415262D01*
X491671Y415385D01*
X488520D01*
Y420500D01*
X488442Y420890D01*
X488221Y421221D01*
X487890Y421442D01*
X487500Y421520D01*
X483254D01*
Y423803D01*
X483161Y424267D01*
Y426202D01*
X493545Y436586D01*
X497417D01*
Y442523D01*
X496029D01*
Y445355D01*
X496493Y445547D01*
X497319Y446181D01*
X497953Y447007D01*
X498351Y447968D01*
X498487Y449000D01*
X498351Y450032D01*
X497953Y450993D01*
X497319Y451819D01*
X496493Y452453D01*
X495532Y452851D01*
X494500Y452987D01*
X493468Y452851D01*
X492507Y452453D01*
X491681Y451819D01*
X491047Y450993D01*
X490649Y450032D01*
X490513Y449000D01*
X490649Y447968D01*
X491047Y447007D01*
X491681Y446181D01*
X492507Y445547D01*
X492971Y445355D01*
Y442523D01*
X491284D01*
Y438650D01*
X486516Y433882D01*
X486277Y433940D01*
X486029Y434103D01*
Y445355D01*
X486493Y445547D01*
X487319Y446181D01*
X487953Y447007D01*
X488351Y447968D01*
X488487Y449000D01*
X488351Y450032D01*
X487953Y450993D01*
X487319Y451819D01*
X486493Y452453D01*
X485532Y452851D01*
X484500Y452987D01*
X483468Y452851D01*
X482507Y452453D01*
X481681Y451819D01*
X481047Y450993D01*
X480649Y450032D01*
X480513Y449000D01*
X480649Y447968D01*
X481047Y447007D01*
X481681Y446181D01*
X482507Y445547D01*
X482971Y445355D01*
Y434633D01*
X479686Y431349D01*
X479224Y431540D01*
Y436586D01*
X480119D01*
Y442523D01*
X478582D01*
Y444948D01*
X478465Y445533D01*
X478134Y446029D01*
X477607Y446556D01*
X477953Y447007D01*
X478351Y447968D01*
X478487Y449000D01*
X478351Y450032D01*
X477953Y450993D01*
X477319Y451819D01*
X476493Y452453D01*
X475532Y452851D01*
X474500Y452987D01*
X473468Y452851D01*
X472507Y452453D01*
X471681Y451819D01*
X471047Y450993D01*
X470649Y450032D01*
X470513Y449000D01*
X470649Y447968D01*
X471047Y447007D01*
X471681Y446181D01*
X472507Y445547D01*
X473468Y445149D01*
X474500Y445013D01*
X474786Y445051D01*
X475523Y444314D01*
Y442523D01*
X473985D01*
Y442523D01*
X473820D01*
Y442523D01*
X467686D01*
Y436586D01*
X468323D01*
X468559Y436145D01*
X468381Y435878D01*
X468233Y435137D01*
X467753Y434910D01*
X466545Y436118D01*
X466716Y436531D01*
X466716D01*
Y442469D01*
X466029D01*
Y445047D01*
X468453D01*
Y452953D01*
X460547D01*
Y445047D01*
X462971D01*
Y442469D01*
X460917D01*
X460583Y442469D01*
X460083Y442469D01*
X454284D01*
Y436531D01*
X454787D01*
X455023Y436091D01*
X454881Y435878D01*
X454706Y435000D01*
X454881Y434122D01*
X455378Y433378D01*
X456122Y432881D01*
X457000Y432706D01*
X457878Y432881D01*
X458622Y433378D01*
X459119Y434122D01*
X459294Y435000D01*
X459119Y435878D01*
X459017Y436031D01*
X459270Y436531D01*
X460417Y436531D01*
X460917Y436531D01*
X462184D01*
X462237Y436265D01*
X462568Y435769D01*
X466090Y432247D01*
X465863Y431767D01*
X465122Y431619D01*
X464378Y431122D01*
X464125Y430745D01*
X463482Y430681D01*
X462581Y431581D01*
X462085Y431913D01*
X461500Y432029D01*
X437000D01*
X436415Y431913D01*
X435919Y431581D01*
X425034Y420697D01*
X416764D01*
X416735Y420740D01*
X416013Y421222D01*
X415162Y421391D01*
X408863D01*
X408012Y421222D01*
X407291Y420740D01*
X406809Y420018D01*
X406639Y419167D01*
X406809Y418316D01*
X407291Y417595D01*
X408012Y417113D01*
X408863Y416944D01*
X415162D01*
X416013Y417113D01*
X416735Y417595D01*
X416764Y417638D01*
X425667D01*
X426253Y417754D01*
X426749Y418086D01*
X437634Y428971D01*
X460866D01*
X462386Y427451D01*
Y425732D01*
X461999Y425414D01*
X461947Y425425D01*
X461326Y425301D01*
X460963Y425058D01*
X460599Y425301D01*
X459978Y425425D01*
X459358Y425301D01*
X458994Y425058D01*
X458631Y425301D01*
X458010Y425425D01*
X457389Y425301D01*
X457026Y425058D01*
X456662Y425301D01*
X456041Y425425D01*
X455421Y425301D01*
X455057Y425058D01*
X454693Y425301D01*
X454073Y425425D01*
X453452Y425301D01*
X453089Y425058D01*
X452725Y425301D01*
X452104Y425425D01*
X451484Y425301D01*
X450958Y424950D01*
X450606Y424424D01*
X450483Y423803D01*
Y421520D01*
X446356D01*
X446353Y421519D01*
X446350Y421520D01*
X446158Y421480D01*
X445965Y421442D01*
X445963Y421440D01*
X445960Y421440D01*
X445798Y421330D01*
X445635Y421221D01*
X445633Y421218D01*
X445630Y421217D01*
X445279Y420861D01*
X445277Y420858D01*
X445275Y420857D01*
X445168Y420692D01*
X445060Y420529D01*
X445059Y420526D01*
X445058Y420523D01*
X445022Y420331D01*
X444985Y420138D01*
X444985Y420135D01*
X444985Y420132D01*
X445037Y415741D01*
X444686Y415385D01*
X442065D01*
X441444Y415262D01*
X440918Y414911D01*
X440567Y414384D01*
X440443Y413764D01*
X440567Y413143D01*
X440810Y412780D01*
X440567Y412416D01*
X440443Y411795D01*
X440567Y411175D01*
X440918Y410649D01*
X441444Y410297D01*
X442065Y410174D01*
X447970D01*
X448106Y410201D01*
X448106Y410201D01*
X448319Y409896D01*
X448393Y409756D01*
X448291Y409524D01*
X448209Y409433D01*
X447970Y409480D01*
X442065D01*
X441444Y409356D01*
X440918Y409005D01*
X440567Y408479D01*
X440443Y407858D01*
X440567Y407238D01*
X440810Y406874D01*
X440567Y406510D01*
X440443Y405890D01*
X440567Y405269D01*
X440810Y404906D01*
X440567Y404542D01*
X440443Y403921D01*
X440567Y403301D01*
X440810Y402937D01*
X440567Y402573D01*
X440443Y401953D01*
X440567Y401332D01*
X440810Y400969D01*
X440567Y400605D01*
X440443Y399984D01*
X440567Y399364D01*
X440810Y399000D01*
X440567Y398636D01*
X440443Y398016D01*
X440567Y397395D01*
X440810Y397031D01*
X440567Y396668D01*
X440443Y396047D01*
X440567Y395427D01*
X440810Y395063D01*
X440567Y394699D01*
X440443Y394079D01*
X440567Y393458D01*
X440918Y392932D01*
X441444Y392581D01*
X442065Y392457D01*
X447970D01*
X448089Y392481D01*
X448184Y392378D01*
X448365Y392009D01*
X448251Y391763D01*
X448209Y391716D01*
X447970Y391763D01*
X442065D01*
X441444Y391640D01*
X440918Y391288D01*
X440567Y390762D01*
X440443Y390142D01*
X440567Y389521D01*
X440810Y389158D01*
X440567Y388794D01*
X440473Y388323D01*
X440101Y388100D01*
X439954Y388068D01*
X439878Y388120D01*
X439000Y388294D01*
X438122Y388120D01*
X437378Y387622D01*
X436881Y386878D01*
X436816Y386554D01*
X436274Y386389D01*
X427581Y395081D01*
X427085Y395413D01*
X426500Y395529D01*
X416700D01*
X416671Y395572D01*
X415949Y396055D01*
X415098Y396224D01*
X408799D01*
X407948Y396055D01*
X407227Y395572D01*
X406745Y394851D01*
X406575Y394000D01*
X406745Y393149D01*
X407227Y392427D01*
X407948Y391945D01*
X408799Y391776D01*
X415098D01*
X415949Y391945D01*
X416671Y392427D01*
X416700Y392471D01*
X425867D01*
X437346Y380991D01*
X437154Y380529D01*
X416700D01*
X416671Y380573D01*
X415949Y381055D01*
X415098Y381224D01*
X408799D01*
X407948Y381055D01*
X407227Y380573D01*
X406745Y379851D01*
X406575Y379000D01*
X406745Y378149D01*
X407227Y377428D01*
X407948Y376945D01*
X408799Y376776D01*
X415098D01*
X415949Y376945D01*
X416671Y377428D01*
X416700Y377471D01*
X437866D01*
X446419Y368919D01*
X446915Y368587D01*
X447500Y368471D01*
X452500D01*
X453085Y368587D01*
X453581Y368919D01*
X455154Y370491D01*
X455486Y370988D01*
X455602Y371573D01*
Y372268D01*
X455989Y372586D01*
X456041Y372575D01*
X456662Y372699D01*
X457026Y372942D01*
X457389Y372699D01*
X458010Y372575D01*
X458630Y372699D01*
X458994Y372942D01*
X459358Y372699D01*
X459978Y372575D01*
X460599Y372699D01*
X460963Y372942D01*
X461326Y372699D01*
X461947Y372575D01*
X462567Y372699D01*
X462931Y372942D01*
X463295Y372699D01*
X463915Y372575D01*
X463968Y372586D01*
X464355Y372268D01*
Y370616D01*
X464471Y370031D01*
X464802Y369535D01*
X471568Y362769D01*
X472064Y362437D01*
X472650Y362321D01*
X494428D01*
Y360784D01*
X500365D01*
Y366583D01*
X500365Y366917D01*
X500365Y367417D01*
Y373217D01*
X498926D01*
Y374580D01*
X499971D01*
Y379729D01*
X494822D01*
Y374580D01*
X495867D01*
Y373217D01*
X494428D01*
Y367417D01*
X494428Y367083D01*
X494428Y366583D01*
Y365380D01*
X473283D01*
X467413Y371250D01*
Y372268D01*
X467800Y372586D01*
X467852Y372575D01*
X468473Y372699D01*
X468837Y372942D01*
X469200Y372699D01*
X469821Y372575D01*
X470441Y372699D01*
X470968Y373050D01*
X471319Y373576D01*
X471443Y374197D01*
Y380102D01*
X471383Y380400D01*
X471785Y380678D01*
X472195Y380400D01*
X472136Y380102D01*
Y374197D01*
X472260Y373576D01*
X472611Y373050D01*
X473137Y372699D01*
X473758Y372575D01*
X474378Y372699D01*
X474742Y372942D01*
X475106Y372699D01*
X475726Y372575D01*
X476347Y372699D01*
X476711Y372942D01*
X477074Y372699D01*
X477695Y372575D01*
X478315Y372699D01*
X478679Y372942D01*
X479043Y372699D01*
X479663Y372575D01*
X480284Y372699D01*
X480810Y373050D01*
X481162Y373576D01*
X481285Y374197D01*
Y380102D01*
X481247Y380294D01*
X481643Y380608D01*
X482064Y380483D01*
X482170Y380325D01*
X482234Y380002D01*
Y378500D01*
X482312Y378110D01*
X482533Y377779D01*
X482863Y377558D01*
X483254Y377480D01*
X487500D01*
X487890Y377558D01*
X488221Y377779D01*
X488442Y378110D01*
X488520Y378500D01*
Y382614D01*
X491671D01*
X492292Y382738D01*
X492818Y383089D01*
X493169Y383616D01*
X493293Y384236D01*
X493169Y384857D01*
X492818Y385383D01*
X492292Y385735D01*
X491671Y385858D01*
X485766D01*
X485671Y385839D01*
X485203Y386191D01*
X485186Y386215D01*
X485228Y386427D01*
X485358Y386623D01*
X485510Y386990D01*
Y387388D01*
X485358Y387755D01*
X485213Y388195D01*
X485671Y388539D01*
X485766Y388520D01*
X491671D01*
X492292Y388644D01*
X492818Y388995D01*
X493169Y389521D01*
X493293Y390142D01*
X493169Y390762D01*
X492927Y391126D01*
X493169Y391490D01*
X493293Y392110D01*
X493283Y392163D01*
X493600Y392549D01*
X497579D01*
X498164Y392666D01*
X498660Y392997D01*
X506974Y401311D01*
X507500Y401206D01*
X507609Y401228D01*
X514971Y393866D01*
Y365684D01*
X514878Y365622D01*
X514381Y364878D01*
X514206Y364000D01*
X514381Y363122D01*
X514878Y362378D01*
X515622Y361880D01*
X516500Y361706D01*
X517378Y361880D01*
X518122Y362378D01*
X518619Y363122D01*
X518794Y364000D01*
X518619Y364878D01*
X518122Y365622D01*
X518029Y365684D01*
Y394500D01*
X517913Y395085D01*
X517581Y395581D01*
X509772Y403391D01*
X509794Y403500D01*
X509721Y403867D01*
X510182Y404113D01*
X525969Y388326D01*
X525651Y387937D01*
X525378Y388120D01*
X524500Y388294D01*
X523622Y388120D01*
X522878Y387622D01*
X522381Y386878D01*
X522206Y386000D01*
X522381Y385122D01*
X522878Y384378D01*
X522996Y384299D01*
Y381529D01*
X522496Y381219D01*
X522026Y381313D01*
X521367Y381182D01*
X520808Y380808D01*
X520435Y380250D01*
X520303Y379591D01*
Y372307D01*
X520435Y371648D01*
X520471Y371594D01*
Y371500D01*
X520587Y370915D01*
X520919Y370419D01*
X524337Y367000D01*
X520944Y363607D01*
X520613Y363111D01*
X520496Y362526D01*
Y361444D01*
X520435Y361352D01*
X520303Y360693D01*
Y353409D01*
X520435Y352750D01*
X520808Y352192D01*
X521367Y351818D01*
X522026Y351687D01*
X522365Y351755D01*
X522666Y351305D01*
X522381Y350878D01*
X522206Y350000D01*
X522381Y349122D01*
X522878Y348378D01*
X523622Y347881D01*
X524500Y347706D01*
X525378Y347881D01*
X526122Y348378D01*
X526221Y348526D01*
X526721Y348375D01*
Y345520D01*
X526000D01*
X525610Y345442D01*
X525279Y345221D01*
X525058Y344890D01*
X524980Y344500D01*
Y338500D01*
X525058Y338110D01*
X525279Y337779D01*
X525610Y337558D01*
X526000Y337480D01*
X576500D01*
X576890Y337558D01*
X577221Y337779D01*
X580422Y340980D01*
X591000D01*
X591390Y341058D01*
X591721Y341279D01*
X597422Y346980D01*
X611500D01*
X611890Y347058D01*
X611970Y347111D01*
X612470Y346844D01*
Y331000D01*
X362341D01*
X361988Y331354D01*
X362470Y459942D01*
X362970Y460442D01*
X612470D01*
Y415156D01*
D02*
G37*
G36*
X611500Y348000D02*
X597000D01*
X591000Y342000D01*
X580000D01*
X576500Y338500D01*
X526000D01*
Y344500D01*
X556500D01*
X565500Y353500D01*
X574716D01*
X579947Y348269D01*
X580443Y347937D01*
X581028Y347821D01*
X583063D01*
Y347366D01*
X592937D01*
Y350516D01*
Y353500D01*
X607500D01*
Y393500D01*
X598500Y402500D01*
X568500D01*
Y412000D01*
X580000Y414000D01*
X582382D01*
Y410130D01*
X588319D01*
Y414000D01*
X611500D01*
Y348000D01*
D02*
G37*
G36*
X501881Y406122D02*
X502378Y405378D01*
X503122Y404881D01*
X504000Y404706D01*
X504878Y404881D01*
X505306Y405167D01*
X505667Y404806D01*
X505381Y404378D01*
X505298Y403960D01*
X496945Y395608D01*
X492135D01*
X491671Y395701D01*
X485766D01*
X485671Y395682D01*
X485213Y396025D01*
X485358Y396465D01*
X485510Y396833D01*
Y397230D01*
X485358Y397598D01*
X485213Y398038D01*
X485671Y398381D01*
X485766Y398362D01*
X491671D01*
X492292Y398486D01*
X492818Y398837D01*
X493169Y399364D01*
X493293Y399984D01*
X493169Y400605D01*
X492927Y400969D01*
X493169Y401332D01*
X493293Y401953D01*
X493169Y402573D01*
X492927Y402937D01*
X493169Y403301D01*
X493293Y403921D01*
X493169Y404542D01*
X492927Y404906D01*
X493169Y405269D01*
X493293Y405890D01*
X493283Y405942D01*
X493600Y406329D01*
X501839D01*
X501881Y406122D01*
D02*
G37*
G36*
X457837Y404500D02*
X450049Y396712D01*
X449539Y396826D01*
X449359Y397231D01*
X449469Y397395D01*
X449592Y398016D01*
X449469Y398636D01*
X449226Y399000D01*
X449469Y399364D01*
X449592Y399984D01*
X449469Y400605D01*
X449226Y400969D01*
X449469Y401332D01*
X449592Y401953D01*
X449469Y402573D01*
X449226Y402937D01*
X449469Y403301D01*
X449592Y403921D01*
X449469Y404542D01*
X449226Y404906D01*
X449469Y405269D01*
X449592Y405890D01*
X449469Y406510D01*
X449226Y406874D01*
X449469Y407238D01*
X449592Y407858D01*
X449469Y408479D01*
X449226Y408843D01*
X449469Y409206D01*
X449592Y409827D01*
X449582Y409879D01*
X449899Y410266D01*
X452071D01*
X457837Y404500D01*
D02*
G37*
G36*
X450378Y385378D02*
X451122Y384880D01*
X452000Y384706D01*
X452878Y384880D01*
X453622Y385378D01*
X453684Y385471D01*
X461864D01*
X465112Y382222D01*
X465001Y381680D01*
X464652Y381523D01*
X464536Y381601D01*
X463915Y381724D01*
X463295Y381601D01*
X462931Y381358D01*
X462567Y381601D01*
X461947Y381724D01*
X461326Y381601D01*
X460963Y381358D01*
X460599Y381601D01*
X459978Y381724D01*
X459358Y381601D01*
X458994Y381358D01*
X458630Y381601D01*
X458010Y381724D01*
X457389Y381601D01*
X457026Y381358D01*
X456662Y381601D01*
X456041Y381724D01*
X455421Y381601D01*
X455057Y381358D01*
X454693Y381601D01*
X454073Y381724D01*
X453452Y381601D01*
X453089Y381358D01*
X452725Y381601D01*
X452104Y381724D01*
X451484Y381601D01*
X450958Y381249D01*
X450606Y380723D01*
X450483Y380102D01*
Y378679D01*
X446498D01*
X446491Y379290D01*
X446622Y379378D01*
X447119Y380122D01*
X447294Y381000D01*
X447119Y381878D01*
X446922Y382173D01*
X447158Y382614D01*
X447970D01*
X448591Y382738D01*
X449117Y383089D01*
X449469Y383616D01*
X449592Y384236D01*
X449469Y384857D01*
X449226Y385221D01*
X449469Y385584D01*
X449508Y385780D01*
X450038Y385886D01*
X450378Y385378D01*
D02*
G37*
G36*
X544421Y386140D02*
Y379584D01*
X542315Y377478D01*
X541248D01*
Y379591D01*
X541117Y380250D01*
X540743Y380808D01*
X540185Y381182D01*
X539627Y381292D01*
X539472Y381586D01*
X539430Y381803D01*
X543959Y386331D01*
X544421Y386140D01*
D02*
G37*
G36*
X554471Y361866D02*
Y355000D01*
X554587Y354415D01*
X554919Y353919D01*
X556340Y352497D01*
X556836Y352166D01*
X557421Y352049D01*
X557579D01*
Y350413D01*
X560318D01*
X560509Y349952D01*
X556078Y345520D01*
X532658D01*
Y350653D01*
X531055D01*
Y352658D01*
X531117Y352750D01*
X531248Y353409D01*
Y360693D01*
X531117Y361352D01*
X530743Y361911D01*
X530185Y362284D01*
X529526Y362415D01*
X529206Y362351D01*
X528905Y362801D01*
X529119Y363122D01*
X529294Y364000D01*
X529201Y364471D01*
X529611Y364971D01*
X531889D01*
X532300Y364471D01*
X532206Y364000D01*
X532381Y363122D01*
X532878Y362378D01*
X532996Y362299D01*
Y361444D01*
X532935Y361352D01*
X532803Y360693D01*
Y353409D01*
X532935Y352750D01*
X533308Y352192D01*
X533867Y351818D01*
X534526Y351687D01*
X535185Y351818D01*
X535372Y351944D01*
X535776Y352173D01*
X536179Y351944D01*
X536367Y351818D01*
X537026Y351687D01*
X537685Y351818D01*
X537872Y351944D01*
X538276Y352173D01*
X538679Y351944D01*
X538867Y351818D01*
X539526Y351687D01*
X540185Y351818D01*
X540743Y352192D01*
X541117Y352750D01*
X541248Y353409D01*
Y360693D01*
X541117Y361352D01*
X540743Y361911D01*
X540185Y362284D01*
X539526Y362415D01*
X538867Y362284D01*
X538679Y362158D01*
X538276Y361929D01*
X537872Y362158D01*
X537685Y362284D01*
X537026Y362415D01*
X536706Y362351D01*
X536405Y362801D01*
X536619Y363122D01*
X536794Y364000D01*
X536700Y364471D01*
X537111Y364971D01*
X551367D01*
X554471Y361866D01*
D02*
G37*
%LPC*%
G36*
X412126Y440282D02*
X411147Y440154D01*
X410235Y439776D01*
X409451Y439175D01*
X408850Y438391D01*
X408472Y437479D01*
X408344Y436500D01*
Y434500D01*
X408472Y433521D01*
X408850Y432609D01*
X409451Y431825D01*
X410235Y431224D01*
X411147Y430847D01*
X412126Y430718D01*
X413105Y430847D01*
X414017Y431224D01*
X414801Y431825D01*
X415402Y432609D01*
X415779Y433521D01*
X416250Y433412D01*
Y430750D01*
X423750D01*
Y440250D01*
X416250D01*
Y437588D01*
X415779Y437479D01*
X415402Y438391D01*
X414801Y439175D01*
X414017Y439776D01*
X413105Y440154D01*
X412126Y440282D01*
D02*
G37*
G36*
X378626D02*
X377647Y440154D01*
X376735Y439776D01*
X375952Y439175D01*
X375350Y438391D01*
X374973Y437479D01*
X374844Y436500D01*
Y434500D01*
X374973Y433521D01*
X375350Y432609D01*
X375952Y431825D01*
X376735Y431224D01*
X377647Y430847D01*
X378626Y430718D01*
X379605Y430847D01*
X380517Y431224D01*
X381300Y431825D01*
X381902Y432609D01*
X382279Y433521D01*
X382750Y433412D01*
Y430750D01*
X390250D01*
Y440250D01*
X382750D01*
Y437588D01*
X382279Y437479D01*
X381902Y438391D01*
X381300Y439175D01*
X380517Y439776D01*
X379605Y440154D01*
X378626Y440282D01*
D02*
G37*
G36*
X592000Y432520D02*
X570500D01*
X570110Y432442D01*
X569779Y432221D01*
X569558Y431890D01*
X569480Y431500D01*
Y427000D01*
X569558Y426610D01*
X569693Y426408D01*
Y424087D01*
X581142D01*
Y424763D01*
X581604Y424954D01*
X581909Y424649D01*
X582240Y424428D01*
X582630Y424351D01*
X587299D01*
Y419681D01*
X587377Y419291D01*
X587598Y418960D01*
X587779Y418779D01*
X588110Y418558D01*
X588500Y418480D01*
X592000D01*
X592390Y418558D01*
X592721Y418779D01*
X592942Y419110D01*
X593020Y419500D01*
Y419630D01*
X594618D01*
Y420450D01*
X595118Y420717D01*
X595622Y420381D01*
X596500Y420206D01*
X597378Y420381D01*
X598122Y420878D01*
X598619Y421622D01*
X598794Y422500D01*
X598619Y423378D01*
X598122Y424122D01*
X597378Y424619D01*
X596500Y424794D01*
X595622Y424619D01*
X595118Y424283D01*
X594618Y424550D01*
Y425370D01*
X593020D01*
Y431500D01*
X592942Y431890D01*
X592721Y432221D01*
X592390Y432442D01*
X592000Y432520D01*
D02*
G37*
G36*
X396265Y421391D02*
X389966D01*
X389114Y421222D01*
X388393Y420740D01*
X387911Y420018D01*
X387742Y419167D01*
X387911Y418316D01*
X388393Y417595D01*
X389114Y417113D01*
X389966Y416944D01*
X396265D01*
X397116Y417113D01*
X397837Y417595D01*
X398319Y418316D01*
X398489Y419167D01*
X398319Y420018D01*
X397837Y420740D01*
X397116Y421222D01*
X396265Y421391D01*
D02*
G37*
G36*
X386618Y417884D02*
X380681D01*
Y416029D01*
X379684D01*
X379622Y416122D01*
X378878Y416619D01*
X378000Y416794D01*
X377122Y416619D01*
X376378Y416122D01*
X375881Y415378D01*
X375706Y414500D01*
X375881Y413622D01*
X376378Y412878D01*
X377122Y412381D01*
X378000Y412206D01*
X378878Y412381D01*
X379622Y412878D01*
X379684Y412971D01*
X380328D01*
X380681Y412617D01*
X380681Y411750D01*
X380681Y411250D01*
Y410029D01*
X379684D01*
X379622Y410122D01*
X378878Y410619D01*
X378000Y410794D01*
X377122Y410619D01*
X376378Y410122D01*
X375881Y409378D01*
X375706Y408500D01*
X375881Y407622D01*
X376378Y406878D01*
X377122Y406381D01*
X378000Y406206D01*
X378878Y406381D01*
X379622Y406878D01*
X379684Y406971D01*
X380681D01*
Y405451D01*
X386618D01*
Y407638D01*
X388364D01*
X388393Y407595D01*
X389114Y407113D01*
X389966Y406944D01*
X396265D01*
X397116Y407113D01*
X397837Y407595D01*
X398319Y408316D01*
X398489Y409167D01*
X398319Y410018D01*
X397837Y410740D01*
X397116Y411222D01*
X396265Y411391D01*
X389966D01*
X389114Y411222D01*
X388393Y410740D01*
X388364Y410697D01*
X386972D01*
X386618Y411050D01*
X386618Y411585D01*
X386618Y412085D01*
Y412638D01*
X388364D01*
X388393Y412595D01*
X389114Y412113D01*
X389966Y411943D01*
X396265D01*
X397116Y412113D01*
X397837Y412595D01*
X398319Y413316D01*
X398489Y414167D01*
X398319Y415018D01*
X397837Y415740D01*
X397116Y416222D01*
X396265Y416391D01*
X389966D01*
X389114Y416222D01*
X388393Y415740D01*
X388364Y415697D01*
X386618D01*
Y417884D01*
D02*
G37*
G36*
X415162Y416391D02*
X408863D01*
X408012Y416222D01*
X407291Y415740D01*
X406809Y415018D01*
X406639Y414167D01*
X406809Y413316D01*
X407291Y412595D01*
X408012Y412113D01*
X408863Y411943D01*
X415162D01*
X416013Y412113D01*
X416735Y412595D01*
X416740Y412603D01*
X417228D01*
X417378Y412378D01*
X418122Y411881D01*
X419000Y411706D01*
X419878Y411881D01*
X420622Y412378D01*
X421119Y413122D01*
X421294Y414000D01*
X421119Y414878D01*
X420622Y415622D01*
X419878Y416119D01*
X419000Y416294D01*
X418122Y416119D01*
X417489Y415697D01*
X416764D01*
X416735Y415740D01*
X416013Y416222D01*
X415162Y416391D01*
D02*
G37*
G36*
Y406391D02*
X408863D01*
X408012Y406222D01*
X407291Y405740D01*
X406809Y405018D01*
X406639Y404167D01*
X406809Y403316D01*
X407291Y402595D01*
X408012Y402113D01*
X408863Y401943D01*
X415162D01*
X416013Y402113D01*
X416735Y402595D01*
X416740Y402603D01*
X417228D01*
X417378Y402378D01*
X418122Y401881D01*
X419000Y401706D01*
X419878Y401881D01*
X420622Y402378D01*
X421119Y403122D01*
X421294Y404000D01*
X421119Y404878D01*
X420622Y405622D01*
X419878Y406119D01*
X419000Y406294D01*
X418122Y406119D01*
X417489Y405697D01*
X416764D01*
X416735Y405740D01*
X416013Y406222D01*
X415162Y406391D01*
D02*
G37*
G36*
X396201Y396224D02*
X389902D01*
X389051Y396055D01*
X388329Y395572D01*
X387847Y394851D01*
X387678Y394000D01*
X387847Y393149D01*
X388329Y392427D01*
X389051Y391945D01*
X389902Y391776D01*
X396201D01*
X397052Y391945D01*
X397773Y392427D01*
X398255Y393149D01*
X398425Y394000D01*
X398255Y394851D01*
X397773Y395572D01*
X397052Y396055D01*
X396201Y396224D01*
D02*
G37*
G36*
X386554Y392717D02*
X380617D01*
Y391029D01*
X379684D01*
X379622Y391122D01*
X378878Y391619D01*
X378000Y391794D01*
X377122Y391619D01*
X376378Y391122D01*
X375881Y390378D01*
X375706Y389500D01*
X375881Y388622D01*
X376378Y387878D01*
X377122Y387381D01*
X378000Y387206D01*
X378878Y387381D01*
X379622Y387878D01*
X379684Y387971D01*
X380264D01*
X380617Y387617D01*
X380617Y386583D01*
X380617Y386083D01*
Y385029D01*
X379684D01*
X379622Y385122D01*
X378878Y385619D01*
X378000Y385794D01*
X377122Y385619D01*
X376378Y385122D01*
X375881Y384378D01*
X375706Y383500D01*
X375881Y382622D01*
X376378Y381878D01*
X377122Y381381D01*
X378000Y381206D01*
X378878Y381381D01*
X379622Y381878D01*
X379684Y381971D01*
X380617D01*
Y380283D01*
X386554D01*
Y382471D01*
X388300D01*
X388329Y382428D01*
X389051Y381945D01*
X389902Y381776D01*
X396201D01*
X397052Y381945D01*
X397773Y382428D01*
X398255Y383149D01*
X398425Y384000D01*
X398255Y384851D01*
X397773Y385573D01*
X397052Y386055D01*
X396201Y386224D01*
X389902D01*
X389051Y386055D01*
X388329Y385573D01*
X388300Y385529D01*
X386908D01*
X386554Y385883D01*
X386554Y386417D01*
X386554Y386917D01*
Y387471D01*
X388300D01*
X388329Y387427D01*
X389051Y386945D01*
X389902Y386776D01*
X396201D01*
X397052Y386945D01*
X397773Y387427D01*
X398255Y388149D01*
X398425Y389000D01*
X398255Y389851D01*
X397773Y390573D01*
X397052Y391055D01*
X396201Y391224D01*
X389902D01*
X389051Y391055D01*
X388329Y390573D01*
X388300Y390529D01*
X386554D01*
Y392717D01*
D02*
G37*
G36*
X420000Y391294D02*
X419122Y391120D01*
X418378Y390622D01*
X418316Y390529D01*
X416700D01*
X416671Y390573D01*
X415949Y391055D01*
X415098Y391224D01*
X408799D01*
X407948Y391055D01*
X407227Y390573D01*
X406745Y389851D01*
X406575Y389000D01*
X406745Y388149D01*
X407227Y387427D01*
X407948Y386945D01*
X408799Y386776D01*
X415098D01*
X415949Y386945D01*
X416671Y387427D01*
X416700Y387471D01*
X418316D01*
X418378Y387378D01*
X419122Y386880D01*
X420000Y386706D01*
X420878Y386880D01*
X421622Y387378D01*
X422119Y388122D01*
X422294Y389000D01*
X422119Y389878D01*
X421622Y390622D01*
X420878Y391120D01*
X420000Y391294D01*
D02*
G37*
G36*
X568807Y391365D02*
X568307Y391365D01*
X562508D01*
Y389926D01*
X560047D01*
Y390971D01*
X554898D01*
Y385822D01*
X560047D01*
Y386867D01*
X562508D01*
Y385469D01*
X562508Y385428D01*
Y384968D01*
X562508Y384928D01*
Y383529D01*
X560047D01*
Y384575D01*
X554898D01*
Y379425D01*
X560047D01*
Y380471D01*
X562508D01*
Y379031D01*
X568307D01*
X568642Y379031D01*
X569142Y379031D01*
X574941D01*
Y380471D01*
X576316D01*
X576378Y380378D01*
X577122Y379880D01*
X578000Y379706D01*
X578878Y379880D01*
X579622Y380378D01*
X580119Y381122D01*
X580294Y382000D01*
X580119Y382878D01*
X579622Y383622D01*
X578878Y384120D01*
X578000Y384294D01*
X577122Y384120D01*
X576378Y383622D01*
X576316Y383529D01*
X574941D01*
Y384968D01*
X574941D01*
Y385428D01*
X574941D01*
Y391365D01*
X569142D01*
X568807Y391365D01*
D02*
G37*
G36*
X551000Y396294D02*
X550122Y396119D01*
X549378Y395622D01*
X548881Y394878D01*
X548706Y394000D01*
X548881Y393122D01*
X549378Y392378D01*
X549447Y392332D01*
Y390971D01*
X548402D01*
Y385822D01*
X553551D01*
Y390971D01*
X552506D01*
Y392300D01*
X552622Y392378D01*
X553119Y393122D01*
X553294Y394000D01*
X553119Y394878D01*
X552622Y395622D01*
X551878Y396119D01*
X551000Y396294D01*
D02*
G37*
G36*
X553551Y384575D02*
X548402D01*
Y379425D01*
X549000D01*
X549246Y378925D01*
X548881Y378378D01*
X548706Y377500D01*
X548881Y376622D01*
X549378Y375878D01*
X550122Y375380D01*
X551000Y375206D01*
X551878Y375380D01*
X552622Y375878D01*
X553119Y376622D01*
X553294Y377500D01*
X553119Y378378D01*
X552754Y378925D01*
X553000Y379425D01*
X553551D01*
Y384575D01*
D02*
G37*
G36*
X422874Y362282D02*
X421895Y362154D01*
X420983Y361776D01*
X420199Y361175D01*
X419598Y360391D01*
X419220Y359479D01*
X418750Y359588D01*
Y362250D01*
X411250D01*
Y352750D01*
X418750D01*
Y355412D01*
X419220Y355521D01*
X419598Y354609D01*
X420199Y353825D01*
X420983Y353224D01*
X421895Y352847D01*
X422874Y352718D01*
X423853Y352847D01*
X424765Y353224D01*
X425549Y353825D01*
X426150Y354609D01*
X426528Y355521D01*
X426656Y356500D01*
Y358500D01*
X426528Y359479D01*
X426150Y360391D01*
X425549Y361175D01*
X424765Y361776D01*
X423853Y362154D01*
X422874Y362282D01*
D02*
G37*
G36*
X388874D02*
X387895Y362154D01*
X386983Y361776D01*
X386199Y361175D01*
X385598Y360391D01*
X385221Y359479D01*
X384750Y359588D01*
Y362250D01*
X377250D01*
Y352750D01*
X384750D01*
Y355412D01*
X385221Y355521D01*
X385598Y354609D01*
X386199Y353825D01*
X386983Y353224D01*
X387895Y352847D01*
X388874Y352718D01*
X389853Y352847D01*
X390765Y353224D01*
X391548Y353825D01*
X392150Y354609D01*
X392528Y355521D01*
X392656Y356500D01*
Y358500D01*
X392528Y359479D01*
X392150Y360391D01*
X391548Y361175D01*
X390765Y361776D01*
X389853Y362154D01*
X388874Y362282D01*
D02*
G37*
G36*
X507075Y379827D02*
X501925D01*
Y374677D01*
X502971D01*
Y373217D01*
X501532D01*
Y367417D01*
X501532Y367083D01*
X501532Y366583D01*
Y360784D01*
X502384D01*
X502652Y360283D01*
X502381Y359878D01*
X502206Y359000D01*
X502381Y358122D01*
X502878Y357378D01*
X503622Y356880D01*
X504500Y356706D01*
X505378Y356880D01*
X506122Y357378D01*
X506619Y358122D01*
X506794Y359000D01*
X506619Y359878D01*
X506349Y360283D01*
X506616Y360784D01*
X507469D01*
Y366583D01*
X507469Y366917D01*
X507469Y367417D01*
Y373217D01*
X506029D01*
Y374677D01*
X507075D01*
Y379827D01*
D02*
G37*
%LPD*%
G36*
X592000Y424029D02*
X591650D01*
X591064Y423913D01*
X590568Y423581D01*
X590237Y423085D01*
X590120Y422500D01*
X590237Y421915D01*
X590568Y421419D01*
X591064Y421087D01*
X591650Y420971D01*
X592000D01*
Y419500D01*
X588500D01*
X588319Y419681D01*
Y425370D01*
X582630D01*
X581000Y427000D01*
X570500D01*
Y431500D01*
X592000D01*
Y424029D01*
D02*
G37*
D14*
X494350Y439554D02*
X494500Y439704D01*
X481632Y426836D02*
X494350Y439554D01*
X481632Y420850D02*
Y426836D01*
X558500Y368000D02*
X559760Y366740D01*
X525500Y368000D02*
X558500D01*
X522000Y371500D02*
X525500Y368000D01*
X552000Y366500D02*
X556000Y362500D01*
X526000Y366500D02*
X552000D01*
X522026Y362526D02*
X526000Y366500D01*
X506631Y409827D02*
X532026Y384432D01*
X488719Y409827D02*
X506631D01*
X532026Y375949D02*
Y384432D01*
X534526Y375949D02*
Y387825D01*
X534500Y387850D02*
X534526Y387825D01*
X527000Y383500D02*
X527026Y383474D01*
X524526Y375949D02*
Y386500D01*
X527026Y375949D02*
Y383474D01*
X452000Y387000D02*
X462497D01*
X467474Y382023D01*
X469500Y427000D02*
X469821Y426679D01*
Y420850D02*
Y426679D01*
X470500Y435000D02*
X470753Y435253D01*
Y439554D01*
X457000Y435000D02*
X457350Y435350D01*
Y439500D01*
X505000Y429000D02*
X505350Y429350D01*
X510000D01*
X411949Y389000D02*
X420000D01*
X418833Y414167D02*
X419000Y414000D01*
X412013Y414167D02*
X418833D01*
X591650Y422500D02*
X596500D01*
X504500Y359000D02*
Y363850D01*
X467474Y377528D02*
Y382023D01*
Y377528D02*
X467852Y377150D01*
X467852Y397352D02*
Y420850D01*
X516500Y364000D02*
Y394500D01*
X507500Y403500D02*
X516500Y394500D01*
X507000Y403500D02*
X507500D01*
X497579Y394079D02*
X507000Y403500D01*
X488719Y394079D02*
X497579D01*
X445018D02*
X449579D01*
X460000Y404500D01*
X452705Y411795D02*
X460000Y404500D01*
X445018Y411795D02*
X452705D01*
X571874Y382000D02*
X578000D01*
X571874D02*
Y388397D01*
X445000Y381000D02*
X445018Y381018D01*
Y384236D01*
X439000Y386000D02*
X439205Y386205D01*
X445018D01*
X426500Y394000D02*
X443350Y377150D01*
X452104D01*
X537026Y381561D02*
X543500Y388035D01*
X537026Y375949D02*
Y381561D01*
X542949Y375949D02*
X545950Y378950D01*
Y410050D01*
X545500Y410500D02*
X545950Y410050D01*
X543500Y388035D02*
Y400000D01*
X534500Y387850D02*
X539850D01*
X540000Y388000D01*
X550976Y393976D02*
X551000Y394000D01*
X550976Y388397D02*
Y393976D01*
Y377524D02*
X551000Y377500D01*
X550976Y377524D02*
Y382000D01*
X503142Y407858D02*
X504000Y407000D01*
X488719Y407858D02*
X503142D01*
X539526Y375949D02*
X542949D01*
X534526Y357051D02*
Y363974D01*
X534500Y364000D02*
X534526Y363974D01*
X524500Y350000D02*
X524526Y350026D01*
Y357051D01*
X559760Y353579D02*
X562479D01*
X566401Y357500D01*
X572879D01*
X581028Y349350D01*
X588000D01*
X580000Y352500D02*
X588000D01*
X573500Y359000D02*
X580000Y352500D01*
X561000Y359000D02*
X573500D01*
X559760Y360240D02*
X561000Y359000D01*
X559760Y360240D02*
Y363421D01*
X519142Y404350D02*
X519492Y404000D01*
X527000D01*
Y364000D02*
X527026Y363974D01*
Y357051D02*
Y363974D01*
X557421Y353579D02*
X559760D01*
X556000Y355000D02*
X557421Y353579D01*
X556000Y355000D02*
Y362500D01*
X522026Y357051D02*
Y362526D01*
X522000Y371500D02*
Y375138D01*
X559760Y363421D02*
Y366740D01*
X565575Y388397D02*
X565575Y388397D01*
X557473Y388397D02*
X565575D01*
X557473Y382000D02*
X565575D01*
X529526Y347750D02*
X529690Y347586D01*
X529526Y347750D02*
Y357051D01*
X463650Y436850D02*
X475726Y424774D01*
X463650Y436850D02*
Y439500D01*
X461500Y430500D02*
X463915Y428085D01*
Y420850D02*
Y428085D01*
X477052Y439554D02*
X477695Y438911D01*
Y420850D02*
Y438911D01*
X479663Y420850D02*
Y429163D01*
X484500Y434000D01*
Y449000D01*
X504500D02*
X510000Y443500D01*
Y435650D02*
Y443500D01*
X519142Y404350D02*
Y435650D01*
X519142Y435650D02*
X519142Y435650D01*
X510000Y435650D02*
X519142D01*
X494500Y439704D02*
Y449000D01*
X477052Y439554D02*
Y444948D01*
X474500Y447500D02*
X477052Y444948D01*
X474500Y447500D02*
Y449000D01*
X463650Y439500D02*
X464500Y440350D01*
Y449000D01*
X378000Y414500D02*
X383333D01*
X378000Y408500D02*
X383632D01*
X383436Y383500D02*
X383586Y383350D01*
X378000Y383500D02*
X383436D01*
X383436Y389500D02*
X383586Y389650D01*
X378000Y389500D02*
X383436D01*
X418833Y404167D02*
X419000Y404000D01*
X412013Y404167D02*
X418833D01*
X465884Y429384D02*
X466000Y429500D01*
X465884Y420850D02*
Y429384D01*
X412013Y419167D02*
X425667D01*
X437000Y430500D01*
X461500D01*
X472650Y363850D02*
X497397D01*
X465884Y370616D02*
X472650Y363850D01*
X465884Y370616D02*
Y377150D01*
X438500Y379000D02*
X447500Y370000D01*
X452500D01*
X454073Y371573D01*
Y377150D01*
X411949Y379000D02*
X438500D01*
X411949Y394000D02*
X426500D01*
X384235Y384000D02*
X393051D01*
X384235Y389000D02*
X393051D01*
X383650Y408518D02*
X384299Y409167D01*
X393115D01*
X384299Y414167D02*
X393115D01*
X504500Y370150D02*
Y377252D01*
X497397Y370150D02*
Y377154D01*
D36*
X575417Y408945D02*
D03*
Y418000D02*
D03*
Y427055D02*
D03*
D37*
X552583Y418000D02*
D03*
D38*
X383586Y389650D02*
D03*
Y383350D02*
D03*
X529690Y347586D02*
D03*
Y341286D02*
D03*
X510000Y435650D02*
D03*
Y429350D02*
D03*
X504500Y370150D02*
D03*
Y363850D02*
D03*
X497397Y370150D02*
D03*
Y363850D02*
D03*
X383650Y408518D02*
D03*
Y414817D02*
D03*
D39*
X500650Y439554D02*
D03*
X494350D02*
D03*
X477052D02*
D03*
X470753D02*
D03*
X463650Y439500D02*
D03*
X457350D02*
D03*
X565575Y388397D02*
D03*
X571874D02*
D03*
X565575Y382000D02*
D03*
X571874D02*
D03*
D40*
X597843Y369035D02*
D03*
Y335965D02*
D03*
D41*
X588000Y352500D02*
D03*
Y349350D02*
D03*
Y346201D02*
D03*
Y355650D02*
D03*
Y358799D02*
D03*
D42*
X567240Y363421D02*
D03*
X563500D02*
D03*
X559760D02*
D03*
Y353579D02*
D03*
X567240D02*
D03*
D43*
X557473Y382000D02*
D03*
X550976D02*
D03*
X557473Y388397D02*
D03*
X550976D02*
D03*
D44*
X539526Y375949D02*
D03*
X537026D02*
D03*
X534526D02*
D03*
X532026D02*
D03*
X529526D02*
D03*
X527026D02*
D03*
X524526D02*
D03*
X522026D02*
D03*
X539526Y357051D02*
D03*
X537026D02*
D03*
X534526D02*
D03*
X532026D02*
D03*
X529526D02*
D03*
X527026D02*
D03*
X524526D02*
D03*
X522026D02*
D03*
D45*
X585350Y413000D02*
D03*
X591650D02*
D03*
X585350Y422500D02*
D03*
X591650D02*
D03*
D46*
X536793Y347586D02*
D03*
Y341286D02*
D03*
X543897Y347586D02*
D03*
Y341286D02*
D03*
X534500Y394975D02*
D03*
Y388676D02*
D03*
D47*
X519142Y435650D02*
D03*
X536858D02*
D03*
X519142Y404350D02*
D03*
X536858D02*
D03*
D48*
X504500Y377252D02*
D03*
Y383748D02*
D03*
X497397Y377154D02*
D03*
Y383651D02*
D03*
D49*
X452104Y420850D02*
D03*
X454073D02*
D03*
X456041Y420850D02*
D03*
X458010Y420850D02*
D03*
X459978D02*
D03*
X461947D02*
D03*
X463915Y420850D02*
D03*
X465884D02*
D03*
X467852Y420850D02*
D03*
X469821D02*
D03*
X471789D02*
D03*
X473758D02*
D03*
X475726D02*
D03*
X477695D02*
D03*
X479663D02*
D03*
X481632D02*
D03*
X481632Y377150D02*
D03*
X479663D02*
D03*
X477695Y377150D02*
D03*
X475726Y377150D02*
D03*
X473758D02*
D03*
X471789D02*
D03*
X469821D02*
D03*
X467852D02*
D03*
X465884D02*
D03*
X463915D02*
D03*
X461947D02*
D03*
X459978D02*
D03*
X458010D02*
D03*
X456041D02*
D03*
X454073D02*
D03*
X452104D02*
D03*
D50*
X488719Y413764D02*
D03*
X488719Y411795D02*
D03*
Y409827D02*
D03*
X488719Y407858D02*
D03*
X488719Y405890D02*
D03*
Y403921D02*
D03*
Y401953D02*
D03*
Y399984D02*
D03*
Y398016D02*
D03*
Y396047D02*
D03*
Y394079D02*
D03*
Y392110D02*
D03*
Y390142D02*
D03*
X488719Y388173D02*
D03*
X488719Y386205D02*
D03*
Y384236D02*
D03*
X445018D02*
D03*
X445018Y386205D02*
D03*
X445018Y388173D02*
D03*
X445018Y390142D02*
D03*
Y392110D02*
D03*
X445018Y394079D02*
D03*
Y396047D02*
D03*
X445018Y398016D02*
D03*
X445018Y399984D02*
D03*
Y401953D02*
D03*
Y403921D02*
D03*
Y405890D02*
D03*
X445018Y407858D02*
D03*
X445018Y409827D02*
D03*
Y411795D02*
D03*
Y413764D02*
D03*
D51*
X393115Y419167D02*
D03*
Y414167D02*
D03*
Y409167D02*
D03*
Y404167D02*
D03*
X412013Y419167D02*
D03*
Y414167D02*
D03*
Y409167D02*
D03*
Y404167D02*
D03*
X393051Y394000D02*
D03*
Y389000D02*
D03*
Y384000D02*
D03*
Y379000D02*
D03*
X411949Y394000D02*
D03*
Y389000D02*
D03*
Y384000D02*
D03*
Y379000D02*
D03*
D52*
X514500Y449000D02*
D03*
X504500D02*
D03*
X494500D02*
D03*
X484500D02*
D03*
X474500D02*
D03*
D53*
X464500D02*
D03*
D54*
X422874Y357500D02*
D03*
X412126Y435500D02*
D03*
X388874Y357500D02*
D03*
X378626Y435500D02*
D03*
D55*
X415000Y357500D02*
D03*
X420000Y435500D02*
D03*
X381000Y357500D02*
D03*
X386500Y435500D02*
D03*
D56*
X554000Y334500D02*
D03*
X547500Y352500D02*
D03*
X439150Y417650D02*
D03*
X489000Y375500D02*
D03*
X527000Y383500D02*
D03*
X524500Y386000D02*
D03*
X501500Y388500D02*
D03*
X452000Y387000D02*
D03*
X495500Y397500D02*
D03*
X469500Y427000D02*
D03*
X457000Y435000D02*
D03*
X470500D02*
D03*
X505000Y429000D02*
D03*
X504500Y359000D02*
D03*
X596500Y422500D02*
D03*
X420000Y389000D02*
D03*
X419000Y414000D02*
D03*
X467852Y397352D02*
D03*
X516500Y364000D02*
D03*
X507500Y403500D02*
D03*
X475500Y404500D02*
D03*
X460000D02*
D03*
X578000Y382000D02*
D03*
X445000Y381000D02*
D03*
X439000Y386000D02*
D03*
X543500Y400000D02*
D03*
X551000Y394000D02*
D03*
Y377500D02*
D03*
X545500Y410500D02*
D03*
X504000Y407000D02*
D03*
X534500Y364000D02*
D03*
X527000Y404000D02*
D03*
Y364000D02*
D03*
X524500Y350000D02*
D03*
X540000Y388000D02*
D03*
X378000Y383500D02*
D03*
Y389500D02*
D03*
Y408500D02*
D03*
Y414500D02*
D03*
X419000Y404000D02*
D03*
X466000Y429500D02*
D03*
M02*
