G04*
G04 #@! TF.GenerationSoftware,Altium Limited,Altium Designer,18.1.6 (161)*
G04*
G04 Layer_Color=32896*
%FSLAX25Y25*%
%MOIN*%
G70*
G01*
G75*
%ADD14C,0.01000*%
D14*
X463002Y371501D02*
X462002Y372501D01*
Y374500D01*
X463002Y375500D01*
X467000D01*
X468000Y374500D01*
Y372501D01*
X467000Y371501D01*
X468000Y369502D02*
Y367503D01*
Y368502D01*
X462002D01*
X463002Y369502D01*
Y364504D02*
X462002Y363504D01*
Y361505D01*
X463002Y360505D01*
X467000D01*
X468000Y361505D01*
Y363504D01*
X467000Y364504D01*
X463002D01*
X454502Y371501D02*
X453502Y372501D01*
Y374500D01*
X454502Y375500D01*
X458500D01*
X459500Y374500D01*
Y372501D01*
X458500Y371501D01*
Y369502D02*
X459500Y368502D01*
Y366503D01*
X458500Y365503D01*
X454502D01*
X453502Y366503D01*
Y368502D01*
X454502Y369502D01*
X455501D01*
X456501Y368502D01*
Y365503D01*
X471502Y371501D02*
X470502Y372501D01*
Y374500D01*
X471502Y375500D01*
X475500D01*
X476500Y374500D01*
Y372501D01*
X475500Y371501D01*
X471502Y369502D02*
X470502Y368502D01*
Y366503D01*
X471502Y365503D01*
X472501D01*
X473501Y366503D01*
X474501Y365503D01*
X475500D01*
X476500Y366503D01*
Y368502D01*
X475500Y369502D01*
X474501D01*
X473501Y368502D01*
X472501Y369502D01*
X471502D01*
X473501Y368502D02*
Y366503D01*
X480002Y372001D02*
X479002Y373001D01*
Y375000D01*
X480002Y376000D01*
X484000D01*
X485000Y375000D01*
Y373001D01*
X484000Y372001D01*
X479002Y370002D02*
Y366003D01*
X480002D01*
X484000Y370002D01*
X485000D01*
X466998Y426999D02*
X467998Y425999D01*
Y424000D01*
X466998Y423000D01*
X463000D01*
X462000Y424000D01*
Y425999D01*
X463000Y426999D01*
X467998Y432997D02*
X466998Y430997D01*
X464999Y428998D01*
X463000D01*
X462000Y429998D01*
Y431997D01*
X463000Y432997D01*
X463999D01*
X464999Y431997D01*
Y428998D01*
X474998Y426999D02*
X475998Y425999D01*
Y424000D01*
X474998Y423000D01*
X471000D01*
X470000Y424000D01*
Y425999D01*
X471000Y426999D01*
X475998Y432997D02*
Y428998D01*
X472999D01*
X473999Y430997D01*
Y431997D01*
X472999Y432997D01*
X471000D01*
X470000Y431997D01*
Y429998D01*
X471000Y428998D01*
X458498Y426999D02*
X459498Y425999D01*
Y424000D01*
X458498Y423000D01*
X454500D01*
X453500Y424000D01*
Y425999D01*
X454500Y426999D01*
X453500Y431997D02*
X459498D01*
X456499Y428998D01*
Y432997D01*
X483998Y426999D02*
X484998Y425999D01*
Y424000D01*
X483998Y423000D01*
X480000D01*
X479000Y424000D01*
Y425999D01*
X480000Y426999D01*
X483998Y428998D02*
X484998Y429998D01*
Y431997D01*
X483998Y432997D01*
X482999D01*
X481999Y431997D01*
Y430997D01*
Y431997D01*
X480999Y432997D01*
X480000D01*
X479000Y431997D01*
Y429998D01*
X480000Y428998D01*
X450998Y426999D02*
X451998Y425999D01*
Y424000D01*
X450998Y423000D01*
X447000D01*
X446000Y424000D01*
Y425999D01*
X447000Y426999D01*
X446000Y432997D02*
Y428998D01*
X449999Y432997D01*
X450998D01*
X451998Y431997D01*
Y429998D01*
X450998Y428998D01*
X492498Y426999D02*
X493498Y425999D01*
Y424000D01*
X492498Y423000D01*
X488500D01*
X487500Y424000D01*
Y425999D01*
X488500Y426999D01*
X487500Y428998D02*
Y430997D01*
Y429998D01*
X493498D01*
X492498Y428998D01*
M02*
