G04*
G04 #@! TF.GenerationSoftware,Altium Limited,Altium Designer,18.1.6 (161)*
G04*
G04 Layer_Color=32896*
%FSLAX25Y25*%
%MOIN*%
G70*
G01*
G75*
%ADD15C,0.00700*%
D15*
X660001Y414001D02*
X659501Y414501D01*
Y415500D01*
X660001Y416000D01*
X662000D01*
X662500Y415500D01*
Y414501D01*
X662000Y414001D01*
X662500Y413001D02*
X660501D01*
X659501Y412001D01*
X660501Y411002D01*
X662500D01*
X661000D01*
Y413001D01*
X662500Y410002D02*
X659501D01*
X662500Y408003D01*
X659501D01*
Y407003D02*
X662500D01*
Y405004D01*
X660001Y399006D02*
X659501Y399505D01*
Y400505D01*
X660001Y401005D01*
X662000D01*
X662500Y400505D01*
Y399505D01*
X662000Y399006D01*
X662500Y398006D02*
X660501D01*
X659501Y397006D01*
X660501Y396006D01*
X662500D01*
X661000D01*
Y398006D01*
X662500Y395007D02*
X659501D01*
X662500Y393007D01*
X659501D01*
Y392008D02*
X662500D01*
X661000D01*
Y390008D01*
X659501D01*
X662500D01*
X660501Y340001D02*
X660001Y340500D01*
Y341500D01*
X660501Y342000D01*
X662500D01*
X663000Y341500D01*
Y340500D01*
X662500Y340001D01*
X663000Y339001D02*
X661001D01*
X660001Y338001D01*
X661001Y337002D01*
X663000D01*
X661501D01*
Y339001D01*
X663000Y336002D02*
X660001D01*
X663000Y334003D01*
X660001D01*
Y333003D02*
X663000D01*
Y331004D01*
X660501Y325006D02*
X660001Y325505D01*
Y326505D01*
X660501Y327005D01*
X662500D01*
X663000Y326505D01*
Y325505D01*
X662500Y325006D01*
X663000Y324006D02*
X661001D01*
X660001Y323006D01*
X661001Y322007D01*
X663000D01*
X661501D01*
Y324006D01*
X663000Y321007D02*
X660001D01*
X663000Y319007D01*
X660001D01*
Y318008D02*
X663000D01*
X661501D01*
Y316008D01*
X660001D01*
X663000D01*
X660001Y376001D02*
X659501Y376501D01*
Y377500D01*
X660001Y378000D01*
X662000D01*
X662500Y377500D01*
Y376501D01*
X662000Y376001D01*
X662500Y375001D02*
X660501D01*
X659501Y374001D01*
X660501Y373002D01*
X662500D01*
X661000D01*
Y375001D01*
X662500Y372002D02*
X659501D01*
X662500Y370003D01*
X659501D01*
Y369003D02*
X662500D01*
Y367004D01*
X660001Y361005D02*
X659501Y361505D01*
Y362505D01*
X660001Y363005D01*
X662000D01*
X662500Y362505D01*
Y361505D01*
X662000Y361005D01*
X662500Y360006D02*
X660501D01*
X659501Y359006D01*
X660501Y358007D01*
X662500D01*
X661000D01*
Y360006D01*
X662500Y357007D02*
X659501D01*
X662500Y355007D01*
X659501D01*
Y354008D02*
X662500D01*
X661000D01*
Y352008D01*
X659501D01*
X662500D01*
X660001Y450501D02*
X659501Y451000D01*
Y452000D01*
X660001Y452500D01*
X662000D01*
X662500Y452000D01*
Y451000D01*
X662000Y450501D01*
X662500Y449501D02*
X660501D01*
X659501Y448501D01*
X660501Y447502D01*
X662500D01*
X661000D01*
Y449501D01*
X662500Y446502D02*
X659501D01*
X662500Y444503D01*
X659501D01*
Y443503D02*
X662500D01*
Y441504D01*
X660001Y435505D02*
X659501Y436005D01*
Y437005D01*
X660001Y437505D01*
X662000D01*
X662500Y437005D01*
Y436005D01*
X662000Y435505D01*
X662500Y434506D02*
X660501D01*
X659501Y433506D01*
X660501Y432507D01*
X662500D01*
X661000D01*
Y434506D01*
X662500Y431507D02*
X659501D01*
X662500Y429507D01*
X659501D01*
Y428508D02*
X662500D01*
X661000D01*
Y426508D01*
X659501D01*
X662500D01*
M02*
