G04*
G04 #@! TF.GenerationSoftware,Altium Limited,Altium Designer,18.1.6 (161)*
G04*
G04 Layer_Physical_Order=1*
G04 Layer_Color=255*
%FSLAX25Y25*%
%MOIN*%
G70*
G01*
G75*
%ADD14C,0.01000*%
%ADD36R,0.03937X0.04134*%
%ADD37R,0.03740X0.03937*%
%ADD38O,0.08661X0.02362*%
%ADD39R,0.09449X0.12598*%
%ADD40R,0.09449X0.03937*%
%ADD41R,0.02362X0.04331*%
%ADD42R,0.05906X0.05906*%
%ADD43R,0.06122X0.05118*%
%ADD44R,0.03937X0.03740*%
%ADD45R,0.14961X0.09843*%
%ADD46R,0.07874X0.01968*%
%ADD47O,0.08661X0.01378*%
%ADD48R,0.04134X0.03937*%
%ADD49O,0.01181X0.06890*%
%ADD50O,0.06890X0.01181*%
%ADD51O,0.07500X0.05500*%
%ADD52R,0.07500X0.05500*%
%ADD53C,0.06000*%
%ADD54R,0.06000X0.06000*%
%ADD55C,0.02500*%
G36*
X663500Y469500D02*
Y304500D01*
X363000D01*
X362501Y469646D01*
X362854Y470000D01*
X663000D01*
X663500Y469500D01*
D02*
G37*
%LPC*%
G36*
X616500Y463285D02*
X615079Y463145D01*
X613712Y462731D01*
X612453Y462057D01*
X611349Y461151D01*
X610443Y460047D01*
X609769Y458788D01*
X609355Y457421D01*
X609215Y456000D01*
X609355Y454579D01*
X609769Y453212D01*
X610443Y451953D01*
X611349Y450849D01*
X612453Y449943D01*
X613712Y449269D01*
X615079Y448855D01*
X616500Y448715D01*
X617921Y448855D01*
X619288Y449269D01*
X620547Y449943D01*
X621651Y450849D01*
X622557Y451953D01*
X623231Y453212D01*
X623645Y454579D01*
X623785Y456000D01*
X623645Y457421D01*
X623231Y458788D01*
X622557Y460047D01*
X621651Y461151D01*
X620547Y462057D01*
X619288Y462731D01*
X617921Y463145D01*
X616500Y463285D01*
D02*
G37*
G36*
X379500D02*
X378079Y463145D01*
X376712Y462731D01*
X375453Y462057D01*
X374349Y461151D01*
X373443Y460047D01*
X372769Y458788D01*
X372355Y457421D01*
X372215Y456000D01*
X372355Y454579D01*
X372769Y453212D01*
X373443Y451953D01*
X374349Y450849D01*
X375453Y449943D01*
X376712Y449269D01*
X378079Y448855D01*
X379500Y448715D01*
X380921Y448855D01*
X382288Y449269D01*
X383547Y449943D01*
X384651Y450849D01*
X385557Y451953D01*
X386230Y453212D01*
X386645Y454579D01*
X386785Y456000D01*
X386645Y457421D01*
X386230Y458788D01*
X385557Y460047D01*
X384651Y461151D01*
X383547Y462057D01*
X382288Y462731D01*
X380921Y463145D01*
X379500Y463285D01*
D02*
G37*
G36*
X622211Y445417D02*
X614089D01*
Y443388D01*
X590911D01*
Y445417D01*
X582789D01*
Y444029D01*
X548500D01*
X547915Y443913D01*
X547419Y443581D01*
X538919Y435081D01*
X538587Y434585D01*
X538471Y434000D01*
Y427196D01*
X537983Y426994D01*
X537147Y426353D01*
X536506Y425517D01*
X536103Y424544D01*
X535965Y423500D01*
X536103Y422456D01*
X536506Y421483D01*
X537147Y420647D01*
X537983Y420006D01*
X538956Y419603D01*
X540000Y419465D01*
X541044Y419603D01*
X542017Y420006D01*
X542853Y420647D01*
X543494Y421483D01*
X543897Y422456D01*
X544034Y423500D01*
X543897Y424544D01*
X543494Y425517D01*
X542853Y426353D01*
X542017Y426994D01*
X541529Y427196D01*
Y433366D01*
X549133Y440971D01*
X582789D01*
Y438765D01*
X582789Y438343D01*
X582778Y438319D01*
X582450Y437940D01*
X582242Y437981D01*
X582000Y438029D01*
X563216D01*
Y439468D01*
X557083D01*
Y433532D01*
X558620D01*
Y427258D01*
X557983Y426994D01*
X557147Y426353D01*
X556506Y425517D01*
X556103Y424544D01*
X555966Y423500D01*
X556103Y422456D01*
X556506Y421483D01*
X557147Y420647D01*
X557983Y420006D01*
X558956Y419603D01*
X560000Y419465D01*
X561044Y419603D01*
X562017Y420006D01*
X562853Y420647D01*
X563494Y421483D01*
X563897Y422456D01*
X564035Y423500D01*
X563897Y424544D01*
X563494Y425517D01*
X562853Y426353D01*
X562017Y426994D01*
X561679Y427134D01*
Y433532D01*
X563216D01*
Y434971D01*
X581366D01*
X585321Y431016D01*
Y427701D01*
X582789D01*
Y420583D01*
X590911D01*
Y422612D01*
X614089D01*
Y420583D01*
X622211D01*
Y427701D01*
X614089D01*
Y425671D01*
X590911D01*
Y427701D01*
X588380D01*
Y431650D01*
X588263Y432235D01*
X587932Y432731D01*
X583081Y437581D01*
X582700Y437836D01*
X582904Y438293D01*
X583250Y438299D01*
X583271Y438299D01*
X590911D01*
Y440329D01*
X614089D01*
Y438299D01*
X622211D01*
Y445417D01*
D02*
G37*
G36*
X475500Y429679D02*
X475025Y429585D01*
X461417D01*
X460832Y429468D01*
X460336Y429137D01*
X460004Y428640D01*
X459888Y428055D01*
X460004Y427470D01*
X460336Y426974D01*
X460832Y426642D01*
X461417Y426526D01*
X475406D01*
X475991Y426642D01*
X476487Y426974D01*
X476581Y427068D01*
X476913Y427564D01*
X477029Y428150D01*
X476913Y428735D01*
X476581Y429231D01*
X476085Y429563D01*
X475500Y429679D01*
D02*
G37*
G36*
X570000Y427534D02*
X568956Y427397D01*
X567983Y426994D01*
X567147Y426353D01*
X566506Y425517D01*
X566103Y424544D01*
X565966Y423500D01*
X566103Y422456D01*
X566506Y421483D01*
X567147Y420647D01*
X567983Y420006D01*
X568956Y419603D01*
X570000Y419465D01*
X571044Y419603D01*
X572017Y420006D01*
X572853Y420647D01*
X573494Y421483D01*
X573897Y422456D01*
X574035Y423500D01*
X573897Y424544D01*
X573494Y425517D01*
X572853Y426353D01*
X572017Y426994D01*
X571044Y427397D01*
X570000Y427534D01*
D02*
G37*
G36*
X550000D02*
X548956Y427397D01*
X547983Y426994D01*
X547147Y426353D01*
X546506Y425517D01*
X546103Y424544D01*
X545965Y423500D01*
X546103Y422456D01*
X546506Y421483D01*
X547147Y420647D01*
X547983Y420006D01*
X548956Y419603D01*
X550000Y419465D01*
X551044Y419603D01*
X552017Y420006D01*
X552853Y420647D01*
X553494Y421483D01*
X553897Y422456D01*
X554035Y423500D01*
X553897Y424544D01*
X553494Y425517D01*
X552853Y426353D01*
X552017Y426994D01*
X551044Y427397D01*
X550000Y427534D01*
D02*
G37*
G36*
X530000D02*
X528956Y427397D01*
X527983Y426994D01*
X527147Y426353D01*
X526506Y425517D01*
X526103Y424544D01*
X525965Y423500D01*
X526103Y422456D01*
X526506Y421483D01*
X527147Y420647D01*
X527983Y420006D01*
X528956Y419603D01*
X530000Y419465D01*
X531044Y419603D01*
X532017Y420006D01*
X532853Y420647D01*
X533494Y421483D01*
X533897Y422456D01*
X534034Y423500D01*
X533897Y424544D01*
X533494Y425517D01*
X532853Y426353D01*
X532017Y426994D01*
X531044Y427397D01*
X530000Y427534D01*
D02*
G37*
G36*
X452000Y428520D02*
X430500D01*
X430110Y428442D01*
X429779Y428221D01*
X429558Y427890D01*
X429480Y427500D01*
Y407000D01*
X429558Y406610D01*
X429618Y406520D01*
X429351Y406020D01*
X386137D01*
Y417457D01*
X369176D01*
Y405614D01*
X376770D01*
Y390385D01*
X376677Y390323D01*
X376180Y389579D01*
X376005Y388701D01*
X376180Y387823D01*
X376677Y387079D01*
X376770Y387017D01*
Y384386D01*
X369176D01*
Y372543D01*
X386137D01*
Y374480D01*
X453184D01*
X453574Y374558D01*
X453905Y374779D01*
X454527Y374810D01*
X462107Y367230D01*
Y366148D01*
X459995D01*
X459336Y366017D01*
X458777Y365644D01*
X458404Y365085D01*
X458273Y364426D01*
X458382Y363880D01*
X458107Y363380D01*
X456870D01*
Y364681D01*
X456870Y364819D01*
Y365181D01*
X456870Y365319D01*
Y371118D01*
X451130D01*
Y369679D01*
X448037D01*
X447378Y370120D01*
X446500Y370294D01*
X445622Y370120D01*
X444878Y369622D01*
X444381Y368878D01*
X444206Y368000D01*
X444381Y367122D01*
X444878Y366378D01*
X445622Y365880D01*
X446500Y365706D01*
X447378Y365880D01*
X448122Y366378D01*
X448284Y366620D01*
X451130D01*
Y365319D01*
X451130Y365181D01*
Y364819D01*
X451130Y364681D01*
Y358882D01*
X452471D01*
Y357684D01*
X452378Y357622D01*
X451881Y356878D01*
X451706Y356000D01*
X451881Y355122D01*
X452378Y354378D01*
X452544Y354267D01*
X452393Y353767D01*
X450896D01*
X440238Y364425D01*
X439742Y364756D01*
X439156Y364873D01*
X437843D01*
Y367296D01*
X429937D01*
Y359391D01*
X437843D01*
Y361814D01*
X438523D01*
X449181Y351156D01*
X449678Y350824D01*
X450263Y350708D01*
X458219D01*
X458486Y350208D01*
X458404Y350085D01*
X458273Y349426D01*
X458404Y348767D01*
X458529Y348580D01*
X458759Y348176D01*
X458529Y347773D01*
X458404Y347585D01*
X458273Y346926D01*
X458404Y346267D01*
X458777Y345708D01*
X459336Y345335D01*
X459995Y345204D01*
X467278D01*
X467938Y345335D01*
X468496Y345708D01*
X468869Y346267D01*
X469001Y346926D01*
X468869Y347585D01*
X468744Y347773D01*
X468515Y348176D01*
X468744Y348580D01*
X468869Y348767D01*
X469001Y349426D01*
X468869Y350085D01*
X468744Y350273D01*
X468515Y350676D01*
X468744Y351080D01*
X468869Y351267D01*
X469001Y351926D01*
X468907Y352397D01*
X469217Y352897D01*
X471197D01*
X471433Y352456D01*
X471381Y352378D01*
X471206Y351500D01*
X471381Y350622D01*
X471878Y349878D01*
X472622Y349380D01*
X473500Y349206D01*
X474378Y349380D01*
X475122Y349878D01*
X475469Y350397D01*
X476954D01*
X477264Y349897D01*
X477171Y349426D01*
X477302Y348767D01*
X477427Y348580D01*
X477657Y348176D01*
X477427Y347773D01*
X477302Y347585D01*
X477171Y346926D01*
X477302Y346267D01*
X477675Y345708D01*
X478234Y345335D01*
X478893Y345204D01*
X486176D01*
X486835Y345335D01*
X486927Y345397D01*
X516426D01*
X517011Y345513D01*
X517508Y345845D01*
X519360Y347697D01*
X519668Y348158D01*
X519748Y348104D01*
X520369Y347981D01*
X520990Y348104D01*
X521353Y348347D01*
X521717Y348104D01*
X522338Y347981D01*
X522958Y348104D01*
X523322Y348347D01*
X523686Y348104D01*
X524306Y347981D01*
X524927Y348104D01*
X525290Y348347D01*
X525654Y348104D01*
X526275Y347981D01*
X526895Y348104D01*
X527259Y348347D01*
X527623Y348104D01*
X528243Y347981D01*
X528864Y348104D01*
X529227Y348347D01*
X529591Y348104D01*
X530212Y347981D01*
X530832Y348104D01*
X531196Y348347D01*
X531560Y348104D01*
X532180Y347981D01*
X532801Y348104D01*
X533164Y348347D01*
X533528Y348104D01*
X534149Y347981D01*
X534769Y348104D01*
X535133Y348347D01*
X535497Y348104D01*
X535601Y348000D01*
X536020D01*
X536117Y347981D01*
X536214Y348000D01*
X537988D01*
X538086Y347981D01*
X538525Y347673D01*
Y343796D01*
X538641Y343211D01*
X538973Y342715D01*
X539269Y342419D01*
X539765Y342087D01*
X540350Y341971D01*
X540936Y342087D01*
X541432Y342419D01*
X541763Y342915D01*
X541880Y343500D01*
X541763Y344085D01*
X541583Y344354D01*
Y348000D01*
X543000D01*
Y356051D01*
X548125D01*
X548746Y356175D01*
X549272Y356526D01*
X549623Y357053D01*
X549747Y357673D01*
X549623Y358294D01*
X549380Y358658D01*
X549623Y359021D01*
X549747Y359642D01*
X549623Y360262D01*
X549380Y360626D01*
X549623Y360990D01*
X549747Y361610D01*
X549623Y362231D01*
X549380Y362595D01*
X549623Y362958D01*
X549747Y363579D01*
X549623Y364199D01*
X549380Y364563D01*
X549623Y364927D01*
X549747Y365547D01*
X549623Y366168D01*
X549380Y366531D01*
X549623Y366895D01*
X549747Y367516D01*
X549623Y368136D01*
X549380Y368500D01*
X549623Y368864D01*
X549747Y369484D01*
X549736Y369537D01*
X550053Y369923D01*
X563914D01*
X574287Y359550D01*
X574178Y359000D01*
X574347Y358149D01*
X574829Y357428D01*
X575551Y356945D01*
X576402Y356776D01*
X582701D01*
X583552Y356945D01*
X584273Y357428D01*
X584755Y358149D01*
X584925Y359000D01*
X584755Y359851D01*
X584273Y360573D01*
X583552Y361055D01*
X582701Y361224D01*
X576939D01*
X566264Y371898D01*
X566456Y372360D01*
X574930D01*
X575551Y371945D01*
X576402Y371776D01*
X582701D01*
X583552Y371945D01*
X584273Y372428D01*
X584755Y373149D01*
X584925Y374000D01*
X584755Y374851D01*
X584273Y375572D01*
X583552Y376055D01*
X582701Y376224D01*
X576402D01*
X575551Y376055D01*
X574829Y375572D01*
X574727Y375419D01*
X564390D01*
X563804Y375303D01*
X563308Y374971D01*
X563288Y374951D01*
X550053D01*
X549736Y375337D01*
X549747Y375390D01*
X549736Y375442D01*
X550053Y375829D01*
X557508D01*
X558093Y375945D01*
X558589Y376277D01*
X559942Y377630D01*
X563618D01*
Y378971D01*
X564316D01*
X564378Y378878D01*
X565122Y378380D01*
X566000Y378206D01*
X566878Y378380D01*
X567622Y378878D01*
X568119Y379622D01*
X568294Y380500D01*
X568119Y381378D01*
X567622Y382122D01*
X566878Y382620D01*
X566000Y382794D01*
X565122Y382620D01*
X564378Y382122D01*
X564316Y382029D01*
X563618D01*
Y383370D01*
X557681D01*
Y380007D01*
X557508Y379872D01*
X557445Y379855D01*
X556876Y379974D01*
X556705Y380231D01*
X556527Y380408D01*
X556031Y380740D01*
X555446Y380856D01*
X550000D01*
Y383000D01*
X541676D01*
Y387398D01*
X541583Y387862D01*
Y389316D01*
X541676Y389378D01*
X542174Y390122D01*
X542348Y391000D01*
X542174Y391878D01*
X541676Y392622D01*
X540932Y393120D01*
X540054Y393294D01*
X539176Y393120D01*
X538432Y392622D01*
X537935Y391878D01*
X537760Y391000D01*
X537935Y390122D01*
X538369Y389473D01*
X538208Y389115D01*
X538121Y389012D01*
X538086Y389019D01*
X537465Y388896D01*
X537101Y388653D01*
X536738Y388896D01*
X536117Y389019D01*
X535497Y388896D01*
X535133Y388653D01*
X534769Y388896D01*
X534149Y389019D01*
X533528Y388896D01*
X533164Y388653D01*
X532801Y388896D01*
X532180Y389019D01*
X531560Y388896D01*
X531196Y388653D01*
X530832Y388896D01*
X530212Y389019D01*
X529591Y388896D01*
X529227Y388653D01*
X528864Y388896D01*
X528243Y389019D01*
X527623Y388896D01*
X527259Y388653D01*
X526895Y388896D01*
X526275Y389019D01*
X526222Y389009D01*
X525836Y389326D01*
Y391051D01*
X538255Y403471D01*
X553866D01*
X566919Y390419D01*
X567415Y390087D01*
X568000Y389971D01*
X574800D01*
X574829Y389928D01*
X575551Y389445D01*
X576402Y389276D01*
X582701D01*
X583552Y389445D01*
X584273Y389928D01*
X584755Y390649D01*
X584925Y391500D01*
X584755Y392351D01*
X584273Y393073D01*
X583552Y393555D01*
X582701Y393724D01*
X576402D01*
X575551Y393555D01*
X574829Y393073D01*
X574800Y393029D01*
X568634D01*
X557154Y404509D01*
X557346Y404971D01*
X574800D01*
X574829Y404927D01*
X575551Y404445D01*
X576402Y404276D01*
X582701D01*
X583552Y404445D01*
X584273Y404927D01*
X584755Y405649D01*
X584925Y406500D01*
X584755Y407351D01*
X584273Y408073D01*
X583552Y408555D01*
X582701Y408724D01*
X576402D01*
X575551Y408555D01*
X574829Y408073D01*
X574800Y408029D01*
X537000D01*
X536415Y407913D01*
X535919Y407581D01*
X521256Y392919D01*
X521196Y392829D01*
X520725Y393024D01*
X520730Y393051D01*
X520614Y393636D01*
X520282Y394133D01*
X519786Y394464D01*
X519390Y394543D01*
X519136Y394712D01*
X518551Y394829D01*
X517966Y394712D01*
X517470Y394381D01*
X517469Y394380D01*
X511897D01*
X511311Y394263D01*
X510815Y393932D01*
X510484Y393436D01*
X510367Y392850D01*
X510484Y392265D01*
X510815Y391769D01*
X511311Y391437D01*
X511897Y391321D01*
X517022D01*
Y388500D01*
X515500D01*
Y380000D01*
X518840D01*
Y378131D01*
X518956Y377546D01*
X519288Y377049D01*
X521175Y375163D01*
X521671Y374831D01*
X522256Y374714D01*
X528821D01*
X528878Y374629D01*
X529622Y374131D01*
X530500Y373957D01*
X531378Y374131D01*
X532122Y374629D01*
X532184Y374722D01*
X532751D01*
X533336Y374838D01*
X533832Y375169D01*
X534492Y375829D01*
X536536D01*
X536687Y375329D01*
X536378Y375122D01*
X535881Y374378D01*
X535706Y373500D01*
X535881Y372622D01*
X536378Y371878D01*
X537122Y371380D01*
X538000Y371206D01*
X538878Y371380D01*
X539622Y371878D01*
X540119Y372622D01*
X540227Y373162D01*
X540326Y373212D01*
X540892Y372933D01*
X540918Y372801D01*
X541161Y372437D01*
X540918Y372073D01*
X540795Y371453D01*
X540918Y370832D01*
X541161Y370468D01*
X540918Y370105D01*
X540795Y369484D01*
X540918Y368864D01*
X541161Y368500D01*
X540918Y368136D01*
X540795Y367516D01*
X540918Y366895D01*
X541161Y366531D01*
X540918Y366168D01*
X540795Y365547D01*
X540918Y364927D01*
X541161Y364563D01*
X540918Y364199D01*
X540795Y363579D01*
X540918Y362958D01*
X541161Y362595D01*
X540918Y362231D01*
X540795Y361610D01*
X540918Y360990D01*
X541161Y360626D01*
X540918Y360262D01*
X540795Y359642D01*
X540859Y359317D01*
X540462Y358872D01*
X540283Y358899D01*
X540205Y359292D01*
X539708Y360036D01*
X538964Y360534D01*
X538086Y360708D01*
X537976Y360687D01*
X537081Y361581D01*
X536585Y361913D01*
X536000Y362029D01*
X525598D01*
X522727Y364901D01*
X522842Y365281D01*
X522924Y365411D01*
X523622Y365878D01*
X524119Y366622D01*
X524294Y367500D01*
X524119Y368378D01*
X523622Y369122D01*
X522878Y369619D01*
X522000Y369794D01*
X521122Y369619D01*
X520378Y369122D01*
X520326Y369045D01*
X517967D01*
X517650Y369432D01*
X517660Y369484D01*
X517537Y370105D01*
X517294Y370468D01*
X517537Y370832D01*
X517660Y371453D01*
X517537Y372073D01*
X517294Y372437D01*
X517537Y372801D01*
X517660Y373421D01*
X517537Y374042D01*
X517294Y374406D01*
X517537Y374769D01*
X517660Y375390D01*
X517537Y376010D01*
X517294Y376374D01*
X517537Y376738D01*
X517660Y377358D01*
X517537Y377979D01*
X517185Y378505D01*
X516659Y378856D01*
X516038Y378980D01*
X510330D01*
X509709Y378856D01*
X509183Y378505D01*
X508832Y377979D01*
X508708Y377358D01*
X508832Y376738D01*
X509074Y376374D01*
X508832Y376010D01*
X508708Y375390D01*
X508832Y374769D01*
X509074Y374406D01*
X508832Y374042D01*
X508708Y373421D01*
X508832Y372801D01*
X509074Y372437D01*
X508832Y372073D01*
X508708Y371453D01*
X508832Y370832D01*
X509074Y370468D01*
X508832Y370105D01*
X508708Y369484D01*
X508832Y368864D01*
X509074Y368500D01*
X508832Y368136D01*
X508708Y367516D01*
X508832Y366895D01*
X509074Y366531D01*
X508832Y366168D01*
X508708Y365547D01*
X508718Y365495D01*
X508401Y365108D01*
X506272D01*
X505686Y364992D01*
X505190Y364660D01*
X504859Y364164D01*
X504742Y363579D01*
X504859Y362994D01*
X505190Y362497D01*
X505686Y362166D01*
X506272Y362049D01*
X508401D01*
X508718Y361663D01*
X508708Y361610D01*
X508718Y361558D01*
X508401Y361171D01*
X488258D01*
X487848Y361671D01*
X487898Y361926D01*
X487805Y362397D01*
X488115Y362897D01*
X489242D01*
X489304Y362804D01*
X490048Y362307D01*
X490926Y362132D01*
X491804Y362307D01*
X492548Y362804D01*
X493046Y363548D01*
X493220Y364426D01*
X493046Y365304D01*
X492548Y366048D01*
X491804Y366546D01*
X490926Y366720D01*
X490048Y366546D01*
X489304Y366048D01*
X489242Y365956D01*
X486927D01*
X486835Y366017D01*
X486176Y366148D01*
X478893D01*
X478234Y366017D01*
X477675Y365644D01*
X477302Y365085D01*
X477171Y364426D01*
X477302Y363767D01*
X476969Y363365D01*
X476841Y363339D01*
X476633Y363200D01*
X476133Y363467D01*
Y368284D01*
X476762D01*
Y374417D01*
X477236Y374480D01*
X477553D01*
X478027Y374416D01*
X478027Y373980D01*
Y368479D01*
X483767D01*
Y369918D01*
X485130D01*
Y368382D01*
X490870D01*
Y369918D01*
X495316D01*
X495378Y369826D01*
X496122Y369328D01*
X497000Y369154D01*
X497878Y369328D01*
X498622Y369826D01*
X498684Y369918D01*
X501734D01*
Y367181D01*
X507474D01*
Y373118D01*
X501734D01*
Y372977D01*
X498684D01*
X498622Y373070D01*
X497878Y373567D01*
X497000Y373742D01*
X496122Y373567D01*
X495378Y373070D01*
X495316Y372977D01*
X491224D01*
X490870Y373331D01*
X490870Y374319D01*
X491303Y374480D01*
X494500D01*
X494890Y374558D01*
X495221Y374779D01*
X495442Y375110D01*
X495520Y375500D01*
Y405000D01*
X495442Y405390D01*
X495221Y405721D01*
X494890Y405942D01*
X494500Y406020D01*
X480520D01*
Y410213D01*
X480490Y410359D01*
X480476Y410508D01*
X480452Y410553D01*
X480442Y410603D01*
X480359Y410727D01*
X480289Y410859D01*
X480249Y410891D01*
X480221Y410934D01*
X480097Y411017D01*
X479981Y411112D01*
X479946Y411130D01*
X480020Y411500D01*
Y422500D01*
X479942Y422890D01*
X479721Y423221D01*
X479390Y423442D01*
X479000Y423520D01*
X478370D01*
Y424819D01*
X472630D01*
Y423520D01*
X457422D01*
X452721Y428221D01*
X452390Y428442D01*
X452000Y428520D01*
D02*
G37*
G36*
X601598Y408724D02*
X595299D01*
X594448Y408555D01*
X593727Y408073D01*
X593698Y408029D01*
X591000D01*
X590415Y407913D01*
X589919Y407581D01*
X587919Y405581D01*
X587587Y405085D01*
X587471Y404500D01*
Y403184D01*
X587378Y403122D01*
X587316Y403029D01*
X584302D01*
X584273Y403073D01*
X583552Y403555D01*
X582701Y403724D01*
X576402D01*
X575551Y403555D01*
X574829Y403073D01*
X574347Y402351D01*
X574178Y401500D01*
X574347Y400649D01*
X574829Y399927D01*
X575551Y399445D01*
X576402Y399276D01*
X582701D01*
X583552Y399445D01*
X584273Y399927D01*
X584302Y399971D01*
X587316D01*
X587378Y399878D01*
X588122Y399380D01*
X589000Y399206D01*
X589878Y399380D01*
X590622Y399878D01*
X591119Y400622D01*
X591294Y401500D01*
X591119Y402378D01*
X590622Y403122D01*
X590529Y403184D01*
Y403866D01*
X591634Y404971D01*
X593698D01*
X593727Y404927D01*
X594448Y404445D01*
X595299Y404276D01*
X601598D01*
X602449Y404445D01*
X603171Y404927D01*
X603653Y405649D01*
X603822Y406500D01*
X603653Y407351D01*
X603171Y408073D01*
X602449Y408555D01*
X601598Y408724D01*
D02*
G37*
G36*
X638000Y447656D02*
X636000D01*
X635021Y447528D01*
X634109Y447150D01*
X633325Y446549D01*
X632724Y445765D01*
X632346Y444853D01*
X632218Y443874D01*
X632346Y442895D01*
X632570Y442355D01*
X626919Y436703D01*
X626587Y436207D01*
X626471Y435621D01*
Y427000D01*
X626587Y426415D01*
X626919Y425919D01*
X635471Y417367D01*
Y411587D01*
X635021Y411527D01*
X634109Y411150D01*
X633325Y410548D01*
X632724Y409765D01*
X632575Y409403D01*
X627874D01*
X627289Y409287D01*
X626793Y408955D01*
X621016Y403179D01*
X618469D01*
Y404716D01*
X612532D01*
Y403029D01*
X603200D01*
X603171Y403073D01*
X602449Y403555D01*
X601598Y403724D01*
X595299D01*
X594448Y403555D01*
X593727Y403073D01*
X593245Y402351D01*
X593075Y401500D01*
X593245Y400649D01*
X593727Y399927D01*
X594448Y399445D01*
X595299Y399276D01*
X601598D01*
X602449Y399445D01*
X603171Y399927D01*
X603200Y399971D01*
X612532D01*
Y398583D01*
X612532D01*
Y398417D01*
X612532D01*
Y396880D01*
X609783D01*
X609081Y397581D01*
X608585Y397913D01*
X608000Y398029D01*
X603200D01*
X603171Y398073D01*
X602449Y398555D01*
X601598Y398724D01*
X595299D01*
X594448Y398555D01*
X593727Y398073D01*
X593245Y397351D01*
X593075Y396500D01*
X593245Y395649D01*
X593727Y394928D01*
X594448Y394445D01*
X595299Y394276D01*
X601598D01*
X602449Y394445D01*
X603171Y394928D01*
X603200Y394971D01*
X607367D01*
X608068Y394269D01*
X608564Y393937D01*
X609150Y393821D01*
X612532D01*
Y392284D01*
X618469D01*
Y393821D01*
X623350D01*
X623936Y393937D01*
X624432Y394269D01*
X628633Y398471D01*
X632250D01*
Y396250D01*
X641750D01*
Y398471D01*
X647500D01*
X648085Y398587D01*
X648581Y398919D01*
X655581Y405919D01*
X655913Y406415D01*
X656029Y407000D01*
Y429500D01*
X655913Y430085D01*
X655581Y430581D01*
X649081Y437081D01*
X648585Y437413D01*
X648000Y437529D01*
X641750D01*
Y439750D01*
X639088D01*
X638979Y440220D01*
X639891Y440598D01*
X640674Y441199D01*
X641276Y441983D01*
X641653Y442895D01*
X641782Y443874D01*
X641653Y444853D01*
X641276Y445765D01*
X640674Y446549D01*
X639891Y447150D01*
X638979Y447528D01*
X638000Y447656D01*
D02*
G37*
G36*
X520870Y402118D02*
X515130D01*
Y400679D01*
X513267D01*
Y402118D01*
X507527D01*
Y400679D01*
X506834D01*
X506772Y400772D01*
X506028Y401269D01*
X505150Y401444D01*
X504272Y401269D01*
X503527Y400772D01*
X503030Y400028D01*
X502855Y399150D01*
X503030Y398272D01*
X503527Y397527D01*
X504272Y397030D01*
X505150Y396855D01*
X506028Y397030D01*
X506772Y397527D01*
X506834Y397620D01*
X507527D01*
Y396181D01*
X513267D01*
Y397620D01*
X515130D01*
Y396181D01*
X520870D01*
Y402118D01*
D02*
G37*
G36*
X601598Y393724D02*
X595299D01*
X594448Y393555D01*
X593727Y393073D01*
X593245Y392351D01*
X593075Y391500D01*
X593245Y390649D01*
X593727Y389928D01*
X594448Y389445D01*
X595299Y389276D01*
X601598D01*
X602449Y389445D01*
X603171Y389928D01*
X603653Y390649D01*
X603822Y391500D01*
X603653Y392351D01*
X603171Y393073D01*
X602449Y393555D01*
X601598Y393724D01*
D02*
G37*
G36*
Y376224D02*
X595299D01*
X594448Y376055D01*
X593727Y375572D01*
X593698Y375529D01*
X591500D01*
X590915Y375413D01*
X590419Y375081D01*
X588419Y373081D01*
X588087Y372585D01*
X587971Y372000D01*
Y371184D01*
X587878Y371122D01*
X587482Y370529D01*
X584302D01*
X584273Y370572D01*
X583552Y371055D01*
X582701Y371224D01*
X576402D01*
X575551Y371055D01*
X574829Y370572D01*
X574347Y369851D01*
X574178Y369000D01*
X574347Y368149D01*
X574829Y367427D01*
X575551Y366945D01*
X576402Y366776D01*
X582701D01*
X583552Y366945D01*
X584273Y367427D01*
X584302Y367471D01*
X588487D01*
X588622Y367380D01*
X589500Y367206D01*
X590378Y367380D01*
X591122Y367878D01*
X591619Y368622D01*
X591794Y369500D01*
X591619Y370378D01*
X591122Y371122D01*
X591270Y371607D01*
X592134Y372471D01*
X593698D01*
X593727Y372428D01*
X594448Y371945D01*
X595299Y371776D01*
X601598D01*
X602449Y371945D01*
X603171Y372428D01*
X603653Y373149D01*
X603822Y374000D01*
X603653Y374851D01*
X603171Y375572D01*
X602449Y376055D01*
X601598Y376224D01*
D02*
G37*
G36*
X638000Y373156D02*
X636000D01*
X635021Y373027D01*
X634109Y372650D01*
X633325Y372048D01*
X632724Y371265D01*
X632482Y370679D01*
X618469D01*
Y372217D01*
X612532D01*
Y370529D01*
X603200D01*
X603171Y370572D01*
X602449Y371055D01*
X601598Y371224D01*
X595299D01*
X594448Y371055D01*
X593727Y370572D01*
X593245Y369851D01*
X593075Y369000D01*
X593245Y368149D01*
X593727Y367427D01*
X594448Y366945D01*
X595299Y366776D01*
X601598D01*
X602449Y366945D01*
X603171Y367427D01*
X603200Y367471D01*
X612532D01*
Y366083D01*
X612532D01*
Y365917D01*
X612532D01*
Y364380D01*
X609283D01*
X608581Y365081D01*
X608085Y365413D01*
X607500Y365529D01*
X603200D01*
X603171Y365573D01*
X602449Y366055D01*
X601598Y366224D01*
X595299D01*
X594448Y366055D01*
X593727Y365573D01*
X593245Y364851D01*
X593075Y364000D01*
X593245Y363149D01*
X593727Y362427D01*
X594448Y361945D01*
X595299Y361776D01*
X601598D01*
X602449Y361945D01*
X603171Y362427D01*
X603200Y362471D01*
X606867D01*
X607568Y361769D01*
X608064Y361437D01*
X608650Y361321D01*
X612532D01*
Y359784D01*
X618469D01*
Y361321D01*
X632250D01*
Y357750D01*
X635471D01*
Y353134D01*
X626919Y344581D01*
X626587Y344085D01*
X626471Y343500D01*
Y334500D01*
X626587Y333915D01*
X626919Y333419D01*
X632250Y328087D01*
Y321750D01*
X641750D01*
Y329250D01*
X639088D01*
X638979Y329720D01*
X639891Y330098D01*
X640674Y330699D01*
X641276Y331483D01*
X641653Y332395D01*
X641782Y333374D01*
X641653Y334353D01*
X641276Y335265D01*
X641179Y335391D01*
X648581Y342793D01*
X648913Y343289D01*
X649029Y343874D01*
Y365500D01*
X648913Y366085D01*
X648581Y366581D01*
X644707Y370456D01*
X644211Y370787D01*
X643626Y370903D01*
X641426D01*
X641276Y371265D01*
X640674Y372048D01*
X639891Y372650D01*
X638979Y373027D01*
X638000Y373156D01*
D02*
G37*
G36*
X424063Y367296D02*
X416157D01*
Y364873D01*
X405717D01*
Y366175D01*
X399583D01*
Y360238D01*
X405717D01*
Y361814D01*
X416157D01*
Y359391D01*
X424063D01*
Y367296D01*
D02*
G37*
G36*
X601598Y361224D02*
X595299D01*
X594448Y361055D01*
X593727Y360573D01*
X593245Y359851D01*
X593075Y359000D01*
X593245Y358149D01*
X593727Y357428D01*
X594448Y356945D01*
X595299Y356776D01*
X601598D01*
X602449Y356945D01*
X603171Y357428D01*
X603653Y358149D01*
X603822Y359000D01*
X603653Y359851D01*
X603171Y360573D01*
X602449Y361055D01*
X601598Y361224D01*
D02*
G37*
G36*
X437843Y356453D02*
X429937D01*
Y354029D01*
X429184D01*
X429122Y354122D01*
X428378Y354620D01*
X427500Y354794D01*
X426622Y354620D01*
X425878Y354122D01*
X425381Y353378D01*
X425206Y352500D01*
X425381Y351622D01*
X425878Y350878D01*
X426622Y350380D01*
X427500Y350206D01*
X428378Y350380D01*
X429122Y350878D01*
X429184Y350971D01*
X429937D01*
Y348547D01*
X437843D01*
Y356453D01*
D02*
G37*
G36*
X405717Y359072D02*
X399583D01*
Y353135D01*
X405717D01*
Y354574D01*
X415873D01*
X416157Y354290D01*
Y348547D01*
X424063D01*
Y356453D01*
X418320D01*
X417588Y357185D01*
X417092Y357516D01*
X416507Y357633D01*
X405717D01*
Y359072D01*
D02*
G37*
G36*
X549618Y346370D02*
X543681D01*
Y340630D01*
X549618D01*
Y341971D01*
X551816D01*
X551878Y341878D01*
X552622Y341381D01*
X553500Y341206D01*
X554378Y341381D01*
X555122Y341878D01*
X555619Y342622D01*
X555794Y343500D01*
X555619Y344378D01*
X555122Y345122D01*
X554378Y345620D01*
X553500Y345794D01*
X552622Y345620D01*
X551878Y345122D01*
X551816Y345029D01*
X549618D01*
Y346370D01*
D02*
G37*
G36*
X405717Y351969D02*
X399583D01*
Y346031D01*
X405717D01*
Y347471D01*
X411977D01*
X416157Y343290D01*
Y337547D01*
X424063D01*
Y345453D01*
X418320D01*
X413692Y350081D01*
X413196Y350413D01*
X412610Y350529D01*
X405717D01*
Y351969D01*
D02*
G37*
G36*
X437843Y345453D02*
X429937D01*
Y337547D01*
X432360D01*
Y335596D01*
X431881Y334878D01*
X431706Y334000D01*
X431881Y333122D01*
X432378Y332378D01*
X433122Y331880D01*
X434000Y331706D01*
X434878Y331880D01*
X435622Y332378D01*
X436119Y333122D01*
X436294Y334000D01*
X436119Y334878D01*
X435622Y335622D01*
X435419Y335758D01*
Y337547D01*
X437843D01*
Y345453D01*
D02*
G37*
G36*
X615000Y337285D02*
X613579Y337145D01*
X612212Y336731D01*
X610953Y336057D01*
X609849Y335151D01*
X608943Y334047D01*
X608270Y332788D01*
X607855Y331421D01*
X607715Y330000D01*
X607855Y328579D01*
X608270Y327212D01*
X608943Y325953D01*
X609849Y324849D01*
X610953Y323943D01*
X612212Y323270D01*
X613579Y322855D01*
X615000Y322715D01*
X616421Y322855D01*
X617788Y323270D01*
X619047Y323943D01*
X620151Y324849D01*
X621057Y325953D01*
X621731Y327212D01*
X622145Y328579D01*
X622285Y330000D01*
X622145Y331421D01*
X621731Y332788D01*
X621057Y334047D01*
X620151Y335151D01*
X619047Y336057D01*
X617788Y336731D01*
X616421Y337145D01*
X615000Y337285D01*
D02*
G37*
G36*
X380000D02*
X378579Y337145D01*
X377212Y336731D01*
X375953Y336057D01*
X374849Y335151D01*
X373943Y334047D01*
X373270Y332788D01*
X372855Y331421D01*
X372715Y330000D01*
X372855Y328579D01*
X373270Y327212D01*
X373943Y325953D01*
X374849Y324849D01*
X375953Y323943D01*
X377212Y323270D01*
X378579Y322855D01*
X380000Y322715D01*
X381421Y322855D01*
X382788Y323270D01*
X384047Y323943D01*
X385151Y324849D01*
X386057Y325953D01*
X386731Y327212D01*
X387145Y328579D01*
X387285Y330000D01*
X387145Y331421D01*
X386731Y332788D01*
X386057Y334047D01*
X385151Y335151D01*
X384047Y336057D01*
X382788Y336731D01*
X381421Y337145D01*
X380000Y337285D01*
D02*
G37*
%LPD*%
G36*
X457000Y422500D02*
X479000D01*
Y411500D01*
X469000D01*
X467000Y413500D01*
X450000D01*
X443500Y407000D01*
X430500D01*
Y427500D01*
X452000D01*
X457000Y422500D01*
D02*
G37*
G36*
X455693Y406976D02*
X467142D01*
Y407542D01*
X467604Y407733D01*
X468568Y406769D01*
X468941Y406520D01*
X468797Y406020D01*
X444669D01*
X444461Y406520D01*
X450422Y412480D01*
X455693D01*
Y406976D01*
D02*
G37*
G36*
X453375Y375962D02*
X453184Y375500D01*
X386137D01*
Y384386D01*
X381954D01*
X381603Y384741D01*
X381630Y387171D01*
X382562D01*
Y386717D01*
X392436D01*
Y389866D01*
Y393471D01*
X399867D01*
X401419Y391919D01*
X401915Y391587D01*
X402500Y391471D01*
X406579D01*
Y386413D01*
X410482D01*
X410738Y385913D01*
X410381Y385378D01*
X410206Y384500D01*
X410381Y383622D01*
X410878Y382878D01*
X411622Y382381D01*
X412500Y382206D01*
X413378Y382381D01*
X414122Y382878D01*
X414619Y383622D01*
X414794Y384500D01*
X414619Y385378D01*
X414262Y385913D01*
X414518Y386413D01*
X418421D01*
Y388049D01*
X420079D01*
X420664Y388166D01*
X421160Y388497D01*
X425891Y393228D01*
X426000Y393206D01*
X426878Y393380D01*
X427622Y393878D01*
X428119Y394622D01*
X428294Y395500D01*
X428119Y396378D01*
X427622Y397122D01*
X427218Y397392D01*
X427370Y397892D01*
X431445D01*
X453375Y375962D01*
D02*
G37*
G36*
X424782Y397392D02*
X424378Y397122D01*
X423881Y396378D01*
X423706Y395500D01*
X423728Y395391D01*
X419445Y391108D01*
X418421D01*
Y392744D01*
X417673D01*
X417653Y392845D01*
X417322Y393341D01*
X416581Y394081D01*
X416551Y394388D01*
X417322Y395159D01*
X417653Y395655D01*
X417769Y396240D01*
Y396256D01*
X418421D01*
Y397892D01*
X424630D01*
X424782Y397392D01*
D02*
G37*
G36*
X479500Y410213D02*
Y405000D01*
X494500D01*
Y375500D01*
X471029D01*
Y377500D01*
X470913Y378085D01*
X470581Y378581D01*
X465772Y383391D01*
X465794Y383500D01*
X465619Y384378D01*
X465122Y385122D01*
X464378Y385619D01*
X463500Y385794D01*
X462622Y385619D01*
X461878Y385122D01*
X461381Y384378D01*
X461206Y383500D01*
X461381Y382622D01*
X461878Y381878D01*
X462622Y381381D01*
X463500Y381206D01*
X463609Y381228D01*
X467971Y376867D01*
Y375500D01*
X458163D01*
X433160Y400503D01*
X432664Y400834D01*
X432079Y400951D01*
X418421D01*
Y402587D01*
X414059D01*
Y396256D01*
X413653Y396029D01*
X403755D01*
X400553Y399231D01*
X400057Y399563D01*
X399472Y399679D01*
X392436D01*
Y400134D01*
X382562D01*
Y396165D01*
Y393016D01*
Y390230D01*
X382019D01*
X381668Y390586D01*
X381828Y405000D01*
X475500D01*
Y406321D01*
X476085Y406437D01*
X476581Y406769D01*
X476913Y407265D01*
X477029Y407850D01*
X476913Y408436D01*
X476581Y408932D01*
X476085Y409263D01*
X475500Y409380D01*
Y410480D01*
X479000D01*
X479500Y410213D01*
D02*
G37*
G36*
X467971Y366520D02*
X467471Y366110D01*
X467278Y366148D01*
X465166D01*
Y367863D01*
X465050Y368448D01*
X464718Y368945D01*
X459644Y374019D01*
X459836Y374480D01*
X467971D01*
Y366520D01*
D02*
G37*
G36*
X523883Y359419D02*
X524380Y359087D01*
X524965Y358971D01*
X535366D01*
X535813Y358524D01*
X535791Y358414D01*
X535808Y358334D01*
X535763Y356862D01*
X535497Y356809D01*
X535133Y356566D01*
X534769Y356809D01*
X534149Y356933D01*
X533528Y356809D01*
X533164Y356566D01*
X532801Y356809D01*
X532180Y356933D01*
X531560Y356809D01*
X531196Y356566D01*
X530832Y356809D01*
X530212Y356933D01*
X529591Y356809D01*
X529227Y356566D01*
X528864Y356809D01*
X528243Y356933D01*
X527623Y356809D01*
X527259Y356566D01*
X526895Y356809D01*
X526275Y356933D01*
X525654Y356809D01*
X525290Y356566D01*
X524927Y356809D01*
X524306Y356933D01*
X523686Y356809D01*
X523322Y356566D01*
X522958Y356809D01*
X522338Y356933D01*
X521717Y356809D01*
X521353Y356566D01*
X520990Y356809D01*
X520369Y356933D01*
X519748Y356809D01*
X519385Y356566D01*
X519021Y356809D01*
X518401Y356933D01*
X517967Y356846D01*
X517934Y356862D01*
X517589Y357207D01*
X517574Y357239D01*
X517660Y357673D01*
X517537Y358294D01*
X517294Y358658D01*
X517537Y359021D01*
X517660Y359642D01*
X517650Y359694D01*
X517967Y360081D01*
X518706D01*
X518768Y359988D01*
X519512Y359491D01*
X520390Y359316D01*
X521268Y359491D01*
X522012Y359988D01*
X522250Y360345D01*
X522894Y360408D01*
X523883Y359419D01*
D02*
G37*
G36*
X507987Y357650D02*
X506293Y355956D01*
X493037D01*
X492627Y356456D01*
X492720Y356926D01*
X492584Y357612D01*
X492895Y358112D01*
X507796D01*
X507987Y357650D01*
D02*
G37*
G36*
X516505Y356122D02*
X516850Y355777D01*
X516865Y355745D01*
X516779Y355311D01*
Y352606D01*
X516749Y352457D01*
Y349412D01*
X515793Y348456D01*
X497143D01*
X496876Y348956D01*
X497031Y349737D01*
X496857Y350615D01*
X496359Y351359D01*
X495615Y351857D01*
X494737Y352031D01*
X493859Y351857D01*
X493115Y351359D01*
X493053Y351267D01*
X488277D01*
X487866Y351767D01*
X487898Y351926D01*
X487805Y352397D01*
X488115Y352897D01*
X506926D01*
X507511Y353013D01*
X508008Y353345D01*
X510685Y356022D01*
X513184D01*
X513333Y356051D01*
X516038D01*
X516472Y356138D01*
X516505Y356122D01*
D02*
G37*
G36*
X632250Y437055D02*
Y432250D01*
X641750D01*
Y434471D01*
X647367D01*
X652971Y428866D01*
Y407633D01*
X646867Y401529D01*
X641750D01*
Y403750D01*
X639088D01*
X638979Y404220D01*
X639891Y404598D01*
X640674Y405199D01*
X641276Y405983D01*
X641653Y406895D01*
X641782Y407874D01*
X641653Y408853D01*
X641276Y409765D01*
X640674Y410548D01*
X639891Y411150D01*
X638979Y411527D01*
X638529Y411587D01*
Y418000D01*
X638413Y418585D01*
X638081Y419081D01*
X629529Y427633D01*
Y434988D01*
X631788Y437247D01*
X632250Y437055D01*
D02*
G37*
G36*
X632724Y405983D02*
X633325Y405199D01*
X634109Y404598D01*
X635021Y404220D01*
X634912Y403750D01*
X632250D01*
Y401529D01*
X628000D01*
X627415Y401413D01*
X626919Y401081D01*
X622717Y396880D01*
X618469D01*
Y398417D01*
X618469D01*
Y398583D01*
X618469D01*
Y400120D01*
X621650D01*
X622235Y400237D01*
X622731Y400568D01*
X628508Y406345D01*
X632575D01*
X632724Y405983D01*
D02*
G37*
G36*
Y367483D02*
X633325Y366700D01*
X634109Y366098D01*
X635021Y365721D01*
X634912Y365250D01*
X632250D01*
Y364380D01*
X618469D01*
Y365917D01*
X618469D01*
Y366083D01*
X618469D01*
Y367620D01*
X632667D01*
X632724Y367483D01*
D02*
G37*
G36*
X645971Y364866D02*
Y344508D01*
X638547Y337084D01*
X638000Y337156D01*
X636000D01*
X635021Y337028D01*
X634109Y336650D01*
X633325Y336049D01*
X632724Y335265D01*
X632346Y334353D01*
X632218Y333374D01*
X632251Y333119D01*
X631778Y332885D01*
X629529Y335134D01*
Y342866D01*
X638081Y351419D01*
X638413Y351915D01*
X638529Y352500D01*
Y357750D01*
X641750D01*
Y365250D01*
X639088D01*
X638979Y365721D01*
X639891Y366098D01*
X640674Y366700D01*
X641276Y367483D01*
X641426Y367845D01*
X642992D01*
X645971Y364866D01*
D02*
G37*
D14*
X637000Y400000D02*
X647500D01*
X654500Y407000D01*
Y429500D01*
X648000Y436000D02*
X654500Y429500D01*
X637000Y436000D02*
X648000D01*
X636253Y443874D02*
X637000D01*
X628000Y435621D02*
X636253Y443874D01*
X628000Y427000D02*
Y435621D01*
Y427000D02*
X637000Y418000D01*
Y407874D02*
Y418000D01*
X628000Y334500D02*
X637000Y325500D01*
X628000Y334500D02*
Y343500D01*
X637000Y352500D01*
Y361500D01*
Y333374D02*
X647500Y343874D01*
Y365500D01*
X643626Y369374D02*
X647500Y365500D01*
X637000Y369374D02*
X643626D01*
X636776Y369150D02*
X637000Y369374D01*
X615500Y369150D02*
X636776D01*
X635650Y362850D02*
X637000Y361500D01*
X615500Y362850D02*
X635650D01*
X627874Y407874D02*
X637000D01*
X621650Y401650D02*
X627874Y407874D01*
X615500Y401650D02*
X621650D01*
X628000Y400000D02*
X637000D01*
X623350Y395350D02*
X628000Y400000D01*
X615500Y395350D02*
X623350D01*
X608650Y362850D02*
X615500D01*
X607500Y364000D02*
X608650Y362850D01*
X598449Y364000D02*
X607500D01*
X615350Y369000D02*
X615500Y369150D01*
X598449Y369000D02*
X615350D01*
X609150Y395350D02*
X615500D01*
X608000Y396500D02*
X609150Y395350D01*
X598449Y396500D02*
X608000D01*
X615350Y401500D02*
X615500Y401650D01*
X598449Y401500D02*
X615350D01*
X579551D02*
X589000D01*
X591000Y406500D02*
X598449D01*
X589000Y404500D02*
X591000Y406500D01*
X589000Y401500D02*
Y404500D01*
X469650Y407850D02*
X475500D01*
X467555Y409945D02*
X469650Y407850D01*
X461417Y409945D02*
X467555D01*
X475406Y428055D02*
X475500Y428150D01*
X461417Y428055D02*
X475406D01*
X454000Y356000D02*
Y361850D01*
X473500Y351500D02*
X473926Y351926D01*
X482534D01*
X450263Y352237D02*
X463326D01*
X439156Y363344D02*
X450263Y352237D01*
X433890Y363344D02*
X439156D01*
X416240Y399421D02*
X432079D01*
X463637Y367863D01*
Y364426D02*
Y367863D01*
X538000Y373500D02*
X539890Y375390D01*
X545271D01*
X564390Y373890D02*
X579441D01*
X579551Y374000D01*
X563921Y373421D02*
X564390Y373890D01*
X545271Y373421D02*
X563921D01*
X545271Y371453D02*
X564547D01*
X545271Y377358D02*
X557508D01*
X533858D02*
X545271D01*
X532751Y376251D02*
X533858Y377358D01*
X564547Y371453D02*
X577000Y359000D01*
X579551D01*
X547043Y379327D02*
X555446D01*
X518551Y392850D02*
Y393299D01*
Y384543D02*
Y392299D01*
X518000Y392850D02*
X518551Y392299D01*
X568000Y391500D02*
X579551D01*
X554500Y405000D02*
X568000Y391500D01*
X537621Y405000D02*
X554500D01*
X480897Y371448D02*
X497000D01*
X530500Y376251D02*
X532751D01*
X526275Y381408D02*
Y384543D01*
X527584Y380098D02*
X529902D01*
X526275Y381408D02*
X527584Y380098D01*
X529902D02*
X530500Y379500D01*
Y376251D02*
Y379500D01*
X557508Y377358D02*
X560650Y380500D01*
X591500Y374000D02*
X598449D01*
X589500Y372000D02*
X591500Y374000D01*
X589500Y369500D02*
Y372000D01*
X586850Y424142D02*
Y431650D01*
X582000Y436500D02*
X586850Y431650D01*
X560150Y436500D02*
X582000D01*
X540054Y343796D02*
X540350Y343500D01*
X540054Y343796D02*
Y352457D01*
X518551Y392850D02*
X519000D01*
X511897D02*
X518000D01*
X513184Y363579D02*
X514957D01*
X506272D02*
X513184D01*
X412500Y384500D02*
Y389579D01*
X420079D02*
X426000Y395500D01*
X416240Y389579D02*
X420079D01*
X416240Y396240D02*
Y399421D01*
X414500Y394500D02*
X416240Y396240D01*
X403121Y394500D02*
X414500D01*
X399472Y398150D02*
X403121Y394500D01*
X387499Y398150D02*
X399472D01*
X416240Y389579D02*
Y392260D01*
X415500Y393000D02*
X416240Y392260D01*
X402500Y393000D02*
X415500D01*
X400500Y395000D02*
X402500Y393000D01*
X387499Y395000D02*
X400500D01*
X474603Y362570D02*
Y371350D01*
X468960Y356926D02*
X474603Y362570D01*
X463637Y356926D02*
X468960D01*
X518279Y348779D02*
Y352457D01*
X516426Y346926D02*
X518279Y348779D01*
X482534Y346926D02*
X516426D01*
X510051Y357551D02*
X513184D01*
X506926Y354426D02*
X510051Y357551D01*
X482534Y354426D02*
X506926D01*
X497000Y371448D02*
X503306D01*
X387499Y388701D02*
X388500D01*
X378299D02*
X387499D01*
X519918Y365547D02*
X524965Y360500D01*
X513184Y365547D02*
X519918D01*
X586209Y442500D02*
X586850Y441858D01*
X548500Y442500D02*
X586209D01*
X589000Y369000D02*
X589500Y369500D01*
X579551Y369000D02*
X589000D01*
X524306Y384543D02*
Y391685D01*
X537621Y405000D01*
X522338Y384543D02*
Y391838D01*
X537000Y406500D01*
X579551D01*
X433890Y334110D02*
Y341500D01*
X446650Y368150D02*
X454000D01*
X560650Y380500D02*
X566000D01*
X474426Y356926D02*
X482534D01*
X471926Y354426D02*
X474426Y356926D01*
X463637Y354426D02*
X471926D01*
X475500Y360000D02*
X477426Y361926D01*
X540000Y423500D02*
Y434000D01*
X548500Y442500D01*
X586850Y441858D02*
X618150D01*
X586850Y424142D02*
X618150D01*
X560000Y423500D02*
X560150Y423650D01*
Y436500D01*
X377657Y411535D02*
X379121Y413000D01*
X378299Y388701D02*
Y411177D01*
X505150Y399150D02*
X510397D01*
X518000D01*
X503306Y371448D02*
X504604Y370150D01*
X546650Y343500D02*
X553500D01*
X378299Y378823D02*
X378658Y378465D01*
X378299Y378823D02*
Y388701D01*
X490426Y356926D02*
X490500Y357000D01*
X482534Y356926D02*
X490426D01*
X463500Y383500D02*
X469500Y377500D01*
Y360500D02*
Y377500D01*
X468426Y359426D02*
X469500Y360500D01*
X463637Y359426D02*
X468426D01*
X555446Y379327D02*
X555623Y379150D01*
X522256Y376244D02*
X530493D01*
X520369Y378131D02*
X522256Y376244D01*
X520369Y378131D02*
Y384543D01*
X536000Y360500D02*
X538086Y358414D01*
X524965Y360500D02*
X536000D01*
X538086Y352457D02*
Y358414D01*
X559500Y423000D02*
X560000Y423500D01*
X540054Y391000D02*
Y391446D01*
Y384543D02*
Y391000D01*
X482534Y364426D02*
X490926D01*
X482845Y349737D02*
X494737D01*
X482534Y349426D02*
X482845Y349737D01*
X482534Y359115D02*
X483061Y359642D01*
X513184D01*
Y361610D02*
X520390D01*
X482534Y359115D02*
Y359426D01*
X482223Y354115D02*
X482534Y354426D01*
X521984Y367516D02*
X522000Y367500D01*
X514957Y367516D02*
X521984D01*
X427500Y352500D02*
X433890D01*
X477426Y361926D02*
X482534D01*
X463561Y361850D02*
X463637Y361926D01*
X454000Y361850D02*
X463561D01*
X412610Y349000D02*
X420110Y341500D01*
X402650Y349000D02*
X412610D01*
X416507Y356103D02*
X420110Y352500D01*
X402650Y356103D02*
X416507D01*
X402650Y363207D02*
X402786Y363344D01*
X420110D01*
X519000Y392850D02*
X519201Y393051D01*
D36*
X615500Y362850D02*
D03*
Y369150D02*
D03*
Y395350D02*
D03*
Y401650D02*
D03*
X473793Y371350D02*
D03*
Y377650D02*
D03*
D37*
X475500Y428150D02*
D03*
Y421850D02*
D03*
Y407850D02*
D03*
Y414150D02*
D03*
X454000Y368150D02*
D03*
Y361850D02*
D03*
X480897Y371448D02*
D03*
Y377747D02*
D03*
X488000Y371350D02*
D03*
Y377650D02*
D03*
X518000Y399150D02*
D03*
Y392850D02*
D03*
X510397Y399150D02*
D03*
Y392850D02*
D03*
X504604Y370150D02*
D03*
Y363850D02*
D03*
D38*
X598449Y391500D02*
D03*
Y396500D02*
D03*
Y401500D02*
D03*
Y406500D02*
D03*
X579551Y391500D02*
D03*
Y396500D02*
D03*
Y401500D02*
D03*
Y406500D02*
D03*
X598449Y359000D02*
D03*
Y364000D02*
D03*
Y369000D02*
D03*
Y374000D02*
D03*
X579551Y359000D02*
D03*
Y364000D02*
D03*
Y369000D02*
D03*
Y374000D02*
D03*
D39*
X438583Y419000D02*
D03*
D40*
X461417Y428055D02*
D03*
Y419000D02*
D03*
Y409945D02*
D03*
D41*
X408760Y389579D02*
D03*
X412500D02*
D03*
X416240D02*
D03*
Y399421D02*
D03*
X408760D02*
D03*
D42*
X420110Y341500D02*
D03*
X433890D02*
D03*
X420110Y352500D02*
D03*
X433890D02*
D03*
X420110Y363344D02*
D03*
X433890D02*
D03*
D43*
X618150Y441858D02*
D03*
Y424142D02*
D03*
X586850Y441858D02*
D03*
Y424142D02*
D03*
D44*
X546650Y343500D02*
D03*
X540350D02*
D03*
X560650Y380500D02*
D03*
X554350D02*
D03*
D45*
X377657Y378465D02*
D03*
Y411535D02*
D03*
D46*
X387499Y395000D02*
D03*
Y398150D02*
D03*
Y401299D02*
D03*
Y391850D02*
D03*
Y388701D02*
D03*
D47*
X482534Y346926D02*
D03*
Y349426D02*
D03*
Y351926D02*
D03*
Y354426D02*
D03*
Y356926D02*
D03*
Y359426D02*
D03*
Y361926D02*
D03*
Y364426D02*
D03*
X463637Y346926D02*
D03*
Y349426D02*
D03*
Y351926D02*
D03*
Y354426D02*
D03*
Y356926D02*
D03*
Y359426D02*
D03*
Y361926D02*
D03*
Y364426D02*
D03*
D48*
X402650Y363207D02*
D03*
X396350D02*
D03*
X402650Y356103D02*
D03*
X396350D02*
D03*
X402650Y349000D02*
D03*
X396350D02*
D03*
X560150Y436500D02*
D03*
X553850D02*
D03*
D49*
X518401Y384543D02*
D03*
X520369D02*
D03*
X522338D02*
D03*
X524306D02*
D03*
X526275D02*
D03*
X528243D02*
D03*
X530212D02*
D03*
X532180D02*
D03*
X534149D02*
D03*
X536117D02*
D03*
X538086D02*
D03*
X540054D02*
D03*
Y352457D02*
D03*
X538086D02*
D03*
X536117D02*
D03*
X534149D02*
D03*
X532180D02*
D03*
X530212D02*
D03*
X528243D02*
D03*
X526275D02*
D03*
X524306D02*
D03*
X522338D02*
D03*
X520369D02*
D03*
X518401D02*
D03*
D50*
X545271Y379327D02*
D03*
Y377358D02*
D03*
Y375390D02*
D03*
Y373421D02*
D03*
Y371453D02*
D03*
Y369484D02*
D03*
Y367516D02*
D03*
Y365547D02*
D03*
Y363579D02*
D03*
Y361610D02*
D03*
Y359642D02*
D03*
Y357673D02*
D03*
X513184D02*
D03*
Y359642D02*
D03*
Y361610D02*
D03*
Y363579D02*
D03*
Y365547D02*
D03*
Y367516D02*
D03*
Y369484D02*
D03*
Y371453D02*
D03*
Y373421D02*
D03*
Y375390D02*
D03*
Y377358D02*
D03*
Y379327D02*
D03*
D51*
X637000Y333374D02*
D03*
Y443874D02*
D03*
Y369374D02*
D03*
Y407874D02*
D03*
D52*
Y325500D02*
D03*
Y436000D02*
D03*
Y361500D02*
D03*
Y400000D02*
D03*
D53*
X380000Y330000D02*
D03*
X379500Y456000D02*
D03*
X616500D02*
D03*
X615000Y330000D02*
D03*
X570000Y423500D02*
D03*
X560000D02*
D03*
X550000D02*
D03*
X540000D02*
D03*
X530000D02*
D03*
D54*
X520000D02*
D03*
D55*
X451000Y418500D02*
D03*
X473500Y351500D02*
D03*
X454000Y356000D02*
D03*
X589000Y401500D02*
D03*
X538000Y373500D02*
D03*
X412500Y384500D02*
D03*
X426000Y395500D02*
D03*
X589500Y369500D02*
D03*
X566000Y380500D02*
D03*
X434000Y334000D02*
D03*
X446500Y368000D02*
D03*
X475500Y360000D02*
D03*
X463500Y383500D02*
D03*
X505150Y399150D02*
D03*
X497000Y371448D02*
D03*
X553500Y343500D02*
D03*
X378299Y388701D02*
D03*
X490426Y356926D02*
D03*
X530500Y376251D02*
D03*
X538086Y358414D02*
D03*
X540054Y391000D02*
D03*
X490926Y364426D02*
D03*
X494737Y349737D02*
D03*
X520390Y361610D02*
D03*
X522000Y367500D02*
D03*
X427500Y352500D02*
D03*
M02*
