G04*
G04 #@! TF.GenerationSoftware,Altium Limited,Altium Designer,18.1.6 (161)*
G04*
G04 Layer_Color=8388736*
%FSLAX25Y25*%
%MOIN*%
G70*
G01*
G75*
%ADD16R,0.04737X0.04934*%
%ADD17R,0.04540X0.04737*%
%ADD18O,0.09461X0.03162*%
%ADD19R,0.10249X0.13398*%
%ADD20R,0.10249X0.04737*%
%ADD21R,0.03162X0.05131*%
%ADD22R,0.06706X0.06706*%
%ADD23R,0.06922X0.05918*%
%ADD24R,0.04737X0.04540*%
%ADD25R,0.15761X0.10642*%
%ADD26R,0.08674X0.02769*%
%ADD27O,0.09461X0.02178*%
%ADD28R,0.04934X0.04737*%
%ADD29O,0.01981X0.07690*%
%ADD30O,0.07690X0.01981*%
%ADD31O,0.08300X0.06300*%
%ADD32R,0.08300X0.06300*%
%ADD33C,0.06800*%
%ADD34R,0.06800X0.06800*%
%ADD35C,0.03300*%
D16*
X615500Y362850D02*
D03*
Y369150D02*
D03*
Y395350D02*
D03*
Y401650D02*
D03*
X473793Y371350D02*
D03*
Y377650D02*
D03*
D17*
X475500Y428150D02*
D03*
Y421850D02*
D03*
Y407850D02*
D03*
Y414150D02*
D03*
X454000Y368150D02*
D03*
Y361850D02*
D03*
X480897Y371448D02*
D03*
Y377747D02*
D03*
X488000Y371350D02*
D03*
Y377650D02*
D03*
X518000Y399150D02*
D03*
Y392850D02*
D03*
X510397Y399150D02*
D03*
Y392850D02*
D03*
X504604Y370150D02*
D03*
Y363850D02*
D03*
D18*
X598449Y391500D02*
D03*
Y396500D02*
D03*
Y401500D02*
D03*
Y406500D02*
D03*
X579551Y391500D02*
D03*
Y396500D02*
D03*
Y401500D02*
D03*
Y406500D02*
D03*
X598449Y359000D02*
D03*
Y364000D02*
D03*
Y369000D02*
D03*
Y374000D02*
D03*
X579551Y359000D02*
D03*
Y364000D02*
D03*
Y369000D02*
D03*
Y374000D02*
D03*
D19*
X438583Y419000D02*
D03*
D20*
X461417Y428055D02*
D03*
Y419000D02*
D03*
Y409945D02*
D03*
D21*
X408760Y389579D02*
D03*
X412500D02*
D03*
X416240D02*
D03*
Y399421D02*
D03*
X408760D02*
D03*
D22*
X420110Y341500D02*
D03*
X433890D02*
D03*
X420110Y352500D02*
D03*
X433890D02*
D03*
X420110Y363344D02*
D03*
X433890D02*
D03*
D23*
X618150Y441858D02*
D03*
Y424142D02*
D03*
X586850Y441858D02*
D03*
Y424142D02*
D03*
D24*
X546650Y343500D02*
D03*
X540350D02*
D03*
X560650Y380500D02*
D03*
X554350D02*
D03*
D25*
X377657Y378465D02*
D03*
Y411535D02*
D03*
D26*
X387499Y395000D02*
D03*
Y398150D02*
D03*
Y401299D02*
D03*
Y391850D02*
D03*
Y388701D02*
D03*
D27*
X482534Y346926D02*
D03*
Y349426D02*
D03*
Y351926D02*
D03*
Y354426D02*
D03*
Y356926D02*
D03*
Y359426D02*
D03*
Y361926D02*
D03*
Y364426D02*
D03*
X463637Y346926D02*
D03*
Y349426D02*
D03*
Y351926D02*
D03*
Y354426D02*
D03*
Y356926D02*
D03*
Y359426D02*
D03*
Y361926D02*
D03*
Y364426D02*
D03*
D28*
X402650Y363207D02*
D03*
X396350D02*
D03*
X402650Y356103D02*
D03*
X396350D02*
D03*
X402650Y349000D02*
D03*
X396350D02*
D03*
X560150Y436500D02*
D03*
X553850D02*
D03*
D29*
X518401Y384543D02*
D03*
X520369D02*
D03*
X522338D02*
D03*
X524306D02*
D03*
X526275D02*
D03*
X528243D02*
D03*
X530212D02*
D03*
X532180D02*
D03*
X534149D02*
D03*
X536117D02*
D03*
X538086D02*
D03*
X540054D02*
D03*
Y352457D02*
D03*
X538086D02*
D03*
X536117D02*
D03*
X534149D02*
D03*
X532180D02*
D03*
X530212D02*
D03*
X528243D02*
D03*
X526275D02*
D03*
X524306D02*
D03*
X522338D02*
D03*
X520369D02*
D03*
X518401D02*
D03*
D30*
X545271Y379327D02*
D03*
Y377358D02*
D03*
Y375390D02*
D03*
Y373421D02*
D03*
Y371453D02*
D03*
Y369484D02*
D03*
Y367516D02*
D03*
Y365547D02*
D03*
Y363579D02*
D03*
Y361610D02*
D03*
Y359642D02*
D03*
Y357673D02*
D03*
X513184D02*
D03*
Y359642D02*
D03*
Y361610D02*
D03*
Y363579D02*
D03*
Y365547D02*
D03*
Y367516D02*
D03*
Y369484D02*
D03*
Y371453D02*
D03*
Y373421D02*
D03*
Y375390D02*
D03*
Y377358D02*
D03*
Y379327D02*
D03*
D31*
X637000Y333374D02*
D03*
Y443874D02*
D03*
Y369374D02*
D03*
Y407874D02*
D03*
D32*
Y325500D02*
D03*
Y436000D02*
D03*
Y361500D02*
D03*
Y400000D02*
D03*
D33*
X380000Y330000D02*
D03*
X379500Y456000D02*
D03*
X616500D02*
D03*
X615000Y330000D02*
D03*
X570000Y423500D02*
D03*
X560000D02*
D03*
X550000D02*
D03*
X540000D02*
D03*
X530000D02*
D03*
D34*
X520000D02*
D03*
D35*
X451000Y418500D02*
D03*
X538000Y373500D02*
D03*
M02*
