M48
;Layer_Color=9474304
;FILE_FORMAT=2:5
INCH,LZ
;TYPE=PLATED
T1F00S00C0.01500
T2F00S00C0.03150
T3F00S00C0.03937
T4F00S00C0.12500
%
T01
X0378299Y0388701
X04125Y03845
X0426Y03955
X04275Y03525
X0434Y0334
X0454Y0356
X04465Y0368
X04635Y03835
X0451Y04185
X050515Y039915
X0497Y0371448
X0490926Y0364426
X0490426Y0356926
X0494737Y0349737
X04735Y03515
X04755Y036
X052039Y036161
X0522Y03675
X05305Y0376251
X0538Y03735
X0538086Y0358414
X05535Y03435
X0566Y03805
X05895Y03695
X0589Y04015
X0540054Y0391
T02
X0637Y03255
Y0333374
Y03615
Y0369374
Y04
Y0407874
Y0436
Y0443874
T03
X052Y04235
X053
X054
X055
X056
X057
T04
X038Y033
X03795Y0456
X06165
X0615Y033
M30
