G04*
G04 #@! TF.GenerationSoftware,Altium Limited,Altium Designer,18.1.6 (161)*
G04*
G04 Layer_Color=65535*
%FSLAX25Y25*%
%MOIN*%
G70*
G01*
G75*
%ADD10C,0.02362*%
%ADD11C,0.00984*%
%ADD12C,0.00500*%
%ADD13C,0.00787*%
%ADD14C,0.01000*%
%ADD15C,0.00700*%
D10*
X586244Y404906D02*
G03*
X586244Y404906I-1181J0D01*
G01*
Y372406D02*
G03*
X586244Y372406I-1181J0D01*
G01*
X521000Y413500D02*
G03*
X521000Y413500I-1000J0D01*
G01*
X523322Y375587D02*
G03*
X523322Y375587I-1181J0D01*
G01*
D11*
X580043Y409846D02*
G03*
X580043Y409846I-492J0D01*
G01*
X461909Y405811D02*
G03*
X461909Y405811I-492J0D01*
G01*
X405905Y389579D02*
G03*
X405905Y389579I-492J0D01*
G01*
X580043Y377346D02*
G03*
X580043Y377346I-492J0D01*
G01*
X483027Y344072D02*
G03*
X483027Y344072I-492J0D01*
G01*
X513676Y382083D02*
G03*
X513676Y382083I-492J0D01*
G01*
D12*
X636917Y314000D02*
X664500D01*
X629500D02*
X636917D01*
X637291Y344500D02*
X664500D01*
Y314000D02*
Y344500D01*
X629500Y314000D02*
Y322000D01*
X631291D01*
Y327173D01*
Y331701D01*
Y337000D01*
X629500D02*
X631291D01*
X629500D02*
Y344500D01*
X637291D01*
X636917Y424500D02*
X664500D01*
X629500D02*
X636917D01*
X637291Y455000D02*
X664500D01*
Y424500D02*
Y455000D01*
X629500Y424500D02*
Y432500D01*
X631291D01*
Y437673D01*
Y442201D01*
Y447500D01*
X629500D02*
X631291D01*
X629500D02*
Y455000D01*
X637291D01*
X636917Y350000D02*
X664500D01*
X629500D02*
X636917D01*
X637291Y380500D02*
X664500D01*
Y350000D02*
Y380500D01*
X629500Y350000D02*
Y358000D01*
X631291D01*
Y363173D01*
Y367701D01*
Y373000D01*
X629500D02*
X631291D01*
X629500D02*
Y380500D01*
X637291D01*
X636917Y388500D02*
X664500D01*
X629500D02*
X636917D01*
X637291Y419000D02*
X664500D01*
Y388500D02*
Y419000D01*
X629500Y388500D02*
Y396500D01*
X631291D01*
Y401673D01*
Y406201D01*
Y411500D01*
X629500D02*
X631291D01*
X629500D02*
Y419000D01*
X637291D01*
X406791Y392925D02*
Y396075D01*
X418209Y392925D02*
Y396075D01*
X406791Y392925D02*
X418209D01*
X406791Y396075D02*
X418209D01*
D13*
X581126Y389158D02*
X596874D01*
X581126Y408843D02*
X596874D01*
Y389158D02*
Y408843D01*
X581126Y389158D02*
Y408843D01*
X444488Y432189D02*
X455512D01*
X444488Y405811D02*
X455512D01*
X444488D02*
Y432189D01*
X455512Y405811D02*
Y432189D01*
X430937Y346028D02*
X437630D01*
X437630Y336972D02*
X439598Y338547D01*
X437630Y346028D02*
X439598Y344453D01*
X430937Y336972D02*
X437630D01*
X439598Y338547D02*
Y344453D01*
X415583Y336972D02*
Y346028D01*
X423063D01*
X415583Y336972D02*
X423063D01*
X430937Y357028D02*
X437630D01*
X437630Y347972D02*
X439598Y349547D01*
X437630Y357028D02*
X439598Y355453D01*
X430937Y347972D02*
X437630D01*
X439598Y349547D02*
Y355453D01*
X415583Y347972D02*
Y357028D01*
X423063D01*
X415583Y347972D02*
X423063D01*
X430937Y367871D02*
X437630D01*
X437630Y358816D02*
X439598Y360391D01*
X437630Y367871D02*
X439598Y366296D01*
X430937Y358816D02*
X437630D01*
X439598Y360391D02*
Y366296D01*
X415583Y358816D02*
Y367871D01*
X423063D01*
X415583Y358816D02*
X423063D01*
X581126Y356658D02*
X596874D01*
X581126Y376343D02*
X596874D01*
Y356658D02*
Y376343D01*
X581126Y356658D02*
Y376343D01*
X476629Y345834D02*
Y365519D01*
X469542Y345834D02*
Y365519D01*
Y345834D02*
X476629D01*
X469542Y365519D02*
X476629D01*
X518204Y357476D02*
X540251D01*
X518204Y379524D02*
X540251D01*
Y357476D02*
Y379524D01*
X518204Y357476D02*
Y379524D01*
D14*
X592658Y423158D02*
Y442842D01*
Y423158D02*
X612343D01*
Y442842D01*
X592658D02*
X612343D01*
X387991Y403858D02*
Y413209D01*
X386515D02*
X387991D01*
X386515Y376791D02*
X387991D01*
Y386142D01*
X365353Y413209D02*
X368798D01*
X365353Y376791D02*
X368798D01*
X515000Y418500D02*
X575000D01*
Y428500D01*
X515000D02*
X575000D01*
X515000Y418500D02*
Y428500D01*
X470000Y318000D02*
Y323998D01*
X471999Y321999D01*
X473999Y323998D01*
Y318000D01*
X476998Y321999D02*
X478997D01*
X479997Y320999D01*
Y318000D01*
X476998D01*
X475998Y319000D01*
X476998Y319999D01*
X479997D01*
X485995Y321999D02*
X482996D01*
X481996Y320999D01*
Y319000D01*
X482996Y318000D01*
X485995D01*
X487994Y323998D02*
Y318000D01*
Y320999D01*
X488994Y321999D01*
X490993D01*
X491993Y320999D01*
Y318000D01*
X493992D02*
X495992D01*
X494992D01*
Y321999D01*
X493992D01*
X498991Y318000D02*
Y321999D01*
X501990D01*
X502989Y320999D01*
Y318000D01*
X507988D02*
X505988D01*
X504989Y319000D01*
Y320999D01*
X505988Y321999D01*
X507988D01*
X508987Y320999D01*
Y319999D01*
X504989D01*
X516985Y323998D02*
X518984D01*
X517984D01*
Y318000D01*
X516985D01*
X518984D01*
X521983D02*
Y321999D01*
X524982D01*
X525982Y320999D01*
Y318000D01*
X528981Y322998D02*
Y321999D01*
X527981D01*
X529981D01*
X528981D01*
Y319000D01*
X529981Y318000D01*
X535979D02*
X533979D01*
X532980Y319000D01*
Y320999D01*
X533979Y321999D01*
X535979D01*
X536978Y320999D01*
Y319999D01*
X532980D01*
X538978Y318000D02*
X540977D01*
X539977D01*
Y323998D01*
X538978D01*
X543976Y318000D02*
X545975D01*
X544976D01*
Y323998D01*
X543976D01*
X548974Y318000D02*
X550974D01*
X549974D01*
Y321999D01*
X548974D01*
X555972Y316001D02*
X556972D01*
X557971Y317000D01*
Y321999D01*
X554973D01*
X553973Y320999D01*
Y319000D01*
X554973Y318000D01*
X557971D01*
X562970D02*
X560971D01*
X559971Y319000D01*
Y320999D01*
X560971Y321999D01*
X562970D01*
X563970Y320999D01*
Y319999D01*
X559971D01*
X565969Y318000D02*
Y321999D01*
X568968D01*
X569968Y320999D01*
Y318000D01*
X575966Y321999D02*
X572967D01*
X571967Y320999D01*
Y319000D01*
X572967Y318000D01*
X575966D01*
X580964D02*
X578965D01*
X577965Y319000D01*
Y320999D01*
X578965Y321999D01*
X580964D01*
X581964Y320999D01*
Y319999D01*
X577965D01*
X589961Y323998D02*
Y318000D01*
X593960D01*
X596959Y321999D02*
X598958D01*
X599958Y320999D01*
Y318000D01*
X596959D01*
X595959Y319000D01*
X596959Y319999D01*
X599958D01*
X601957Y323998D02*
Y318000D01*
X604956D01*
X605956Y319000D01*
Y319999D01*
Y320999D01*
X604956Y321999D01*
X601957D01*
X575150Y419848D02*
Y414850D01*
X576150Y413850D01*
X578149D01*
X579149Y414850D01*
Y419848D01*
X585147Y413850D02*
X581148D01*
X585147Y417849D01*
Y418848D01*
X584147Y419848D01*
X582148D01*
X581148Y418848D01*
X618500Y375000D02*
X612502D01*
Y377999D01*
X613502Y378999D01*
X615501D01*
X616501Y377999D01*
Y375000D01*
Y376999D02*
X618500Y378999D01*
Y380998D02*
Y382997D01*
Y381998D01*
X612502D01*
X613502Y380998D01*
Y385996D02*
X612502Y386996D01*
Y388996D01*
X613502Y389995D01*
X617500D01*
X618500Y388996D01*
Y386996D01*
X617500Y385996D01*
X613502D01*
X618500Y406500D02*
X612502D01*
Y409499D01*
X613502Y410499D01*
X615501D01*
X616501Y409499D01*
Y406500D01*
Y408499D02*
X618500Y410499D01*
X617500Y412498D02*
X618500Y413498D01*
Y415497D01*
X617500Y416497D01*
X613502D01*
X612502Y415497D01*
Y413498D01*
X613502Y412498D01*
X614501D01*
X615501Y413498D01*
Y416497D01*
X636499Y461998D02*
X635499Y462998D01*
X633500D01*
X632500Y461998D01*
Y458000D01*
X633500Y457000D01*
X635499D01*
X636499Y458000D01*
X638498Y457000D02*
Y460999D01*
X640497Y462998D01*
X642497Y460999D01*
Y457000D01*
Y459999D01*
X638498D01*
X644496Y457000D02*
Y462998D01*
X648495Y457000D01*
Y462998D01*
X650494D02*
Y457000D01*
X653493D01*
X654493Y458000D01*
Y458999D01*
X653493Y459999D01*
X650494D01*
X653493D01*
X654493Y460999D01*
Y461998D01*
X653493Y462998D01*
X650494D01*
X635999Y310498D02*
X634999Y311498D01*
X633000D01*
X632000Y310498D01*
Y306500D01*
X633000Y305500D01*
X634999D01*
X635999Y306500D01*
X637998Y305500D02*
Y309499D01*
X639997Y311498D01*
X641997Y309499D01*
Y305500D01*
Y308499D01*
X637998D01*
X643996Y305500D02*
Y311498D01*
X647995Y305500D01*
Y311498D01*
X649994Y305500D02*
Y309499D01*
X651994Y311498D01*
X653993Y309499D01*
Y305500D01*
Y308499D01*
X649994D01*
X482002Y423499D02*
X481002Y422499D01*
Y420500D01*
X482002Y419500D01*
X486000D01*
X487000Y420500D01*
Y422499D01*
X486000Y423499D01*
X487000Y425498D02*
Y427497D01*
Y426498D01*
X481002D01*
X482002Y425498D01*
X487000Y434495D02*
Y430496D01*
X483001Y434495D01*
X482002D01*
X481002Y433496D01*
Y431496D01*
X482002Y430496D01*
X482502Y406999D02*
X481502Y405999D01*
Y404000D01*
X482502Y403000D01*
X486500D01*
X487500Y404000D01*
Y405999D01*
X486500Y406999D01*
X487500Y408998D02*
Y410997D01*
Y409998D01*
X481502D01*
X482502Y408998D01*
X487500Y413996D02*
Y415996D01*
Y414996D01*
X481502D01*
X482502Y413996D01*
X382500Y345500D02*
Y351498D01*
X385499D01*
X386499Y350498D01*
Y348499D01*
X385499Y347499D01*
X382500D01*
X384499D02*
X386499Y345500D01*
X388498D02*
X390497D01*
X389498D01*
Y351498D01*
X388498Y350498D01*
X468000Y342998D02*
Y338000D01*
X469000Y337000D01*
X470999D01*
X471999Y338000D01*
Y342998D01*
X477997D02*
X473998D01*
Y339999D01*
X475997Y340999D01*
X476997D01*
X477997Y339999D01*
Y338000D01*
X476997Y337000D01*
X474998D01*
X473998Y338000D01*
X584500Y352998D02*
Y348000D01*
X585500Y347000D01*
X587499D01*
X588499Y348000D01*
Y352998D01*
X593497Y347000D02*
Y352998D01*
X590498Y349999D01*
X594497D01*
X416000Y421998D02*
Y417000D01*
X417000Y416000D01*
X418999D01*
X419999Y417000D01*
Y421998D01*
X421998Y420998D02*
X422998Y421998D01*
X424997D01*
X425997Y420998D01*
Y419999D01*
X424997Y418999D01*
X423997D01*
X424997D01*
X425997Y417999D01*
Y417000D01*
X424997Y416000D01*
X422998D01*
X421998Y417000D01*
X551500Y359998D02*
Y355000D01*
X552500Y354000D01*
X554499D01*
X555499Y355000D01*
Y359998D01*
X561497Y354000D02*
X557498D01*
X561497Y357999D01*
Y358998D01*
X560497Y359998D01*
X558498D01*
X557498Y358998D01*
X598499Y453498D02*
X597499Y454498D01*
X595500D01*
X594500Y453498D01*
Y452499D01*
X595500Y451499D01*
X597499D01*
X598499Y450499D01*
Y449500D01*
X597499Y448500D01*
X595500D01*
X594500Y449500D01*
X604497Y448500D02*
X600498D01*
X604497Y452499D01*
Y453498D01*
X603497Y454498D01*
X601498D01*
X600498Y453498D01*
X382500Y363500D02*
Y369498D01*
X385499D01*
X386499Y368498D01*
Y366499D01*
X385499Y365499D01*
X382500D01*
X384499D02*
X386499Y363500D01*
X391497D02*
Y369498D01*
X388498Y366499D01*
X392497D01*
X382500Y354000D02*
Y359998D01*
X385499D01*
X386499Y358998D01*
Y356999D01*
X385499Y355999D01*
X382500D01*
X384499D02*
X386499Y354000D01*
X388498Y358998D02*
X389498Y359998D01*
X391497D01*
X392497Y358998D01*
Y357999D01*
X391497Y356999D01*
X390497D01*
X391497D01*
X392497Y355999D01*
Y355000D01*
X391497Y354000D01*
X389498D01*
X388498Y355000D01*
X553000Y442000D02*
Y447998D01*
X555999D01*
X556999Y446998D01*
Y444999D01*
X555999Y443999D01*
X553000D01*
X554999D02*
X556999Y442000D01*
X562997D02*
X558998D01*
X562997Y445999D01*
Y446998D01*
X561997Y447998D01*
X559998D01*
X558998Y446998D01*
X509500Y418500D02*
X503502D01*
Y421499D01*
X504502Y422499D01*
X506501D01*
X507501Y421499D01*
Y418500D01*
X509500Y428497D02*
Y424498D01*
X505501Y428497D01*
X504502D01*
X503502Y427497D01*
Y425498D01*
X504502Y424498D01*
X364999Y419500D02*
Y425498D01*
X367998D01*
X368998Y424498D01*
Y422499D01*
X367998Y421499D01*
X364999D01*
X370997Y419500D02*
X372996D01*
X371997D01*
Y425498D01*
X370997Y424498D01*
X473498Y393001D02*
Y397000D01*
X470499D01*
Y395001D01*
Y397000D01*
X467500D01*
X473498Y391002D02*
X467500D01*
Y388003D01*
X468500Y387003D01*
X469499D01*
X470499Y388003D01*
Y391002D01*
Y388003D01*
X471499Y387003D01*
X472498D01*
X473498Y388003D01*
Y391002D01*
X467500Y385004D02*
Y383004D01*
Y384004D01*
X473498D01*
X472498Y385004D01*
X442000Y355998D02*
Y350000D01*
X444999D01*
X445999Y351000D01*
Y354998D01*
X444999Y355998D01*
X442000D01*
X450997Y350000D02*
Y355998D01*
X447998Y352999D01*
X451997D01*
X416000Y375498D02*
Y369500D01*
X418999D01*
X419999Y370500D01*
Y374498D01*
X418999Y375498D01*
X416000D01*
X421998Y374498D02*
X422998Y375498D01*
X424997D01*
X425997Y374498D01*
Y373499D01*
X424997Y372499D01*
X423997D01*
X424997D01*
X425997Y371499D01*
Y370500D01*
X424997Y369500D01*
X422998D01*
X421998Y370500D01*
X442000Y345998D02*
Y340000D01*
X444999D01*
X445999Y341000D01*
Y344998D01*
X444999Y345998D01*
X442000D01*
X451997Y340000D02*
X447998D01*
X451997Y343999D01*
Y344998D01*
X450997Y345998D01*
X448998D01*
X447998Y344998D01*
X395502Y391500D02*
X401500D01*
Y394499D01*
X400500Y395499D01*
X396502D01*
X395502Y394499D01*
Y391500D01*
X401500Y397498D02*
Y399497D01*
Y398498D01*
X395502D01*
X396502Y397498D01*
X554499Y390998D02*
X553499Y391998D01*
X551500D01*
X550500Y390998D01*
Y387000D01*
X551500Y386000D01*
X553499D01*
X554499Y387000D01*
X556498Y386000D02*
X558497D01*
X557498D01*
Y391998D01*
X556498Y390998D01*
X561496D02*
X562496Y391998D01*
X564496D01*
X565495Y390998D01*
Y387000D01*
X564496Y386000D01*
X562496D01*
X561496Y387000D01*
Y390998D01*
X542499Y337998D02*
X541499Y338998D01*
X539500D01*
X538500Y337998D01*
Y334000D01*
X539500Y333000D01*
X541499D01*
X542499Y334000D01*
X544498D02*
X545498Y333000D01*
X547497D01*
X548497Y334000D01*
Y337998D01*
X547497Y338998D01*
X545498D01*
X544498Y337998D01*
Y336999D01*
X545498Y335999D01*
X548497D01*
X503498Y380501D02*
X504498Y381501D01*
Y383500D01*
X503498Y384500D01*
X499500D01*
X498500Y383500D01*
Y381501D01*
X499500Y380501D01*
X503498Y378502D02*
X504498Y377502D01*
Y375503D01*
X503498Y374503D01*
X502499D01*
X501499Y375503D01*
X500499Y374503D01*
X499500D01*
X498500Y375503D01*
Y377502D01*
X499500Y378502D01*
X500499D01*
X501499Y377502D01*
X502499Y378502D01*
X503498D01*
X501499Y377502D02*
Y375503D01*
X508499Y408498D02*
X507499Y409498D01*
X505500D01*
X504500Y408498D01*
Y404500D01*
X505500Y403500D01*
X507499D01*
X508499Y404500D01*
X510498Y409498D02*
X514497D01*
Y408498D01*
X510498Y404500D01*
Y403500D01*
X520999Y408498D02*
X519999Y409498D01*
X518000D01*
X517000Y408498D01*
Y404500D01*
X518000Y403500D01*
X519999D01*
X520999Y404500D01*
X526997Y409498D02*
X524997Y408498D01*
X522998Y406499D01*
Y404500D01*
X523998Y403500D01*
X525997D01*
X526997Y404500D01*
Y405499D01*
X525997Y406499D01*
X522998D01*
X454499Y376998D02*
X453499Y377998D01*
X451500D01*
X450500Y376998D01*
Y373000D01*
X451500Y372000D01*
X453499D01*
X454499Y373000D01*
X460497Y377998D02*
X456498D01*
Y374999D01*
X458497Y375999D01*
X459497D01*
X460497Y374999D01*
Y373000D01*
X459497Y372000D01*
X457498D01*
X456498Y373000D01*
X491998Y389501D02*
X492998Y390501D01*
Y392500D01*
X491998Y393500D01*
X488000D01*
X487000Y392500D01*
Y390501D01*
X488000Y389501D01*
X487000Y384503D02*
X492998D01*
X489999Y387502D01*
Y383503D01*
X482498Y389501D02*
X483498Y390501D01*
Y392500D01*
X482498Y393500D01*
X478500D01*
X477500Y392500D01*
Y390501D01*
X478500Y389501D01*
X482498Y387502D02*
X483498Y386502D01*
Y384503D01*
X482498Y383503D01*
X481499D01*
X480499Y384503D01*
Y385503D01*
Y384503D01*
X479499Y383503D01*
X478500D01*
X477500Y384503D01*
Y386502D01*
X478500Y387502D01*
D15*
X406866Y462322D02*
X406199Y462989D01*
X404866D01*
X404200Y462322D01*
Y459656D01*
X404866Y458990D01*
X406199D01*
X406866Y459656D01*
X408199Y458990D02*
Y461656D01*
X409532Y462989D01*
X410864Y461656D01*
Y458990D01*
Y460989D01*
X408199D01*
X412197Y458990D02*
Y462989D01*
X414863Y458990D01*
Y462989D01*
X416196Y460989D02*
X418862D01*
X420195Y462989D02*
Y459656D01*
X420861Y458990D01*
X422194D01*
X422861Y459656D01*
Y462989D01*
X426859Y462322D02*
X426193Y462989D01*
X424860D01*
X424193Y462322D01*
Y461656D01*
X424860Y460989D01*
X426193D01*
X426859Y460323D01*
Y459656D01*
X426193Y458990D01*
X424860D01*
X424193Y459656D01*
X428192Y462989D02*
Y458990D01*
X430192D01*
X430858Y459656D01*
Y460323D01*
X430192Y460989D01*
X428192D01*
X430192D01*
X430858Y461656D01*
Y462322D01*
X430192Y462989D01*
X428192D01*
X436190D02*
Y458990D01*
X438189D01*
X438856Y459656D01*
Y460323D01*
X438189Y460989D01*
X436190D01*
X438189D01*
X438856Y461656D01*
Y462322D01*
X438189Y462989D01*
X436190D01*
X440855Y458990D02*
X442188D01*
X442854Y459656D01*
Y460989D01*
X442188Y461656D01*
X440855D01*
X440188Y460989D01*
Y459656D01*
X440855Y458990D01*
X444853Y461656D02*
X446186D01*
X446853Y460989D01*
Y458990D01*
X444853D01*
X444187Y459656D01*
X444853Y460323D01*
X446853D01*
X448186Y461656D02*
Y458990D01*
Y460323D01*
X448852Y460989D01*
X449519Y461656D01*
X450185D01*
X454850Y462989D02*
Y458990D01*
X452851D01*
X452184Y459656D01*
Y460989D01*
X452851Y461656D01*
X454850D01*
X460182D02*
Y458990D01*
Y460323D01*
X460848Y460989D01*
X461515Y461656D01*
X462181D01*
X464181Y458990D02*
X465514D01*
X464847D01*
Y462989D01*
X464181Y462322D01*
X467513Y460989D02*
X470179D01*
X474177Y462322D02*
X473511Y462989D01*
X472178D01*
X471512Y462322D01*
Y461656D01*
X472178Y460989D01*
X473511D01*
X474177Y460323D01*
Y459656D01*
X473511Y458990D01*
X472178D01*
X471512Y459656D01*
X475510Y462989D02*
X478176D01*
X476843D01*
Y458990D01*
X479509D02*
Y462989D01*
X480842Y461656D01*
X482175Y462989D01*
Y458990D01*
X404200Y452511D02*
Y456510D01*
X405533Y455177D01*
X406866Y456510D01*
Y452511D01*
X408865Y455177D02*
X410198D01*
X410864Y454511D01*
Y452511D01*
X408865D01*
X408199Y453178D01*
X408865Y453844D01*
X410864D01*
X412197Y455177D02*
Y452511D01*
Y453844D01*
X412864Y454511D01*
X413530Y455177D01*
X414197D01*
X418862Y451178D02*
Y455177D01*
X416863D01*
X416196Y454511D01*
Y453178D01*
X416863Y452511D01*
X418862D01*
X420195Y455177D02*
Y453178D01*
X420861Y452511D01*
X422861D01*
Y455177D01*
X426193Y452511D02*
X424860D01*
X424193Y453178D01*
Y454511D01*
X424860Y455177D01*
X426193D01*
X426859Y454511D01*
Y453844D01*
X424193D01*
X428192Y455177D02*
X430858D01*
X428192Y452511D01*
X430858D01*
X438856Y456510D02*
X437523D01*
X438189D01*
Y453178D01*
X437523Y452511D01*
X436856D01*
X436190Y453178D01*
X440855Y452511D02*
X442188D01*
X442854Y453178D01*
Y454511D01*
X442188Y455177D01*
X440855D01*
X440188Y454511D01*
Y453178D01*
X440855Y452511D01*
X444187D02*
Y455177D01*
X446186D01*
X446853Y454511D01*
Y452511D01*
X450185D02*
X448852D01*
X448186Y453178D01*
Y454511D01*
X448852Y455177D01*
X450185D01*
X450852Y454511D01*
Y453844D01*
X448186D01*
X452184Y452511D02*
X454184D01*
X454850Y453178D01*
X454184Y453844D01*
X452851D01*
X452184Y454511D01*
X452851Y455177D01*
X454850D01*
X404200Y444700D02*
Y448699D01*
X406199D01*
X406866Y448032D01*
Y446699D01*
X406199Y446033D01*
X404200D01*
X405533D02*
X406866Y444700D01*
X408865D02*
X410198D01*
X410864Y445366D01*
Y446699D01*
X410198Y447366D01*
X408865D01*
X408199Y446699D01*
Y445366D01*
X408865Y444700D01*
X412197D02*
X414197D01*
X414863Y445366D01*
X414197Y446033D01*
X412864D01*
X412197Y446699D01*
X412864Y447366D01*
X414863D01*
X418195Y444700D02*
X416863D01*
X416196Y445366D01*
Y446699D01*
X416863Y447366D01*
X418195D01*
X418862Y446699D01*
Y446033D01*
X416196D01*
X420195Y444700D02*
Y447366D01*
X420861D01*
X421528Y446699D01*
Y444700D01*
Y446699D01*
X422194Y447366D01*
X422861Y446699D01*
Y444700D01*
X424860D02*
X426193D01*
X426859Y445366D01*
Y446699D01*
X426193Y447366D01*
X424860D01*
X424193Y446699D01*
Y445366D01*
X424860Y444700D01*
X428192D02*
Y447366D01*
X430192D01*
X430858Y446699D01*
Y444700D01*
X434857Y448699D02*
Y444700D01*
X432857D01*
X432191Y445366D01*
Y446699D01*
X432857Y447366D01*
X434857D01*
X442854Y448699D02*
X440188D01*
Y446699D01*
X441521D01*
X440188D01*
Y444700D01*
X444853Y447366D02*
X446186D01*
X446853Y446699D01*
Y444700D01*
X444853D01*
X444187Y445366D01*
X444853Y446033D01*
X446853D01*
X448186Y448699D02*
Y444700D01*
X450185D01*
X450852Y445366D01*
Y446033D01*
Y446699D01*
X450185Y447366D01*
X448186D01*
X452184Y444700D02*
X453517D01*
X452851D01*
Y447366D01*
X452184D01*
X457516Y444700D02*
X456183D01*
X455517Y445366D01*
Y446699D01*
X456183Y447366D01*
X457516D01*
X458183Y446699D01*
Y446033D01*
X455517D01*
X459515Y444700D02*
Y447366D01*
X461515D01*
X462181Y446699D01*
Y444700D01*
M02*
